<svg xmlns="http://www.w3.org/2000/svg" width="361.377" height="328.714" viewBox="0 0 361.377 328.714">
  <g id="Grupo_1020149" data-name="Grupo 1020149" transform="translate(-1024.075 -7367)">
    <path id="Trazado_751318" data-name="Trazado 751318" d="M12.949,21H9.541L4.5,12.152V21H1.074V6.781H4.5l5.029,8.848V6.781h3.418Zm5.488,0h-3.3V10.434h3.3Zm-3.5-13.3a1.482,1.482,0,0,1,.508-1.159,2.149,2.149,0,0,1,2.637,0A1.482,1.482,0,0,1,18.594,7.7a1.482,1.482,0,0,1-.508,1.159,2.149,2.149,0,0,1-2.637,0A1.482,1.482,0,0,1,14.941,7.7Zm9.736,9.385,1.67-6.65h3.467L26.367,21H23.008L19.561,10.434h3.477Zm11.1,4.111a5.432,5.432,0,0,1-3.936-1.45,5.008,5.008,0,0,1-1.5-3.774V15.7a6.489,6.489,0,0,1,.6-2.861A4.395,4.395,0,0,1,32.7,10.917a5.292,5.292,0,0,1,2.734-.679,4.574,4.574,0,0,1,3.516,1.382,5.43,5.43,0,0,1,1.289,3.853v1.279H33.691a2.372,2.372,0,0,0,.771,1.4,2.3,2.3,0,0,0,1.543.508,2.958,2.958,0,0,0,2.441-1.094l1.5,1.777a4.2,4.2,0,0,1-1.743,1.353A5.891,5.891,0,0,1,35.781,21.2Zm-.371-8.418q-1.445,0-1.719,1.914h3.32v-.254a1.63,1.63,0,0,0-.4-1.226A1.593,1.593,0,0,0,35.41,12.777ZM45.029,21h-3.3V6h3.3Zm6.592-5.361a6.455,6.455,0,0,1,1.084-3.955,3.568,3.568,0,0,1,3.027-1.445,3.035,3.035,0,0,1,2.383,1.113V6h3.3V21H58.457l-.166-1.133A3.116,3.116,0,0,1,55.713,21.2a3.562,3.562,0,0,1-2.988-1.445A6.659,6.659,0,0,1,51.621,15.639Zm3.291.205q0,2.813,1.641,2.813a1.62,1.62,0,0,0,1.563-.918V13.715a1.576,1.576,0,0,0-1.543-.937q-1.523,0-1.65,2.461ZM68.4,21.2a5.432,5.432,0,0,1-3.936-1.45,5.008,5.008,0,0,1-1.5-3.774V15.7a6.489,6.489,0,0,1,.6-2.861,4.395,4.395,0,0,1,1.753-1.919,5.292,5.292,0,0,1,2.734-.679,4.574,4.574,0,0,1,3.516,1.382,5.43,5.43,0,0,1,1.289,3.853v1.279H66.309a2.372,2.372,0,0,0,.771,1.4,2.3,2.3,0,0,0,1.543.508,2.958,2.958,0,0,0,2.441-1.094l1.5,1.777a4.2,4.2,0,0,1-1.743,1.353A5.891,5.891,0,0,1,68.4,21.2Zm-.371-8.418q-1.445,0-1.719,1.914h3.32v-.254a1.63,1.63,0,0,0-.4-1.226A1.593,1.593,0,0,0,68.027,12.777Zm16.035,5.2q.127-.645-1-.967l-.693-.176a5.34,5.34,0,0,1-2.49-1.26,2.494,2.494,0,0,1-.742-1.924,3.065,3.065,0,0,1,1.353-2.476,5.148,5.148,0,0,1,3.179-.933,4.769,4.769,0,0,1,3.022.947,3.09,3.09,0,0,1,1.177,2.5l-3.2-.01q.039-1.25-1.1-1.25a1.574,1.574,0,0,0-.908.288,1.119,1.119,0,0,0-.5.767q-.166.791,1.4,1.084a8.116,8.116,0,0,1,2.1.747,3.135,3.135,0,0,1,1.133,1.05,2.611,2.611,0,0,1,.361,1.5,2.824,2.824,0,0,1-.625,1.709,4.047,4.047,0,0,1-1.724,1.2,6.174,6.174,0,0,1-2.446.42,4.965,4.965,0,0,1-2.124-.479A3.787,3.787,0,0,1,78.7,19.442a3.31,3.31,0,0,1-.571-1.851l2.988.02A1.234,1.234,0,0,0,82.52,19a1.846,1.846,0,0,0,1.016-.269A1.161,1.161,0,0,0,84.063,17.973ZM94.17,7.807l-.459,2.627H95.4L95,12.719H93.311l-.82,4.854a1.294,1.294,0,0,0,.063.752q.132.254.659.273a7.637,7.637,0,0,0,.84-.049l-.234,2.383a5.192,5.192,0,0,1-1.729.244,2.847,2.847,0,0,1-2.236-.879,3,3,0,0,1-.605-2.334l.859-5.244H88.8l.391-2.285H90.5l.459-2.627Zm6.6,2.432a4.438,4.438,0,0,1,2.451.708,3.989,3.989,0,0,1,1.519,1.919,5.922,5.922,0,0,1,.347,2.734l-.02.215a6.262,6.262,0,0,1-1.807,3.926A5.083,5.083,0,0,1,99.473,21.2a4.419,4.419,0,0,1-2.432-.7,4.014,4.014,0,0,1-1.519-1.9,5.755,5.755,0,0,1-.356-2.715,6.514,6.514,0,0,1,1.782-4.141A5.052,5.052,0,0,1,100.771,10.238Zm-2.393,5.649-.029.575q-.137,2.174,1.328,2.213,1.895.059,2.2-3.071l.039-.887a2.394,2.394,0,0,0-.327-1.4,1.192,1.192,0,0,0-1.021-.541,1.68,1.68,0,0,0-1.46.726A4.753,4.753,0,0,0,98.379,15.887ZM110.5,18.656a1.382,1.382,0,0,0,1.084-.383,1.907,1.907,0,0,0,.5-1.043l3.008-.01a3.954,3.954,0,0,1-.688,2.08,4.161,4.161,0,0,1-1.7,1.421,5.023,5.023,0,0,1-2.29.474,3.967,3.967,0,0,1-3.252-1.519,5.251,5.251,0,0,1-.928-3.823l.029-.234a7.079,7.079,0,0,1,.9-2.837,5.14,5.14,0,0,1,1.9-1.909,4.926,4.926,0,0,1,2.632-.635,3.929,3.929,0,0,1,2.915,1.177,4.173,4.173,0,0,1,1.03,3.071l-3.008-.01q.049-1.67-1.2-1.7-1.7-.059-1.953,2.852l-.088.993-.01.37Q109.375,18.627,110.5,18.656ZM120.684,17.1l-1.172,1.016-.5,2.881H115.8l2.607-15.01h3.213L120.137,14l.391-.469,2.92-3.1h4.072l-4.492,4.492L125.752,21h-3.525ZM6.035,48.2A5.432,5.432,0,0,1,2.1,46.745,5.008,5.008,0,0,1,.6,42.971V42.7a6.489,6.489,0,0,1,.6-2.861,4.395,4.395,0,0,1,1.753-1.919,5.292,5.292,0,0,1,2.734-.679A4.574,4.574,0,0,1,9.2,38.62a5.43,5.43,0,0,1,1.289,3.853v1.279H3.945a2.372,2.372,0,0,0,.771,1.4,2.3,2.3,0,0,0,1.543.508A2.958,2.958,0,0,0,8.7,44.563l1.5,1.777a4.2,4.2,0,0,1-1.743,1.353A5.891,5.891,0,0,1,6.035,48.2Zm-.371-8.418q-1.445,0-1.719,1.914h3.32v-.254a1.63,1.63,0,0,0-.4-1.226A1.593,1.593,0,0,0,5.664,39.777Zm10.43.566,1.533-2.91h3.418L18.262,42.58,21.182,48H17.744l-1.66-3.125L14.453,48H11l2.93-5.42-2.773-5.146h3.457ZM25.576,48h-3.3V37.434h3.3Zm-3.5-13.3a1.482,1.482,0,0,1,.508-1.159,2.149,2.149,0,0,1,2.637,0,1.577,1.577,0,0,1,0,2.319,2.149,2.149,0,0,1-2.637,0A1.482,1.482,0,0,1,22.08,34.7ZM33.135,45.031a.76.76,0,0,0-.439-.674,6.685,6.685,0,0,0-1.67-.527,7.615,7.615,0,0,1-2.031-.718,3.4,3.4,0,0,1-1.221-1.079,2.577,2.577,0,0,1-.42-1.455,2.92,2.92,0,0,1,1.2-2.4,4.948,4.948,0,0,1,3.145-.942,5.482,5.482,0,0,1,3.359.947,2.962,2.962,0,0,1,1.27,2.49h-3.3q0-1.27-1.338-1.27a1.326,1.326,0,0,0-.869.288.892.892,0,0,0-.352.718.819.819,0,0,0,.43.713,4.06,4.06,0,0,0,1.372.449,11.857,11.857,0,0,1,1.655.42,3.007,3.007,0,0,1,2.383,2.939,2.767,2.767,0,0,1-1.284,2.354A5.632,5.632,0,0,1,31.7,48.2a5.747,5.747,0,0,1-2.422-.488,4.05,4.05,0,0,1-1.66-1.328,3.007,3.007,0,0,1-.6-1.768H30.1a1.272,1.272,0,0,0,.488,1.069,2.009,2.009,0,0,0,1.2.337,1.58,1.58,0,0,0,1.011-.273A.875.875,0,0,0,33.135,45.031ZM41.68,34.807v2.627h1.738v2.285H41.68v4.834a1.234,1.234,0,0,0,.215.83,1.152,1.152,0,0,0,.85.234,4.828,4.828,0,0,0,.82-.059v2.354a6.074,6.074,0,0,1-1.855.283,3.448,3.448,0,0,1-2.51-.8,3.282,3.282,0,0,1-.811-2.432V39.719H37.041V37.434h1.348V34.807ZM49.824,48.2a5.432,5.432,0,0,1-3.936-1.45,5.008,5.008,0,0,1-1.5-3.774V42.7a6.489,6.489,0,0,1,.6-2.861,4.395,4.395,0,0,1,1.753-1.919,5.292,5.292,0,0,1,2.734-.679,4.574,4.574,0,0,1,3.516,1.382,5.43,5.43,0,0,1,1.289,3.853v1.279H47.734a2.372,2.372,0,0,0,.771,1.4,2.3,2.3,0,0,0,1.543.508,2.958,2.958,0,0,0,2.441-1.094l1.5,1.777a4.2,4.2,0,0,1-1.743,1.353A5.891,5.891,0,0,1,49.824,48.2Zm-.371-8.418q-1.445,0-1.719,1.914h3.32v-.254a1.63,1.63,0,0,0-.4-1.226A1.593,1.593,0,0,0,49.453,39.777Zm9.17-2.344.107,1.24a3.583,3.583,0,0,1,3.018-1.436,3.015,3.015,0,0,1,2.466.986,4.7,4.7,0,0,1,.845,2.969V48h-3.3V41.33a1.783,1.783,0,0,0-.322-1.177,1.491,1.491,0,0,0-1.172-.376,1.569,1.569,0,0,0-1.436.762V48H55.537V37.434Zm12.09-2.627v2.627h1.738v2.285H70.713v4.834a1.234,1.234,0,0,0,.215.83,1.152,1.152,0,0,0,.85.234,4.828,4.828,0,0,0,.82-.059v2.354a6.074,6.074,0,0,1-1.855.283,3.448,3.448,0,0,1-2.51-.8,3.282,3.282,0,0,1-.811-2.432V39.719H66.074V37.434h1.348V34.807ZM78.857,48.2a5.432,5.432,0,0,1-3.936-1.45,5.008,5.008,0,0,1-1.5-3.774V42.7a6.489,6.489,0,0,1,.6-2.861,4.395,4.395,0,0,1,1.753-1.919,5.292,5.292,0,0,1,2.734-.679,4.574,4.574,0,0,1,3.516,1.382,5.43,5.43,0,0,1,1.289,3.853v1.279H76.768a2.372,2.372,0,0,0,.771,1.4,2.3,2.3,0,0,0,1.543.508,2.958,2.958,0,0,0,2.441-1.094l1.5,1.777a4.2,4.2,0,0,1-1.743,1.353A5.891,5.891,0,0,1,78.857,48.2Zm-.371-8.418q-1.445,0-1.719,1.914h3.32v-.254a1.63,1.63,0,0,0-.4-1.226A1.593,1.593,0,0,0,78.486,39.777Z" transform="translate(1212.928 7506.194)" fill="#12263f"/>
    <g id="Layer_1" data-name="Layer 1" transform="translate(1024.075 7367)">
      <g id="Grupo_1019303" data-name="Grupo 1019303" transform="translate(0)">
        <g id="Grupo_1019302" data-name="Grupo 1019302">
          <path id="Trazado_748575" data-name="Trazado 748575" d="M329.176,0H103.257A32.247,32.247,0,0,0,71.044,32.213v39.64a21.5,21.5,0,0,1-15.824,21A73.874,73.874,0,0,0,0,164.357c0,33.634,23.285,62.948,54.8,71.379l1.467-5.486a68.215,68.215,0,0,1,.393-131.9,27.189,27.189,0,0,0,20.074-26.5V32.213a26.561,26.561,0,0,1,26.53-26.53H329.176a26.562,26.562,0,0,1,26.53,26.53v264.3a26.552,26.552,0,0,1-26.53,26.519H103.257a26.559,26.559,0,0,1-26.53-26.519v-39.64a21.5,21.5,0,0,1,15.824-21,73.9,73.9,0,0,0,55.232-71.518c0-33.645-23.285-62.948-54.8-71.379l-1.467,5.486a68.215,68.215,0,0,1-.393,131.9,27.189,27.189,0,0,0-20.074,26.5V296.5a32.247,32.247,0,0,0,32.213,32.213H329.164A32.248,32.248,0,0,0,361.377,296.5V32.213A32.247,32.247,0,0,0,329.164,0Z" fill="#91b3fa"/>
          <ellipse id="Elipse_8496" data-name="Elipse 8496" cx="59.494" cy="59.494" rx="59.494" ry="59.494" transform="matrix(0.972, -0.233, 0.233, 0.972, 1.812, 120.398)" fill="#f5f5f5"/>
        </g>
      </g>
    </g>
  </g>
</svg>
