<svg xmlns="http://www.w3.org/2000/svg" width="365.258" height="328.714" viewBox="0 0 365.258 328.714">
  <g id="Grupo_1020156" data-name="Grupo 1020156" transform="translate(-620.928 -7367)">
    <path id="Trazado_751345" data-name="Trazado 751345" d="M13.115,12.184a8.385,8.385,0,0,1-.771,3.682,5.7,5.7,0,0,1-2.192,2.466,6.1,6.1,0,0,1-3.237.864,6.191,6.191,0,0,1-3.223-.835A5.692,5.692,0,0,1,1.5,15.973a8.144,8.144,0,0,1-.825-3.564v-.8A8.422,8.422,0,0,1,1.44,7.921a5.688,5.688,0,0,1,2.2-2.466,6.147,6.147,0,0,1,3.257-.869,6.087,6.087,0,0,1,3.223.859,5.79,5.79,0,0,1,2.2,2.446,8.18,8.18,0,0,1,.8,3.638Zm-3.486-.6A5.979,5.979,0,0,0,8.921,8.37a2.271,2.271,0,0,0-2.026-1.1q-2.578,0-2.725,3.867l-.01,1.045A6.149,6.149,0,0,0,4.854,15.4,2.268,2.268,0,0,0,6.914,16.52a2.24,2.24,0,0,0,2-1.1,5.982,5.982,0,0,0,.713-3.174Zm14.912,2.207a6.372,6.372,0,0,1-1.108,3.931,3.554,3.554,0,0,1-2.993,1.47,3.046,3.046,0,0,1-2.393-1.064v4.932H14.756V8.434h3.076l.1.977a3.046,3.046,0,0,1,2.49-1.172,3.582,3.582,0,0,1,3.037,1.44,6.45,6.45,0,0,1,1.084,3.96ZM21.25,13.59q0-2.812-1.641-2.812a1.549,1.549,0,0,0-1.562.84v4.16a1.6,1.6,0,0,0,1.582.879q1.572,0,1.621-2.715Zm8.574-7.783V8.434h1.738v2.285H29.824v4.834a1.234,1.234,0,0,0,.215.83,1.152,1.152,0,0,0,.85.234,4.828,4.828,0,0,0,.82-.059v2.354a6.074,6.074,0,0,1-1.855.283,3.448,3.448,0,0,1-2.51-.8,3.282,3.282,0,0,1-.811-2.432V10.719H25.186V8.434h1.348V5.807ZM36.328,19h-3.3V8.434h3.3Zm-3.5-13.291a1.469,1.469,0,0,1,.508-1.152,2.159,2.159,0,0,1,2.637,0,1.469,1.469,0,0,1,.508,1.152,1.469,1.469,0,0,1-.508,1.152,2.159,2.159,0,0,1-2.637,0A1.469,1.469,0,0,1,32.832,5.709Zm8.633,2.725.107,1.24A3.633,3.633,0,0,1,44.59,8.238,2.675,2.675,0,0,1,47.295,9.83,3.516,3.516,0,0,1,50.4,8.238q3.213,0,3.3,3.887V19H50.4V12.33a2.014,2.014,0,0,0-.273-1.182,1.164,1.164,0,0,0-1-.371,1.559,1.559,0,0,0-1.455.869l.01.137V19h-3.3V12.35a2.117,2.117,0,0,0-.264-1.2,1.161,1.161,0,0,0-1.006-.371,1.578,1.578,0,0,0-1.445.869V19H38.379V8.434ZM59.053,19h-3.3V8.434h3.3Zm-3.5-13.291a1.469,1.469,0,0,1,.508-1.152,2.159,2.159,0,0,1,2.637,0,1.469,1.469,0,0,1,.508,1.152A1.469,1.469,0,0,1,58.7,6.861a2.159,2.159,0,0,1-2.637,0A1.469,1.469,0,0,1,55.557,5.709Zm9.4,10.752h4.814V19H60.8V17.164l4.688-6.191H61.006V8.434h8.662v1.777ZM77.324,19a3.716,3.716,0,0,1-.312-.947A3.06,3.06,0,0,1,74.473,19.2a3.749,3.749,0,0,1-2.539-.9,2.875,2.875,0,0,1-1.045-2.271,2.955,2.955,0,0,1,1.27-2.6,6.468,6.468,0,0,1,3.691-.879h1.016v-.559q0-1.462-1.26-1.462a1.03,1.03,0,0,0-1.172,1.158H71.143a2.95,2.95,0,0,1,1.3-2.487,5.479,5.479,0,0,1,3.325-.956,4.8,4.8,0,0,1,3.193.986,3.429,3.429,0,0,1,1.2,2.705v4.678a4.79,4.79,0,0,0,.449,2.227V19Zm-2.061-2.148a1.836,1.836,0,0,0,1.021-.264,1.653,1.653,0,0,0,.581-.6V14.3h-.957q-1.719,0-1.719,1.543a.942.942,0,0,0,.3.728A1.1,1.1,0,0,0,75.264,16.852Zm11.191-.2a1.464,1.464,0,0,0,1.074-.376,1.379,1.379,0,0,0,.371-1.05h3.086a3.653,3.653,0,0,1-1.245,2.852A4.631,4.631,0,0,1,86.533,19.2,4.689,4.689,0,0,1,82.9,17.75a5.7,5.7,0,0,1-1.328-4v-.137a6.436,6.436,0,0,1,.591-2.827,4.3,4.3,0,0,1,1.7-1.885A5.081,5.081,0,0,1,86.5,8.238a4.573,4.573,0,0,1,3.271,1.143,4.053,4.053,0,0,1,1.211,3.1H87.9a1.806,1.806,0,0,0-.4-1.26,1.382,1.382,0,0,0-1.074-.439q-1.279,0-1.494,1.631a11.508,11.508,0,0,0-.068,1.426,4.52,4.52,0,0,0,.381,2.207A1.319,1.319,0,0,0,86.455,16.656ZM95.85,19h-3.3V8.434h3.3Zm-3.5-13.291a1.469,1.469,0,0,1,.508-1.152,2.159,2.159,0,0,1,2.637,0,1.469,1.469,0,0,1,.508,1.152A1.469,1.469,0,0,1,95.5,6.861a2.159,2.159,0,0,1-2.637,0A1.469,1.469,0,0,1,92.354,5.709Zm5.107,7.91a6.236,6.236,0,0,1,.615-2.817,4.4,4.4,0,0,1,1.768-1.9,5.323,5.323,0,0,1,2.705-.664,4.858,4.858,0,0,1,3.74,1.47,5.64,5.64,0,0,1,1.367,4v.117a5.472,5.472,0,0,1-1.372,3.921,4.871,4.871,0,0,1-3.716,1.45,4.927,4.927,0,0,1-3.623-1.353,5.29,5.29,0,0,1-1.475-3.667Zm3.291.205a3.932,3.932,0,0,0,.459,2.148,1.529,1.529,0,0,0,1.357.684q1.758,0,1.8-2.705v-.332q0-2.842-1.816-2.842-1.65,0-1.787,2.451ZM103,4h3.477L103.76,7.066l-2.686,0Zm9.131,4.434.107,1.24a3.583,3.583,0,0,1,3.018-1.436,3.015,3.015,0,0,1,2.466.986,4.7,4.7,0,0,1,.845,2.969V19h-3.3V12.33a1.783,1.783,0,0,0-.322-1.177,1.491,1.491,0,0,0-1.172-.376,1.569,1.569,0,0,0-1.436.762V19h-3.291V8.434ZM.508,40.639a6.455,6.455,0,0,1,1.084-3.955,3.568,3.568,0,0,1,3.027-1.445A3.035,3.035,0,0,1,7,36.352V31h3.3V46H7.344l-.166-1.133A3.116,3.116,0,0,1,4.6,46.2,3.562,3.562,0,0,1,1.611,44.75,6.659,6.659,0,0,1,.508,40.639Zm3.291.205q0,2.813,1.641,2.813A1.62,1.62,0,0,0,7,42.738V38.715a1.576,1.576,0,0,0-1.543-.937q-1.523,0-1.65,2.461ZM17.285,46.2a5.432,5.432,0,0,1-3.936-1.45,5.008,5.008,0,0,1-1.5-3.774V40.7a6.489,6.489,0,0,1,.6-2.861A4.395,4.395,0,0,1,14.2,35.917a5.292,5.292,0,0,1,2.734-.679,4.574,4.574,0,0,1,3.516,1.382,5.43,5.43,0,0,1,1.289,3.853v1.279H15.2a2.372,2.372,0,0,0,.771,1.4,2.3,2.3,0,0,0,1.543.508,2.958,2.958,0,0,0,2.441-1.094l1.5,1.777a4.2,4.2,0,0,1-1.743,1.353A5.891,5.891,0,0,1,17.285,46.2Zm-.371-8.418q-1.445,0-1.719,1.914h3.32v-.254a1.63,1.63,0,0,0-.4-1.226A1.593,1.593,0,0,0,16.914,37.777ZM26.533,46h-3.3V31h3.3Zm12.119.2a5.432,5.432,0,0,1-3.936-1.45,5.008,5.008,0,0,1-1.5-3.774V40.7a6.489,6.489,0,0,1,.6-2.861,4.395,4.395,0,0,1,1.753-1.919,5.292,5.292,0,0,1,2.734-.679,4.574,4.574,0,0,1,3.516,1.382,5.43,5.43,0,0,1,1.289,3.853v1.279H36.563a2.372,2.372,0,0,0,.771,1.4,2.3,2.3,0,0,0,1.543.508,2.958,2.958,0,0,0,2.441-1.094l1.5,1.777a4.2,4.2,0,0,1-1.743,1.353A5.891,5.891,0,0,1,38.652,46.2Zm-.371-8.418q-1.445,0-1.719,1.914h3.32v-.254a1.63,1.63,0,0,0-.4-1.226A1.593,1.593,0,0,0,38.281,37.777Zm11.68,5.254a.76.76,0,0,0-.439-.674,6.685,6.685,0,0,0-1.67-.527,7.615,7.615,0,0,1-2.031-.718A3.4,3.4,0,0,1,44.6,40.033a2.577,2.577,0,0,1-.42-1.455,2.92,2.92,0,0,1,1.2-2.4,4.948,4.948,0,0,1,3.145-.942,5.482,5.482,0,0,1,3.359.947,2.962,2.962,0,0,1,1.27,2.49h-3.3q0-1.27-1.338-1.27a1.326,1.326,0,0,0-.869.288.892.892,0,0,0-.352.718.819.819,0,0,0,.43.713,4.06,4.06,0,0,0,1.372.449,11.857,11.857,0,0,1,1.655.42,3.007,3.007,0,0,1,2.383,2.939,2.767,2.767,0,0,1-1.284,2.354,5.632,5.632,0,0,1-3.325.908,5.747,5.747,0,0,1-2.422-.488,4.05,4.05,0,0,1-1.66-1.328,3.007,3.007,0,0,1-.6-1.768h3.076a1.272,1.272,0,0,0,.488,1.069,2.009,2.009,0,0,0,1.2.337,1.58,1.58,0,0,0,1.011-.273A.875.875,0,0,0,49.961,43.031Zm14.521-2.236a6.372,6.372,0,0,1-1.108,3.931,3.554,3.554,0,0,1-2.993,1.47,3.046,3.046,0,0,1-2.393-1.064v4.932H54.7V35.434h3.076l.1.977a3.046,3.046,0,0,1,2.49-1.172,3.582,3.582,0,0,1,3.037,1.44,6.45,6.45,0,0,1,1.084,3.96Zm-3.291-.205q0-2.812-1.641-2.812a1.549,1.549,0,0,0-1.562.84v4.16a1.6,1.6,0,0,0,1.582.879q1.572,0,1.621-2.715ZM71.885,46a3.716,3.716,0,0,1-.312-.947A3.06,3.06,0,0,1,69.033,46.2a3.749,3.749,0,0,1-2.539-.9,2.875,2.875,0,0,1-1.045-2.271,2.955,2.955,0,0,1,1.27-2.6,6.468,6.468,0,0,1,3.691-.879h1.016v-.559q0-1.462-1.26-1.462a1.03,1.03,0,0,0-1.172,1.158H65.7a2.95,2.95,0,0,1,1.3-2.487,5.479,5.479,0,0,1,3.325-.956,4.8,4.8,0,0,1,3.193.986,3.429,3.429,0,0,1,1.2,2.705v4.678a4.79,4.79,0,0,0,.449,2.227V46Zm-2.061-2.148a1.836,1.836,0,0,0,1.021-.264,1.653,1.653,0,0,0,.581-.6V41.3h-.957q-1.719,0-1.719,1.543a.942.942,0,0,0,.3.728A1.1,1.1,0,0,0,69.824,43.852Zm11.191-.2a1.464,1.464,0,0,0,1.074-.376,1.379,1.379,0,0,0,.371-1.05h3.086A3.653,3.653,0,0,1,84.3,45.082,4.631,4.631,0,0,1,81.094,46.2a4.689,4.689,0,0,1-3.633-1.445,5.7,5.7,0,0,1-1.328-4v-.137a6.436,6.436,0,0,1,.591-2.827,4.3,4.3,0,0,1,1.7-1.885,5.081,5.081,0,0,1,2.637-.659,4.573,4.573,0,0,1,3.271,1.143,4.053,4.053,0,0,1,1.211,3.1H82.461a1.806,1.806,0,0,0-.4-1.26,1.382,1.382,0,0,0-1.074-.439q-1.279,0-1.494,1.631a11.508,11.508,0,0,0-.068,1.426,4.52,4.52,0,0,0,.381,2.207A1.319,1.319,0,0,0,81.016,43.656ZM90.41,46h-3.3V35.434h3.3Zm-3.5-13.291a1.469,1.469,0,0,1,.508-1.152,2.159,2.159,0,0,1,2.637,0,1.561,1.561,0,0,1,0,2.3,2.159,2.159,0,0,1-2.637,0A1.469,1.469,0,0,1,86.914,32.709Zm5.107,7.91a6.236,6.236,0,0,1,.615-2.817A4.4,4.4,0,0,1,94.4,35.9a5.323,5.323,0,0,1,2.705-.664,4.858,4.858,0,0,1,3.74,1.47,5.64,5.64,0,0,1,1.367,4v.117a5.472,5.472,0,0,1-1.372,3.921,4.871,4.871,0,0,1-3.716,1.45,4.927,4.927,0,0,1-3.623-1.353,5.29,5.29,0,0,1-1.475-3.667Zm3.291.205a3.932,3.932,0,0,0,.459,2.148,1.529,1.529,0,0,0,1.357.684q1.758,0,1.8-2.705v-.332q0-2.842-1.816-2.842-1.65,0-1.787,2.451Z" transform="translate(804.928 7506.194)" fill="#12263f"/>
    <path id="Trazado_748571" data-name="Trazado 748571" d="M329.176,0H103.257A32.247,32.247,0,0,0,71.044,32.213v39.64a21.5,21.5,0,0,1-15.824,21A73.874,73.874,0,0,0,0,164.357c0,33.634,23.285,62.948,54.8,71.379l1.467-5.486a68.215,68.215,0,0,1,.393-131.9,27.189,27.189,0,0,0,20.074-26.5V32.213a26.561,26.561,0,0,1,26.53-26.53H329.176a26.562,26.562,0,0,1,26.53,26.53v264.3a26.552,26.552,0,0,1-26.53,26.519H103.257a26.559,26.559,0,0,1-26.53-26.519v-39.64a21.5,21.5,0,0,1,15.824-21,73.9,73.9,0,0,0,55.232-71.518c0-33.645-23.285-62.948-54.8-71.379l-1.467,5.486a68.215,68.215,0,0,1-.393,131.9,27.189,27.189,0,0,0-20.074,26.5V296.5a32.247,32.247,0,0,0,32.213,32.213H329.164A32.248,32.248,0,0,0,361.377,296.5V32.213A32.247,32.247,0,0,0,329.164,0Z" transform="translate(624.809 7367)" fill="#1a0f91"/>
    <path id="Trazado_751348" data-name="Trazado 751348" d="M59.494,0A59.494,59.494,0,1,1,0,59.494,59.494,59.494,0,0,1,59.494,0Z" transform="translate(620.928 7564.274) rotate(-68.03)" fill="#f5f5f5"/>
    <path id="Trazado_748572" data-name="Trazado 748572" d="M77.8,153.386c4.019-3.788,6.687-7.092,8.131-10.129a22.307,22.307,0,0,0,2.195-9.748,16.611,16.611,0,0,0-6.364-13.7c-4.112-3.269-9.633-4.92-16.4-4.92A34.2,34.2,0,0,0,51.546,117.6a24.506,24.506,0,0,0-9.991,7.75l-.936,1.259,10.21,7.854.97-1.247c2.922-3.742,7.057-5.567,12.624-5.567,3.222,0,5.66.624,7.23,1.86a6.051,6.051,0,0,1,2.183,5.094,11.158,11.158,0,0,1-1.236,4.932,24.4,24.4,0,0,1-5.047,6.191L43.519,168.551v9.656H90.412V165.7H64.864L77.8,153.386Z" transform="translate(631.105 7384.808)" fill="#afafaf"/>
    <path id="Trazado_748570" data-name="Trazado 748570" d="M41,0A41,41,0,1,1,0,41,41,41,0,0,1,41,0Z" transform="translate(657.928 7490.194)" fill="#dcdbef"/>
  </g>
</svg>
