<svg xmlns="http://www.w3.org/2000/svg" xmlns:xlink="http://www.w3.org/1999/xlink" width="80" height="80" viewBox="0 0 80 80">
  <defs>
    <filter id="Elipse_3951" x="0" y="0" width="80" height="80" filterUnits="userSpaceOnUse">
      <feOffset dy="3" input="SourceAlpha"/>
      <feGaussianBlur stdDeviation="3" result="blur"/>
      <feFlood flood-opacity="0.161"/>
      <feComposite operator="in" in2="blur"/>
      <feComposite in="SourceGraphic"/>
    </filter>
  </defs>
  <g id="Grupo_1020160" data-name="Grupo 1020160" transform="translate(-760 -996)">
    <g transform="matrix(1, 0, 0, 1, 760, 996)" filter="url(#Elipse_3951)">
      <circle id="Elipse_3951-2" data-name="Elipse 3951" cx="31" cy="31" r="31" transform="translate(9 6)" fill="#fff"/>
    </g>
    <g id="Elipse_3952" data-name="Elipse 3952" transform="translate(765 998)" fill="none" stroke="#91b3fa" stroke-width="1">
      <circle cx="35" cy="35" r="35" stroke="none"/>
      <circle cx="35" cy="35" r="34.5" fill="none"/>
    </g>
    <g id="iso-2-1-logo-svg-vector" transform="translate(773 1011.151)">
      <path id="Trazado_749322" data-name="Trazado 749322" d="M52.955,17.225a7.492,7.492,0,0,0-2.842-3.408,13.709,13.709,0,0,0-13.127-.392,7.625,7.625,0,0,0-3.864,5.308c-.77,3.543-.571,7.758,2.158,10.414,3.183,2.79,7.815,3.406,11.934,2.26a5.353,5.353,0,0,0,1.244-.421l.12-.052a8.422,8.422,0,0,0,3.41-2.569c2.1-3.074,2.246-7.679.967-11.14m-6.706,7.956a2.185,2.185,0,0,1-1.31,1.62,4.468,4.468,0,0,1-3.721-.223,3.351,3.351,0,0,1-1.108-2.625,17.4,17.4,0,0,1,.314-5.723,2.775,2.775,0,0,1,2.643-1.453,3.352,3.352,0,0,1,2.869,1.062,4.928,4.928,0,0,1,.484,2.234,34.529,34.529,0,0,1-.171,5.108M12.575,26.914c-.938-.057-1.989.025-2.9-.087l.028-9.8.057-.082,2.812-.027c.029-1.591.057-3.3-.029-4.748l-10.711-.03-1.764.031c-.028,1.479-.028,3.208,0,4.718.967.03,1.875,0,2.813.087v9.493l-.027.39-2.814.057q-.088,2.3,0,4.607H12.574V26.914Zm31.54,6.7a21.8,21.8,0,0,1-4.343,4.633c-.06.087-.23.054-.284-.026-.713-.446-1.479-.81-2.163-1.255A23.142,23.142,0,0,0,39.8,33.584h-.884a19.6,19.6,0,0,1-2.384,3.044,30.767,30.767,0,0,0-3.666-1.286l-.142-.106a13.727,13.727,0,0,0,.68-1.653h-.767l-.767,1.509a36.463,36.463,0,0,0-5.228-.671c-.086-.251.027-.614-.086-.838h-.739c-.059.336.085.589-.085.868a32.851,32.851,0,0,0-5.113.617l-.77-1.485a2.428,2.428,0,0,0-.794.03l.709,1.648-.085.082a35.863,35.863,0,0,0-3.751,1.314l-.113-.057a22.22,22.22,0,0,1-2.191-2.761c-.141-.477-.709-.2-1.022-.254a24.1,24.1,0,0,0,2.5,3.436c-.767.448-1.531.948-2.33,1.314a20.486,20.486,0,0,1-4.488-4.72,3.273,3.273,0,0,0-.91,0,22.285,22.285,0,0,0,8.554,7.622s0-.025.031-.025.081.052.024.081A23.491,23.491,0,0,0,23.143,43.5a22.373,22.373,0,0,0,21.879-9.886,4.492,4.492,0,0,0-.908,0M32.268,36.127l.084-.056a15.89,15.89,0,0,1,3.468,1.2,17.886,17.886,0,0,1-3.154,2.68c-.653.389-1.309.813-1.991,1.145l-1.219-.53.084-.193a33.4,33.4,0,0,0,2.729-4.245m-5.6-.838a22.292,22.292,0,0,1,4.745.559l.03.085a28.647,28.647,0,0,1-2.869,4.327,7.846,7.846,0,0,1-1.421-.166l-.486-.057c-.055-1.648-.085-3.1,0-4.748m-5.482.5a24.7,24.7,0,0,1,4.6-.5l.029,4.724c-.6.135-1.251.135-1.82.279A24.87,24.87,0,0,1,21.044,35.9l.142-.111ZM16.609,37.3a18.716,18.716,0,0,1,3.466-1.23l.115.029a43.486,43.486,0,0,0,2.868,4.439c-.395.225-.88.36-1.277.586a19.143,19.143,0,0,1-5.173-3.743V37.3Zm3.667,4.774a20.187,20.187,0,0,1-6.651-3.127v-.087a16.447,16.447,0,0,1,2.1-1.174,29.019,29.019,0,0,0,5.115,3.939,2.21,2.21,0,0,1-.567.447m10.541.361a21.633,21.633,0,0,1-9.377-.054c-.057-.139.142-.169.227-.251a8.883,8.883,0,0,1,9.35.136c.084.168-.143.115-.2.168m2.729-.779-1.335.418a3.194,3.194,0,0,1-.627-.447l.057-.085a25.236,25.236,0,0,0,5.03-3.881,11.25,11.25,0,0,1,2.191,1.2,19.2,19.2,0,0,1-5.316,2.8M8.228,10.017a26.206,26.206,0,0,1,2.3-2.763,15.076,15.076,0,0,1,2.218-1.873c.739.474,1.562.869,2.272,1.314a24.5,24.5,0,0,0-2.443,3.347,1.667,1.667,0,0,0,.854,0,21.515,21.515,0,0,1,2.387-2.986c1.219.448,2.414.921,3.666,1.258l.11.111-.708,1.618a2.511,2.511,0,0,0,.823,0c.255-.472.453-1,.737-1.478a27.907,27.907,0,0,0,5.146.613c.226.2.056.615.142.865H26.5c.084-.274-.029-.585.084-.834a27.253,27.253,0,0,0,4.979-.646l.138.029.767,1.449a1.77,1.77,0,0,0,.8-.057l-.712-1.615.059-.056a30.625,30.625,0,0,0,3.779-1.339,26.191,26.191,0,0,1,2.446,3.067,2.606,2.606,0,0,0,.852-.057,11.3,11.3,0,0,0-1.223-1.758,11.9,11.9,0,0,0-1.252-1.5V6.577L39.2,5.434l.287-.112a20.753,20.753,0,0,1,4.487,4.661c.341,0,.626.117.911-.024A22.509,22.509,0,0,0,28.008.079l-.03.054L27.92.079A12.953,12.953,0,0,0,25.389.047a6.706,6.706,0,0,0-1.05.033A22.274,22.274,0,0,0,7.317,10.044a3.207,3.207,0,0,0,.91-.027M20.022,7.564l-.113.024a22.685,22.685,0,0,1-3.384-1.144l.055-.168a22.294,22.294,0,0,1,5.029-3.656c.428.168.854.306,1.28.5l-.084.218a35.648,35.648,0,0,0-2.783,4.221m5.653.752a10.262,10.262,0,0,1-2.3-.087,15.371,15.371,0,0,1-2.5-.448A24.973,24.973,0,0,1,23.829,3.4l1.819.248c.084,1.45.027,3.126.027,4.663m.88.03c-.056-1.485-.027-3.13,0-4.666.57-.082,1.193-.168,1.762-.251a24.161,24.161,0,0,1,2.93,4.352,20.141,20.141,0,0,1-4.692.565m9.067-1.958a18.683,18.683,0,0,1-3.468,1.176,47.253,47.253,0,0,0-2.929-4.389c.4-.219.884-.386,1.309-.609A20.08,20.08,0,0,1,35.677,6.3Zm-3.64-4.774a20.265,20.265,0,0,1,6.678,3.127l-.057.112L36.645,5.94H36.5a24.761,24.761,0,0,0-5.057-3.851c.057-.2.342-.337.539-.476m-1.135-.28v.059a8.68,8.68,0,0,1-9.092.3c-.147-.112-.427-.166-.458-.361a21.309,21.309,0,0,1,9.55,0M13.512,4.8A20.428,20.428,0,0,1,19.4,1.839c.086-.087.141-.17.253-.17v.057c.227.055.4-.2.6-.033.171.145.372.255.512.394a28.919,28.919,0,0,0-5.087,3.934,9.372,9.372,0,0,1-2.16-1.17V4.8ZM25.7,27.132a7.541,7.541,0,0,1-7.5-1.841c-.226-.279-.37-.612-.6-.89l-3.835.027c-.061,2.261-.087,4.858,0,7.093l4.261-.027.057-1.341c.485.223.969.5,1.451.752,2.955,1.23,6.759,1.509,9.687,0A5.738,5.738,0,0,0,32.18,25.04a6.731,6.731,0,0,0-4.885-5.106L20.416,17.95l-.509-.252a.784.784,0,0,1-.315-.753c.54-.919,1.792-.64,2.729-.615,1.989.28,4.034.95,5.2,2.766,1.249,0,2.7.024,4.06-.029.058-2.289-.022-4.3-.056-6.617-1.279-.029-2.842-.029-4.119.029a5.206,5.206,0,0,1-.087,1.142l-1.306-.7c-3.127-1.312-7.5-1.449-10.344.59a5.626,5.626,0,0,0-1.931,5.863c.368,2.007,2.3,3.489,4.148,4.185,2.529.892,5.17,1.539,7.732,2.4.254.113.594.367.539.673,0,.248-.256.391-.454.5" transform="translate(0.001 0.001)" fill="#0398cc"/>
    </g>
  </g>
</svg>
