<svg xmlns="http://www.w3.org/2000/svg" width="609.333" height="610.272" viewBox="0 0 609.333 610.272">
  <g id="Grupo_1020160" data-name="Grupo 1020160" transform="translate(-495.667 -1342)">
    <path id="Trazado_748583" data-name="Trazado 748583" d="M387.7,9.389A9.389,9.389,0,0,1,397.092,0H726.641a9.389,9.389,0,0,1,9.388,9.389V81.683a9.389,9.389,0,0,1-9.388,9.389H397.092a9.389,9.389,0,0,1-9.389-9.389Z" transform="translate(238.468 1342)" fill="#91b3fa"/>
    <path id="Trazado_748584" data-name="Trazado 748584" d="M649.243,118.28h-4.762v-3h4.762a3.9,3.9,0,0,0,1.8-.359,2.3,2.3,0,0,0,1.014-1.027,3.31,3.31,0,0,0,.321-1.476,3.766,3.766,0,0,0-.321-1.553,2.592,2.592,0,0,0-1.014-1.155,3.328,3.328,0,0,0-1.8-.437h-3.427v15.673h-3.851v-18.69h7.278a8.218,8.218,0,0,1,3.761.8,5.678,5.678,0,0,1,2.413,2.169,6.026,6.026,0,0,1,.834,3.171,5.744,5.744,0,0,1-.834,3.132A5.42,5.42,0,0,1,653,117.562,8.962,8.962,0,0,1,649.243,118.28Z" transform="translate(69.793 1271.513)" fill="#12263f"/>
    <path id="Trazado_748585" data-name="Trazado 748585" d="M692.3,106.253h6.97a9.549,9.549,0,0,1,3.684.642,5.12,5.12,0,0,1,2.388,1.9,5.476,5.476,0,0,1,.834,3.094,5.954,5.954,0,0,1-.514,2.58,4.825,4.825,0,0,1-1.425,1.784,7.383,7.383,0,0,1-2.144,1.13l-1.22.642h-6.059l-.026-3H699.3a3.519,3.519,0,0,0,1.681-.359,2.357,2.357,0,0,0,1-1,3.087,3.087,0,0,0,.346-1.489,3.382,3.382,0,0,0-.334-1.553,2.251,2.251,0,0,0-1.014-1,3.743,3.743,0,0,0-1.707-.347h-3.119v15.673H692.3Zm10.449,18.69-4.262-8.331,4.069-.026,4.313,8.177v.18Z" transform="translate(36.4 1271.513)" fill="#12263f"/>
    <path id="Trazado_748586" data-name="Trazado 748586" d="M756.573,114.655v.886a11.816,11.816,0,0,1-.578,3.825,8.414,8.414,0,0,1-1.63,2.888,7.069,7.069,0,0,1-2.516,1.81,8.565,8.565,0,0,1-6.444,0,7.22,7.22,0,0,1-2.516-1.81,8.455,8.455,0,0,1-1.656-2.888,11.817,11.817,0,0,1-.578-3.825v-.886a11.742,11.742,0,0,1,.578-3.825,8.407,8.407,0,0,1,1.63-2.888,7.149,7.149,0,0,1,2.516-1.823,8.564,8.564,0,0,1,6.444,0,7,7,0,0,1,2.516,1.823,8.3,8.3,0,0,1,1.643,2.888A11.51,11.51,0,0,1,756.573,114.655Zm-3.889.886v-.911a11.354,11.354,0,0,0-.27-2.619,5.675,5.675,0,0,0-.8-1.9,3.436,3.436,0,0,0-1.283-1.155,3.972,3.972,0,0,0-3.466,0,3.47,3.47,0,0,0-1.271,1.155,5.854,5.854,0,0,0-.783,1.9,11.357,11.357,0,0,0-.27,2.619v.911a11.46,11.46,0,0,0,.27,2.619,5.827,5.827,0,0,0,.8,1.912,3.548,3.548,0,0,0,1.284,1.168,3.973,3.973,0,0,0,3.466,0,3.446,3.446,0,0,0,1.271-1.168,6,6,0,0,0,.783-1.912A11.457,11.457,0,0,0,752.683,115.541Z" transform="translate(4.322 1272.019)" fill="#12263f"/>
    <path id="Trazado_748587" data-name="Trazado 748587" d="M798.967,121.04l4.4-14.787h4.287l-6.508,18.69h-2.824Zm-4.056-14.787,4.39,14.787.667,3.9h-2.85l-6.47-18.69Z" transform="translate(-28.842 1271.513)" fill="#12263f"/>
    <path id="Trazado_748588" data-name="Trazado 748588" d="M858.9,121.939v3h-9.948v-3Zm-8.69-15.686v18.69h-3.851v-18.69Zm7.394,7.612v2.927h-8.652v-2.927Zm1.284-7.612v3.016h-9.935v-3.016Z" transform="translate(-65.803 1271.513)" fill="#12263f"/>
    <path id="Trazado_748589" data-name="Trazado 748589" d="M902.835,121.939v3h-9.948v-3Zm-8.69-15.686v18.69h-3.851v-18.69Zm7.394,7.612v2.927h-8.651v-2.927Zm1.284-7.612v3.016h-9.935v-3.016Z" transform="translate(-94.946 1271.513)" fill="#12263f"/>
    <path id="Trazado_748590" data-name="Trazado 748590" d="M939.962,124.943h-4.069l.026-3h4.043a4.568,4.568,0,0,0,2.555-.68,4.211,4.211,0,0,0,1.566-2.015,8.465,8.465,0,0,0,.539-3.2v-.911a9.345,9.345,0,0,0-.308-2.529,5.029,5.029,0,0,0-.886-1.836,3.709,3.709,0,0,0-1.451-1.117,4.8,4.8,0,0,0-1.977-.385h-4.184v-3.016H940a8.886,8.886,0,0,1,3.427.642,7.719,7.719,0,0,1,2.708,1.81,8.091,8.091,0,0,1,1.759,2.824,10.025,10.025,0,0,1,.629,3.633v.886a10.09,10.09,0,0,1-.629,3.633,8.1,8.1,0,0,1-1.759,2.824,7.8,7.8,0,0,1-2.708,1.81A9.22,9.22,0,0,1,939.962,124.943Zm-1.887-18.69v18.69h-3.851v-18.69Z" transform="translate(-124.089 1271.513)" fill="#12263f"/>
    <path id="Trazado_748591" data-name="Trazado 748591" d="M999.259,114.655v.886a11.855,11.855,0,0,1-.579,3.825,8.412,8.412,0,0,1-1.629,2.888,7.086,7.086,0,0,1-2.518,1.81,8.562,8.562,0,0,1-6.443,0,7.22,7.22,0,0,1-2.516-1.81,8.455,8.455,0,0,1-1.656-2.888,11.819,11.819,0,0,1-.578-3.825v-.886a11.744,11.744,0,0,1,.578-3.825,8.409,8.409,0,0,1,1.63-2.888,7.149,7.149,0,0,1,2.516-1.823,8.567,8.567,0,0,1,6.445,0,6.976,6.976,0,0,1,2.514,1.823,8.274,8.274,0,0,1,1.643,2.888A11.5,11.5,0,0,1,999.259,114.655Zm-3.891.886v-.911a11.249,11.249,0,0,0-.269-2.619,5.669,5.669,0,0,0-.794-1.9,3.463,3.463,0,0,0-1.286-1.155,3.968,3.968,0,0,0-3.464,0,3.457,3.457,0,0,0-1.272,1.155,5.854,5.854,0,0,0-.783,1.9,11.354,11.354,0,0,0-.27,2.619v.911a11.457,11.457,0,0,0,.27,2.619,5.827,5.827,0,0,0,.8,1.912,3.545,3.545,0,0,0,1.283,1.168,3.976,3.976,0,0,0,3.467,0,3.458,3.458,0,0,0,1.272-1.168,6.029,6.029,0,0,0,.781-1.912A11.35,11.35,0,0,0,995.368,115.541Z" transform="translate(-156.672 1272.019)" fill="#12263f"/>
    <path id="Trazado_748592" data-name="Trazado 748592" d="M1038.86,106.253h6.971a9.536,9.536,0,0,1,3.682.642,5.115,5.115,0,0,1,2.39,1.9,5.482,5.482,0,0,1,.835,3.094,5.94,5.94,0,0,1-.515,2.58,4.823,4.823,0,0,1-1.424,1.784,7.411,7.411,0,0,1-2.144,1.13l-1.219.642h-6.059l-.027-3h4.507a3.509,3.509,0,0,0,1.68-.359,2.362,2.362,0,0,0,1-1,3.108,3.108,0,0,0,.347-1.489,3.344,3.344,0,0,0-.337-1.553,2.244,2.244,0,0,0-1.013-1,3.748,3.748,0,0,0-1.707-.347h-3.12v15.673h-3.851Zm10.448,18.69-4.261-8.331,4.07-.026,4.315,8.177v.18Z" transform="translate(-193.503 1271.513)" fill="#12263f"/>
    <path id="Trazado_748593" data-name="Trazado 748593" d="M1101.439,121.939v3h-9.947v-3Zm-8.688-15.686v18.69H1088.9v-18.69Zm7.392,7.612v2.927h-8.651v-2.927Zm1.282-7.612v3.016h-9.933v-3.016Z" transform="translate(-226.699 1271.513)" fill="#12263f"/>
    <path id="Trazado_748594" data-name="Trazado 748594" d="M1141.012,119.546a2.439,2.439,0,0,0-.155-.9,1.69,1.69,0,0,0-.539-.745,4.744,4.744,0,0,0-1.118-.68,15.685,15.685,0,0,0-1.858-.693,23.331,23.331,0,0,1-2.413-.924,9.906,9.906,0,0,1-2-1.194,5.39,5.39,0,0,1-1.363-1.6,4.445,4.445,0,0,1-.485-2.118,4.37,4.37,0,0,1,.512-2.118,4.891,4.891,0,0,1,1.438-1.643,6.823,6.823,0,0,1,2.181-1.065,9.9,9.9,0,0,1,2.787-.372,8.219,8.219,0,0,1,3.608.745,5.78,5.78,0,0,1,2.387,2.041,5.249,5.249,0,0,1,.858,2.965h-3.824a2.872,2.872,0,0,0-.347-1.438,2.35,2.35,0,0,0-1.027-.988,3.661,3.661,0,0,0-1.72-.359,3.985,3.985,0,0,0-1.669.308,2.225,2.225,0,0,0-1,.809,1.993,1.993,0,0,0-.333,1.13,1.632,1.632,0,0,0,.229.86,2.649,2.649,0,0,0,.72.719,6.417,6.417,0,0,0,1.168.629,17,17,0,0,0,1.6.578,16.894,16.894,0,0,1,2.683,1.04,8.264,8.264,0,0,1,1.952,1.3,4.834,4.834,0,0,1,1.182,1.63,5.107,5.107,0,0,1,.4,2.067,4.87,4.87,0,0,1-.475,2.182,4.479,4.479,0,0,1-1.374,1.631,6.454,6.454,0,0,1-2.144,1.014,10.353,10.353,0,0,1-2.784.347,10.577,10.577,0,0,1-2.737-.36,8.3,8.3,0,0,1-2.451-1.117,5.643,5.643,0,0,1-1.747-1.9,5.478,5.478,0,0,1-.653-2.734h3.864a3.571,3.571,0,0,0,.27,1.476,2.443,2.443,0,0,0,.757.976,3.242,3.242,0,0,0,1.182.539,6.446,6.446,0,0,0,1.515.167,4.107,4.107,0,0,0,1.643-.282,2.039,2.039,0,0,0,.963-.783A2.063,2.063,0,0,0,1141.012,119.546Z" transform="translate(-254.296 1272.019)" fill="#12263f"/>
    <path id="Trazado_748595" data-name="Trazado 748595" d="M164.3,514.186H9.389a5.633,5.633,0,0,0-5.633,5.633V674.734a5.633,5.633,0,0,0,5.633,5.633H164.3a5.633,5.633,0,0,0,5.633-5.633V519.819A5.633,5.633,0,0,0,164.3,514.186ZM9.389,510.43A9.389,9.389,0,0,0,0,519.819V674.734a9.389,9.389,0,0,0,9.389,9.39H164.3a9.39,9.39,0,0,0,9.389-9.39V519.819a9.389,9.389,0,0,0-9.389-9.389Z" transform="translate(495.667 1003.385)" fill="#1a0f91" fill-rule="evenodd"/>
    <path id="Trazado_748596" data-name="Trazado 748596" d="M76.663,618.636h-3.9l.026-2.015h3.877A6.19,6.19,0,0,0,80,615.786a5.213,5.213,0,0,0,2-2.362,8.706,8.706,0,0,0,.68-3.568v-1.142a9.643,9.643,0,0,0-.385-2.85,5.765,5.765,0,0,0-1.13-2.118,4.772,4.772,0,0,0-1.823-1.322,6.265,6.265,0,0,0-2.452-.449h-4.21v-2.028h4.21a8.808,8.808,0,0,1,3.35.616,7.2,7.2,0,0,1,2.606,1.758,7.712,7.712,0,0,1,1.694,2.773,10.581,10.581,0,0,1,.59,3.646v1.117a10.691,10.691,0,0,1-.59,3.658,7.639,7.639,0,0,1-1.707,2.76,7.456,7.456,0,0,1-2.67,1.758A9.615,9.615,0,0,1,76.663,618.636Zm-2.58-18.69v18.69H71.605v-18.69Z" transform="translate(448.164 944.001)" fill="#12263f"/>
    <path id="Trazado_748597" data-name="Trazado 748597" d="M126.339,627.848a6.831,6.831,0,0,1-2.631-.488,5.967,5.967,0,0,1-2.016-1.4,6.224,6.224,0,0,1-1.283-2.131,7.813,7.813,0,0,1-.449-2.7V620.6a8.473,8.473,0,0,1,.5-3.016,6.751,6.751,0,0,1,1.361-2.259,5.827,5.827,0,0,1,1.951-1.4,5.6,5.6,0,0,1,2.259-.475,5.922,5.922,0,0,1,2.567.513,4.681,4.681,0,0,1,1.784,1.438,6.147,6.147,0,0,1,1.027,2.157,10.288,10.288,0,0,1,.334,2.7v1.065H121.371v-1.938h8v-.18a5.924,5.924,0,0,0-.385-1.8,3.234,3.234,0,0,0-1.027-1.438,3,3,0,0,0-1.925-.565,3.231,3.231,0,0,0-1.489.347,3.172,3.172,0,0,0-1.168,1,5.042,5.042,0,0,0-.757,1.63,8.263,8.263,0,0,0-.27,2.221v.539a6.27,6.27,0,0,0,.27,1.861,4.755,4.755,0,0,0,.809,1.515,3.871,3.871,0,0,0,1.3,1.027,3.962,3.962,0,0,0,1.746.372,4.136,4.136,0,0,0,2.131-.514,5.279,5.279,0,0,0,1.528-1.373l1.438,1.142a6.669,6.669,0,0,1-1.142,1.3,5.456,5.456,0,0,1-1.707,1A6.607,6.607,0,0,1,126.339,627.848Z" transform="translate(416.087 935.045)" fill="#12263f"/>
    <path id="Trazado_748598" data-name="Trazado 748598" d="M165.679,607.555v1.823H158.17v-1.823Zm-4.968-3.376h2.375V618a2.087,2.087,0,0,0,.218,1.066,1.045,1.045,0,0,0,.565.475,2.348,2.348,0,0,0,.745.115,3.883,3.883,0,0,0,.616-.052q.334-.064.5-.1l.013,1.938a5.535,5.535,0,0,1-.745.167,5.658,5.658,0,0,1-1.091.09,3.7,3.7,0,0,1-1.6-.347,2.58,2.58,0,0,1-1.168-1.155,4.85,4.85,0,0,1-.424-2.208Z" transform="translate(390.738 941.193)" fill="#12263f"/>
    <path id="Trazado_748599" data-name="Trazado 748599" d="M193.3,627.848a6.833,6.833,0,0,1-2.631-.488,5.965,5.965,0,0,1-2.015-1.4,6.219,6.219,0,0,1-1.284-2.131,7.821,7.821,0,0,1-.449-2.7V620.6a8.473,8.473,0,0,1,.5-3.016,6.751,6.751,0,0,1,1.361-2.259,5.828,5.828,0,0,1,1.951-1.4,5.6,5.6,0,0,1,2.259-.475,5.922,5.922,0,0,1,2.567.513,4.682,4.682,0,0,1,1.784,1.438,6.153,6.153,0,0,1,1.027,2.157,10.289,10.289,0,0,1,.334,2.7v1.065H188.335v-1.938h8v-.18a5.925,5.925,0,0,0-.385-1.8,3.234,3.234,0,0,0-1.027-1.438,3,3,0,0,0-1.925-.565,3.229,3.229,0,0,0-1.489.347,3.171,3.171,0,0,0-1.168,1,5.042,5.042,0,0,0-.757,1.63,8.277,8.277,0,0,0-.269,2.221v.539A6.281,6.281,0,0,0,189.58,623a4.769,4.769,0,0,0,.809,1.515,3.877,3.877,0,0,0,1.3,1.027,3.964,3.964,0,0,0,1.746.372,4.136,4.136,0,0,0,2.131-.514,5.275,5.275,0,0,0,1.528-1.373l1.438,1.142a6.658,6.658,0,0,1-1.142,1.3,5.452,5.452,0,0,1-1.707,1A6.605,6.605,0,0,1,193.3,627.848Z" transform="translate(371.664 935.045)" fill="#12263f"/>
    <path id="Trazado_748600" data-name="Trazado 748600" d="M232.541,615.885v11.707h-2.374V613.7h2.31Zm4.339-2.259-.013,2.208a3.431,3.431,0,0,0-.565-.077q-.257-.026-.59-.026a3.82,3.82,0,0,0-1.451.257,3.014,3.014,0,0,0-1.065.719,3.462,3.462,0,0,0-.693,1.1,5.3,5.3,0,0,0-.321,1.386l-.668.385a10.932,10.932,0,0,1,.244-2.362,6.436,6.436,0,0,1,.783-1.951,3.835,3.835,0,0,1,1.335-1.335,3.755,3.755,0,0,1,1.951-.488,3.164,3.164,0,0,1,.59.064A1.741,1.741,0,0,1,236.88,613.626Z" transform="translate(342.976 935.045)" fill="#12263f"/>
    <path id="Trazado_748601" data-name="Trazado 748601" d="M258.943,616.462v11.129h-2.388V613.7h2.259Zm-.488,3.658-1.1-.038a9.477,9.477,0,0,1,.372-2.631,6.241,6.241,0,0,1,1.065-2.118,4.733,4.733,0,0,1,1.758-1.386,5.614,5.614,0,0,1,2.439-.5,5.488,5.488,0,0,1,1.8.282,3.621,3.621,0,0,1,1.425.86,3.961,3.961,0,0,1,.937,1.514,6.605,6.605,0,0,1,.334,2.234v9.255H265.1v-9.139a3.525,3.525,0,0,0-.372-1.746,2.128,2.128,0,0,0-1.027-.95,4.242,4.242,0,0,0-3.325.064,2.972,2.972,0,0,0-1.129,1.027,4.624,4.624,0,0,0-.616,1.5A8.4,8.4,0,0,0,258.455,620.121Zm9-1.309-1.591.488a7,7,0,0,1,.372-2.2,5.963,5.963,0,0,1,1.066-1.874,5.042,5.042,0,0,1,1.733-1.3,5.414,5.414,0,0,1,2.349-.488,6.075,6.075,0,0,1,1.977.3,3.575,3.575,0,0,1,1.463.911,3.818,3.818,0,0,1,.912,1.553,7.356,7.356,0,0,1,.308,2.259v9.127h-2.388v-9.152a3.637,3.637,0,0,0-.372-1.81,1.941,1.941,0,0,0-1.027-.912,4.111,4.111,0,0,0-1.566-.269,3.372,3.372,0,0,0-1.386.269,2.868,2.868,0,0,0-1.014.745,3.253,3.253,0,0,0-.629,1.065A3.964,3.964,0,0,0,267.453,618.812Z" transform="translate(325.471 935.045)" fill="#12263f"/>
    <path id="Trazado_748602" data-name="Trazado 748602" d="M327.726,604.241V618.13h-2.388V604.241Zm-2.567-3.684a1.433,1.433,0,0,1,.346-.975,1.346,1.346,0,0,1,1.053-.4,1.329,1.329,0,0,1,1.04.4,1.375,1.375,0,0,1,.372.975,1.3,1.3,0,0,1-1.412,1.335,1.37,1.37,0,0,1-1.053-.385A1.4,1.4,0,0,1,325.159,600.557Z" transform="translate(279.959 944.507)" fill="#12263f"/>
    <path id="Trazado_748603" data-name="Trazado 748603" d="M346.486,616.668v10.924h-2.375V613.7h2.247Zm-.565,3.453-.988-.038a8.354,8.354,0,0,1,.423-2.631,6.574,6.574,0,0,1,1.155-2.118,5.148,5.148,0,0,1,1.772-1.386,5.222,5.222,0,0,1,2.3-.5,5.658,5.658,0,0,1,1.848.282,3.351,3.351,0,0,1,1.4.873,3.891,3.891,0,0,1,.9,1.566,7.6,7.6,0,0,1,.308,2.323v9.1h-2.388v-9.127a4,4,0,0,0-.321-1.746,1.975,1.975,0,0,0-.937-.963,3.365,3.365,0,0,0-1.515-.308,3.513,3.513,0,0,0-1.617.372,3.874,3.874,0,0,0-1.245,1.027,5.175,5.175,0,0,0-.809,1.5A5.491,5.491,0,0,0,345.921,620.121Z" transform="translate(267.387 935.045)" fill="#12263f"/>
    <path id="Trazado_748604" data-name="Trazado 748604" d="M394.659,625.217v-7.15a2.9,2.9,0,0,0-.334-1.425,2.186,2.186,0,0,0-.975-.95,3.536,3.536,0,0,0-1.617-.334,3.793,3.793,0,0,0-1.579.308,2.748,2.748,0,0,0-1.053.809,1.773,1.773,0,0,0-.372,1.078h-2.374a3.14,3.14,0,0,1,.385-1.476,4.321,4.321,0,0,1,1.1-1.322,5.53,5.53,0,0,1,1.746-.95,6.888,6.888,0,0,1,2.285-.359,6.518,6.518,0,0,1,2.67.513,4,4,0,0,1,1.823,1.553,4.643,4.643,0,0,1,.667,2.58v6.47a10.173,10.173,0,0,0,.116,1.476,5.776,5.776,0,0,0,.372,1.348v.205h-2.477a4.443,4.443,0,0,1-.282-1.091A8.818,8.818,0,0,1,394.659,625.217Zm.411-6.046.026,1.669h-2.4a8.851,8.851,0,0,0-1.81.167,4.136,4.136,0,0,0-1.335.475,2.258,2.258,0,0,0-.822.809,2.147,2.147,0,0,0-.282,1.117,2.443,2.443,0,0,0,.3,1.193,2.143,2.143,0,0,0,.886.86,3.218,3.218,0,0,0,1.476.308,3.909,3.909,0,0,0,1.925-.462,4.009,4.009,0,0,0,1.322-1.13,2.432,2.432,0,0,0,.539-1.3l1.014,1.142a3.451,3.451,0,0,1-.488,1.194,5.759,5.759,0,0,1-2.631,2.246,5.1,5.1,0,0,1-2.028.385,5.313,5.313,0,0,1-2.477-.552,4.235,4.235,0,0,1-1.643-1.476,3.908,3.908,0,0,1-.578-2.092,4.229,4.229,0,0,1,.436-1.964,3.786,3.786,0,0,1,1.258-1.425,5.973,5.973,0,0,1,1.977-.873,10.421,10.421,0,0,1,2.58-.3Z" transform="translate(239.559 935.045)" fill="#12263f"/>
    <path id="Trazado_748605" data-name="Trazado 748605" d="M432.135,615.885v11.707H429.76V613.7h2.311Zm4.339-2.259-.013,2.208a3.43,3.43,0,0,0-.565-.077q-.256-.026-.59-.026a3.818,3.818,0,0,0-1.45.257,3.008,3.008,0,0,0-1.065.719,3.452,3.452,0,0,0-.693,1.1,5.3,5.3,0,0,0-.321,1.386l-.668.385a10.931,10.931,0,0,1,.244-2.362,6.429,6.429,0,0,1,.783-1.951,3.829,3.829,0,0,1,1.335-1.335,3.753,3.753,0,0,1,1.951-.488,3.162,3.162,0,0,1,.59.064A1.744,1.744,0,0,1,436.473,613.626Z" transform="translate(210.568 935.045)" fill="#12263f"/>
    <path id="Trazado_748606" data-name="Trazado 748606" d="M157.674,688.94h2.388v17.021l-.205,2.7h-2.182ZM169.445,701.6v.27a10.488,10.488,0,0,1-.36,2.811,6.907,6.907,0,0,1-1.053,2.234,4.733,4.733,0,0,1-3.992,2,5.627,5.627,0,0,1-2.323-.449,4.563,4.563,0,0,1-1.669-1.322,6.831,6.831,0,0,1-1.091-2.08,13.1,13.1,0,0,1-.552-2.747v-1.181a13.119,13.119,0,0,1,.552-2.759,6.836,6.836,0,0,1,1.091-2.08,4.395,4.395,0,0,1,1.669-1.322,5.375,5.375,0,0,1,2.3-.462,5.072,5.072,0,0,1,2.323.514,4.562,4.562,0,0,1,1.694,1.438,6.734,6.734,0,0,1,1.053,2.246A10.8,10.8,0,0,1,169.445,701.6Zm-2.388.27v-.27a9.435,9.435,0,0,0-.193-1.951,5.049,5.049,0,0,0-.616-1.618,3.065,3.065,0,0,0-1.117-1.1,3.3,3.3,0,0,0-1.707-.411,3.705,3.705,0,0,0-1.566.308,3.389,3.389,0,0,0-1.117.834,4.438,4.438,0,0,0-.757,1.181,6.775,6.775,0,0,0-.423,1.361v3.093a6.575,6.575,0,0,0,.667,1.733,4.033,4.033,0,0,0,1.258,1.348,3.484,3.484,0,0,0,1.964.526,3.289,3.289,0,0,0,1.643-.385,3.1,3.1,0,0,0,1.117-1.091,5.09,5.09,0,0,0,.642-1.6A8.857,8.857,0,0,0,167.057,701.866Z" transform="translate(391.067 884.963)" fill="#12263f"/>
    <path id="Trazado_748607" data-name="Trazado 748607" d="M204.171,696.286v13.889h-2.388V696.286ZM201.6,692.6a1.435,1.435,0,0,1,.347-.976,1.346,1.346,0,0,1,1.053-.4,1.33,1.33,0,0,1,1.04.4,1.376,1.376,0,0,1,.372.976A1.3,1.3,0,0,1,203,693.936a1.37,1.37,0,0,1-1.053-.385A1.4,1.4,0,0,1,201.6,692.6Z" transform="translate(361.924 883.445)" fill="#12263f"/>
    <path id="Trazado_748608" data-name="Trazado 748608" d="M225.106,719.892a6.833,6.833,0,0,1-2.631-.488,5.962,5.962,0,0,1-2.015-1.4,6.224,6.224,0,0,1-1.284-2.131,7.813,7.813,0,0,1-.449-2.7v-.539a8.475,8.475,0,0,1,.5-3.017,6.748,6.748,0,0,1,1.361-2.259,5.826,5.826,0,0,1,1.951-1.4,5.607,5.607,0,0,1,2.259-.475,5.923,5.923,0,0,1,2.567.514,4.678,4.678,0,0,1,1.784,1.438,6.146,6.146,0,0,1,1.027,2.156,10.291,10.291,0,0,1,.334,2.7v1.065H220.138V711.42h8v-.18a5.923,5.923,0,0,0-.385-1.8,3.231,3.231,0,0,0-1.027-1.438,3,3,0,0,0-1.925-.565,3.234,3.234,0,0,0-1.489.346,3.172,3.172,0,0,0-1.168,1,5.042,5.042,0,0,0-.757,1.63,8.262,8.262,0,0,0-.27,2.221v.539a6.273,6.273,0,0,0,.27,1.861,4.766,4.766,0,0,0,.809,1.515,3.879,3.879,0,0,0,1.3,1.027,3.963,3.963,0,0,0,1.746.372,4.136,4.136,0,0,0,2.131-.513,5.284,5.284,0,0,0,1.528-1.373l1.438,1.142a6.646,6.646,0,0,1-1.142,1.3,5.456,5.456,0,0,1-1.707,1A6.616,6.616,0,0,1,225.106,719.892Z" transform="translate(350.566 873.984)" fill="#12263f"/>
    <path id="Trazado_748609" data-name="Trazado 748609" d="M264.345,708.712v10.924H261.97V705.747h2.247Zm-.565,3.453-.988-.038a8.357,8.357,0,0,1,.423-2.632,6.569,6.569,0,0,1,1.156-2.118,5.141,5.141,0,0,1,1.771-1.386,5.225,5.225,0,0,1,2.3-.5,5.666,5.666,0,0,1,1.848.282,3.353,3.353,0,0,1,1.4.873,3.891,3.891,0,0,1,.9,1.566,7.6,7.6,0,0,1,.308,2.323v9.1h-2.388v-9.126a4,4,0,0,0-.321-1.746,1.973,1.973,0,0,0-.937-.963,3.363,3.363,0,0,0-1.514-.308,3.515,3.515,0,0,0-1.617.372,3.864,3.864,0,0,0-1.245,1.027,5.165,5.165,0,0,0-.809,1.5A5.488,5.488,0,0,0,263.78,712.165Z" transform="translate(321.878 873.984)" fill="#12263f"/>
    <path id="Trazado_748610" data-name="Trazado 748610" d="M322.642,712.845v-.3a8.605,8.605,0,0,1,.436-2.785,6.623,6.623,0,0,1,1.258-2.246,5.614,5.614,0,0,1,1.99-1.489,6.66,6.66,0,0,1,5.25,0,5.584,5.584,0,0,1,2,1.489,6.506,6.506,0,0,1,1.271,2.246,8.6,8.6,0,0,1,.437,2.785v.3a8.594,8.594,0,0,1-.437,2.785,6.668,6.668,0,0,1-1.271,2.246,5.823,5.823,0,0,1-1.99,1.489,6.245,6.245,0,0,1-2.618.526,6.336,6.336,0,0,1-2.632-.526,5.959,5.959,0,0,1-2-1.489,6.791,6.791,0,0,1-1.258-2.246A8.6,8.6,0,0,1,322.642,712.845Zm2.374-.3v.3a7.673,7.673,0,0,0,.244,1.964,5.174,5.174,0,0,0,.732,1.617,3.7,3.7,0,0,0,1.245,1.117,3.621,3.621,0,0,0,1.733.4,3.52,3.52,0,0,0,1.707-.4,3.583,3.583,0,0,0,1.232-1.117,5.166,5.166,0,0,0,.732-1.617,7.3,7.3,0,0,0,.257-1.964v-.3a7.109,7.109,0,0,0-.257-1.938,4.985,4.985,0,0,0-.745-1.63,3.537,3.537,0,0,0-1.232-1.13,3.454,3.454,0,0,0-1.72-.411,3.5,3.5,0,0,0-1.72.411,3.689,3.689,0,0,0-1.232,1.13,5.152,5.152,0,0,0-.732,1.63A7.469,7.469,0,0,0,325.016,712.55Z" transform="translate(281.629 873.984)" fill="#12263f"/>
    <path id="Trazado_748611" data-name="Trazado 748611" d="M104.307,808a2,2,0,0,0-.231-.95,1.962,1.962,0,0,0-.911-.809,7.48,7.48,0,0,0-2.054-.642,16.268,16.268,0,0,1-2.092-.578,6.355,6.355,0,0,1-1.579-.809,3.4,3.4,0,0,1-.988-1.117,3.114,3.114,0,0,1-.347-1.5,3.477,3.477,0,0,1,.359-1.553,4.165,4.165,0,0,1,1.04-1.3,5.06,5.06,0,0,1,1.63-.886,6.6,6.6,0,0,1,2.118-.321,6.318,6.318,0,0,1,2.849.59,4.431,4.431,0,0,1,1.81,1.579,3.918,3.918,0,0,1,.629,2.169h-2.375a2.035,2.035,0,0,0-.347-1.117,2.557,2.557,0,0,0-.988-.912,3.191,3.191,0,0,0-1.579-.359,3.592,3.592,0,0,0-1.6.308,2.056,2.056,0,0,0-.886.757,1.908,1.908,0,0,0-.27.976,1.788,1.788,0,0,0,.128.693,1.531,1.531,0,0,0,.488.552,4.019,4.019,0,0,0,.975.462,14.993,14.993,0,0,0,1.6.437,13.031,13.031,0,0,1,2.811.924,4.138,4.138,0,0,1,1.643,1.322,3.271,3.271,0,0,1,.539,1.9,3.627,3.627,0,0,1-.385,1.669,3.7,3.7,0,0,1-1.091,1.309,5.419,5.419,0,0,1-1.694.847,7.569,7.569,0,0,1-2.2.3,6.721,6.721,0,0,1-3.106-.655,4.8,4.8,0,0,1-1.926-1.694,4.054,4.054,0,0,1-.655-2.2h2.388a2.456,2.456,0,0,0,.565,1.553,2.881,2.881,0,0,0,1.258.809,4.961,4.961,0,0,0,1.476.231,4.489,4.489,0,0,0,1.63-.257,2.27,2.27,0,0,0,1.014-.706A1.637,1.637,0,0,0,104.307,808Z" transform="translate(432.227 812.923)" fill="#12263f"/>
    <path id="Trazado_748612" data-name="Trazado 748612" d="M142.279,811.937a6.832,6.832,0,0,1-2.631-.488,5.964,5.964,0,0,1-2.015-1.4,6.223,6.223,0,0,1-1.284-2.131,7.813,7.813,0,0,1-.449-2.7v-.539a8.475,8.475,0,0,1,.5-3.017,6.75,6.75,0,0,1,1.361-2.259,5.83,5.83,0,0,1,1.951-1.4,5.6,5.6,0,0,1,2.259-.475,5.921,5.921,0,0,1,2.567.513,4.681,4.681,0,0,1,1.784,1.438,6.148,6.148,0,0,1,1.027,2.157,10.29,10.29,0,0,1,.334,2.7V805.4H137.311v-1.938h8v-.18a5.928,5.928,0,0,0-.385-1.8,3.233,3.233,0,0,0-1.027-1.438,3,3,0,0,0-1.925-.565,3.235,3.235,0,0,0-1.489.347,3.172,3.172,0,0,0-1.168,1,5.046,5.046,0,0,0-.757,1.63,8.262,8.262,0,0,0-.27,2.221v.539a6.272,6.272,0,0,0,.27,1.861,4.755,4.755,0,0,0,.809,1.514,3.871,3.871,0,0,0,1.3,1.027,3.962,3.962,0,0,0,1.746.372,4.135,4.135,0,0,0,2.131-.513,5.278,5.278,0,0,0,1.528-1.374l1.438,1.143a6.65,6.65,0,0,1-1.142,1.3,5.453,5.453,0,0,1-1.707,1A6.608,6.608,0,0,1,142.279,811.937Z" transform="translate(405.513 812.923)" fill="#12263f"/>
    <path id="Trazado_748613" data-name="Trazado 748613" d="M181.518,799.974v11.707h-2.375V797.792h2.311Zm4.339-2.259-.013,2.208a3.426,3.426,0,0,0-.565-.077q-.256-.026-.59-.026a3.818,3.818,0,0,0-1.45.257,3.008,3.008,0,0,0-1.065.719,3.457,3.457,0,0,0-.693,1.1,5.316,5.316,0,0,0-.321,1.387l-.667.385a10.938,10.938,0,0,1,.244-2.362,6.428,6.428,0,0,1,.783-1.951,3.838,3.838,0,0,1,1.335-1.335,3.753,3.753,0,0,1,1.951-.488,3.148,3.148,0,0,1,.591.064A1.746,1.746,0,0,1,185.856,797.715Z" transform="translate(376.825 812.923)" fill="#12263f"/>
    <path id="Trazado_748614" data-name="Trazado 748614" d="M207.786,810.043l3.8-11.745h2.426l-4.993,13.889h-1.592ZM204.615,798.3l3.915,11.809.269,2.08h-1.591L202.176,798.3Z" transform="translate(361.545 812.416)" fill="#12263f"/>
    <path id="Trazado_748615" data-name="Trazado 748615" d="M246.729,788.331v13.889h-2.388V788.331Zm-2.567-3.684a1.432,1.432,0,0,1,.347-.976,1.345,1.345,0,0,1,1.052-.4,1.328,1.328,0,0,1,1.04.4,1.373,1.373,0,0,1,.372.976,1.3,1.3,0,0,1-1.412,1.335,1.369,1.369,0,0,1-1.052-.385A1.4,1.4,0,0,1,244.162,784.646Z" transform="translate(333.692 822.384)" fill="#12263f"/>
    <path id="Trazado_748616" data-name="Trazado 748616" d="M267.458,809.986a3.556,3.556,0,0,0,1.566-.347,3.224,3.224,0,0,0,1.181-.95,2.644,2.644,0,0,0,.526-1.4h2.259a4.236,4.236,0,0,1-.834,2.3,5.7,5.7,0,0,1-1.99,1.707,5.776,5.776,0,0,1-2.708.642,6.338,6.338,0,0,1-2.734-.552,5.424,5.424,0,0,1-1.925-1.515,6.77,6.77,0,0,1-1.142-2.208,9.323,9.323,0,0,1-.372-2.657v-.539a9.188,9.188,0,0,1,.372-2.644A6.744,6.744,0,0,1,262.8,799.6a5.416,5.416,0,0,1,1.925-1.515,6.339,6.339,0,0,1,2.734-.552,5.841,5.841,0,0,1,2.849.668,4.9,4.9,0,0,1,1.913,1.8,5.193,5.193,0,0,1,.77,2.567h-2.259a3.421,3.421,0,0,0-.488-1.553,3.044,3.044,0,0,0-1.13-1.1,3.157,3.157,0,0,0-1.656-.424,3.575,3.575,0,0,0-1.836.437,3.218,3.218,0,0,0-1.168,1.155,5.39,5.39,0,0,0-.616,1.6,8.819,8.819,0,0,0-.18,1.784v.539a9.012,9.012,0,0,0,.18,1.8,5.15,5.15,0,0,0,.6,1.6,3.358,3.358,0,0,0,1.168,1.156A3.7,3.7,0,0,0,267.458,809.986Z" transform="translate(322.333 812.923)" fill="#12263f"/>
    <path id="Trazado_748617" data-name="Trazado 748617" d="M306.6,788.331v13.889h-2.388V788.331Zm-2.567-3.684a1.432,1.432,0,0,1,.347-.976,1.346,1.346,0,0,1,1.053-.4,1.329,1.329,0,0,1,1.04.4,1.375,1.375,0,0,1,.372.976,1.3,1.3,0,0,1-1.412,1.335,1.37,1.37,0,0,1-1.053-.385A1.4,1.4,0,0,1,304.032,784.646Z" transform="translate(293.975 822.384)" fill="#12263f"/>
    <path id="Trazado_748618" data-name="Trazado 748618" d="M321.116,804.89v-.3a8.6,8.6,0,0,1,.437-2.785,6.616,6.616,0,0,1,1.258-2.247,5.608,5.608,0,0,1,1.99-1.489,6.658,6.658,0,0,1,5.25,0,5.587,5.587,0,0,1,2,1.489,6.508,6.508,0,0,1,1.271,2.247,8.6,8.6,0,0,1,.436,2.785v.3a8.6,8.6,0,0,1-.436,2.785,6.668,6.668,0,0,1-1.271,2.246,5.826,5.826,0,0,1-1.99,1.489,6.253,6.253,0,0,1-2.619.526,6.34,6.34,0,0,1-2.631-.526,5.949,5.949,0,0,1-2-1.489,6.782,6.782,0,0,1-1.258-2.246A8.6,8.6,0,0,1,321.116,804.89Zm2.375-.3v.3a7.668,7.668,0,0,0,.244,1.964,5.171,5.171,0,0,0,.731,1.617,3.709,3.709,0,0,0,1.245,1.117,3.622,3.622,0,0,0,1.733.4,3.518,3.518,0,0,0,1.707-.4,3.585,3.585,0,0,0,1.232-1.117,5.169,5.169,0,0,0,.732-1.617,7.312,7.312,0,0,0,.256-1.964v-.3a7.126,7.126,0,0,0-.256-1.938,5,5,0,0,0-.745-1.63,3.538,3.538,0,0,0-1.232-1.129,3.455,3.455,0,0,0-1.72-.411,3.5,3.5,0,0,0-1.72.411,3.7,3.7,0,0,0-1.232,1.129,5.159,5.159,0,0,0-.731,1.63A7.472,7.472,0,0,0,323.491,804.6Z" transform="translate(282.642 812.923)" fill="#12263f"/>
    <path id="Trazado_748619" data-name="Trazado 748619" d="M394.277,809.306v-7.15a2.9,2.9,0,0,0-.334-1.425,2.186,2.186,0,0,0-.976-.95,3.535,3.535,0,0,0-1.617-.334,3.794,3.794,0,0,0-1.579.308,2.749,2.749,0,0,0-1.053.809,1.772,1.772,0,0,0-.372,1.078h-2.375a3.144,3.144,0,0,1,.385-1.476,4.317,4.317,0,0,1,1.1-1.322,5.514,5.514,0,0,1,1.746-.95,6.882,6.882,0,0,1,2.285-.36,6.516,6.516,0,0,1,2.67.513,4,4,0,0,1,1.823,1.553,4.642,4.642,0,0,1,.667,2.58v6.47a10.117,10.117,0,0,0,.115,1.476,5.761,5.761,0,0,0,.372,1.348v.206h-2.477a4.431,4.431,0,0,1-.282-1.091A8.817,8.817,0,0,1,394.277,809.306Zm.411-6.046.026,1.669h-2.4a8.847,8.847,0,0,0-1.81.167,4.133,4.133,0,0,0-1.335.475,2.254,2.254,0,0,0-.822.809,2.146,2.146,0,0,0-.282,1.117,2.445,2.445,0,0,0,.3,1.194,2.147,2.147,0,0,0,.886.86,3.217,3.217,0,0,0,1.476.308,3.909,3.909,0,0,0,1.925-.462,4.009,4.009,0,0,0,1.322-1.13,2.432,2.432,0,0,0,.539-1.3l1.014,1.142a3.451,3.451,0,0,1-.488,1.194,5.758,5.758,0,0,1-2.632,2.246,5.1,5.1,0,0,1-2.028.385,5.313,5.313,0,0,1-2.477-.552,4.24,4.24,0,0,1-1.643-1.476,3.908,3.908,0,0,1-.578-2.092,4.228,4.228,0,0,1,.437-1.964,3.787,3.787,0,0,1,1.258-1.425,5.979,5.979,0,0,1,1.977-.873,10.423,10.423,0,0,1,2.58-.3Z" transform="translate(239.812 812.923)" fill="#12263f"/>
    <path id="Trazado_748620" data-name="Trazado 748620" d="M121.9,902.031a3.558,3.558,0,0,0,1.566-.347,3.225,3.225,0,0,0,1.181-.95,2.645,2.645,0,0,0,.526-1.4h2.259a4.236,4.236,0,0,1-.834,2.3,5.692,5.692,0,0,1-1.99,1.707,5.773,5.773,0,0,1-2.708.642,6.34,6.34,0,0,1-2.734-.552,5.422,5.422,0,0,1-1.925-1.515,6.767,6.767,0,0,1-1.142-2.208,9.318,9.318,0,0,1-.372-2.657v-.539a9.189,9.189,0,0,1,.372-2.644,6.752,6.752,0,0,1,1.142-2.221,5.419,5.419,0,0,1,1.925-1.515,6.34,6.34,0,0,1,2.734-.552,5.843,5.843,0,0,1,2.85.667,4.9,4.9,0,0,1,1.913,1.8,5.194,5.194,0,0,1,.77,2.567h-2.259a3.42,3.42,0,0,0-.488-1.553,3.04,3.04,0,0,0-1.13-1.1,3.156,3.156,0,0,0-1.656-.423,3.576,3.576,0,0,0-1.836.436,3.214,3.214,0,0,0-1.168,1.156,5.4,5.4,0,0,0-.616,1.6,8.825,8.825,0,0,0-.18,1.784v.539a9.008,9.008,0,0,0,.18,1.8,5.164,5.164,0,0,0,.6,1.6,3.357,3.357,0,0,0,1.168,1.155A3.691,3.691,0,0,0,121.9,902.031Z" transform="translate(418.895 751.86)" fill="#12263f"/>
    <path id="Trazado_748621" data-name="Trazado 748621" d="M156.568,896.935v-.3a8.594,8.594,0,0,1,.437-2.785,6.612,6.612,0,0,1,1.258-2.246,5.612,5.612,0,0,1,1.99-1.489,6.663,6.663,0,0,1,5.25,0,5.585,5.585,0,0,1,2,1.489,6.5,6.5,0,0,1,1.271,2.246,8.6,8.6,0,0,1,.436,2.785v.3a8.6,8.6,0,0,1-.436,2.785,6.667,6.667,0,0,1-1.271,2.247,5.817,5.817,0,0,1-1.99,1.489,6.245,6.245,0,0,1-2.618.526,6.333,6.333,0,0,1-2.631-.526,5.947,5.947,0,0,1-2-1.489A6.784,6.784,0,0,1,157,899.72,8.593,8.593,0,0,1,156.568,896.935Zm2.375-.3v.3a7.673,7.673,0,0,0,.244,1.964,5.174,5.174,0,0,0,.732,1.617,3.705,3.705,0,0,0,1.245,1.117,3.625,3.625,0,0,0,1.733.4,3.521,3.521,0,0,0,1.707-.4,3.584,3.584,0,0,0,1.232-1.117,5.173,5.173,0,0,0,.731-1.617,7.3,7.3,0,0,0,.257-1.964v-.3a7.11,7.11,0,0,0-.257-1.938,5,5,0,0,0-.744-1.63,3.539,3.539,0,0,0-1.232-1.13,3.46,3.46,0,0,0-1.72-.411,3.505,3.505,0,0,0-1.72.411,3.7,3.7,0,0,0-1.232,1.13,5.156,5.156,0,0,0-.732,1.63A7.471,7.471,0,0,0,158.943,896.64Z" transform="translate(391.801 751.86)" fill="#12263f"/>
    <path id="Trazado_748622" data-name="Trazado 748622" d="M205.289,892.6v11.129H202.9V889.837h2.259Zm-.488,3.658-1.1-.038a9.494,9.494,0,0,1,.372-2.632,6.248,6.248,0,0,1,1.065-2.118,4.735,4.735,0,0,1,1.759-1.386,5.615,5.615,0,0,1,2.439-.5,5.5,5.5,0,0,1,1.8.282,3.625,3.625,0,0,1,1.425.86,3.964,3.964,0,0,1,.937,1.515,6.6,6.6,0,0,1,.334,2.234v9.255H211.45v-9.139a3.522,3.522,0,0,0-.372-1.746,2.125,2.125,0,0,0-1.027-.95,4.239,4.239,0,0,0-3.325.064,2.973,2.973,0,0,0-1.13,1.027,4.624,4.624,0,0,0-.616,1.5A8.393,8.393,0,0,0,204.8,896.255Zm9-1.309-1.592.488a6.984,6.984,0,0,1,.372-2.2,5.956,5.956,0,0,1,1.065-1.874,5.04,5.04,0,0,1,1.733-1.3,5.412,5.412,0,0,1,2.349-.488,6.076,6.076,0,0,1,1.977.3,3.574,3.574,0,0,1,1.464.911,3.822,3.822,0,0,1,.911,1.553,7.36,7.36,0,0,1,.308,2.259v9.126H220v-9.152a3.638,3.638,0,0,0-.372-1.81,1.94,1.94,0,0,0-1.027-.911,4.1,4.1,0,0,0-1.566-.27,3.366,3.366,0,0,0-1.386.27,2.865,2.865,0,0,0-1.014.745,3.249,3.249,0,0,0-.629,1.065A3.954,3.954,0,0,0,213.8,894.946Z" transform="translate(361.064 751.86)" fill="#12263f"/>
    <path id="Trazado_748623" data-name="Trazado 748623" d="M273.816,892.506v16.559h-2.388V889.837h2.182Zm9.357,4.159v.269a10.5,10.5,0,0,1-.359,2.811,6.918,6.918,0,0,1-1.053,2.234,4.79,4.79,0,0,1-1.682,1.476,4.862,4.862,0,0,1-2.3.526,5.863,5.863,0,0,1-2.336-.437,4.6,4.6,0,0,1-1.72-1.271,6.481,6.481,0,0,1-1.13-2,11.579,11.579,0,0,1-.565-2.631V896.2a12.077,12.077,0,0,1,.578-2.76,6.876,6.876,0,0,1,1.117-2.08,4.584,4.584,0,0,1,1.707-1.322,5.459,5.459,0,0,1,2.31-.462,5.072,5.072,0,0,1,2.323.513,4.675,4.675,0,0,1,1.707,1.438,6.557,6.557,0,0,1,1.04,2.246A10.816,10.816,0,0,1,283.173,896.666Zm-2.388.269v-.269a8.364,8.364,0,0,0-.218-1.951,4.932,4.932,0,0,0-.68-1.617,3.242,3.242,0,0,0-1.155-1.1,3.284,3.284,0,0,0-1.682-.411,3.706,3.706,0,0,0-1.566.308,3.391,3.391,0,0,0-1.117.834,4.434,4.434,0,0,0-.757,1.181,6.792,6.792,0,0,0-.423,1.36v3.325a7.415,7.415,0,0,0,.719,1.694,3.725,3.725,0,0,0,1.232,1.271,3.638,3.638,0,0,0,1.939.475,3.274,3.274,0,0,0,1.656-.4,3.353,3.353,0,0,0,1.155-1.117,5.1,5.1,0,0,0,.68-1.617A8.531,8.531,0,0,0,280.785,896.935Z" transform="translate(315.604 751.86)" fill="#12263f"/>
    <path id="Trazado_748624" data-name="Trazado 748624" d="M317.695,892.019v11.707H315.32V889.837h2.311Zm4.339-2.259-.013,2.208a3.409,3.409,0,0,0-.565-.077q-.257-.026-.59-.026a3.817,3.817,0,0,0-1.45.257,3,3,0,0,0-1.065.719,3.459,3.459,0,0,0-.693,1.1,5.316,5.316,0,0,0-.321,1.387l-.667.385a10.931,10.931,0,0,1,.244-2.362,6.416,6.416,0,0,1,.783-1.951,3.829,3.829,0,0,1,1.335-1.335,3.752,3.752,0,0,1,1.951-.488,3.171,3.171,0,0,1,.59.064A1.764,1.764,0,0,1,322.033,889.759Z" transform="translate(286.486 751.86)" fill="#12263f"/>
    <path id="Trazado_748625" data-name="Trazado 748625" d="M347.639,901.351V894.2a2.9,2.9,0,0,0-.334-1.425,2.186,2.186,0,0,0-.976-.95,3.534,3.534,0,0,0-1.617-.333,3.794,3.794,0,0,0-1.579.308,2.75,2.75,0,0,0-1.053.808,1.773,1.773,0,0,0-.372,1.078h-2.375a3.143,3.143,0,0,1,.385-1.476,4.32,4.32,0,0,1,1.1-1.322,5.52,5.52,0,0,1,1.746-.95,6.88,6.88,0,0,1,2.285-.359,6.517,6.517,0,0,1,2.67.513,4,4,0,0,1,1.823,1.553,4.644,4.644,0,0,1,.668,2.58v6.47a10.128,10.128,0,0,0,.115,1.476,5.767,5.767,0,0,0,.372,1.348v.205h-2.477a4.443,4.443,0,0,1-.282-1.091A8.815,8.815,0,0,1,347.639,901.351Zm.411-6.046.026,1.669h-2.4a8.9,8.9,0,0,0-1.81.167,4.157,4.157,0,0,0-1.335.475,2.259,2.259,0,0,0-.822.809,2.146,2.146,0,0,0-.282,1.117,2.446,2.446,0,0,0,.3,1.193,2.147,2.147,0,0,0,.886.86,3.218,3.218,0,0,0,1.476.308,3.9,3.9,0,0,0,1.925-.462,4,4,0,0,0,1.322-1.129,2.436,2.436,0,0,0,.539-1.3l1.014,1.143a3.446,3.446,0,0,1-.488,1.194,5.758,5.758,0,0,1-2.631,2.247,5.1,5.1,0,0,1-2.028.385,5.312,5.312,0,0,1-2.477-.552,4.239,4.239,0,0,1-1.643-1.476,3.908,3.908,0,0,1-.578-2.092,4.232,4.232,0,0,1,.437-1.964,3.79,3.79,0,0,1,1.258-1.425,5.975,5.975,0,0,1,1.977-.873,10.442,10.442,0,0,1,2.58-.3Z" transform="translate(270.751 751.86)" fill="#12263f"/>
    <path id="Trazado_748626" data-name="Trazado 748626" d="M385.116,892.019v11.707h-2.375V889.837h2.311Zm4.339-2.259-.013,2.208a3.411,3.411,0,0,0-.565-.077q-.257-.026-.59-.026a3.816,3.816,0,0,0-1.45.257,3,3,0,0,0-1.065.719,3.457,3.457,0,0,0-.693,1.1,5.3,5.3,0,0,0-.321,1.387l-.667.385a10.914,10.914,0,0,1,.244-2.362,6.416,6.416,0,0,1,.783-1.951,3.828,3.828,0,0,1,1.335-1.335,3.752,3.752,0,0,1,1.951-.488,3.174,3.174,0,0,1,.59.064A1.764,1.764,0,0,1,389.454,889.759Z" transform="translate(241.76 751.86)" fill="#12263f"/>
    <path id="Trazado_748627" data-name="Trazado 748627" d="M811.407,514.186H656.491a5.633,5.633,0,0,0-5.633,5.633V674.734a5.633,5.633,0,0,0,5.633,5.633H811.407a5.632,5.632,0,0,0,5.631-5.633V519.819A5.632,5.632,0,0,0,811.407,514.186ZM656.491,510.43a9.389,9.389,0,0,0-9.389,9.389V674.734a9.389,9.389,0,0,0,9.389,9.39H811.407a9.39,9.39,0,0,0,9.388-9.39V519.819a9.389,9.389,0,0,0-9.388-9.389Z" transform="translate(66.385 1003.385)" fill="#1a0f91" fill-rule="evenodd"/>
    <path id="Trazado_748628" data-name="Trazado 748628" d="M750.962,660.823a3.022,3.022,0,0,0-.205-1.155,2.2,2.2,0,0,0-.693-.924,5.445,5.445,0,0,0-1.361-.783,19.039,19.039,0,0,0-2.182-.757,20.064,20.064,0,0,1-2.5-.911,8.751,8.751,0,0,1-1.913-1.168,4.608,4.608,0,0,1-1.22-1.5,4.276,4.276,0,0,1-.424-1.938,4.546,4.546,0,0,1,.449-2.015,4.711,4.711,0,0,1,1.284-1.6,6.209,6.209,0,0,1,2.015-1.078,8.285,8.285,0,0,1,2.606-.385,7.283,7.283,0,0,1,3.568.809,5.661,5.661,0,0,1,2.246,2.092,5.25,5.25,0,0,1,.77,2.747h-2.465a3.769,3.769,0,0,0-.449-1.862,3.094,3.094,0,0,0-1.361-1.283,4.975,4.975,0,0,0-2.31-.475,5.207,5.207,0,0,0-2.182.4,2.885,2.885,0,0,0-1.284,1.078,2.945,2.945,0,0,0-.411,1.553,2.378,2.378,0,0,0,.244,1.079,2.884,2.884,0,0,0,.783.886,6.278,6.278,0,0,0,1.361.757,17.4,17.4,0,0,0,1.99.667,17.356,17.356,0,0,1,2.747,1,7.531,7.531,0,0,1,1.9,1.245,4.26,4.26,0,0,1,1.117,1.553,4.872,4.872,0,0,1,.372,1.951,4.552,4.552,0,0,1-.462,2.066,4.49,4.49,0,0,1-1.322,1.579,6.379,6.379,0,0,1-2.066,1.014,9.557,9.557,0,0,1-2.67.347,9.255,9.255,0,0,1-2.555-.359,7.606,7.606,0,0,1-2.272-1.078,5.651,5.651,0,0,1-1.63-1.771,4.917,4.917,0,0,1-.6-2.465h2.465a3.455,3.455,0,0,0,.372,1.656,3.288,3.288,0,0,0,1.014,1.13,4.727,4.727,0,0,0,1.476.668,7.219,7.219,0,0,0,1.733.205,5.922,5.922,0,0,0,2.2-.359,2.913,2.913,0,0,0,1.361-1.027A2.652,2.652,0,0,0,750.962,660.823Z" transform="translate(4.843 913.051)" fill="#12263f"/>
    <path id="Trazado_748629" data-name="Trazado 748629" d="M793.08,675.265a6.832,6.832,0,0,1-2.632-.488,5.968,5.968,0,0,1-2.015-1.4,6.22,6.22,0,0,1-1.283-2.131,7.812,7.812,0,0,1-.449-2.7v-.539a8.48,8.48,0,0,1,.5-3.016,6.754,6.754,0,0,1,1.361-2.259,5.828,5.828,0,0,1,1.951-1.4,5.6,5.6,0,0,1,2.259-.475,5.921,5.921,0,0,1,2.567.513,4.681,4.681,0,0,1,1.784,1.438,6.148,6.148,0,0,1,1.027,2.157,10.294,10.294,0,0,1,.334,2.7v1.065H788.112v-1.938h8v-.18a5.921,5.921,0,0,0-.385-1.8,3.227,3.227,0,0,0-1.027-1.438,3,3,0,0,0-1.925-.565,3.23,3.23,0,0,0-1.489.347,3.168,3.168,0,0,0-1.168,1,5.035,5.035,0,0,0-.757,1.63,8.267,8.267,0,0,0-.27,2.221v.539a6.276,6.276,0,0,0,.27,1.861,4.761,4.761,0,0,0,.809,1.515,3.875,3.875,0,0,0,1.3,1.027,3.962,3.962,0,0,0,1.746.372,4.135,4.135,0,0,0,2.131-.514,5.274,5.274,0,0,0,1.528-1.373l1.438,1.142a6.656,6.656,0,0,1-1.143,1.3,5.456,5.456,0,0,1-1.707,1A6.607,6.607,0,0,1,793.08,675.265Z" transform="translate(-26.223 903.589)" fill="#12263f"/>
    <path id="Trazado_748630" data-name="Trazado 748630" d="M832.9,644.312v19.717h-2.388V644.312Z" transform="translate(-55.29 914.569)" fill="#12263f"/>
    <path id="Trazado_748631" data-name="Trazado 748631" d="M853.484,675.265a6.833,6.833,0,0,1-2.632-.488,5.968,5.968,0,0,1-2.015-1.4,6.224,6.224,0,0,1-1.284-2.131,7.814,7.814,0,0,1-.449-2.7v-.539a8.481,8.481,0,0,1,.5-3.016,6.751,6.751,0,0,1,1.361-2.259,5.823,5.823,0,0,1,1.951-1.4,5.6,5.6,0,0,1,2.259-.475,5.92,5.92,0,0,1,2.567.513,4.682,4.682,0,0,1,1.784,1.438,6.147,6.147,0,0,1,1.027,2.157,10.294,10.294,0,0,1,.334,2.7v1.065H848.516v-1.938h8v-.18a5.914,5.914,0,0,0-.385-1.8,3.23,3.23,0,0,0-1.027-1.438,3,3,0,0,0-1.925-.565,3.23,3.23,0,0,0-1.489.347,3.171,3.171,0,0,0-1.168,1,5.043,5.043,0,0,0-.757,1.63,8.262,8.262,0,0,0-.27,2.221v.539a6.272,6.272,0,0,0,.27,1.861,4.761,4.761,0,0,0,.809,1.515,3.876,3.876,0,0,0,1.3,1.027,3.962,3.962,0,0,0,1.746.372,4.135,4.135,0,0,0,2.131-.514,5.272,5.272,0,0,0,1.528-1.373l1.438,1.142a6.647,6.647,0,0,1-1.142,1.3,5.454,5.454,0,0,1-1.707,1A6.608,6.608,0,0,1,853.484,675.265Z" transform="translate(-66.294 903.589)" fill="#12263f"/>
    <path id="Trazado_748632" data-name="Trazado 748632" d="M894.692,673.314a3.562,3.562,0,0,0,1.566-.347,3.226,3.226,0,0,0,1.181-.95,2.645,2.645,0,0,0,.526-1.4h2.259a4.234,4.234,0,0,1-.834,2.3,5.7,5.7,0,0,1-1.99,1.707,5.773,5.773,0,0,1-2.708.642,6.339,6.339,0,0,1-2.734-.552,5.417,5.417,0,0,1-1.925-1.515,6.761,6.761,0,0,1-1.142-2.208,9.3,9.3,0,0,1-.372-2.657v-.539a9.176,9.176,0,0,1,.372-2.644,6.743,6.743,0,0,1,1.142-2.221,5.423,5.423,0,0,1,1.925-1.515,6.338,6.338,0,0,1,2.734-.552,5.842,5.842,0,0,1,2.85.668,4.9,4.9,0,0,1,1.913,1.8,5.2,5.2,0,0,1,.77,2.567h-2.259a3.422,3.422,0,0,0-.488-1.553,3.04,3.04,0,0,0-1.13-1.1,3.159,3.159,0,0,0-1.656-.424,3.573,3.573,0,0,0-1.836.437,3.216,3.216,0,0,0-1.168,1.155,5.4,5.4,0,0,0-.616,1.6,8.826,8.826,0,0,0-.179,1.784v.539a9.01,9.01,0,0,0,.179,1.8,5.148,5.148,0,0,0,.6,1.6,3.353,3.353,0,0,0,1.168,1.155A3.691,3.691,0,0,0,894.692,673.314Z" transform="translate(-93.768 903.589)" fill="#12263f"/>
    <path id="Trazado_748633" data-name="Trazado 748633" d="M935.571,673.314a3.559,3.559,0,0,0,1.566-.347,3.226,3.226,0,0,0,1.181-.95,2.645,2.645,0,0,0,.526-1.4H941.1a4.242,4.242,0,0,1-.834,2.3,5.694,5.694,0,0,1-1.99,1.707,5.774,5.774,0,0,1-2.708.642,6.34,6.34,0,0,1-2.734-.552,5.42,5.42,0,0,1-1.925-1.515,6.766,6.766,0,0,1-1.142-2.208,9.312,9.312,0,0,1-.372-2.657v-.539a9.184,9.184,0,0,1,.372-2.644,6.749,6.749,0,0,1,1.142-2.221,5.425,5.425,0,0,1,1.925-1.515,6.339,6.339,0,0,1,2.734-.552,5.844,5.844,0,0,1,2.85.668,4.9,4.9,0,0,1,1.913,1.8,5.2,5.2,0,0,1,.77,2.567h-2.259a3.421,3.421,0,0,0-.488-1.553,3.043,3.043,0,0,0-1.13-1.1,3.159,3.159,0,0,0-1.656-.424,3.572,3.572,0,0,0-1.836.437,3.22,3.22,0,0,0-1.168,1.155,5.4,5.4,0,0,0-.616,1.6,8.822,8.822,0,0,0-.18,1.784v.539a9.006,9.006,0,0,0,.18,1.8,5.149,5.149,0,0,0,.6,1.6,3.355,3.355,0,0,0,1.168,1.155A3.69,3.69,0,0,0,935.571,673.314Z" transform="translate(-120.887 903.589)" fill="#12263f"/>
    <path id="Trazado_748634" data-name="Trazado 748634" d="M974.713,651.658v13.889h-2.388V651.658Zm-2.567-3.684a1.434,1.434,0,0,1,.346-.976,1.346,1.346,0,0,1,1.053-.4,1.329,1.329,0,0,1,1.04.4,1.375,1.375,0,0,1,.372.976,1.3,1.3,0,0,1-1.412,1.335,1.371,1.371,0,0,1-1.053-.385A1.4,1.4,0,0,1,972.146,647.974Z" transform="translate(-149.246 913.051)" fill="#12263f"/>
    <path id="Trazado_748635" data-name="Trazado 748635" d="M989.23,657.238v-.3a8.606,8.606,0,0,1,.436-2.785,6.621,6.621,0,0,1,1.258-2.246,5.621,5.621,0,0,1,1.988-1.489,6.665,6.665,0,0,1,5.251,0,5.591,5.591,0,0,1,2,1.489,6.553,6.553,0,0,1,1.272,2.246,8.644,8.644,0,0,1,.434,2.785v.3a8.645,8.645,0,0,1-.434,2.786,6.718,6.718,0,0,1-1.272,2.246,5.845,5.845,0,0,1-1.989,1.489,6.253,6.253,0,0,1-2.619.526,6.349,6.349,0,0,1-2.632-.526,5.965,5.965,0,0,1-2-1.489,6.79,6.79,0,0,1-1.258-2.246A8.607,8.607,0,0,1,989.23,657.238Zm2.375-.3v.3a7.666,7.666,0,0,0,.244,1.964,5.168,5.168,0,0,0,.732,1.617,3.7,3.7,0,0,0,1.244,1.117,3.628,3.628,0,0,0,1.734.4,3.4,3.4,0,0,0,2.939-1.515,5.194,5.194,0,0,0,.734-1.617,7.424,7.424,0,0,0,.256-1.964v-.3a7.234,7.234,0,0,0-.256-1.938,4.982,4.982,0,0,0-.747-1.63,3.5,3.5,0,0,0-1.232-1.13,3.456,3.456,0,0,0-1.72-.411,3.511,3.511,0,0,0-1.72.411,3.672,3.672,0,0,0-1.231,1.13,5.154,5.154,0,0,0-.732,1.63A7.47,7.47,0,0,0,991.6,656.943Zm2.516-8.857,2.491-3.774h2.861l-3.44,3.774Z" transform="translate(-160.579 914.569)" fill="#12263f"/>
    <path id="Trazado_748636" data-name="Trazado 748636" d="M1038.013,664.085v10.924h-2.373V661.12h2.245Zm-.562,3.453-.99-.038a8.242,8.242,0,0,1,.424-2.632,6.569,6.569,0,0,1,1.155-2.118,5.141,5.141,0,0,1,1.771-1.386,5.232,5.232,0,0,1,2.3-.5,5.666,5.666,0,0,1,1.848.282,3.358,3.358,0,0,1,1.4.873,3.887,3.887,0,0,1,.9,1.566,7.607,7.607,0,0,1,.306,2.323v9.1h-2.386v-9.126a3.976,3.976,0,0,0-.323-1.746,1.965,1.965,0,0,0-.936-.963,3.365,3.365,0,0,0-1.515-.308,3.512,3.512,0,0,0-1.616.372,3.842,3.842,0,0,0-1.245,1.027,5.19,5.19,0,0,0-.811,1.5A5.571,5.571,0,0,0,1037.451,667.538Z" transform="translate(-191.367 903.589)" fill="#12263f"/>
    <path id="Trazado_748637" data-name="Trazado 748637" d="M738.484,755.834v16.559H736.1V753.164h2.182Zm9.358,4.159v.27a10.488,10.488,0,0,1-.359,2.811,6.911,6.911,0,0,1-1.053,2.234,4.788,4.788,0,0,1-1.682,1.476,4.867,4.867,0,0,1-2.3.526,5.865,5.865,0,0,1-2.336-.437,4.611,4.611,0,0,1-1.72-1.271,6.5,6.5,0,0,1-1.13-2,11.6,11.6,0,0,1-.565-2.632V759.53a12.074,12.074,0,0,1,.578-2.76,6.871,6.871,0,0,1,1.117-2.08,4.585,4.585,0,0,1,1.707-1.322,5.46,5.46,0,0,1,2.31-.462,5.073,5.073,0,0,1,2.323.514,4.673,4.673,0,0,1,1.707,1.438,6.551,6.551,0,0,1,1.04,2.246A10.8,10.8,0,0,1,747.841,759.993Zm-2.388.27v-.27a8.349,8.349,0,0,0-.218-1.951,4.922,4.922,0,0,0-.68-1.617,3.24,3.24,0,0,0-1.155-1.1,3.287,3.287,0,0,0-1.681-.411,3.708,3.708,0,0,0-1.566.308,3.393,3.393,0,0,0-1.117.835,4.429,4.429,0,0,0-.757,1.181,6.8,6.8,0,0,0-.424,1.361v3.324a7.426,7.426,0,0,0,.719,1.695,3.721,3.721,0,0,0,1.232,1.271,3.633,3.633,0,0,0,1.938.475,3.273,3.273,0,0,0,1.656-.4,3.346,3.346,0,0,0,1.155-1.117,5.081,5.081,0,0,0,.68-1.617A8.518,8.518,0,0,0,745.454,760.262Z" transform="translate(7.348 842.528)" fill="#12263f"/>
    <path id="Trazado_748638" data-name="Trazado 748638" d="M782.363,755.346v11.707h-2.375V753.164h2.31Zm4.339-2.259-.013,2.208a3.45,3.45,0,0,0-.565-.077q-.257-.025-.59-.026a3.814,3.814,0,0,0-1.45.257,3,3,0,0,0-1.065.719,3.464,3.464,0,0,0-.693,1.1,5.314,5.314,0,0,0-.321,1.386l-.667.385a10.939,10.939,0,0,1,.244-2.362,6.425,6.425,0,0,1,.783-1.951,3.833,3.833,0,0,1,1.335-1.335,3.753,3.753,0,0,1,1.951-.488,3.168,3.168,0,0,1,.591.064A1.754,1.754,0,0,1,786.7,753.087Z" transform="translate(-21.77 842.528)" fill="#12263f"/>
    <path id="Trazado_748639" data-name="Trazado 748639" d="M803.822,760.262v-.3a8.6,8.6,0,0,1,.437-2.785,6.62,6.62,0,0,1,1.258-2.247,5.612,5.612,0,0,1,1.99-1.489,6.659,6.659,0,0,1,5.25,0,5.585,5.585,0,0,1,2,1.489,6.508,6.508,0,0,1,1.271,2.247,8.6,8.6,0,0,1,.436,2.785v.3a8.6,8.6,0,0,1-.436,2.785,6.668,6.668,0,0,1-1.271,2.247,5.823,5.823,0,0,1-1.99,1.489,6.252,6.252,0,0,1-2.619.526,6.338,6.338,0,0,1-2.631-.526,5.953,5.953,0,0,1-2-1.489,6.785,6.785,0,0,1-1.258-2.247A8.592,8.592,0,0,1,803.822,760.262Zm2.375-.3v.3a7.676,7.676,0,0,0,.244,1.964,5.17,5.17,0,0,0,.732,1.617,3.7,3.7,0,0,0,1.245,1.117,3.624,3.624,0,0,0,1.733.4,3.52,3.52,0,0,0,1.707-.4,3.583,3.583,0,0,0,1.232-1.117,5.168,5.168,0,0,0,.732-1.617,7.306,7.306,0,0,0,.257-1.964v-.3a7.113,7.113,0,0,0-.257-1.938,4.992,4.992,0,0,0-.744-1.63,3.537,3.537,0,0,0-1.232-1.13,3.455,3.455,0,0,0-1.72-.411,3.5,3.5,0,0,0-1.72.411,3.694,3.694,0,0,0-1.232,1.13,5.154,5.154,0,0,0-.732,1.63A7.472,7.472,0,0,0,806.2,759.967Z" transform="translate(-37.582 842.528)" fill="#12263f"/>
    <path id="Trazado_748640" data-name="Trazado 748640" d="M851.112,765.415l3.8-11.745h2.426l-4.993,13.889h-1.592Zm-3.171-11.745,3.915,11.809.27,2.08h-1.592L845.5,753.67Z" transform="translate(-65.232 842.021)" fill="#12263f"/>
    <path id="Trazado_748641" data-name="Trazado 748641" d="M891.465,767.309a6.833,6.833,0,0,1-2.631-.488,5.965,5.965,0,0,1-2.015-1.4,6.226,6.226,0,0,1-1.284-2.131,7.822,7.822,0,0,1-.449-2.7v-.539a8.473,8.473,0,0,1,.5-3.017,6.744,6.744,0,0,1,1.361-2.259,5.828,5.828,0,0,1,1.951-1.4,5.61,5.61,0,0,1,2.259-.475,5.923,5.923,0,0,1,2.567.514,4.676,4.676,0,0,1,1.784,1.438,6.147,6.147,0,0,1,1.027,2.156,10.29,10.29,0,0,1,.334,2.7v1.065H886.5v-1.938h8v-.18a5.92,5.92,0,0,0-.385-1.8,3.231,3.231,0,0,0-1.027-1.438,3,3,0,0,0-1.925-.565,3.234,3.234,0,0,0-1.489.346,3.17,3.17,0,0,0-1.168,1,5.04,5.04,0,0,0-.757,1.63,8.279,8.279,0,0,0-.269,2.221v.539a6.287,6.287,0,0,0,.269,1.861,4.776,4.776,0,0,0,.809,1.515,3.881,3.881,0,0,0,1.3,1.027,3.963,3.963,0,0,0,1.746.372,4.136,4.136,0,0,0,2.131-.513,5.279,5.279,0,0,0,1.528-1.373l1.438,1.142a6.646,6.646,0,0,1-1.142,1.3,5.459,5.459,0,0,1-1.707,1A6.615,6.615,0,0,1,891.465,767.309Z" transform="translate(-91.491 842.528)" fill="#12263f"/>
    <path id="Trazado_748642" data-name="Trazado 748642" d="M932.879,767.309a6.834,6.834,0,0,1-2.632-.488,5.968,5.968,0,0,1-2.015-1.4,6.23,6.23,0,0,1-1.284-2.131,7.815,7.815,0,0,1-.449-2.7v-.539a8.483,8.483,0,0,1,.5-3.017,6.746,6.746,0,0,1,1.361-2.259,5.826,5.826,0,0,1,1.951-1.4,5.608,5.608,0,0,1,2.259-.475,5.92,5.92,0,0,1,2.567.514,4.68,4.68,0,0,1,1.784,1.438,6.147,6.147,0,0,1,1.027,2.156,10.293,10.293,0,0,1,.334,2.7v1.065H927.911v-1.938h8v-.18a5.915,5.915,0,0,0-.385-1.8,3.227,3.227,0,0,0-1.027-1.438,3,3,0,0,0-1.925-.565,3.235,3.235,0,0,0-1.489.346,3.172,3.172,0,0,0-1.168,1,5.042,5.042,0,0,0-.757,1.63,8.26,8.26,0,0,0-.27,2.221v.539a6.273,6.273,0,0,0,.27,1.861,4.769,4.769,0,0,0,.808,1.515,3.884,3.884,0,0,0,1.3,1.027,3.962,3.962,0,0,0,1.746.372,4.135,4.135,0,0,0,2.131-.513,5.275,5.275,0,0,0,1.527-1.373l1.438,1.142a6.633,6.633,0,0,1-1.142,1.3,5.454,5.454,0,0,1-1.707,1A6.615,6.615,0,0,1,932.879,767.309Z" transform="translate(-118.964 842.528)" fill="#12263f"/>
    <path id="Trazado_748643" data-name="Trazado 748643" d="M977.334,753.378V736.357h2.386v19.717h-2.181Zm-9.345-4.095v-.27a10.122,10.122,0,0,1,.385-2.888,6.988,6.988,0,0,1,1.117-2.246,5.052,5.052,0,0,1,1.733-1.438,4.927,4.927,0,0,1,2.259-.514,5.287,5.287,0,0,1,2.285.462,4.4,4.4,0,0,1,1.669,1.322,6.481,6.481,0,0,1,1.091,2.08,13.125,13.125,0,0,1,.553,2.76v1.181a12.113,12.113,0,0,1-.553,2.747,6.483,6.483,0,0,1-1.091,2.08,4.569,4.569,0,0,1-1.669,1.322,5.536,5.536,0,0,1-2.31.449,4.776,4.776,0,0,1-2.233-.526,5.27,5.27,0,0,1-1.733-1.476,7.194,7.194,0,0,1-1.117-2.234A9.828,9.828,0,0,1,967.989,749.283Zm2.388-.27v.27a8.855,8.855,0,0,0,.205,1.951,5.114,5.114,0,0,0,.668,1.6,3.317,3.317,0,0,0,1.142,1.091,3.363,3.363,0,0,0,1.656.385,3.447,3.447,0,0,0,1.938-.5,3.728,3.728,0,0,0,1.232-1.322,7.631,7.631,0,0,0,.719-1.784v-3.093a6.855,6.855,0,0,0-.449-1.361,4.187,4.187,0,0,0-.745-1.181,3.223,3.223,0,0,0-1.117-.834,3.621,3.621,0,0,0-1.553-.308,3.176,3.176,0,0,0-2.824,1.515,5.1,5.1,0,0,0-.668,1.618A8.852,8.852,0,0,0,970.377,749.013Z" transform="translate(-146.488 853.508)" fill="#12263f"/>
    <path id="Trazado_748644" data-name="Trazado 748644" d="M1011.96,760.262v-.3a8.643,8.643,0,0,1,.434-2.785,6.639,6.639,0,0,1,1.259-2.247,5.633,5.633,0,0,1,1.989-1.489,6.662,6.662,0,0,1,5.251,0,5.591,5.591,0,0,1,2,1.489,6.492,6.492,0,0,1,1.269,2.247,8.547,8.547,0,0,1,.438,2.785v.3a8.545,8.545,0,0,1-.438,2.785,6.651,6.651,0,0,1-1.269,2.247,5.842,5.842,0,0,1-1.989,1.489,6.252,6.252,0,0,1-2.619.526,6.338,6.338,0,0,1-2.632-.526,5.962,5.962,0,0,1-2-1.489,6.8,6.8,0,0,1-1.259-2.247A8.64,8.64,0,0,1,1011.96,760.262Zm2.373-.3v.3a7.571,7.571,0,0,0,.246,1.964,5.113,5.113,0,0,0,.73,1.617,3.679,3.679,0,0,0,1.245,1.117,3.619,3.619,0,0,0,1.734.4,3.52,3.52,0,0,0,1.707-.4,3.606,3.606,0,0,0,1.232-1.117,5.116,5.116,0,0,0,.73-1.617,7.287,7.287,0,0,0,.259-1.964v-.3a7.094,7.094,0,0,0-.259-1.938,4.98,4.98,0,0,0-.744-1.63,3.5,3.5,0,0,0-1.232-1.13,3.454,3.454,0,0,0-1.72-.411,3.508,3.508,0,0,0-1.72.411,3.683,3.683,0,0,0-1.232,1.13,5.1,5.1,0,0,0-.73,1.63A7.371,7.371,0,0,0,1014.333,759.967Z" transform="translate(-175.658 842.528)" fill="#12263f"/>
    <path id="Trazado_748645" data-name="Trazado 748645" d="M1060.743,755.346v11.707h-2.373V753.164h2.309Zm4.339-2.259-.013,2.208a3.413,3.413,0,0,0-.566-.077c-.168-.017-.367-.026-.589-.026a3.816,3.816,0,0,0-1.451.257,3,3,0,0,0-1.064.719,3.437,3.437,0,0,0-.693,1.1,5.307,5.307,0,0,0-.323,1.386l-.667.385a10.778,10.778,0,0,1,.246-2.362,6.369,6.369,0,0,1,.781-1.951,3.838,3.838,0,0,1,1.336-1.335,3.746,3.746,0,0,1,1.949-.488,3.181,3.181,0,0,1,.593.064A1.734,1.734,0,0,1,1065.082,753.087Z" transform="translate(-206.446 842.528)" fill="#12263f"/>
    <path id="Trazado_748646" data-name="Trazado 748646" d="M737.369,858.166l3.863-12.451h2.542L738.2,861.747a8.781,8.781,0,0,1-.514,1.1,5.275,5.275,0,0,1-.8,1.142,3.787,3.787,0,0,1-1.181.873,3.556,3.556,0,0,1-1.63.346,4.284,4.284,0,0,1-.719-.077q-.436-.077-.616-.128l-.013-1.925q.1.013.321.026t.321.026a3.825,3.825,0,0,0,1.374-.218,2.08,2.08,0,0,0,.95-.706,4.207,4.207,0,0,0,.68-1.348Zm-2.837-12.451,3.607,10.782.616,2.5-1.707.873-5.109-14.158Z" transform="translate(10.105 780.96)" fill="#12263f"/>
    <path id="Trazado_748647" data-name="Trazado 748647" d="M797.183,857.4a3.555,3.555,0,0,0,1.566-.347,3.221,3.221,0,0,0,1.181-.95,2.644,2.644,0,0,0,.526-1.4h2.259a4.237,4.237,0,0,1-.834,2.3,5.7,5.7,0,0,1-1.99,1.707,5.775,5.775,0,0,1-2.708.642,6.337,6.337,0,0,1-2.734-.552,5.421,5.421,0,0,1-1.925-1.515,6.77,6.77,0,0,1-1.142-2.208,9.324,9.324,0,0,1-.372-2.657v-.539a9.188,9.188,0,0,1,.372-2.644,6.75,6.75,0,0,1,1.142-2.221,5.421,5.421,0,0,1,1.925-1.514,6.334,6.334,0,0,1,2.734-.552,5.843,5.843,0,0,1,2.849.667,4.9,4.9,0,0,1,1.913,1.8,5.194,5.194,0,0,1,.77,2.567h-2.259a3.421,3.421,0,0,0-.488-1.553,3.043,3.043,0,0,0-1.13-1.1,3.157,3.157,0,0,0-1.656-.424,3.575,3.575,0,0,0-1.836.437,3.219,3.219,0,0,0-1.168,1.155,5.386,5.386,0,0,0-.616,1.6,8.815,8.815,0,0,0-.18,1.784v.539a9.012,9.012,0,0,0,.18,1.8,5.15,5.15,0,0,0,.6,1.6,3.353,3.353,0,0,0,1.168,1.155A3.692,3.692,0,0,0,797.183,857.4Z" transform="translate(-29.081 781.467)" fill="#12263f"/>
    <path id="Trazado_748648" data-name="Trazado 748648" d="M831.851,852.307v-.3a8.6,8.6,0,0,1,.436-2.785,6.619,6.619,0,0,1,1.258-2.247,5.611,5.611,0,0,1,1.99-1.489,6.659,6.659,0,0,1,5.25,0,5.581,5.581,0,0,1,2,1.489,6.5,6.5,0,0,1,1.271,2.247,8.6,8.6,0,0,1,.437,2.785v.3a8.6,8.6,0,0,1-.437,2.786,6.663,6.663,0,0,1-1.271,2.246,5.826,5.826,0,0,1-1.99,1.489,6.25,6.25,0,0,1-2.618.526,6.34,6.34,0,0,1-2.632-.526,5.96,5.96,0,0,1-2-1.489,6.785,6.785,0,0,1-1.258-2.246A8.606,8.606,0,0,1,831.851,852.307Zm2.375-.3v.3a7.671,7.671,0,0,0,.244,1.964,5.16,5.16,0,0,0,.732,1.617,3.705,3.705,0,0,0,1.245,1.117,3.622,3.622,0,0,0,1.733.4,3.518,3.518,0,0,0,1.707-.4,3.586,3.586,0,0,0,1.232-1.117,5.171,5.171,0,0,0,.732-1.617,7.314,7.314,0,0,0,.257-1.964v-.3a7.127,7.127,0,0,0-.257-1.939,5,5,0,0,0-.745-1.63,3.535,3.535,0,0,0-1.232-1.129,3.454,3.454,0,0,0-1.72-.411,3.5,3.5,0,0,0-1.72.411,3.689,3.689,0,0,0-1.232,1.129,5.149,5.149,0,0,0-.732,1.63A7.474,7.474,0,0,0,834.225,852.012Z" transform="translate(-56.175 781.467)" fill="#12263f"/>
    <path id="Trazado_748649" data-name="Trazado 748649" d="M880.571,847.968V859.1h-2.388V845.209h2.259Zm-.488,3.659-1.1-.039a9.477,9.477,0,0,1,.372-2.631,6.232,6.232,0,0,1,1.065-2.118,4.731,4.731,0,0,1,1.758-1.387,5.621,5.621,0,0,1,2.439-.5,5.5,5.5,0,0,1,1.8.282,3.619,3.619,0,0,1,1.425.86,3.96,3.96,0,0,1,.937,1.515,6.6,6.6,0,0,1,.334,2.233V859.1h-2.375v-9.14a3.526,3.526,0,0,0-.372-1.746,2.127,2.127,0,0,0-1.027-.95,4.241,4.241,0,0,0-3.325.064,2.97,2.97,0,0,0-1.129,1.027,4.626,4.626,0,0,0-.616,1.5A8.4,8.4,0,0,0,880.083,851.627Zm9-1.309-1.592.488a7,7,0,0,1,.372-2.2,5.962,5.962,0,0,1,1.066-1.874,5.042,5.042,0,0,1,1.733-1.3,5.412,5.412,0,0,1,2.349-.488,6.075,6.075,0,0,1,1.977.3,3.575,3.575,0,0,1,1.463.911,3.82,3.82,0,0,1,.911,1.553,7.356,7.356,0,0,1,.308,2.259V859.1h-2.388v-9.153a3.638,3.638,0,0,0-.372-1.81,1.94,1.94,0,0,0-1.027-.911,4.1,4.1,0,0,0-1.566-.27,3.366,3.366,0,0,0-1.386.27,2.865,2.865,0,0,0-1.014.744,3.26,3.26,0,0,0-.629,1.066A3.965,3.965,0,0,0,889.081,850.318Z" transform="translate(-86.912 781.467)" fill="#12263f"/>
    <path id="Trazado_748650" data-name="Trazado 748650" d="M949.1,847.878v16.559H946.71V845.209h2.182Zm9.358,4.159v.27a10.488,10.488,0,0,1-.359,2.811,6.911,6.911,0,0,1-1.053,2.233,4.787,4.787,0,0,1-1.681,1.476,4.867,4.867,0,0,1-2.3.526,5.869,5.869,0,0,1-2.336-.436,4.609,4.609,0,0,1-1.72-1.271,6.493,6.493,0,0,1-1.13-2,11.6,11.6,0,0,1-.565-2.632v-1.438a12.069,12.069,0,0,1,.578-2.76,6.872,6.872,0,0,1,1.117-2.079,4.584,4.584,0,0,1,1.707-1.322,5.461,5.461,0,0,1,2.311-.462,5.072,5.072,0,0,1,2.323.513,4.675,4.675,0,0,1,1.707,1.438,6.556,6.556,0,0,1,1.04,2.247A10.8,10.8,0,0,1,958.455,852.038Zm-2.388.27v-.27a8.365,8.365,0,0,0-.218-1.951,4.932,4.932,0,0,0-.68-1.617,3.239,3.239,0,0,0-1.156-1.1,3.288,3.288,0,0,0-1.681-.411,3.7,3.7,0,0,0-1.566.308,3.38,3.38,0,0,0-1.117.834,4.43,4.43,0,0,0-.757,1.181,6.777,6.777,0,0,0-.424,1.361v3.325a7.419,7.419,0,0,0,.719,1.695,3.727,3.727,0,0,0,1.232,1.271,3.633,3.633,0,0,0,1.938.475,3.272,3.272,0,0,0,1.656-.4,3.357,3.357,0,0,0,1.156-1.117,5.1,5.1,0,0,0,.68-1.617A8.529,8.529,0,0,0,956.068,852.307Z" transform="translate(-132.372 781.467)" fill="#12263f"/>
    <path id="Trazado_748651" data-name="Trazado 748651" d="M992.977,847.391V859.1H990.6V845.209h2.311Zm4.34-2.259-.013,2.208a3.47,3.47,0,0,0-.565-.077c-.172-.017-.367-.026-.589-.026a3.808,3.808,0,0,0-1.451.257,3.011,3.011,0,0,0-1.066.719,3.457,3.457,0,0,0-.693,1.1,5.3,5.3,0,0,0-.321,1.386l-.667.385a10.935,10.935,0,0,1,.244-2.362,6.436,6.436,0,0,1,.783-1.951,3.84,3.84,0,0,1,1.334-1.335,3.757,3.757,0,0,1,1.952-.488,3.131,3.131,0,0,1,.589.064A1.794,1.794,0,0,1,997.317,845.132Z" transform="translate(-161.489 781.467)" fill="#12263f"/>
    <path id="Trazado_748652" data-name="Trazado 748652" d="M1022.92,856.723v-7.15a2.9,2.9,0,0,0-.333-1.425,2.188,2.188,0,0,0-.976-.95,3.529,3.529,0,0,0-1.616-.334,3.784,3.784,0,0,0-1.579.308,2.725,2.725,0,0,0-1.054.809,1.767,1.767,0,0,0-.374,1.078h-2.373a3.15,3.15,0,0,1,.384-1.476,4.371,4.371,0,0,1,1.1-1.322,5.519,5.519,0,0,1,1.747-.95,6.878,6.878,0,0,1,2.286-.36,6.517,6.517,0,0,1,2.669.513,3.99,3.99,0,0,1,1.821,1.553,4.621,4.621,0,0,1,.67,2.58v6.47a10.056,10.056,0,0,0,.114,1.476,5.583,5.583,0,0,0,.374,1.348v.206h-2.478a4.324,4.324,0,0,1-.283-1.091A8.5,8.5,0,0,1,1022.92,856.723Zm.411-6.046.027,1.669h-2.4a8.873,8.873,0,0,0-1.811.167,4.138,4.138,0,0,0-1.336.475,2.277,2.277,0,0,0-.821.809,2.143,2.143,0,0,0-.283,1.117,2.463,2.463,0,0,0,.3,1.194,2.154,2.154,0,0,0,.885.86,3.229,3.229,0,0,0,1.478.308,3.908,3.908,0,0,0,1.925-.462,4.032,4.032,0,0,0,1.323-1.13,2.443,2.443,0,0,0,.539-1.3l1.013,1.142a3.45,3.45,0,0,1-.488,1.194,5.733,5.733,0,0,1-2.632,2.246,5.085,5.085,0,0,1-2.026.385,5.309,5.309,0,0,1-2.478-.552,4.221,4.221,0,0,1-1.642-1.476,3.891,3.891,0,0,1-.579-2.092,4.206,4.206,0,0,1,.438-1.964,3.769,3.769,0,0,1,1.259-1.425,5.942,5.942,0,0,1,1.976-.873,10.42,10.42,0,0,1,2.578-.3Z" transform="translate(-177.224 781.467)" fill="#12263f"/>
    <path id="Trazado_748653" data-name="Trazado 748653" d="M1060.4,847.391V859.1h-2.376V845.209h2.313Zm4.339-2.259-.014,2.208a3.422,3.422,0,0,0-.566-.077c-.172-.017-.367-.026-.589-.026a3.81,3.81,0,0,0-1.451.257,3.018,3.018,0,0,0-1.067.719,3.49,3.49,0,0,0-.693,1.1,5.315,5.315,0,0,0-.32,1.386l-.667.385a11.007,11.007,0,0,1,.242-2.362,6.468,6.468,0,0,1,.784-1.951,3.83,3.83,0,0,1,1.333-1.335,3.758,3.758,0,0,1,1.952-.488,3.128,3.128,0,0,1,.589.064A1.759,1.759,0,0,1,1064.735,845.132Z" transform="translate(-206.214 781.467)" fill="#12263f"/>
    <path id="Trazado_748654" data-name="Trazado 748654" d="M647.1,1434.688a9.387,9.387,0,0,1,9.389-9.388H895.906a9.387,9.387,0,0,1,9.388,9.388v111.727a9.39,9.39,0,0,1-9.388,9.388H656.491a9.389,9.389,0,0,1-9.389-9.388Z" transform="translate(66.385 396.469)" fill="#1a0f91"/>
    <path id="Trazado_748655" data-name="Trazado 748655" d="M808.886,1559.382v2.016h-9.9v-2.016Zm-9.4-16.672V1561.4h-2.477V1542.71Zm8.087,8.035v2.016h-8.588v-2.016Zm1.181-8.035v2.026h-9.768v-2.026Z" transform="translate(-33.063 318.58)" fill="#fff"/>
    <path id="Trazado_748656" data-name="Trazado 748656" d="M840.832,1568.714l3.8-11.744h2.426l-4.994,13.888h-1.592Zm-3.171-11.744,3.915,11.808.27,2.08h-1.592l-5.032-13.888Z" transform="translate(-58.412 309.12)" fill="#fff"/>
    <path id="Trazado_748657" data-name="Trazado 748657" d="M883.939,1567.981v-7.153a2.9,2.9,0,0,0-.334-1.424,2.177,2.177,0,0,0-.975-.949,3.539,3.539,0,0,0-1.617-.333,3.793,3.793,0,0,0-1.579.306,2.726,2.726,0,0,0-1.053.811,1.77,1.77,0,0,0-.372,1.078h-2.375a3.14,3.14,0,0,1,.385-1.478,4.31,4.31,0,0,1,1.1-1.32,5.511,5.511,0,0,1,1.746-.952,6.9,6.9,0,0,1,2.285-.357,6.5,6.5,0,0,1,2.67.512,4.01,4.01,0,0,1,1.823,1.555,4.631,4.631,0,0,1,.668,2.578v6.47a10.172,10.172,0,0,0,.115,1.478,5.767,5.767,0,0,0,.372,1.346v.205h-2.477a4.394,4.394,0,0,1-.282-1.09A8.783,8.783,0,0,1,883.939,1567.981Zm.411-6.049.026,1.67h-2.4a8.877,8.877,0,0,0-1.81.168,4.071,4.071,0,0,0-1.335.475,2.233,2.233,0,0,0-.821.808,2.149,2.149,0,0,0-.282,1.117,2.433,2.433,0,0,0,.3,1.192,2.159,2.159,0,0,0,.886.862,3.221,3.221,0,0,0,1.476.309,3.894,3.894,0,0,0,1.925-.464,4,4,0,0,0,1.322-1.128,2.445,2.445,0,0,0,.539-1.3l1.014,1.145a3.457,3.457,0,0,1-.488,1.195,5.716,5.716,0,0,1-1.065,1.256,5.773,5.773,0,0,1-1.566.99,5.12,5.12,0,0,1-2.028.384,5.286,5.286,0,0,1-2.478-.552,4.225,4.225,0,0,1-1.643-1.474,3.914,3.914,0,0,1-.578-2.094,4.224,4.224,0,0,1,.437-1.962,3.784,3.784,0,0,1,1.258-1.427,6.035,6.035,0,0,1,1.977-.872,10.5,10.5,0,0,1,2.58-.3Z" transform="translate(-85.025 309.625)" fill="#fff"/>
    <path id="Trazado_748658" data-name="Trazado 748658" d="M922,1539.66v19.715h-2.388V1539.66Z" transform="translate(-114.396 320.604)" fill="#fff"/>
    <path id="Trazado_748659" data-name="Trazado 748659" d="M946.428,1567.651V1556.97h2.388v13.888h-2.272Zm.449-2.929.988-.024a10.558,10.558,0,0,1-.3,2.565,5.52,5.52,0,0,1-.924,2.03,4.359,4.359,0,0,1-1.681,1.347,6.067,6.067,0,0,1-2.529.475,5.666,5.666,0,0,1-1.861-.293,3.739,3.739,0,0,1-1.438-.912,4.145,4.145,0,0,1-.937-1.606,7.745,7.745,0,0,1-.321-2.373v-8.96h2.375v8.984a4.991,4.991,0,0,0,.205,1.555,2.586,2.586,0,0,0,.578.963,2.168,2.168,0,0,0,.821.488,3.223,3.223,0,0,0,.95.141,4.361,4.361,0,0,0,2.4-.579,3.29,3.29,0,0,0,1.271-1.579A5.96,5.96,0,0,0,946.877,1564.722Z" transform="translate(-126.514 309.12)" fill="#fff"/>
    <path id="Trazado_748660" data-name="Trazado 748660" d="M988.5,1567.981v-7.153a2.909,2.909,0,0,0-.333-1.424,2.166,2.166,0,0,0-.976-.949,3.53,3.53,0,0,0-1.616-.333,3.794,3.794,0,0,0-1.579.306,2.73,2.73,0,0,0-1.053.811,1.773,1.773,0,0,0-.372,1.078H980.2a3.14,3.14,0,0,1,.385-1.478,4.306,4.306,0,0,1,1.1-1.32,5.515,5.515,0,0,1,1.746-.952,6.9,6.9,0,0,1,2.285-.357,6.5,6.5,0,0,1,2.67.512,4,4,0,0,1,1.821,1.555,4.611,4.611,0,0,1,.67,2.578v6.47a10.113,10.113,0,0,0,.114,1.478,5.585,5.585,0,0,0,.374,1.346v.205h-2.478a4.293,4.293,0,0,1-.283-1.09A8.519,8.519,0,0,1,988.5,1567.981Zm.411-6.049.027,1.67h-2.4a8.871,8.871,0,0,0-1.81.168,4.072,4.072,0,0,0-1.335.475,2.234,2.234,0,0,0-.822.808,2.149,2.149,0,0,0-.282,1.117,2.438,2.438,0,0,0,.3,1.192,2.158,2.158,0,0,0,.886.862,3.22,3.22,0,0,0,1.476.309,3.9,3.9,0,0,0,1.926-.464,4.017,4.017,0,0,0,1.323-1.128,2.456,2.456,0,0,0,.539-1.3l1.013,1.145a3.459,3.459,0,0,1-.488,1.195,5.764,5.764,0,0,1-2.631,2.245,5.122,5.122,0,0,1-2.028.384,5.284,5.284,0,0,1-2.477-.552,4.226,4.226,0,0,1-1.643-1.474,3.915,3.915,0,0,1-.578-2.094,4.227,4.227,0,0,1,.437-1.962,3.785,3.785,0,0,1,1.258-1.427,6.038,6.038,0,0,1,1.977-.872,10.5,10.5,0,0,1,2.58-.3Z" transform="translate(-154.391 309.625)" fill="#fff"/>
    <path id="Trazado_748661" data-name="Trazado 748661" d="M1027.947,1568.661a3.6,3.6,0,0,0,1.565-.347,3.254,3.254,0,0,0,1.182-.953,2.66,2.66,0,0,0,.525-1.4h2.259a4.227,4.227,0,0,1-.835,2.3,5.7,5.7,0,0,1-1.99,1.71,5.771,5.771,0,0,1-2.706.64,6.315,6.315,0,0,1-2.737-.552,5.429,5.429,0,0,1-1.925-1.515,6.709,6.709,0,0,1-1.141-2.208,9.27,9.27,0,0,1-.374-2.656v-.539a9.169,9.169,0,0,1,.374-2.646,6.7,6.7,0,0,1,1.141-2.218,5.431,5.431,0,0,1,1.925-1.515,6.318,6.318,0,0,1,2.737-.552,5.845,5.845,0,0,1,2.848.667,4.9,4.9,0,0,1,1.912,1.8,5.2,5.2,0,0,1,.771,2.565h-2.259a3.426,3.426,0,0,0-.488-1.552,3.037,3.037,0,0,0-1.128-1.1,3.158,3.158,0,0,0-1.656-.424,3.573,3.573,0,0,0-1.838.438,3.231,3.231,0,0,0-1.168,1.155,5.383,5.383,0,0,0-.616,1.606,8.968,8.968,0,0,0-.178,1.784v.539a9.154,9.154,0,0,0,.178,1.8,5.311,5.311,0,0,0,.6,1.606,3.423,3.423,0,0,0,1.168,1.154A3.7,3.7,0,0,0,1027.947,1568.661Z" transform="translate(-182.166 309.625)" fill="#fff"/>
    <path id="Trazado_748662" data-name="Trazado 748662" d="M1067.088,1547v13.889H1064.7V1547Zm-2.568-3.686a1.434,1.434,0,0,1,.347-.973,1.347,1.347,0,0,1,1.053-.4,1.327,1.327,0,0,1,1.04.4,1.375,1.375,0,0,1,.37.973,1.3,1.3,0,0,1-1.41,1.336,1.376,1.376,0,0,1-1.053-.384A1.413,1.413,0,0,1,1064.52,1543.314Z" transform="translate(-210.526 319.091)" fill="#fff"/>
    <path id="Trazado_748663" data-name="Trazado 748663" d="M1081.61,1552.586v-.3a8.635,8.635,0,0,1,.434-2.784,6.635,6.635,0,0,1,1.259-2.249,5.605,5.605,0,0,1,1.989-1.488,6.669,6.669,0,0,1,5.251,0,5.565,5.565,0,0,1,2,1.488,6.494,6.494,0,0,1,1.269,2.249,8.546,8.546,0,0,1,.438,2.784v.3a8.547,8.547,0,0,1-.437,2.784,6.682,6.682,0,0,1-1.269,2.249,5.851,5.851,0,0,1-1.989,1.488,6.27,6.27,0,0,1-2.619.525,6.346,6.346,0,0,1-2.632-.525,5.972,5.972,0,0,1-2-1.488,6.832,6.832,0,0,1-1.259-2.249A8.636,8.636,0,0,1,1081.61,1552.586Zm2.373-.3v.3a7.555,7.555,0,0,0,.246,1.963,5.114,5.114,0,0,0,.73,1.619,3.692,3.692,0,0,0,1.245,1.114,3.61,3.61,0,0,0,1.733.4,3.511,3.511,0,0,0,1.707-.4,3.62,3.62,0,0,0,1.232-1.114,5.194,5.194,0,0,0,.73-1.619,7.276,7.276,0,0,0,.256-1.963v-.3a7.119,7.119,0,0,0-.256-1.939,4.98,4.98,0,0,0-.744-1.629,3.6,3.6,0,0,0-1.232-1.131,3.47,3.47,0,0,0-1.72-.411,3.516,3.516,0,0,0-1.72.411,3.725,3.725,0,0,0-1.232,1.131,5.1,5.1,0,0,0-.73,1.629A7.391,7.391,0,0,0,1083.983,1552.29Zm2.515-8.856,2.491-3.773h2.865l-3.44,3.773Z" transform="translate(-221.863 320.604)" fill="#fff"/>
    <path id="Trazado_748664" data-name="Trazado 748664" d="M1130.387,1559.431v10.923h-2.376v-13.889h2.249Zm-.565,3.453-.986-.04a8.347,8.347,0,0,1,.421-2.632,6.6,6.6,0,0,1,1.158-2.117,5.126,5.126,0,0,1,1.771-1.387,5.226,5.226,0,0,1,2.3-.5,5.671,5.671,0,0,1,1.851.283,3.315,3.315,0,0,1,1.4.872,3.87,3.87,0,0,1,.9,1.565,7.592,7.592,0,0,1,.31,2.323v9.1h-2.39v-9.125a3.99,3.99,0,0,0-.32-1.747,1.973,1.973,0,0,0-.936-.963,3.364,3.364,0,0,0-1.515-.306,3.505,3.505,0,0,0-1.619.37,3.953,3.953,0,0,0-1.245,1.027,5.3,5.3,0,0,0-.808,1.5A5.5,5.5,0,0,0,1129.821,1562.885Z" transform="translate(-252.645 309.625)" fill="#fff"/>
    <path id="Trazado_748665" data-name="Trazado 748665" d="M1198.144,1556.679V1539.66h2.39v19.715h-2.184Zm-9.344-4.093v-.269a10.127,10.127,0,0,1,.384-2.888,7.029,7.029,0,0,1,1.118-2.249,5.08,5.08,0,0,1,1.733-1.437,4.918,4.918,0,0,1,2.259-.512,5.259,5.259,0,0,1,2.286.461,4.4,4.4,0,0,1,1.67,1.323,6.5,6.5,0,0,1,1.091,2.077,13.211,13.211,0,0,1,.552,2.76v1.181a12.123,12.123,0,0,1-.552,2.747,6.48,6.48,0,0,1-1.091,2.08,4.6,4.6,0,0,1-1.67,1.323,5.542,5.542,0,0,1-2.309.448,4.786,4.786,0,0,1-2.235-.525,5.247,5.247,0,0,1-1.733-1.478,7.222,7.222,0,0,1-1.118-2.232A9.861,9.861,0,0,1,1188.8,1552.586Zm2.386-.269v.269a8.976,8.976,0,0,0,.205,1.949,5.153,5.153,0,0,0,.67,1.606,3.331,3.331,0,0,0,1.141,1.091,3.365,3.365,0,0,0,1.656.387,3.456,3.456,0,0,0,1.939-.5,3.755,3.755,0,0,0,1.232-1.323,7.583,7.583,0,0,0,.717-1.784v-3.094a6.769,6.769,0,0,0-.448-1.36,4.258,4.258,0,0,0-.744-1.182,3.238,3.238,0,0,0-1.117-.835,3.614,3.614,0,0,0-1.552-.306,3.171,3.171,0,0,0-2.824,1.515,5.147,5.147,0,0,0-.67,1.616A9.031,9.031,0,0,0,1191.187,1552.317Z" transform="translate(-292.972 320.604)" fill="#fff"/>
    <path id="Trazado_748666" data-name="Trazado 748666" d="M1239.189,1570.61a6.819,6.819,0,0,1-2.632-.488,5.93,5.93,0,0,1-2.013-1.4,6.194,6.194,0,0,1-1.286-2.131,7.813,7.813,0,0,1-.448-2.7v-.539a8.472,8.472,0,0,1,.5-3.016,6.757,6.757,0,0,1,1.363-2.262,5.8,5.8,0,0,1,1.949-1.4,5.61,5.61,0,0,1,2.259-.475,5.907,5.907,0,0,1,2.568.512,4.686,4.686,0,0,1,1.784,1.438,6.166,6.166,0,0,1,1.027,2.158,10.3,10.3,0,0,1,.333,2.7v1.064H1234.22v-1.939h8v-.178a5.923,5.923,0,0,0-.384-1.8,3.246,3.246,0,0,0-1.03-1.437,2.988,2.988,0,0,0-1.926-.565,3.259,3.259,0,0,0-1.488.347,3.15,3.15,0,0,0-1.168,1,4.963,4.963,0,0,0-.757,1.629,8.335,8.335,0,0,0-.269,2.222v.539a6.318,6.318,0,0,0,.269,1.861,4.808,4.808,0,0,0,.808,1.515,3.761,3.761,0,0,0,3.043,1.4,4.128,4.128,0,0,0,2.131-.512,5.32,5.32,0,0,0,1.528-1.373l1.438,1.141a6.64,6.64,0,0,1-1.141,1.3,5.481,5.481,0,0,1-1.71,1A6.623,6.623,0,0,1,1239.189,1570.61Z" transform="translate(-322.168 309.625)" fill="#fff"/>
    <path id="Trazado_748667" data-name="Trazado 748667" d="M823.5,1651.179v16.558h-2.388v-19.231h2.182Zm9.358,4.157v.269a10.469,10.469,0,0,1-.359,2.811,6.89,6.89,0,0,1-1.053,2.235,4.777,4.777,0,0,1-1.681,1.474,4.837,4.837,0,0,1-2.3.528,5.835,5.835,0,0,1-2.336-.438,4.6,4.6,0,0,1-1.72-1.269,6.538,6.538,0,0,1-1.129-2,11.605,11.605,0,0,1-.565-2.632v-1.437a12.061,12.061,0,0,1,.578-2.76,6.855,6.855,0,0,1,1.117-2.08,4.587,4.587,0,0,1,1.707-1.323,5.487,5.487,0,0,1,2.31-.461,5.064,5.064,0,0,1,2.324.515,4.653,4.653,0,0,1,1.707,1.437,6.535,6.535,0,0,1,1.04,2.245A10.808,10.808,0,0,1,832.857,1655.336Zm-2.388.269v-.269a8.381,8.381,0,0,0-.218-1.952,4.913,4.913,0,0,0-.68-1.616,3.24,3.24,0,0,0-1.155-1.1,3.3,3.3,0,0,0-1.682-.411,3.7,3.7,0,0,0-1.566.31,3.383,3.383,0,0,0-1.117.831,4.461,4.461,0,0,0-.757,1.182,6.857,6.857,0,0,0-.423,1.36v3.326a7.365,7.365,0,0,0,.719,1.693,3.713,3.713,0,0,0,1.232,1.272,3.636,3.636,0,0,0,1.938.475,3.267,3.267,0,0,0,1.656-.4,3.34,3.34,0,0,0,1.155-1.118,5.1,5.1,0,0,0,.68-1.616A8.543,8.543,0,0,0,830.47,1655.605Z" transform="translate(-49.051 248.565)" fill="#fff"/>
    <path id="Trazado_748668" data-name="Trazado 748668" d="M867.379,1650.69v11.7h-2.374v-13.889h2.31Zm4.339-2.262-.013,2.208a3.445,3.445,0,0,0-.565-.074,5.111,5.111,0,0,0-.59-.027,3.8,3.8,0,0,0-1.451.256,3,3,0,0,0-1.065.72,3.448,3.448,0,0,0-.693,1.1,5.278,5.278,0,0,0-.321,1.387l-.668.384a10.955,10.955,0,0,1,.244-2.363,6.421,6.421,0,0,1,.783-1.949,3.821,3.821,0,0,1,1.335-1.336,3.741,3.741,0,0,1,1.951-.488,3.094,3.094,0,0,1,.59.064A1.841,1.841,0,0,1,871.718,1648.428Z" transform="translate(-78.169 248.565)" fill="#fff"/>
    <path id="Trazado_748669" data-name="Trazado 748669" d="M888.838,1655.605v-.3a8.6,8.6,0,0,1,.437-2.784,6.6,6.6,0,0,1,1.258-2.245,5.593,5.593,0,0,1,1.99-1.491,6.667,6.667,0,0,1,5.25,0,5.567,5.567,0,0,1,2,1.491,6.489,6.489,0,0,1,1.271,2.245,8.6,8.6,0,0,1,.436,2.784v.3a8.619,8.619,0,0,1-.436,2.787,6.679,6.679,0,0,1-1.271,2.245,5.8,5.8,0,0,1-1.99,1.488,6.211,6.211,0,0,1-2.619.528,6.3,6.3,0,0,1-2.631-.528,5.929,5.929,0,0,1-2-1.488,6.8,6.8,0,0,1-1.258-2.245A8.615,8.615,0,0,1,888.838,1655.605Zm2.375-.3v.3a7.683,7.683,0,0,0,.244,1.966,5.185,5.185,0,0,0,.731,1.616,3.691,3.691,0,0,0,1.245,1.118,3.616,3.616,0,0,0,1.733.4,3.511,3.511,0,0,0,1.707-.4,3.566,3.566,0,0,0,1.232-1.118,5.182,5.182,0,0,0,.732-1.616,7.326,7.326,0,0,0,.257-1.966v-.3a7.1,7.1,0,0,0-.257-1.935,5.005,5.005,0,0,0-.745-1.632,3.531,3.531,0,0,0-1.232-1.128,3.435,3.435,0,0,0-1.72-.411,3.481,3.481,0,0,0-1.72.411,3.69,3.69,0,0,0-1.232,1.128,5.175,5.175,0,0,0-.731,1.632A7.447,7.447,0,0,0,891.213,1655.309Z" transform="translate(-93.98 248.565)" fill="#fff"/>
    <path id="Trazado_748670" data-name="Trazado 748670" d="M936.128,1660.758l3.8-11.748h2.426l-4.993,13.889h-1.591Zm-3.171-11.748,3.915,11.812.27,2.077h-1.592l-5.032-13.889Z" transform="translate(-121.631 248.062)" fill="#fff"/>
    <path id="Trazado_748671" data-name="Trazado 748671" d="M976.482,1662.654a6.869,6.869,0,0,1-2.632-.488,5.959,5.959,0,0,1-2.015-1.4,6.225,6.225,0,0,1-1.284-2.131,7.813,7.813,0,0,1-.449-2.7v-.539a8.487,8.487,0,0,1,.5-3.016,6.763,6.763,0,0,1,1.361-2.259,5.833,5.833,0,0,1,1.951-1.4,5.607,5.607,0,0,1,2.259-.475,5.908,5.908,0,0,1,2.567.515,4.671,4.671,0,0,1,1.785,1.437,6.149,6.149,0,0,1,1.027,2.154,10.307,10.307,0,0,1,.333,2.7v1.067H971.514v-1.939h8V1654a5.9,5.9,0,0,0-.385-1.8,3.211,3.211,0,0,0-1.027-1.437,3,3,0,0,0-1.926-.565,3.218,3.218,0,0,0-1.489.347,3.17,3.17,0,0,0-1.168,1,5.054,5.054,0,0,0-.757,1.629,8.273,8.273,0,0,0-.27,2.222v.539a6.272,6.272,0,0,0,.27,1.861,4.714,4.714,0,0,0,.809,1.515,3.832,3.832,0,0,0,1.3,1.027,3.949,3.949,0,0,0,1.746.374,4.126,4.126,0,0,0,2.131-.515,5.188,5.188,0,0,0,1.526-1.373l1.441,1.144a6.758,6.758,0,0,1-1.144,1.3,5.426,5.426,0,0,1-1.707,1A6.554,6.554,0,0,1,976.482,1662.654Z" transform="translate(-147.89 248.565)" fill="#fff"/>
    <path id="Trazado_748672" data-name="Trazado 748672" d="M1017.9,1662.654a6.877,6.877,0,0,1-2.632-.488,5.981,5.981,0,0,1-2.016-1.4,6.237,6.237,0,0,1-1.282-2.131,7.811,7.811,0,0,1-.448-2.7v-.539a8.5,8.5,0,0,1,.5-3.016,6.767,6.767,0,0,1,1.36-2.259,5.861,5.861,0,0,1,1.952-1.4,5.608,5.608,0,0,1,2.259-.475,5.916,5.916,0,0,1,2.568.515,4.654,4.654,0,0,1,1.784,1.437,6.149,6.149,0,0,1,1.027,2.154,10.31,10.31,0,0,1,.333,2.7v1.067H1012.93v-1.939h8V1654a5.9,5.9,0,0,0-.387-1.8,3.2,3.2,0,0,0-1.027-1.437,3,3,0,0,0-1.926-.565,3.217,3.217,0,0,0-1.488.347,3.175,3.175,0,0,0-1.168,1,5,5,0,0,0-.757,1.629,8.331,8.331,0,0,0-.269,2.222v.539a6.318,6.318,0,0,0,.269,1.861,4.734,4.734,0,0,0,.808,1.515,3.835,3.835,0,0,0,1.3,1.027,3.963,3.963,0,0,0,1.747.374,4.127,4.127,0,0,0,2.131-.515,5.224,5.224,0,0,0,1.528-1.373l1.437,1.144a6.639,6.639,0,0,1-1.144,1.3,5.413,5.413,0,0,1-1.707,1A6.543,6.543,0,0,1,1017.9,1662.654Z" transform="translate(-175.366 248.565)" fill="#fff"/>
    <path id="Trazado_748673" data-name="Trazado 748673" d="M1062.354,1648.722V1631.7h2.387v19.715h-2.181Zm-9.344-4.1v-.269a10.167,10.167,0,0,1,.384-2.888,6.951,6.951,0,0,1,1.118-2.245,5.014,5.014,0,0,1,1.734-1.437,4.9,4.9,0,0,1,2.259-.515,5.3,5.3,0,0,1,2.282.461,4.4,4.4,0,0,1,1.67,1.323,6.42,6.42,0,0,1,1.091,2.08,12.951,12.951,0,0,1,.552,2.76v1.181a12.006,12.006,0,0,1-.552,2.747,6.436,6.436,0,0,1-1.091,2.077,4.53,4.53,0,0,1-1.67,1.323,5.518,5.518,0,0,1-2.309.451,4.737,4.737,0,0,1-2.232-.528,5.246,5.246,0,0,1-1.734-1.474,7.144,7.144,0,0,1-1.118-2.235A9.854,9.854,0,0,1,1053.01,1644.626Zm2.387-.269v.269a8.821,8.821,0,0,0,.205,1.952,5.085,5.085,0,0,0,.667,1.6,3.29,3.29,0,0,0,1.145,1.094,3.359,3.359,0,0,0,1.653.384,3.457,3.457,0,0,0,1.939-.5,3.708,3.708,0,0,0,1.232-1.32,7.6,7.6,0,0,0,.72-1.787v-3.093a6.943,6.943,0,0,0-.451-1.36,4.109,4.109,0,0,0-.744-1.181,3.216,3.216,0,0,0-1.114-.832,3.63,3.63,0,0,0-1.555-.31,3.183,3.183,0,0,0-2.824,1.515,5.068,5.068,0,0,0-.667,1.616A8.821,8.821,0,0,0,1055.4,1644.357Z" transform="translate(-202.89 259.545)" fill="#fff"/>
    <path id="Trazado_748674" data-name="Trazado 748674" d="M1096.97,1655.605v-.3a8.636,8.636,0,0,1,.438-2.784,6.562,6.562,0,0,1,1.259-2.245,5.555,5.555,0,0,1,1.989-1.491,6.669,6.669,0,0,1,5.251,0,5.561,5.561,0,0,1,2,1.491,6.478,6.478,0,0,1,1.272,2.245,8.633,8.633,0,0,1,.438,2.784v.3a8.652,8.652,0,0,1-.438,2.787,6.668,6.668,0,0,1-1.272,2.245,5.75,5.75,0,0,1-1.989,1.488,6.2,6.2,0,0,1-2.619.528,6.292,6.292,0,0,1-2.629-.528,5.9,5.9,0,0,1-2-1.488,6.757,6.757,0,0,1-1.259-2.245A8.655,8.655,0,0,1,1096.97,1655.605Zm2.376-.3v.3a7.727,7.727,0,0,0,.242,1.966,5.212,5.212,0,0,0,.734,1.616,3.667,3.667,0,0,0,1.245,1.118,3.608,3.608,0,0,0,1.73.4,3.517,3.517,0,0,0,1.71-.4,3.6,3.6,0,0,0,1.232-1.118,5.207,5.207,0,0,0,.73-1.616,7.3,7.3,0,0,0,.256-1.966v-.3a7.078,7.078,0,0,0-.256-1.935,5,5,0,0,0-.744-1.632,3.555,3.555,0,0,0-1.232-1.128,3.433,3.433,0,0,0-1.72-.411,3.478,3.478,0,0,0-1.72.411,3.681,3.681,0,0,0-1.232,1.128,5.2,5.2,0,0,0-.734,1.632A7.49,7.49,0,0,0,1099.346,1655.309Z" transform="translate(-232.053 248.565)" fill="#fff"/>
    <path id="Trazado_748675" data-name="Trazado 748675" d="M1145.757,1650.69v11.7h-2.377v-13.889h2.313Zm4.339-2.262-.013,2.208a3.5,3.5,0,0,0-.565-.074,5.1,5.1,0,0,0-.589-.027,3.792,3.792,0,0,0-1.451.256,3,3,0,0,0-1.067.72,3.48,3.48,0,0,0-.693,1.1,5.3,5.3,0,0,0-.32,1.387l-.667.384a11,11,0,0,1,.243-2.363,6.435,6.435,0,0,1,.784-1.949,3.809,3.809,0,0,1,1.333-1.336,3.744,3.744,0,0,1,1.952-.488,3.073,3.073,0,0,1,.589.064A1.857,1.857,0,0,1,1150.1,1648.428Z" transform="translate(-262.841 248.565)" fill="#fff"/>
    <path id="Trazado_748676" data-name="Trazado 748676" d="M1173.632,1662.654a6.866,6.866,0,0,1-2.632-.488,5.98,5.98,0,0,1-2.016-1.4,6.238,6.238,0,0,1-1.282-2.131,7.813,7.813,0,0,1-.451-2.7v-.539a8.5,8.5,0,0,1,.5-3.016,6.767,6.767,0,0,1,1.36-2.259,5.861,5.861,0,0,1,1.952-1.4,5.609,5.609,0,0,1,2.259-.475,5.915,5.915,0,0,1,2.568.515,4.653,4.653,0,0,1,1.784,1.437,6.149,6.149,0,0,1,1.027,2.154,10.307,10.307,0,0,1,.333,2.7v1.067h-10.371v-1.939h8V1654a5.91,5.91,0,0,0-.387-1.8,3.2,3.2,0,0,0-1.027-1.437,3,3,0,0,0-1.925-.565,3.218,3.218,0,0,0-1.488.347,3.149,3.149,0,0,0-1.168,1,5,5,0,0,0-.757,1.629,8.191,8.191,0,0,0-.269,2.222v.539a6.205,6.205,0,0,0,.269,1.861,4.731,4.731,0,0,0,.808,1.515,3.838,3.838,0,0,0,1.3,1.027,3.961,3.961,0,0,0,1.747.374,4.127,4.127,0,0,0,2.131-.515,5.223,5.223,0,0,0,1.528-1.373l1.437,1.144a6.644,6.644,0,0,1-1.145,1.3,5.413,5.413,0,0,1-1.707,1A6.543,6.543,0,0,1,1173.632,1662.654Z" transform="translate(-278.676 248.565)" fill="#fff"/>
    <path id="Trazado_748677" data-name="Trazado 748677" d="M1217.418,1658.712a2.018,2.018,0,0,0-.229-.949,1.978,1.978,0,0,0-.912-.808,7.4,7.4,0,0,0-2.053-.643,16.237,16.237,0,0,1-2.094-.579,6.358,6.358,0,0,1-1.579-.808,3.368,3.368,0,0,1-.986-1.118,3.1,3.1,0,0,1-.347-1.5,3.475,3.475,0,0,1,.357-1.552,4.152,4.152,0,0,1,1.04-1.3,5.065,5.065,0,0,1,1.633-.889,6.619,6.619,0,0,1,2.117-.32,6.307,6.307,0,0,1,2.848.593,4.41,4.41,0,0,1,1.811,1.579,3.907,3.907,0,0,1,.629,2.168h-2.376a2.036,2.036,0,0,0-.347-1.118,2.562,2.562,0,0,0-.986-.909,3.163,3.163,0,0,0-1.579-.36,3.6,3.6,0,0,0-1.606.306,2.094,2.094,0,0,0-.885.757,1.922,1.922,0,0,0-.269.976,1.819,1.819,0,0,0,.128.693,1.539,1.539,0,0,0,.488.552,4.029,4.029,0,0,0,.976.461,14.863,14.863,0,0,0,1.6.438,13.113,13.113,0,0,1,2.814.922,4.166,4.166,0,0,1,1.643,1.323,3.287,3.287,0,0,1,.539,1.9,3.593,3.593,0,0,1-.387,1.666,3.643,3.643,0,0,1-1.091,1.309,5.4,5.4,0,0,1-1.693.848,7.509,7.509,0,0,1-2.195.3,6.707,6.707,0,0,1-3.107-.656,4.784,4.784,0,0,1-1.925-1.693,4.044,4.044,0,0,1-.656-2.195h2.39a2.443,2.443,0,0,0,.565,1.552,2.855,2.855,0,0,0,1.256.808,4.952,4.952,0,0,0,1.478.232,4.48,4.48,0,0,0,1.629-.256,2.261,2.261,0,0,0,1.013-.707A1.631,1.631,0,0,0,1217.418,1658.712Z" transform="translate(-306.2 248.565)" fill="#fff"/>
    <path id="Trazado_748678" data-name="Trazado 748678" d="M1458.506,514.186H1303.591a5.633,5.633,0,0,0-5.635,5.633V674.734a5.632,5.632,0,0,0,5.635,5.633h154.914a5.632,5.632,0,0,0,5.632-5.633V519.819A5.632,5.632,0,0,0,1458.506,514.186Zm-154.914-3.756a9.39,9.39,0,0,0-9.391,9.389V674.734a9.391,9.391,0,0,0,9.391,9.39h154.914a9.39,9.39,0,0,0,9.388-9.39V519.819a9.389,9.389,0,0,0-9.388-9.389Z" transform="translate(-362.894 1003.385)" fill="#1a0f91" fill-rule="evenodd"/>
    <path id="Trazado_748679" data-name="Trazado 748679" d="M1356.553,663.216l5.5-15.853h2.683l-6.917,18.69h-1.912Zm-5.15-15.853,5.456,15.853.68,2.837h-1.912l-6.907-18.69Z" transform="translate(-399.062 912.545)" fill="#12263f"/>
    <path id="Trazado_748680" data-name="Trazado 748680" d="M1405.592,675.265a6.829,6.829,0,0,1-2.632-.488,5.957,5.957,0,0,1-2.016-1.4,6.236,6.236,0,0,1-1.282-2.131,7.811,7.811,0,0,1-.451-2.7v-.539a8.488,8.488,0,0,1,.5-3.016,6.762,6.762,0,0,1,1.36-2.259,5.855,5.855,0,0,1,1.952-1.4,5.6,5.6,0,0,1,2.259-.475,5.93,5.93,0,0,1,2.568.513,4.7,4.7,0,0,1,1.784,1.438,6.157,6.157,0,0,1,1.027,2.157,10.31,10.31,0,0,1,.333,2.7v1.065h-10.371v-1.938h7.995v-.18a5.921,5.921,0,0,0-.384-1.8,3.214,3.214,0,0,0-1.027-1.438,3,3,0,0,0-1.925-.565,3.22,3.22,0,0,0-1.488.347,3.146,3.146,0,0,0-1.168,1,4.984,4.984,0,0,0-.757,1.63,8.182,8.182,0,0,0-.269,2.221v.539a6.206,6.206,0,0,0,.269,1.861,4.775,4.775,0,0,0,.808,1.515,3.879,3.879,0,0,0,1.3,1.027,3.965,3.965,0,0,0,1.747.372,4.137,4.137,0,0,0,2.131-.514,5.233,5.233,0,0,0,1.525-1.373l1.441,1.142a6.7,6.7,0,0,1-1.144,1.3,5.437,5.437,0,0,1-1.707,1A6.6,6.6,0,0,1,1405.592,675.265Z" transform="translate(-432.556 903.589)" fill="#12263f"/>
    <path id="Trazado_748681" data-name="Trazado 748681" d="M1444.833,663.3v11.707h-2.373V661.12h2.309Zm4.339-2.259-.014,2.208a3.377,3.377,0,0,0-.565-.077c-.168-.017-.367-.026-.589-.026a3.823,3.823,0,0,0-1.451.256,3.007,3.007,0,0,0-1.064.719,3.433,3.433,0,0,0-.693,1.1,5.314,5.314,0,0,0-.323,1.387l-.666.385a10.787,10.787,0,0,1,.246-2.362,6.375,6.375,0,0,1,.781-1.951,3.833,3.833,0,0,1,1.336-1.335,3.746,3.746,0,0,1,1.949-.488,3.181,3.181,0,0,1,.592.064A1.72,1.72,0,0,1,1449.172,661.043Z" transform="translate(-461.248 903.589)" fill="#12263f"/>
    <path id="Trazado_748682" data-name="Trazado 748682" d="M1471.528,651.658v13.889h-2.39V651.658Zm-2.568-3.684a1.429,1.429,0,0,1,.346-.976,1.577,1.577,0,0,1,2.094,0,1.384,1.384,0,0,1,.37.976,1.3,1.3,0,0,1-1.41,1.335,1.369,1.369,0,0,1-1.054-.385A1.394,1.394,0,0,1,1468.96,647.974Z" transform="translate(-478.828 913.051)" fill="#12263f"/>
    <path id="Trazado_748683" data-name="Trazado 748683" d="M1488.328,663.5h-2.373V648.4a5.358,5.358,0,0,1,.616-2.67,4.013,4.013,0,0,1,1.757-1.656,6.051,6.051,0,0,1,2.71-.565,7.126,7.126,0,0,1,1.808.231,18.89,18.89,0,0,1,1.824.552l-.4,2a12.514,12.514,0,0,0-1.373-.437,6.232,6.232,0,0,0-1.7-.218,3,3,0,0,0-2.208.693,2.848,2.848,0,0,0-.667,2.067Zm2.838-13.889v1.823h-7.405v-1.823Zm4.672,0V663.5h-2.373V649.609Z" transform="translate(-488.646 915.1)" fill="#12263f"/>
    <path id="Trazado_748684" data-name="Trazado 748684" d="M1535.573,673.314a3.576,3.576,0,0,0,1.569-.347,3.253,3.253,0,0,0,1.182-.95,2.668,2.668,0,0,0,.525-1.4h2.259a4.232,4.232,0,0,1-.835,2.3,5.7,5.7,0,0,1-1.99,1.707,5.772,5.772,0,0,1-2.71.642,6.345,6.345,0,0,1-2.733-.552,5.424,5.424,0,0,1-1.925-1.515,6.742,6.742,0,0,1-1.141-2.208,9.28,9.28,0,0,1-.374-2.657v-.539a9.153,9.153,0,0,1,.374-2.644,6.724,6.724,0,0,1,1.141-2.221,5.43,5.43,0,0,1,1.925-1.515,6.344,6.344,0,0,1,2.733-.552,5.842,5.842,0,0,1,2.851.668,4.879,4.879,0,0,1,1.912,1.8,5.2,5.2,0,0,1,.771,2.567h-2.259a3.431,3.431,0,0,0-.488-1.553,3.021,3.021,0,0,0-1.131-1.1,3.146,3.146,0,0,0-1.656-.424,3.574,3.574,0,0,0-1.834.437,3.228,3.228,0,0,0-1.168,1.155,5.366,5.366,0,0,0-.616,1.6,8.726,8.726,0,0,0-.178,1.784v.539a8.907,8.907,0,0,0,.178,1.8,5.17,5.17,0,0,0,.6,1.6,3.367,3.367,0,0,0,1.168,1.155A3.7,3.7,0,0,0,1535.573,673.314Z" transform="translate(-518.923 903.589)" fill="#12263f"/>
    <path id="Trazado_748685" data-name="Trazado 748685" d="M1579.49,672.634v-7.15a2.9,2.9,0,0,0-.333-1.425,2.188,2.188,0,0,0-.976-.95,3.528,3.528,0,0,0-1.616-.334,3.784,3.784,0,0,0-1.579.308,2.725,2.725,0,0,0-1.054.809,1.769,1.769,0,0,0-.374,1.078h-2.373a3.149,3.149,0,0,1,.384-1.476,4.375,4.375,0,0,1,1.1-1.322,5.526,5.526,0,0,1,1.747-.95,6.889,6.889,0,0,1,2.286-.359,6.516,6.516,0,0,1,2.669.513,3.99,3.99,0,0,1,1.821,1.553,4.621,4.621,0,0,1,.67,2.58v6.47a10.074,10.074,0,0,0,.115,1.476,5.575,5.575,0,0,0,.374,1.348v.205h-2.477a4.326,4.326,0,0,1-.283-1.091A8.517,8.517,0,0,1,1579.49,672.634Zm.411-6.046.027,1.669h-2.4a8.873,8.873,0,0,0-1.811.167,4.141,4.141,0,0,0-1.336.475,2.278,2.278,0,0,0-.821.809,2.143,2.143,0,0,0-.283,1.117,2.463,2.463,0,0,0,.3,1.194,2.154,2.154,0,0,0,.885.86,3.231,3.231,0,0,0,1.478.308,3.91,3.91,0,0,0,1.926-.462,4.036,4.036,0,0,0,1.323-1.13,2.445,2.445,0,0,0,.539-1.3l1.013,1.142a3.45,3.45,0,0,1-.488,1.194,5.731,5.731,0,0,1-2.632,2.246,5.089,5.089,0,0,1-2.026.385,5.31,5.31,0,0,1-2.477-.552,4.223,4.223,0,0,1-1.643-1.476,3.891,3.891,0,0,1-.579-2.092,4.207,4.207,0,0,1,.438-1.964,3.771,3.771,0,0,1,1.259-1.425,5.935,5.935,0,0,1,1.976-.873,10.417,10.417,0,0,1,2.578-.3Z" transform="translate(-546.447 903.589)" fill="#12263f"/>
    <path id="Trazado_748686" data-name="Trazado 748686" d="M1618.937,673.314a3.573,3.573,0,0,0,1.565-.347,3.25,3.25,0,0,0,1.181-.95,2.667,2.667,0,0,0,.525-1.4h2.259a4.232,4.232,0,0,1-.835,2.3,5.694,5.694,0,0,1-1.989,1.707,5.77,5.77,0,0,1-2.706.642,6.348,6.348,0,0,1-2.737-.552,5.456,5.456,0,0,1-1.925-1.515,6.742,6.742,0,0,1-1.141-2.208,9.28,9.28,0,0,1-.374-2.657v-.539a9.153,9.153,0,0,1,.374-2.644,6.725,6.725,0,0,1,1.141-2.221,5.462,5.462,0,0,1,1.925-1.515,6.348,6.348,0,0,1,2.737-.552,5.837,5.837,0,0,1,2.848.668,4.881,4.881,0,0,1,1.912,1.8,5.2,5.2,0,0,1,.771,2.567h-2.259a3.431,3.431,0,0,0-.488-1.553,3.022,3.022,0,0,0-1.131-1.1,3.141,3.141,0,0,0-1.652-.424,3.578,3.578,0,0,0-1.838.437,3.227,3.227,0,0,0-1.168,1.155,5.363,5.363,0,0,0-.616,1.6,8.981,8.981,0,0,0-.178,1.784v.539a9.17,9.17,0,0,0,.178,1.8,5.258,5.258,0,0,0,.6,1.6,3.4,3.4,0,0,0,1.168,1.155A3.7,3.7,0,0,0,1618.937,673.314Z" transform="translate(-574.223 903.589)" fill="#12263f"/>
    <path id="Trazado_748687" data-name="Trazado 748687" d="M1658.078,651.658v13.889h-2.386V651.658Zm-2.568-3.684a1.427,1.427,0,0,1,.347-.976,1.349,1.349,0,0,1,1.053-.4,1.328,1.328,0,0,1,1.04.4,1.383,1.383,0,0,1,.37.976,1.3,1.3,0,0,1-1.411,1.335,1.373,1.373,0,0,1-1.053-.385A1.392,1.392,0,0,1,1655.51,647.974Z" transform="translate(-602.583 913.051)" fill="#12263f"/>
    <path id="Trazado_748688" data-name="Trazado 748688" d="M1672.6,657.239v-.3a8.641,8.641,0,0,1,.434-2.785,6.637,6.637,0,0,1,1.259-2.246,5.634,5.634,0,0,1,1.989-1.489,6.666,6.666,0,0,1,5.251,0,5.592,5.592,0,0,1,2,1.489,6.493,6.493,0,0,1,1.269,2.246,8.552,8.552,0,0,1,.438,2.785v.3a8.552,8.552,0,0,1-.438,2.786,6.652,6.652,0,0,1-1.269,2.246,5.825,5.825,0,0,1-1.993,1.489,6.236,6.236,0,0,1-2.615.526,6.337,6.337,0,0,1-2.632-.526,5.928,5.928,0,0,1-2-1.489,6.8,6.8,0,0,1-1.259-2.246A8.641,8.641,0,0,1,1672.6,657.239Zm2.373-.3v.3a7.712,7.712,0,0,0,.242,1.964,5.2,5.2,0,0,0,.734,1.617,3.687,3.687,0,0,0,1.246,1.117,3.618,3.618,0,0,0,1.733.4,3.52,3.52,0,0,0,1.707-.4,3.612,3.612,0,0,0,1.232-1.117,5.193,5.193,0,0,0,.73-1.617,7.282,7.282,0,0,0,.256-1.964v-.3a7.1,7.1,0,0,0-.256-1.938,4.979,4.979,0,0,0-.744-1.63,3.562,3.562,0,0,0-1.232-1.13,3.457,3.457,0,0,0-1.72-.411,3.5,3.5,0,0,0-1.72.411,3.686,3.686,0,0,0-1.232,1.13,5.183,5.183,0,0,0-.734,1.63A7.514,7.514,0,0,0,1674.973,656.944Zm2.515-8.857,2.491-3.774h2.865l-3.44,3.774Z" transform="translate(-613.92 914.568)" fill="#12263f"/>
    <path id="Trazado_748689" data-name="Trazado 748689" d="M1721.376,664.085v10.924H1719V661.12h2.249Zm-.565,3.453-.986-.038a8.335,8.335,0,0,1,.421-2.631,6.574,6.574,0,0,1,1.158-2.118,5.109,5.109,0,0,1,1.771-1.386,5.216,5.216,0,0,1,2.3-.5,5.672,5.672,0,0,1,1.852.282,3.347,3.347,0,0,1,1.4.873,3.885,3.885,0,0,1,.9,1.566,7.6,7.6,0,0,1,.31,2.323v9.1h-2.39v-9.126a3.98,3.98,0,0,0-.32-1.746,1.979,1.979,0,0,0-.936-.963,3.364,3.364,0,0,0-1.515-.308,3.517,3.517,0,0,0-1.619.372,3.919,3.919,0,0,0-1.245,1.027,5.262,5.262,0,0,0-.808,1.5A5.482,5.482,0,0,0,1720.811,667.538Z" transform="translate(-644.702 903.589)" fill="#12263f"/>
    <path id="Trazado_748690" data-name="Trazado 748690" d="M1347.5,753.378V736.357h2.387v19.717h-2.181Zm-9.344-4.095v-.27a10.167,10.167,0,0,1,.384-2.888,7.034,7.034,0,0,1,1.118-2.246,5.065,5.065,0,0,1,1.734-1.438,4.933,4.933,0,0,1,2.259-.514,5.292,5.292,0,0,1,2.286.462,4.4,4.4,0,0,1,1.669,1.322,6.5,6.5,0,0,1,1.091,2.08,13.174,13.174,0,0,1,.552,2.76v1.181a12.154,12.154,0,0,1-.552,2.747,6.5,6.5,0,0,1-1.091,2.08,4.569,4.569,0,0,1-1.669,1.322,5.544,5.544,0,0,1-2.309.449,4.775,4.775,0,0,1-2.235-.526,5.284,5.284,0,0,1-1.734-1.476,7.243,7.243,0,0,1-1.118-2.234A9.871,9.871,0,0,1,1338.16,749.283Zm2.386-.27v.27a9,9,0,0,0,.205,1.951,5.179,5.179,0,0,0,.67,1.6,3.32,3.32,0,0,0,1.141,1.091,3.359,3.359,0,0,0,1.656.385,3.449,3.449,0,0,0,1.939-.5,3.76,3.76,0,0,0,1.232-1.322,7.587,7.587,0,0,0,.717-1.784v-3.093a6.862,6.862,0,0,0-.448-1.361,4.236,4.236,0,0,0-.744-1.181,3.235,3.235,0,0,0-1.117-.834,3.617,3.617,0,0,0-1.552-.308,3.173,3.173,0,0,0-2.824,1.515,5.167,5.167,0,0,0-.67,1.618A9,9,0,0,0,1340.547,749.013Z" transform="translate(-392.056 853.508)" fill="#12263f"/>
    <path id="Trazado_748691" data-name="Trazado 748691" d="M1388.549,767.309a6.842,6.842,0,0,1-2.632-.488,5.991,5.991,0,0,1-2.016-1.4,6.241,6.241,0,0,1-1.282-2.131,7.815,7.815,0,0,1-.448-2.7v-.539a8.488,8.488,0,0,1,.5-3.017,6.764,6.764,0,0,1,1.363-2.259,5.814,5.814,0,0,1,1.949-1.4,5.609,5.609,0,0,1,2.259-.475,5.919,5.919,0,0,1,2.568.514,4.673,4.673,0,0,1,1.784,1.438,6.157,6.157,0,0,1,1.027,2.156,10.306,10.306,0,0,1,.333,2.7v1.065H1383.58v-1.938h8v-.18a5.906,5.906,0,0,0-.384-1.8,3.24,3.24,0,0,0-1.03-1.438,2.989,2.989,0,0,0-1.925-.565,3.234,3.234,0,0,0-1.488.346,3.175,3.175,0,0,0-1.168,1,4.983,4.983,0,0,0-.757,1.63,8.313,8.313,0,0,0-.269,2.221v.539a6.315,6.315,0,0,0,.269,1.861,4.782,4.782,0,0,0,.808,1.515,3.886,3.886,0,0,0,1.3,1.027,3.974,3.974,0,0,0,1.747.372,4.137,4.137,0,0,0,2.131-.513,5.286,5.286,0,0,0,1.528-1.373l1.437,1.142a6.659,6.659,0,0,1-1.141,1.3,5.492,5.492,0,0,1-1.71,1A6.6,6.6,0,0,1,1388.549,767.309Z" transform="translate(-421.252 842.528)" fill="#12263f"/>
    <path id="Trazado_748692" data-name="Trazado 748692" d="M1428.37,736.357v19.717h-2.39V736.357Z" transform="translate(-450.315 853.508)" fill="#12263f"/>
    <path id="Trazado_748693" data-name="Trazado 748693" d="M1466.126,755.834v16.559h-2.386V753.164h2.181Zm9.358,4.159v.27a10.507,10.507,0,0,1-.36,2.811,6.85,6.85,0,0,1-1.053,2.234,4.771,4.771,0,0,1-1.68,1.476,4.873,4.873,0,0,1-2.3.526,5.866,5.866,0,0,1-2.336-.437,4.611,4.611,0,0,1-1.72-1.271,6.422,6.422,0,0,1-1.128-2,11.382,11.382,0,0,1-.566-2.632V759.53a11.984,11.984,0,0,1,.576-2.76,6.9,6.9,0,0,1,1.118-2.08,4.6,4.6,0,0,1,1.707-1.322,5.469,5.469,0,0,1,2.312-.462,5.075,5.075,0,0,1,2.323.514,4.659,4.659,0,0,1,1.707,1.438,6.594,6.594,0,0,1,1.04,2.246A10.822,10.822,0,0,1,1475.484,759.993Zm-2.387.27v-.27a8.411,8.411,0,0,0-.219-1.951,5.023,5.023,0,0,0-.68-1.617,3.228,3.228,0,0,0-2.838-1.515,3.7,3.7,0,0,0-1.565.308,3.366,3.366,0,0,0-1.118.835,4.345,4.345,0,0,0-.757,1.181,6.771,6.771,0,0,0-.424,1.361v3.324a7.382,7.382,0,0,0,.72,1.695,3.7,3.7,0,0,0,1.232,1.271,3.622,3.622,0,0,0,1.935.475,3.269,3.269,0,0,0,1.656-.4,3.354,3.354,0,0,0,1.158-1.117,5.189,5.189,0,0,0,.68-1.617A8.581,8.581,0,0,0,1473.1,760.262Z" transform="translate(-475.365 842.528)" fill="#12263f"/>
    <path id="Trazado_748694" data-name="Trazado 748694" d="M1510,755.346v11.707h-2.373V753.164h2.309Zm4.339-2.259-.014,2.208a3.418,3.418,0,0,0-.562-.077c-.172-.017-.37-.026-.592-.026a3.815,3.815,0,0,0-1.451.257,3,3,0,0,0-1.064.719,3.441,3.441,0,0,0-.693,1.1,5.458,5.458,0,0,0-.323,1.386l-.667.385a10.785,10.785,0,0,1,.246-2.362,6.372,6.372,0,0,1,.781-1.951,3.837,3.837,0,0,1,1.336-1.335,3.754,3.754,0,0,1,1.949-.488,3.176,3.176,0,0,1,.592.064A1.738,1.738,0,0,1,1514.342,753.087Z" transform="translate(-504.481 842.528)" fill="#12263f"/>
    <path id="Trazado_748695" data-name="Trazado 748695" d="M1531.46,760.262v-.3a8.55,8.55,0,0,1,.438-2.785,6.582,6.582,0,0,1,1.259-2.247,5.572,5.572,0,0,1,1.989-1.489,6.653,6.653,0,0,1,5.248,0,5.591,5.591,0,0,1,2,1.489,6.548,6.548,0,0,1,1.272,2.247,8.643,8.643,0,0,1,.434,2.785v.3a8.64,8.64,0,0,1-.434,2.785,6.71,6.71,0,0,1-1.272,2.247,5.847,5.847,0,0,1-1.989,1.489,6.248,6.248,0,0,1-2.619.526,6.344,6.344,0,0,1-2.632-.526,5.948,5.948,0,0,1-2-1.489,6.745,6.745,0,0,1-1.259-2.247A8.548,8.548,0,0,1,1531.46,760.262Zm2.376-.3v.3a7.722,7.722,0,0,0,.242,1.964,5.19,5.19,0,0,0,.73,1.617,3.743,3.743,0,0,0,1.246,1.117,3.629,3.629,0,0,0,1.734.4,3.4,3.4,0,0,0,2.938-1.515,5.19,5.19,0,0,0,.734-1.617,7.292,7.292,0,0,0,.256-1.964v-.3a7.1,7.1,0,0,0-.256-1.938,5.049,5.049,0,0,0-.744-1.63,3.561,3.561,0,0,0-1.232-1.13,3.808,3.808,0,0,0-3.44,0,3.727,3.727,0,0,0-1.235,1.13,5.174,5.174,0,0,0-.73,1.63A7.517,7.517,0,0,0,1533.836,759.967Z" transform="translate(-520.29 842.528)" fill="#12263f"/>
    <path id="Trazado_748696" data-name="Trazado 748696" d="M1585.464,753.378V736.357h2.387v19.717h-2.181Zm-9.344-4.095v-.27a10.162,10.162,0,0,1,.384-2.888,6.964,6.964,0,0,1,1.118-2.246,5.036,5.036,0,0,1,1.734-1.438,4.913,4.913,0,0,1,2.259-.514,5.3,5.3,0,0,1,2.286.462,4.389,4.389,0,0,1,1.666,1.322,6.374,6.374,0,0,1,1.091,2.08,12.974,12.974,0,0,1,.552,2.76v1.181a11.989,11.989,0,0,1-.552,2.747,6.376,6.376,0,0,1-1.091,2.08,4.558,4.558,0,0,1-1.666,1.322,5.549,5.549,0,0,1-2.312.449,4.761,4.761,0,0,1-2.232-.526,5.253,5.253,0,0,1-1.734-1.476,7.169,7.169,0,0,1-1.118-2.234A9.867,9.867,0,0,1,1576.12,749.283Zm2.386-.27v.27a8.793,8.793,0,0,0,.205,1.951,5.094,5.094,0,0,0,.667,1.6,3.3,3.3,0,0,0,1.144,1.091,3.359,3.359,0,0,0,1.656.385,3.445,3.445,0,0,0,1.936-.5,3.7,3.7,0,0,0,1.232-1.322,7.6,7.6,0,0,0,.72-1.784v-3.093a6.846,6.846,0,0,0-.448-1.361,4.169,4.169,0,0,0-.747-1.181,3.222,3.222,0,0,0-1.114-.834,3.632,3.632,0,0,0-1.555-.308,3.184,3.184,0,0,0-2.824,1.515,5.084,5.084,0,0,0-.667,1.618A8.79,8.79,0,0,0,1578.507,749.013Z" transform="translate(-549.917 853.508)" fill="#12263f"/>
    <path id="Trazado_748697" data-name="Trazado 748697" d="M1630.35,764.35V753.67h2.387v13.889h-2.272Zm.448-2.926.99-.026a10.484,10.484,0,0,1-.3,2.567,5.522,5.522,0,0,1-.922,2.028,4.376,4.376,0,0,1-1.683,1.348,6.061,6.061,0,0,1-2.528.475,5.63,5.63,0,0,1-1.861-.3,3.711,3.711,0,0,1-1.437-.911,4.164,4.164,0,0,1-.939-1.6,7.793,7.793,0,0,1-.32-2.374v-8.96h2.376v8.985a4.953,4.953,0,0,0,.205,1.553,2.574,2.574,0,0,0,.576.963,2.143,2.143,0,0,0,.821.488,3.243,3.243,0,0,0,.949.141,4.365,4.365,0,0,0,2.4-.578,3.29,3.29,0,0,0,1.269-1.579A5.951,5.951,0,0,0,1630.8,761.423Z" transform="translate(-580.22 842.021)" fill="#12263f"/>
    <path id="Trazado_748698" data-name="Trazado 748698" d="M1669.387,765.358a3.561,3.561,0,0,0,1.565-.346,3.255,3.255,0,0,0,1.182-.95,2.668,2.668,0,0,0,.525-1.4h2.259a4.2,4.2,0,0,1-.835,2.3,5.7,5.7,0,0,1-1.99,1.707,5.769,5.769,0,0,1-2.706.642,6.359,6.359,0,0,1-2.737-.552,5.455,5.455,0,0,1-1.926-1.515,6.744,6.744,0,0,1-1.141-2.208,9.278,9.278,0,0,1-.374-2.657v-.539a9.149,9.149,0,0,1,.374-2.644,6.725,6.725,0,0,1,1.141-2.221,5.456,5.456,0,0,1,1.926-1.515,6.359,6.359,0,0,1,2.737-.552,5.831,5.831,0,0,1,2.848.667,4.883,4.883,0,0,1,1.912,1.8,5.163,5.163,0,0,1,.771,2.567h-2.259a3.425,3.425,0,0,0-.488-1.553,3.035,3.035,0,0,0-1.127-1.1,3.161,3.161,0,0,0-1.656-.423,3.592,3.592,0,0,0-1.838.436,3.23,3.23,0,0,0-1.168,1.155,5.382,5.382,0,0,0-.616,1.6,8.963,8.963,0,0,0-.178,1.784v.539a9.154,9.154,0,0,0,.178,1.8,5.189,5.189,0,0,0,.606,1.6,3.341,3.341,0,0,0,1.168,1.155A3.683,3.683,0,0,0,1669.387,765.358Z" transform="translate(-607.691 842.528)" fill="#12263f"/>
    <path id="Trazado_748699" data-name="Trazado 748699" d="M1708.4,747.017v1.823h-7.51v-1.823Zm-4.969-3.376h2.377v13.825a2.1,2.1,0,0,0,.216,1.065,1.061,1.061,0,0,0,.565.475,2.354,2.354,0,0,0,.744.115,3.857,3.857,0,0,0,.616-.051c.225-.043.39-.077.5-.1l.013,1.938a6.709,6.709,0,0,1-1.834.257,3.708,3.708,0,0,1-1.606-.347,2.572,2.572,0,0,1-1.168-1.155,4.846,4.846,0,0,1-.424-2.208Z" transform="translate(-632.688 848.675)" fill="#12263f"/>
    <path id="Trazado_748700" data-name="Trazado 748700" d="M1728.84,760.262v-.3a8.643,8.643,0,0,1,.438-2.785,6.583,6.583,0,0,1,1.259-2.247,5.571,5.571,0,0,1,1.989-1.489,6.654,6.654,0,0,1,5.248,0,5.565,5.565,0,0,1,2,1.489,6.5,6.5,0,0,1,1.272,2.247,8.639,8.639,0,0,1,.438,2.785v.3a8.637,8.637,0,0,1-.437,2.785,6.663,6.663,0,0,1-1.272,2.247,5.781,5.781,0,0,1-1.989,1.489,6.247,6.247,0,0,1-2.619.526,6.328,6.328,0,0,1-2.629-.526,5.927,5.927,0,0,1-2-1.489,6.747,6.747,0,0,1-1.259-2.247A8.64,8.64,0,0,1,1728.84,760.262Zm2.376-.3v.3a7.722,7.722,0,0,0,.242,1.964,5.2,5.2,0,0,0,.734,1.617,3.68,3.68,0,0,0,1.245,1.117,3.615,3.615,0,0,0,1.73.4,3.525,3.525,0,0,0,1.71-.4,3.608,3.608,0,0,0,1.232-1.117,5.19,5.19,0,0,0,.73-1.617,7.287,7.287,0,0,0,.256-1.964v-.3a7.094,7.094,0,0,0-.256-1.938,4.973,4.973,0,0,0-.744-1.63,3.56,3.56,0,0,0-1.232-1.13,3.808,3.808,0,0,0-3.44,0,3.683,3.683,0,0,0-1.232,1.13,5.182,5.182,0,0,0-.734,1.63A7.517,7.517,0,0,0,1731.216,759.967Z" transform="translate(-651.229 842.528)" fill="#12263f"/>
    <path id="Trazado_748701" data-name="Trazado 748701" d="M1385.023,857.4a3.545,3.545,0,0,0,1.565-.347,3.194,3.194,0,0,0,1.182-.95,2.64,2.64,0,0,0,.528-1.4h2.259a4.258,4.258,0,0,1-.835,2.3,5.7,5.7,0,0,1-1.989,1.707,5.773,5.773,0,0,1-2.71.642,6.334,6.334,0,0,1-2.733-.552,5.4,5.4,0,0,1-1.925-1.515,6.749,6.749,0,0,1-1.141-2.208,9.29,9.29,0,0,1-.374-2.657v-.539a9.155,9.155,0,0,1,.374-2.644,6.725,6.725,0,0,1,1.141-2.221,5.4,5.4,0,0,1,1.925-1.515,6.334,6.334,0,0,1,2.733-.552,5.852,5.852,0,0,1,2.851.667,4.9,4.9,0,0,1,1.912,1.8,5.2,5.2,0,0,1,.771,2.567H1388.3a3.428,3.428,0,0,0-.488-1.553,3.067,3.067,0,0,0-1.131-1.1,3.16,3.16,0,0,0-1.656-.424,3.567,3.567,0,0,0-1.835.437,3.2,3.2,0,0,0-1.168,1.155,5.372,5.372,0,0,0-.616,1.6,8.729,8.729,0,0,0-.182,1.784v.539a8.922,8.922,0,0,0,.182,1.8,5.092,5.092,0,0,0,.6,1.6,3.345,3.345,0,0,0,1.168,1.156A3.7,3.7,0,0,0,1385.023,857.4Z" transform="translate(-419.049 781.467)" fill="#12263f"/>
    <path id="Trazado_748702" data-name="Trazado 748702" d="M1419.69,852.307v-.3a8.549,8.549,0,0,1,.438-2.785,6.632,6.632,0,0,1,1.255-2.247,5.613,5.613,0,0,1,1.993-1.489,6.653,6.653,0,0,1,5.248,0,5.589,5.589,0,0,1,2,1.489,6.551,6.551,0,0,1,1.272,2.247,8.641,8.641,0,0,1,.434,2.785v.3a8.643,8.643,0,0,1-.434,2.786,6.713,6.713,0,0,1-1.272,2.246,5.841,5.841,0,0,1-1.989,1.489,6.253,6.253,0,0,1-2.619.526,6.348,6.348,0,0,1-2.632-.526,5.994,5.994,0,0,1-2-1.489,6.8,6.8,0,0,1-1.255-2.246A8.551,8.551,0,0,1,1419.69,852.307Zm2.377-.3v.3a7.706,7.706,0,0,0,.242,1.964,5.19,5.19,0,0,0,.73,1.617,3.751,3.751,0,0,0,1.245,1.117,3.629,3.629,0,0,0,1.734.4,3.4,3.4,0,0,0,2.939-1.515,5.2,5.2,0,0,0,.734-1.617,7.282,7.282,0,0,0,.256-1.964v-.3a7.1,7.1,0,0,0-.256-1.939,5.053,5.053,0,0,0-.744-1.63,3.541,3.541,0,0,0-1.235-1.129,3.444,3.444,0,0,0-1.72-.411,3.508,3.508,0,0,0-1.72.411,3.748,3.748,0,0,0-1.232,1.129,5.178,5.178,0,0,0-.73,1.63A7.509,7.509,0,0,0,1422.067,852.012Z" transform="translate(-446.143 781.467)" fill="#12263f"/>
    <path id="Trazado_748703" data-name="Trazado 748703" d="M1468.41,847.968V859.1h-2.39V845.209h2.262Zm-.488,3.659-1.1-.039a9.44,9.44,0,0,1,.37-2.631,6.283,6.283,0,0,1,1.067-2.118,4.747,4.747,0,0,1,1.757-1.387,5.628,5.628,0,0,1,2.44-.5,5.511,5.511,0,0,1,1.8.282,3.619,3.619,0,0,1,1.424.86,3.931,3.931,0,0,1,.936,1.515,6.525,6.525,0,0,1,.337,2.233V859.1h-2.377v-9.14a3.515,3.515,0,0,0-.374-1.746,2.111,2.111,0,0,0-1.027-.95,3.7,3.7,0,0,0-1.565-.308,3.738,3.738,0,0,0-1.757.372,2.973,2.973,0,0,0-1.131,1.027,4.6,4.6,0,0,0-.616,1.5A8.538,8.538,0,0,0,1467.922,851.627Zm9-1.309-1.592.488a6.962,6.962,0,0,1,.374-2.2,5.923,5.923,0,0,1,1.064-1.874,5.066,5.066,0,0,1,1.734-1.3,5.41,5.41,0,0,1,2.35-.488,6.067,6.067,0,0,1,1.976.3,3.578,3.578,0,0,1,1.464.912,3.834,3.834,0,0,1,.912,1.553,7.356,7.356,0,0,1,.306,2.259V859.1h-2.387v-9.153a3.625,3.625,0,0,0-.374-1.81,1.939,1.939,0,0,0-1.027-.911,4.109,4.109,0,0,0-1.565-.27,3.375,3.375,0,0,0-1.387.27,2.867,2.867,0,0,0-1.013.744,3.2,3.2,0,0,0-.63,1.066A3.931,3.931,0,0,0,1476.919,850.318Z" transform="translate(-476.877 781.467)" fill="#12263f"/>
    <path id="Trazado_748704" data-name="Trazado 748704" d="M1536.937,847.878v16.559h-2.386V845.209h2.181Zm9.358,4.159v.27a10.522,10.522,0,0,1-.357,2.811,7,7,0,0,1-1.054,2.233,4.781,4.781,0,0,1-1.683,1.476,4.863,4.863,0,0,1-2.3.526,5.855,5.855,0,0,1-2.336-.436,4.583,4.583,0,0,1-1.72-1.271,6.489,6.489,0,0,1-1.131-2,11.741,11.741,0,0,1-.566-2.632v-1.438a12.136,12.136,0,0,1,.579-2.76,6.833,6.833,0,0,1,1.118-2.079,4.569,4.569,0,0,1,1.707-1.322,5.454,5.454,0,0,1,2.309-.462,5.055,5.055,0,0,1,2.323.513,4.7,4.7,0,0,1,1.71,1.438,6.6,6.6,0,0,1,1.04,2.247A10.834,10.834,0,0,1,1546.294,852.038Zm-2.386.27v-.27a8.4,8.4,0,0,0-.219-1.951,4.874,4.874,0,0,0-.68-1.617,3.233,3.233,0,0,0-1.154-1.1,3.29,3.29,0,0,0-1.683-.411,3.7,3.7,0,0,0-1.565.308,3.391,3.391,0,0,0-1.118.834,4.516,4.516,0,0,0-.757,1.181,6.782,6.782,0,0,0-.424,1.361v3.325a7.376,7.376,0,0,0,.72,1.695,3.757,3.757,0,0,0,1.232,1.271,3.642,3.642,0,0,0,1.939.475,3.269,3.269,0,0,0,1.656-.4,3.35,3.35,0,0,0,1.154-1.117,5.035,5.035,0,0,0,.68-1.617A8.562,8.562,0,0,0,1543.908,852.307Z" transform="translate(-522.339 781.467)" fill="#12263f"/>
    <path id="Trazado_748705" data-name="Trazado 748705" d="M1580.816,847.391V859.1h-2.376V845.209h2.313Zm4.339-2.259-.014,2.208a3.468,3.468,0,0,0-.565-.077c-.172-.017-.367-.026-.589-.026a3.808,3.808,0,0,0-1.451.257,3.02,3.02,0,0,0-1.067.719,3.49,3.49,0,0,0-.693,1.1,5.315,5.315,0,0,0-.32,1.386l-.667.385a11.007,11.007,0,0,1,.242-2.362,6.469,6.469,0,0,1,.784-1.951,3.829,3.829,0,0,1,1.333-1.335,3.757,3.757,0,0,1,1.952-.488,3.129,3.129,0,0,1,.589.064A1.8,1.8,0,0,1,1585.155,845.132Z" transform="translate(-551.456 781.467)" fill="#12263f"/>
    <path id="Trazado_748706" data-name="Trazado 748706" d="M1610.76,856.723v-7.15a2.9,2.9,0,0,0-.333-1.425,2.189,2.189,0,0,0-.976-.95,3.53,3.53,0,0,0-1.616-.334,3.784,3.784,0,0,0-1.579.308,2.723,2.723,0,0,0-1.053.809,1.767,1.767,0,0,0-.374,1.078h-2.373a3.152,3.152,0,0,1,.384-1.476,4.375,4.375,0,0,1,1.1-1.322,5.525,5.525,0,0,1,1.747-.95,6.879,6.879,0,0,1,2.286-.36,6.517,6.517,0,0,1,2.669.513,3.989,3.989,0,0,1,1.821,1.553,4.621,4.621,0,0,1,.67,2.58v6.47a10.09,10.09,0,0,0,.114,1.476,5.582,5.582,0,0,0,.374,1.348v.206h-2.477a4.323,4.323,0,0,1-.283-1.091A8.516,8.516,0,0,1,1610.76,856.723Zm.411-6.046.027,1.669h-2.4a8.871,8.871,0,0,0-1.811.167,4.136,4.136,0,0,0-1.336.475,2.277,2.277,0,0,0-.822.809,2.144,2.144,0,0,0-.283,1.117,2.462,2.462,0,0,0,.3,1.194,2.155,2.155,0,0,0,.885.86,3.225,3.225,0,0,0,1.478.308,3.908,3.908,0,0,0,1.925-.462,4.033,4.033,0,0,0,1.323-1.13,2.444,2.444,0,0,0,.539-1.3l1.013,1.142a3.457,3.457,0,0,1-.488,1.194,5.731,5.731,0,0,1-2.632,2.246,5.085,5.085,0,0,1-2.026.385,5.311,5.311,0,0,1-2.477-.552,4.225,4.225,0,0,1-1.643-1.476,3.893,3.893,0,0,1-.579-2.092,4.205,4.205,0,0,1,.438-1.964,3.769,3.769,0,0,1,1.259-1.425,5.946,5.946,0,0,1,1.976-.873,10.422,10.422,0,0,1,2.578-.3Z" transform="translate(-567.191 781.467)" fill="#12263f"/>
    <path id="Trazado_748707" data-name="Trazado 748707" d="M1653.454,845.423V828.4h2.386v19.717h-2.181Zm-9.344-4.094v-.27a10.154,10.154,0,0,1,.384-2.888,7.036,7.036,0,0,1,1.117-2.247,5.071,5.071,0,0,1,1.734-1.438,4.925,4.925,0,0,1,2.259-.513,5.291,5.291,0,0,1,2.285.462,4.4,4.4,0,0,1,1.67,1.322,6.513,6.513,0,0,1,1.091,2.079,13.18,13.18,0,0,1,.552,2.76v1.181a12.16,12.16,0,0,1-.552,2.747,6.517,6.517,0,0,1-1.091,2.08,4.576,4.576,0,0,1-1.67,1.322,5.552,5.552,0,0,1-2.312.449,4.775,4.775,0,0,1-2.232-.526,5.29,5.29,0,0,1-1.734-1.476,7.24,7.24,0,0,1-1.117-2.233A9.865,9.865,0,0,1,1644.11,841.328Zm2.386-.27v.27a8.993,8.993,0,0,0,.206,1.951,5.1,5.1,0,0,0,.67,1.6,3.317,3.317,0,0,0,1.141,1.091,3.353,3.353,0,0,0,1.656.385,3.451,3.451,0,0,0,1.939-.5,3.761,3.761,0,0,0,1.232-1.322,7.739,7.739,0,0,0,.717-1.784v-3.094a6.878,6.878,0,0,0-.448-1.361,4.236,4.236,0,0,0-.744-1.181,3.226,3.226,0,0,0-1.118-.834,3.631,3.631,0,0,0-1.555-.308,3.171,3.171,0,0,0-2.821,1.515,5.085,5.085,0,0,0-.67,1.617A8.994,8.994,0,0,0,1646.5,841.058Z" transform="translate(-595.021 792.445)" fill="#12263f"/>
    <path id="Trazado_748708" data-name="Trazado 748708" d="M1688.08,852.307v-.3a8.641,8.641,0,0,1,.434-2.785,6.633,6.633,0,0,1,1.259-2.247,5.627,5.627,0,0,1,1.989-1.489,6.661,6.661,0,0,1,5.251,0,5.588,5.588,0,0,1,2,1.489,6.5,6.5,0,0,1,1.269,2.247,8.552,8.552,0,0,1,.438,2.785v.3a8.554,8.554,0,0,1-.437,2.786,6.654,6.654,0,0,1-1.269,2.246,5.841,5.841,0,0,1-1.989,1.489,6.251,6.251,0,0,1-2.619.526,6.337,6.337,0,0,1-2.632-.526,5.956,5.956,0,0,1-2-1.489,6.8,6.8,0,0,1-1.259-2.246A8.643,8.643,0,0,1,1688.08,852.307Zm2.373-.3v.3a7.567,7.567,0,0,0,.246,1.964,5.116,5.116,0,0,0,.73,1.617,3.72,3.72,0,0,0,1.245,1.117,3.619,3.619,0,0,0,1.734.4,3.52,3.52,0,0,0,1.707-.4,3.614,3.614,0,0,0,1.232-1.117,5.116,5.116,0,0,0,.73-1.617,7.287,7.287,0,0,0,.259-1.964v-.3a7.1,7.1,0,0,0-.259-1.939,4.98,4.98,0,0,0-.744-1.63,3.5,3.5,0,0,0-1.232-1.129,3.453,3.453,0,0,0-1.72-.411,3.508,3.508,0,0,0-1.72.411,3.683,3.683,0,0,0-1.232,1.129,5.106,5.106,0,0,0-.73,1.63A7.373,7.373,0,0,0,1690.453,852.012Z" transform="translate(-624.19 781.467)" fill="#12263f"/>
    <path id="Trazado_748709" data-name="Trazado 748709" d="M874.293,320.014l10.841-18.778,10.841,18.778h-8.964v41.311h-3.756V320.014Z" transform="translate(-84.331 1142.162)" fill="#afafaf" fill-rule="evenodd"/>
    <path id="Trazado_748710" data-name="Trazado 748710" d="M874.292,1087.056l10.841-18.776,10.841,18.776h-8.964v70.415h8.964l-10.841,18.78-10.841-18.78h8.964v-70.415Z" transform="translate(-84.331 633.313)" fill="#afafaf" fill-rule="evenodd"/>
    <path id="Trazado_748711" data-name="Trazado 748711" d="M1331.73,320.014l10.839-18.778,10.842,18.778h-8.964v41.311h-3.756V320.014Z" transform="translate(-387.791 1142.162)" fill="#afafaf" fill-rule="evenodd"/>
    <path id="Trazado_748712" data-name="Trazado 748712" d="M1353.411,1109.582l-10.842,18.78-10.839-18.78h8.964V1068.27h3.753v41.312Z" transform="translate(-387.791 633.319)" fill="#afafaf" fill-rule="evenodd"/>
  </g>
</svg>
