<svg xmlns="http://www.w3.org/2000/svg" xmlns:xlink="http://www.w3.org/1999/xlink" width="451.826" height="319.416" viewBox="0 0 451.826 319.416">
  <defs>
    <linearGradient id="linear-gradient" x1="0.5" x2="0.5" y2="1" gradientUnits="objectBoundingBox">
      <stop offset="0" stop-color="#fff"/>
      <stop offset="0.463" stop-color="#e9fffe"/>
      <stop offset="1" stop-color="#fff"/>
    </linearGradient>
    <clipPath id="clip-path">
      <rect id="Rectángulo_356306" data-name="Rectángulo 356306" width="315" height="221.369" fill="none"/>
    </clipPath>
    <clipPath id="clip-path-2">
      <rect id="Rectángulo_356256" data-name="Rectángulo 356256" width="71.55" height="221.369" fill="none"/>
    </clipPath>
    <clipPath id="clip-path-3">
      <rect id="Rectángulo_356257" data-name="Rectángulo 356257" width="82.479" height="221.369" fill="none"/>
    </clipPath>
    <clipPath id="clip-path-4">
      <rect id="Rectángulo_356266" data-name="Rectángulo 356266" width="3.837" height="5.92" fill="none"/>
    </clipPath>
  </defs>
  <g id="Grupo_1020158" data-name="Grupo 1020158" transform="translate(-811.174 -374)">
    <rect id="BG" width="451.826" height="319.416" transform="translate(811.174 374)" opacity="0.949" fill="url(#linear-gradient)"/>
    <g id="Grupo_1020132" data-name="Grupo 1020132" transform="translate(895 423)" clip-path="url(#clip-path)">
      <path id="Trazado_749196" data-name="Trazado 749196" d="M187.131,86.345c-.012.071.531,1.243-.593.181.091-.2.564-.323.593-.181.043.208-.072-.113,0,0m-1.155.235c.354,1.2-.074-.109,0,0,.05.075-.065-.05,0,0m-52.669-3.168c.226.61.6.7.558-.469-.084-2.328-.821-.242-.558.469.106.288-.284-.766,0,0m1.8-6.924a16.986,16.986,0,0,0-2.133-2.708c-.335.131-1.526,1.3-2.41,1.087a2.457,2.457,0,0,0-.256-1.909c-1.848-1.55-.914-.974-3.985-.549.5-2.162-3.52-.231-3.982,1.072-1.085,3.057.546,1.663,2.281,3.485-4.989-.6.238,1.455,1.319,1.73.9.229,4.02.889,4.656.649-1.926-1.788.849-.177,2.03-.465a1.136,1.136,0,0,0-.765-.831c.426-.419,1.622,1.978,1.774,2.314-.236-.014-.318.312-.271.993,1.021-1.27,1.592,2.111.842,4.551a1.591,1.591,0,0,1,.321.858c.09-.815-2.269,2.388-.869,2.105.211-.043.78-.9.807-.207.119-.24,1.217.9.7,1.679a5.3,5.3,0,0,0,2.786,2.005c.035-1.341-1.08-1.693-1.429-2.775.107.082,1.707,1.748,1.908,1.58-.066-.268-.359-2.127.17-1.061-.022-.187-1.111-3.987-1.215-2.386-.372-1.809-.439-.617-.7-1.961.91.106-.01-.055.226-.9.08-.286,1.055.47,1.421.151.013.491-.118.786-.381.876a2.668,2.668,0,0,0,1.059,1.272c.192-1.324.79-2.2.467-2.381.354-.914,1.013-1.586-.535-1.221.384-1.218-2.143-2.233-2.721-2.685,1-.4-.461-1.107.929-.805-.184-.832-.489-.366-.9-.621.187-.343.408-.5.669-.465-.023-1.109-.948-.436-1.193-.492.259-.048.47-.31.622-.781-.217-.187-1.769-.954-1.668-.4a3.892,3.892,0,0,1,.418-.8c.144-.412-.088.135,0,0m51.276,9.429c-.657.467.786-1.132.5-.932-.554.182-.468.786-.5.932-.005.023-.569-.3,0,0M134.014,82.5c-.112.4.416.372.465.374-.085-.691-.348-.791-.465-.374M122.4,54.965l-1.362.985c1.229.867,3.8.059,5.023-.171-1.344.581-2.811.3-4.14.81,2.041.631,2.747-.195,4.688-.236a4.427,4.427,0,0,0-2.111.966,8.025,8.025,0,0,0,4.428-.381c-2.534,1.9,3.451-.853,3.639-1.083-.524.659-.556,1.109-.144,1.372-.84.6-6.057-.514-2.794,2.383-.324-.193-4.315-2.665-4.835-1.657-.541,1.048,2.547,2.609,3.158,3.687-.732-.389-4.431-1.064-4.135.66.238,1.382,2.371-.2,2.607-.4-.69,2.091.352,2.9,2.08,1.13-2.173,2.97-2.765-.4-5.283.388a1.2,1.2,0,0,0,1.21.891,16.749,16.749,0,0,1-2.443,1.471c.814,1.015,8.4-.418,8,1.37-.179.049,2.564-.906,2.561-.95-.1-1.554-.515-.214-1-.908.2.289.855-2.237.783-2.047.084-.213,1.476.241.5-1.155,1.019-.364.378-.674-.081-1.01,1.345.019.3-.454-.092-.559.309-.094,1.39.2,1.2-1.069.435.229,1.824-.828.564-.864.452-.243,3.266-2.281,3.308-3.644-.936.507-1.8.976-2.585,1.4.6-.442,2.525-.9.613-1.239a7.6,7.6,0,0,0,3.819-2.446,3.975,3.975,0,0,0-3.577.2c2.116-2.611-2.269-1.321-1.933.129-.505-.712-2.395-2.48-1.061.238-.889-.884-2.646-1.346-4.74.206q1.507.811,3,1.6a14.776,14.776,0,0,1-4.783-1.839c-.323-.207-3.179-.04-1.372.837-1.967,0-4.123-.169-5.822.61,1.037.932,3.114.326,3.114.326h0m61.773,40.321c-1.055.853,2.3-1.079,2.473-1.167,1.4-.725.234-1.916.978-3.029,1.7-2.549-4.638-.319-2.073.025-.627.664-1.854.259-1.5,1.252.421,1.2-.319,1.319.988,1.486a3.583,3.583,0,0,0-1.485,1.035c1.454-.119.624.4.624.4s-.205,0,0,0m2.822-8.2c-.29.25.058.006,0,0-.013,0,.068.091,0,0M130.951,73.363c.61.794,2.023.126,2.3.166-.158-.542-2.853-3.062-3-1.48,0-.039.636,1.227.7,1.314h0m-9.835-8.028c-.108.212.268.673.77.668-.19-.251-.105-1.135-.77-.668-.334.234.068-.135,0,0m101.162,7.835c.65,1.321,2.838,3.864,3.677,3.531-3.307-4.978.6-7.139,3.179-6.37,1.3.388,2.986,1.177,4.179,1.09,2.3-.168-2.354-1.968-2.608-2.034-1.632-.421-7.88-3.821-7.426.179.189,1.667-2.274,1.017-1,3.6h0m-16.73-9.077c.346.09.646-.121.885-.649-.262-.134-.885.649-.885.649s.111,0,0,0M187.092,89.241c.756-.424-.288-.058,0,0,.09.018-.085-.11,0,0m16.623-24.331c-.134-.016-.2.185-.209.594a1.936,1.936,0,0,0,.209-.594c-.007,0-.01.07,0,0m-.76,1.885c.291.349-.187-.565,0,0,.02.061,0-.08,0,0m.418-1.551q-.095.312-.188.628c.137.135.188-.628.188-.628s.094.3,0,0m-13.641,18.51c.916.084,0-.114.191-.275-.533-.311-.359.386-.191.275.069-.045-.02.065,0,0M206.081,63.7c.371-.618-.072-.6-.39-.607.071.477.286.693.39.607s-.177-.073,0,0M187.37,88.851a4.127,4.127,0,0,0,.211-.476c-.19-.012-.372.188-.211.476m16.021-22.633c-.123-.02-.232-.161-.237.442.076-.146.156-.292.237-.442m-15.444,22.64a.527.527,0,0,0,.178.385c.111-.238.042-.387-.178-.385m-.3-2.39a6.028,6.028,0,0,1-.628,1.665c.181.138.744-.563,1.035-.915.2.205-.857,2.056-.456,2.342.125.089.314-1.367.615-1.551q-.391.908.227.04c.378.539-.532,1.961-.019,2.257-.024-.249,1.094-.813,1.656-.841-.615.281-.036,2.187.267,2.34a6.471,6.471,0,0,0-1.614.222q.44.393-.108.833c1.533-.653.145.969-.423,1.353.267.623,1.745.252,2.412-.135-.668,1.038-1.742,1.375-2.625,2.729.937.475,5.52-3.549,6.128-2.85a1.539,1.539,0,0,0-.844-.173c1.478-1.526.128-3.158-1.055-2.932.769-.52-.936-2.893-2.549-2.8.225-.348,1.81-1.961,1.318-2.619a2.182,2.182,0,0,0-2.064.623c.108-.2.523-.7-.217-.57.433-.038,1.153-.954,1.21-1.382-.682-.018-2.928.949-1.824,1.585-.822-.411-.441.776-.441.776s-.175-.028,0,0m1.245,4.06c-1.129.785.137.035,0,0-.058-.014.1.193,0,0m14.979-24.482q.185-.51.377-1.008a4.357,4.357,0,0,0-.377,1.008s-.03-.335,0,0m.669-1.989q-.113.238-.223.479a2.494,2.494,0,0,0,.223-.479c-.022,0,.165.233,0,0m-.445.478c-.135.077-.215.878-.089.812.209-.11.476-1.033.089-.812h0m.773-.537c-.122-.282-.216-.263-.287.052.1.28.3.158.287-.052-.013-.161-.038.2,0,0m-1.138,1.564c-.1.163-.206,1.391-.09-.122a8.035,8.035,0,0,0-.267.964c.33.28.432-.961.357-.842h0m-.285,1.263q-.094.269-.186.541a.592.592,0,0,1,.008.56,4.716,4.716,0,0,0,.177-1.1h0m.134-.107c-.123-.2-.153-.067-.1.408.358-.954.1-.408.1-.408s.041-.289,0,0m1.548-2.452c-.221-.2-.392-.09-.523.33.178-.051.506-.237.523-.33.026-.152-.1.074,0,0m.147-.458c-.439-.449.186.433,0,0-.015-.036.012.349,0,0m63.947,71.561c.243,1.638.063.079.483.015.468-.071-.122,1.749.1,2.1.286.46.971-2.122.361-3.011a7.08,7.08,0,0,1,3.206-1.9q-.6,1.021.249,1.328c.282-.586.632-1.833.8-2.02.63.92,2.118-.985,2.386-1.326-.245,1.5.907-1.71.866-2.666-.027-.634.213-3.653.355-4.554-1.638-.4-1.182,5.348-3.363,6.2a.57.57,0,0,1,.119-.72c-.278.21-1.422,2.912-1.577,2.7-.9-1.255-3.879,3.468-3.985,3.857-.035.13.325-.4,0,0m18.343,53.2c-3.247-2.325-5.523-7.568-7.281-11.61-2.741,1.354,1.288,8.623-2.972,6.59-1.164-.556-2.365-.545-2.083-2.327,1.031-1.154,1.043-1.868.06-2.146-1.057-.3-2.6-.672-2.409,1.186-1.623.043-1.782.915-2.057,2.907-2.414-1.213-3.612,1.7-4.373,4.884-.235.984-1.476,1.238-1.908,1.5-.867.517-1.14,3.084-1.456,1.7-.532,3.492.517,6.166.852,9.424.071.686.051,6.67,1.521,3.726.626-1.254,1.548-1.215,2.568-1.437a19.3,19.3,0,0,1,1.159-1.742c2.362-2.132,4.691-1.2,6.586,1.391a17.294,17.294,0,0,0,1.434-2.665,3.876,3.876,0,0,1-.623,2.685c.593-.071.916-.487.955-1.248.136,1.293,1.211,3.96,2.405,4.277a2.165,2.165,0,0,0,2.325-.448c.964-1.09.809.653,1.719.179,4.585-2.388,8.12-13.054,3.578-16.824-.452-.375.558.4,0,0M285.2,207.295c-1.314.778-1.044.792-2.558.34-.716,6.95,3.918-.607,2.558-.34-.192.037.909.136,0,0m-7.026-95.786c.025,1.871-.65,4.8.091,6.389a1.5,1.5,0,0,1,.488-1.224c.469-.067.692.156.661.674.7-1.021-.976-1.633-.721-2.649.6-2.4.844-.735,1.894-1.059-.587-.844-2.132-6.948-2.352-6.692-.07-.046-.06,4.561-.06,4.561.026.007.411-.627,0,0M277,121.215c-.059.424-1.132,2.419-.151,2.465-.085-.006.65-.554.672-.568.227-.143-.647-.423-.618-.7.767-.532,2.112.177,2.54-.178-.442.293,2.61-3.111,2.127-2.346-.975.342-.246-.7-.414-1.1-.96,1.364-3.225.041-3.113-.429-.224.932.185,1.819-.27,2.827a3.718,3.718,0,0,0-.773.023c-.052.047.256,0,0,0M200.86,86.975a.786.786,0,0,0,.543.662c.4-.151-.416-.96-.543-.662-.048.113.239-.185,0,0m1.049-.293c-.163.595.145.859.163,1.428a7.964,7.964,0,0,0,.16-1.938c-.122-.219-.156-.067-.108.45-.32-.117.288-.68-.215.06-.107.157.166-.125,0,0m4.248-2.92c-.743-.874-.449-.071-.59.63a2.163,2.163,0,0,1,.59-.63c.021-.076-.2.188,0,0m-1.286-2.89c-.009-.163.089-.56-.047-.638-.136.115.047.638.047.638s-.316-.612,0,0m67.266,53.376c.238-.2.7.936.708-.594,0-.833-2.024.012-1.556,1.564.4-.124.634-.646.848-.97.049-.075-.336.284,0,0m26.734,58.2-.3-.959c-1.689,1.187-4.7,5.626-5.777,7.25-.261.394,2.539,1.161,2.974.39.856-1.515,1.433-3.546,2.951-3.613-.74-1.269,1.43-2.135.879-3.755l-.726.687c-.025-.011.242-.224,0,0m-4.885,7.2c-.286.152-.1.473-.327.8.3-.332,1.144-.339.327-.8m9.629-12.488c-2.023,1.579-1.472-.368-2.556-.654.128,1.082-1.694-1.836-2.707-1.9.627,1.089,1.755,1.8,2.026,3.224a2.324,2.324,0,0,1-.931,2.129c1.024.659,2.038.537.782,2.086,2.114.857,3.391-4.887,3.386-4.885-.652.247.774-.047,0,0M323.076,75.382c-.041,1.031-.683,1.273-.4,2.284-1.342.238-2.7.225-3.08-.741.139.353-3.729-.4-3.352-.576a2.1,2.1,0,0,0-.333,1.717c-.047.862-2.535,1.689-3.134,2.022,1.709.543,3.529,2.91.057,3.209-1.524.131-5.034,3.77-6.351,4.97-.6,1.6-1.316,1.969-2.145,1.108-1.243-.078-2.533,1.085-3.173,2.126-.092-2.815-4.116,3.119-4.666,4.1,3.109,2.622-2.973,9.064-4.809,11.668-.678-2.573-3.19-7.133.684-10.163,1.893-1.481,2.8-3.319,4.5-5.03,1.6-1.608,1.48-3.5,3.238-4.424-2.281.273-3.386,2.739-4.977,4.459a2.606,2.606,0,0,1-.083-2.052c-1.1.956-2.413,1-3.339,2.027a29.165,29.165,0,0,0-2.565,3.3.643.643,0,0,1,.7.564,24.023,24.023,0,0,1-3.733,1.781c2.149-2.265-4.436.81-5.5,1.228-3.715,1.462-5.858,6.256-8.352,9.249a4.581,4.581,0,0,0,2.46.829c3.29-2.412,2.689,1.08,2.092,4.534-.577,3.336-3.261,8.867-5.822,10.451-.494.305-.341-.65-1.132.221-.99,1.09-1.536,3.6-2.33,4.978,1.573,1.309,2.04,4.78-.475,5.431a19.883,19.883,0,0,1,.05-2.913c.615-1.289-.991-.211-1.111-.824-.172-.879.642-1.4-.081-1.828-.7-.416-1.466,1.174-1.962,1.84a3,3,0,0,1,.5-2.143c-.771-.684-1.643,1.365-2.191,2.148-1.214,1.736,2.732,1.221,2.538,1.2q-.926,1.587-1.735,3.127c.712.813,2.539,2.99.486,2.945,1.24.365,1.375,1.037.347,2.019,1.7.333-.387,6.177-1.473,7.375-.211.232-2.687,3.379-2.414,3.7a1.038,1.038,0,0,1,0-1.02c-.925-1.628-1.219,1.9-.816,3.725.9,4.082.939,5.266-.024,8.653-.309-1.114-.458-3.666-.805-3.842-.037-1.836-.718,1.8-.617,2.93.026.289.8,2.467.88,2.789a49.168,49.168,0,0,1,.668,5.069c-.7-.5-.516-3.971-1.563-5.782s-.933-7.129-1.55-9.687c-.106.2-1.575,2.549-1.474.455.112-2.339-1.228-3.953-1.991-6.2-1,.773-2.2.424-2.832,1.147-.995,1.146-4.322,2.72-4.2,4.58a18.894,18.894,0,0,0,1.427,7.218c.429,1.2-1.039,1.7-1.234.17s.1-2.058-.747-3.355c-.058,1.2-.219,1.088-1.179,1.511-1.942-4.971-3.843-9.876-4.121-15.283-1.132,1.466-1.314,1.259-2.823-1.13.478.262.839.226,1.086-.107-2.33-.766-2.185-3.745-4.394-4.391a13.246,13.246,0,0,1-4.582-2.366c-.918-.677-1.418-2.368-2.178-2.4-1.89-.083-3.327-2.914-4.088-5.017-.543-1.5-2.4-1.616-1.653.194.705,1.7,1.817,6.759,2.151,3.682.791,1.988-.518,2.209,1.475,3.04,1.392.58,1.723-.406,2.5-1.135.243,2.435,1.418,2.563,2.177,4.5.674,1.719-.569,2.441-.622,2.062-1.08,2.62-6.69,4.928-9.924,3.5-1.775-.782-1.376-7.458-3.551-9.548-.65-.625-3.279-10.328-3.19-11.4-.629,2.722-.813,1.069-1.432-1.147.261,5.626,3.063,11.272,4.437,16.463.539,2.035,2.447,3.488,2.85,5.649.888,4.764,4.861.837,5.909,3.333,1.655,3.938-5.039,8.386-6.248,9.858-1.568,1.909-3.364,4.788-1.5,8.538,2.845,5.721-1.977,6.438-3.554,8.752-.286.421.559,3.024.543,3.8-.042,2.029-1.805.674-1.927,2.668-.315,5.152-3.666,6.386-6.537,6.6-2.925.22-2.175-5.165-3.5-8.09-.317-.7-.234-3.6-.283-4.451-.141-2.447-1.13-4.371-.907-6.818.477-5.234.991-10.946-.748-15.932-.689-1.975,1.7-6.858-1.169-6.014-1.1.324-.995-2.134-2.559-1.5-1.291.525-2.443,2.465-3.9,2.348-1.179-.094-2.8,1.991-3.684,1.509-1.4-.765-3.379-1.359-4.379-2.821-1.253-1.835-2.566-3.684-3.86-5.508-.141-.2.3-5.124.141-5.678-1.183-4.139,2.519-8.914,5.132-12.328,1.443-1.885.078-3.439,2.07-5.315a3.264,3.264,0,0,0,1.028-2.2c.679-2.108.862.064,1.769-.383,1.978-.974,13.1-6.842,10.543-.679a21,21,0,0,1,3.05,4.432c.8,1.594.58-.332.772-.98.183-.62,1.4-1.622,1.458-.229.078,1.863,3.418,2.666,4.019,2.8.769.167,1.873,2.252,2.337.431.185-.727,1.326-3.994.8-5.119a21.731,21.731,0,0,1-2.805-1.278c-.705-.542-.562.962-1.358-.229-.873-1.3-1.092-4.262-1.469-4.34-.087-1.379,1.542-.441,1.946-.638-.9-1.222.739-.154,1.2-.427,1.336-.792,1.777.872,3.007,1.988.715.648,4.112,2.544,2.737-.326a55.6,55.6,0,0,0-3-4.71c.453-1.094,1.252.729.635-1.55.154.08.852.316.921.008.108-.482-2.483-.282-2.387-.536-.55-.408.237,1.439.9,1.8-.67,1.538-2.054-.745-2.515-1.347a1.116,1.116,0,0,0,.648-.292c.067-.144-1-1.16-1.147-1.412.237.289.447.334.628.132-.652.191-.777-.829-1.369-.084-.345.433-.146,1.572-.583,1.6-1.463.08-.02,4.161-.078,4.455.133-.644-1.989,1.395-1.514.777,0-.419.1-.647.317-.678-.922-1.144-1.553.007-1.953-.747-.412.774.644,3.068.582,3.787-.139-.469-.3-.582-.483-.336.307.242-.023.976.054,1.519-.527-.414-1.252-1.528-.561-2.432-1.184-.459-.761-4.21-1.274-5.395-.53-1.224-1.678-3.6-1.711-4.479,0-.014-.527.161-.027,2.587.124.6,1.674,4.593,1.542,4.959-.326-.519-1.02-.878-.516.3.227.527-.549,2.09-.528,1.434-.288.364-.018,1.616-.267,1.717a2.363,2.363,0,0,1-.7-1.926c.24,1,1.3.436,1.124-1.277a9.224,9.224,0,0,0-.633-2.124,23.716,23.716,0,0,0-1.438-3.614c-.985-1.926-1.992,1.674-2.97,1.413-2.848-.757-3.664,4.4-5.1,7.036-1.062,1.953-2.239,1.086-3.524,2.734-1.071,1.374-1.727-1.814-3.512.148.479-3.877-1.929-6.718,1.516-8.464,2.561-1.3,4.981.623,4.836-3.7-.092-2.733-2.173-1.144-3.147-2.614.455-.144.419-.364-.112-.659,1.215-.356,3.311-.2,2.438-2.028,1.15-.112.549.925,2.051-.051.44-.062,1.167-2.981,3.062-3.122-1.939-.428,3.227-3.887,4-4.091-1.872-.659-.036-4.843,1.234-5.744-.219.387-1.392,6.03.294,4.887a8.47,8.47,0,0,1,.9,1.287c.072-.4.019-.558-.15-.452.24-.422,1.364-1.375,1.639-.655-.092-.2.457.524.845-.737-.272.513-.252.665.066.464.032-.241-.086-4.865.6-3.539.553,1.065,1.345.492.836-.627-1.181-2.591,1.781-1.646,2.756-.826-.582-3.7-4.8.561-4.106-6.567.107-1.09,1.888-2.373,1.79-3.182-.563-4.642-1.906,1.137-2.126,1.417a3.708,3.708,0,0,0-.918,1.761c-.607,2.257.136,2.236.4,3.962-.048-.321-1.212,5.234-1.212,5.235-.1.1-1.193,2.4-.826-.4a26.741,26.741,0,0,0-.746-5.078c-.326,1.368-3.991,4.609-4.074,1.993-.185-5.843.037-3.653,3.235-7.927,2.414-3.225,2.277-6.457,3.258-8.925.4-.994,2.582-3.019,3.377-2.367a3.377,3.377,0,0,0-.528,1.616,2.145,2.145,0,0,0,.675-1.149c.143,1.5,1.288-.55.7,1.079-.2-.427,2.213.747,1.335,1.42-.309.237-.669.065-1.05-.509.413,1.721,1.521,1.246,2.185,2.252q-.215.323-.5-.244c-.011.142,4.057,5.072,4.605,6.01.67,1.148.808,3.031-.1,2.886-1.4-.224-3.106-2.547-4.212-4.228a9.381,9.381,0,0,1,1.088,4.116c.1,1.488,2.084,3.621,1.91,2.63-.058-.329-.691-1.27-.832-1.641.58-.491,1.605,1.222,2.237,1.966-.627-2.964.934-2.567,2.384-.981a10.631,10.631,0,0,0-.537-4.489,5.008,5.008,0,0,1,2.106,2.837,1.535,1.535,0,0,0-.983-.445c-.455.849,1.563,2.991,1.568,1.962.007-1.344,2.975-.326,3.853-.251.431,1.877,4.437,2.273,3.9,3.152,1.127,1.144,1.275,0,.7-1.237,2.023.23,4.65,3.711,6.308,6.089.1-1.619.164-1.12-1.408-3.394-.516-.746.534-.992-.58-2.505,2.351-.818,1.255-2.447,4.6-.173-.848,2.625,2.7,12.046-2.245,8.492,4.395,6.571,2.935-4.512,6.143,1.136-.381-2.39-3.712-3-3.1-4.383.363-.815-.6-2.7-.365-3.032.5-.7,1.649.373,1-1.533.908.228.416,1.87.427,1.981.156,1.531,1.973,2.231,2.8,2.707-.176-.157-2.415-2.024-2.119-2.423,1.094-1.473,3.305,2.038,4.624,2.373-.618-2-1.462-1.694-1.866-4.05.575.205,4.656,1.8,4.673,1.148.054-2.09,1.143-2.272,2.949-2.083,1.179.122,6.2.494,6.187-1.21-.012-2.175.808-2.15.241-.662.225.123.668-.688.293,1.2.349-.028,1.011-2.508,1.947-.145.782,1.973-1.708,5.65-1.975,6.741a10.1,10.1,0,0,1,1.291-1.9c-1.129-.04.066-.877.21-.667.613.894,2.039-.169,3.118-.392-.948,1.359,1.6.674,2.345-.919.621-1.323,4.11-2.286,3.761.135-.057.393-.3,2.257.089,2.378,2.563.805.739-.341,2.557-1.849.4-.336,1.557.047,2.409-.556,1.435-1.013,1.44.242,3.486-1.392-2-2.733,4.383-3.252,6.028-3.462,2.153-.275,2.868-.347,4.452.548.953.539,5.319-2,7.092-2.189,1.124-.117,1.362.441,1.031,1.537,2.137-.139,3.962-1.29,6.139-1.728,2.69-.541,5.711.839,5.093-2.687,4.53-1.226,7.461-1.574,11.367-.942.946.153,4.177,2.393,4.706,2.236-.9-2.641,3.032-1.148,4.065-.631-1.151,1.23-2.26,1.1-2.629,1.512-.147.163.374-.054,0,0m-178.544,32q.114-.455.229-.909c-.874-.277-2.355,4.563-2.363,5.422-.017,1.721,2.12-.458,2.342,1.261a9.108,9.108,0,0,1,1.229-1.132c-.06.74.52,1.262.855.391.491-1.278-.713-1.9-.677-2.5.091-1.543-2.58-.147-1.615-2.532.1-.251-.283.486,0,0m-4.655,6.695c-.337,1.5.875,1.271,1.2.5-.673.618-1.2-.5-1.2-.5-.017,0,.058.2,0,0m-.376-3.837c.341.416,1.157,1.4,1.574.68a1.356,1.356,0,0,0-1.574-.68m25.107,58.7c.874,2.893-3.167,5.9-3.2,8.818-.036,2.761.281,9.746-3.457,11.078-4.305,1.534-3.66,6.735-5.227,9.882-2.327,4.67-2.477,6.478-5.555,6.243-.153,1.074,1.543,1.281,1.372,2.89a4.327,4.327,0,0,1-3.447,3.567c.4,1.773-.182,3.369-1.3,2.74.02,1.693.582,4.414-.6,5.466-1.241,1.1.4,2.461.363,2.74-.2,1.485-1.264,3.461-1.236,4.7.062,2.729.451,4.574,2.2,3.962-5.178,7.323-3.733-12.478-3.715-14.583.073-8.663,2.707-20.771-.289-27.463-.814-1.819-.111-4.815-2.228-8.867-2.822-5.4-.34-7.719-.234-12.491a41.271,41.271,0,0,0-.3-5.2c-.051-.26-3.064-3.15-1.478-.287-.959.462-4.847-1.858-5.195-3.518-.747-3.564-4.234-2.592-6.009-4.5-2.56-2.754-2.355-1.022-5.079-2.345-1.241-.6-4.31-1.707-5.309-2.8-2.333-2.557-1.453-3.159-3.087-5.707-2.458-3.831-4.929-8.124-8.639-10.913.441,1.23,5.811,10.683,5.636,10.724-.277.065-4.587-5.273-5.259-5.936,1.622-.027-4.336-7.881-5.841-8.8-1.452-.881-4.063-6.551-4.32-8.174-.528-3.324-.022-6.31-1.385-9.625,5.815,1.905-4.067-5.281-5.845-7.411-.243-.29-1.009-4.007-1.909-2.79-.739,1-2.307-1.559-3.126-2.315-1.578-1.456-2.078-2.811-3.966-4.159-2.252-1.606-4.822-1.372-6.706-2.71-3.525-2.5-3.386.368-6.482,1.146-.862-1.542.527-2.677,2.049-2.516q-1.247-.642-.052-.951c-1.206.122-6.08,2.841-3.376,3.7-1.368,2.051-7.09,6.7-10.374,5.7.841-.893,8.841-3.464,6.819-6.03-1.131.56-1.672.782-2.967-.163-2.631-1.92-.59,3.663-2.588-2.269-2.262,1.178-4.379-1.7-3.417-3.79.368-.8,1.535-1.123,2.442-1.435,1.951-.671.173-1.344,1.148-1.873-.2-.4-2.153-.043-2.63-.018A6.786,6.786,0,0,1,46,80.468a13.408,13.408,0,0,1,2.884-1.246c1.5-.3,2.221,1.7,3.879.6-.587-.272-6.178-3.464-5.959-4.922-.066.466,4.678-2.635,4.682-2.637.988-.364,4.319-1.359,5.342-.84,5.059,2.568,11.162,3.043,16.646,4.336,3.125.737,2.966,2.111,5.028.226a29.521,29.521,0,0,0,5.18-.326L80.736,76.93c1.925,1.342,3.9-1.654,4.436-2.04q1.284,1.39,2.674,2.677a2.233,2.233,0,0,1,.875-1.572,1.6,1.6,0,0,1,.165,1.55c2.6-.437,2.719-.018,6.2,1.042.895.273,6.213,1.117,2.948,2.309,3.822,1.427,5.08-.7,7.724,3.006-.331-1.076.891-4.287,1.414-3.535a5.729,5.729,0,0,1-2.622.47c.567-2.782,3.286.226,4.183.482a18.259,18.259,0,0,0,4.335,1.1c2.082.1.453-1.622,3.519-.7-.291,1.245-.284,1.218.827,1.989-.453-1.245,2.412-3.846.511-2.995-.029-.738.327-1.066,1.064-.989.161,1.7-5.931-5.4-2.162-3.744.72-3.072-1.63-6.946,4.688-4.75-1.267,1.853-1.313,2.171-3.74,2.006,1.812.351-.22,1.24-.059,1.894,1.908-.242,2.965,3.169,1.767,3.946.869.364,1.483.1,2.331.532a1.907,1.907,0,0,0,.26,2.319c1.442-2.274,1.82-1.473,1.843-.308-.732.4.486,2.276,1.843,1,1.319-1.243.475-1.8.683-3.151.264-1.725,6.452,1.785,2.622,2.089.66,1.34,1.244,5.4-1.349,2.976,1.508,3.186-1.63-.956-2.24.624,3.162,2-4.058.666-4.24.652a9.812,9.812,0,0,0,4.139,1.477c-1.309,2.5-3.164,2.549-5.9,1.678.541.27,2.222.757,2.624,1.432-1-1.678-3.5,6.364-3.556,6.73,1.36.383,2.378,2.948,2.82,2.98,2.439.179,4.34,2.591,6.35,2.846,4.22.537,2.109,2.447,4.753,5.81,1.424,1.81,1.271-3.536.419-4.84,2.634-1.957,1.532-2.748.847-5.83-.114-.511-.108-3.689-.152-4.738-.177-4.155,2.023.181,2.89.975-.089.413-.028,3.517-.044,3.488.188-1.885,1.4,1.961,1.524-.562.506.948.211-2.862.873-2.724-.061.7,1.5,4.772,1.693,5.9.271,1.6,1.934,1.253,2.6,2.088a1.53,1.53,0,0,1-1.153,1.1c.774.266.256-.12-.187,1.056.333-.884,1.493-.9.979-1.514.861-.271.355.531.656.985.629-2.2.948,1.313.968,1.37.391,1.116-1.86,2.221-2.152,2.864-.885,1.954-2.72.979-3.691,1.613-.867.568-1.37,3.94-1.853,5.063.307-.47,2.3-6.049,3.039-3.323.294.223-.889.981-1,1.179.2.068.6.259.791.333-.171,2.864,1.43,3.043,2.262.351.21.073.274,1.761.536,1.5-.426.431-2.749,3.886-3.2,3.656-.632-1.5,1.059-2.184,1.225-2.523-.659.6-.813.444-.513-.442-1.528-.365-2.72,6.029-2.363,5.871-.089-.341-.067-.321.069.058-.324.7-.958.509-1.279,1.347,1.713-.883-.127.026.607-.35-.764,1.426-.359,1.178-.783,2.84a4.443,4.443,0,0,0-.21-1.022c.113,1.529.373,1.687.079,3.183-.026-.465-.238-2.787-.188-2.968-.29,1.04.271,1.9-.152,1.438.163.787.574,2.526.259,3.03.095-.165.179-.023.241.432-.062.206-.135.3-.216.277.115.218.11.354-.007.405.057.217.117.292.181.224-.338.913-1.951,2.321-2.716,4.379-.029.08,1.758,8.63.68,7.062-1.293-1.88-1.142-3.84-2.589-5.282-.868-.864-5.153-1.439-6.082-.614a1.312,1.312,0,0,1,1.022,1.452.855.855,0,0,0-.653-.7c-.212-.795-5.077.046-6.1,1.531-1.867,2.712.717,8.823,2.946,11.236,2.246,2.431,3.788-3.136,4.848-3.344,2.756-.541,1.386,2.519,1.226,3.842-1.036-1.149.272,1.3-.783,2.435,3.7,1.588,5.049-1.066,4.769,4.6-.22,4.452,4.789,2.384,5.226,4.47-.27-3.992.872-4.913,1.934-4.56.8.264,2.784-.215,3.752,1.006,1.208,1.524,2.284,3.49,4.26,3.271,2.511-.278,2.678,4.4,4.957,4.617,3.1.29,10.776-.588,11.858,2.988h0M49.866,89.486A4.819,4.819,0,0,0,48.2,89.5c1.627,2.016,1.717.1,1.663-.012-.113-.242-.076.265,0,0m12.8,4.419c.334.238,1.082-.171,1.149-.282-.608-.5-1.255,0-1.149.282.068.177.025-.3,0,0m21.609,8.105a1.13,1.13,0,0,0-1.34-.36c.009.462,1.762,3.5,2.261,2.853a2.547,2.547,0,0,1-.921-2.493c.047-.484.172.426,0,0M62.064,94.563c-.652-.151-.841.122-.544.76.465,1,2.172-.294,2.268-.641-.205-.063-1.724-.119-1.724-.119-.064.047-.2-.769,0,0m30.506,14.99c-.673-1.072-3.4-3.019-4.638-2.73.265.313,4.935,4.572,5.079,3.647-.147-.306-.287-.635-.442-.916-.121-.22.564.9,0,0m131.191,62.8a3.931,3.931,0,0,0-.712-1.1c.268.145-3.854,3.505-3.743,4.05.573,2.824-.29,4.627.169,7.6.13.847,1.474.915,1.794.9,1.174-.048,1.394-3.445,1.694-4.617.673-2.633,1.56-4.217.8-6.841m36.726-2.176c-.01,3.245,1.864,4.4,2.882,3.96a9.073,9.073,0,0,1,.977-4.922c.35-.709-1.584-3.014.029-4.124-1.111-4.21-3.216,4.131-3.125,4.321-.559-.268-.757-1.2-.762.765,0,.205,0-.342,0,0M171.229,68.04c-1.377-4.236,5.086-8.973-.312-10.96q1.082-1.356,2.179-2.7c-5.185-1.9,3.721-6.613,1.907-7.517a19.663,19.663,0,0,0,4.578-2.922c-3.819-.421-7.1,1.1-10.459,3.387,1.265-2.867-.148-1.084-1.7-1.815q1.421-.881,2.869-1.765a28.418,28.418,0,0,0-14.044,1.731c-1.989.791-.907,1.461-3.4,1.694-2,.186-2.947,1.111-4.618,2.5a4.711,4.711,0,0,1,2.3,1.463c-5.947.419-10.45,1.541-14.2,6.751a1.066,1.066,0,0,0,1.3.46c-.713,3.4-3.316,1.846-3.529,4.732-.287,3.908,3.728,3.326,4.634,3.32a5.1,5.1,0,0,1,4.763,6.3c-.368,1.845.91,1.658.706,3.142-.419,3.044,1.111,2.008,2.644,1.007-.2,3.361-2.786,3.036-1.365,7.419,1.189,3.67,3.2,8.707,7.467,7.49,1.148-.327,1.726-5.9,2.062-7.286.977-4.027,2.13-2.589,4.888-5.438,2.2-2.278,2.655-3.47,5.869-5.128,1.626-.839,6.111-3.868,5.463-5.86h0m88.644,108.326c0-.246-.079-4.614-.355-2.963.358-1.714-3.341-9-3.754-8.065-.264.6,3.678,10.527,3.857,11.114-.036-.755.252-.086.252-.086s-.107-.616,0,0" transform="translate(-23.096 -21.824)" fill="#fff4eb"/>
      <path id="Trazado_749197" data-name="Trazado 749197" d="M49.8,128.409l86.844,7.345,67.922-20.222,54.155,29.494,68.889-22.1" transform="translate(-25.002 -58.001)" fill="none" stroke="#dec5ab" stroke-miterlimit="10" stroke-width="1"/>
      <path id="Trazado_749198" data-name="Trazado 749198" d="M76.7,279.063l76.649,9.122,63.292-14.79,57.287,29.937,67.184-15.813" transform="translate(-38.508 -137.253)" fill="none" stroke="#dec5ab" stroke-miterlimit="10" stroke-width="1"/>
      <line id="Línea_3216" data-name="Línea 3216" x2="27.303" y2="183.985" transform="translate(68.559 25.052)" fill="none" stroke="#dec5ab" stroke-miterlimit="10" stroke-width="1"/>
      <line id="Línea_3217" data-name="Línea 3217" x1="12.092" y1="177.958" transform="translate(134.16 23.292)" fill="none" stroke="#dec5ab" stroke-miterlimit="10" stroke-width="1"/>
      <line id="Línea_3218" data-name="Línea 3218" x1="4.458" y2="172.883" transform="translate(188.53 20.348)" fill="none" stroke="#dec5ab" stroke-miterlimit="10" stroke-width="1"/>
      <line id="Línea_3219" data-name="Línea 3219" y1="168.828" x2="0.559" transform="translate(248.476 36.852)" fill="none" stroke="#dec5ab" stroke-miterlimit="10" stroke-width="1"/>
      <g id="Grupo_1020101" data-name="Grupo 1020101" transform="translate(109.061)" opacity="0.2" style="mix-blend-mode: multiply;isolation: isolate">
        <g id="Grupo_1020100" data-name="Grupo 1020100">
          <g id="Grupo_1020099" data-name="Grupo 1020099" clip-path="url(#clip-path-2)">
            <path id="Trazado_749199" data-name="Trazado 749199" d="M219.013,18.748l8.866,202.621,59.02-19.7L290.563,0Z" transform="translate(-219.013 0)" fill="#5a8c89"/>
          </g>
        </g>
      </g>
      <g id="Grupo_1020104" data-name="Grupo 1020104" transform="translate(232.521)" opacity="0.2" style="mix-blend-mode: multiply;isolation: isolate">
        <g id="Grupo_1020103" data-name="Grupo 1020103">
          <g id="Grupo_1020102" data-name="Grupo 1020102" clip-path="url(#clip-path-3)">
            <path id="Trazado_749200" data-name="Trazado 749200" d="M466.942,31.356l4.1,190.012,77.584-11.786L549.421,0Z" transform="translate(-466.942)" fill="#5a8c89"/>
          </g>
        </g>
      </g>
      <path id="Trazado_749201" data-name="Trazado 749201" d="M165.072,100.668c0,3.789-6.86,12.364-6.86,12.364s-6.86-8.575-6.86-12.364a6.86,6.86,0,1,1,13.721,0" transform="translate(-75.983 -47.095)" fill="#bd3e00"/>
      <path id="Trazado_749202" data-name="Trazado 749202" d="M165.1,103.754a3.8,3.8,0,1,1-3.8-3.8,3.8,3.8,0,0,1,3.8,3.8" transform="translate(-79.07 -50.181)" fill="#f8e4cf"/>
      <path id="Trazado_749203" data-name="Trazado 749203" d="M518.358,325.916c0,3.492-6.323,11.4-6.323,11.4s-6.323-7.9-6.323-11.4a6.323,6.323,0,1,1,12.646,0" transform="translate(-253.885 -160.447)" fill="#bd3e00"/>
      <path id="Trazado_749204" data-name="Trazado 749204" d="M518.38,328.761a3.5,3.5,0,1,1-3.5-3.5,3.5,3.5,0,0,1,3.5,3.5" transform="translate(-256.729 -163.291)" fill="#f8e4cf"/>
      <line id="Línea_3220" data-name="Línea 3220" y1="0.147" x2="0.985" transform="translate(82.228 65.791)" fill="none" stroke="#3b7977" stroke-miterlimit="10" stroke-width="2"/>
      <path id="Trazado_749205" data-name="Trazado 749205" d="M170.11,127.7l26.336-3.933,66.3,26.615" transform="translate(-85.401 -62.138)" fill="none" stroke="#3b7977" stroke-miterlimit="10" stroke-width="2" stroke-dasharray="4.05 3.038"/>
      <path id="Trazado_749206" data-name="Trazado 749206" d="M357.558,177.785l.924.371-.017,1" transform="translate(-179.507 -89.254)" fill="none" stroke="#3b7977" stroke-miterlimit="10" stroke-width="2"/>
      <line id="Línea_3221" data-name="Línea 3221" x1="0.869" y2="50.368" transform="translate(178.065 91.358)" fill="none" stroke="#3b7977" stroke-miterlimit="10" stroke-width="2" stroke-dasharray="3.91 2.932"/>
      <path id="Trazado_749207" data-name="Trazado 749207" d="M357.541,286.075l-.017,1,.982.168" transform="translate(-179.489 -143.62)" fill="none" stroke="#3b7977" stroke-miterlimit="10" stroke-width="2"/>
      <path id="Trazado_749208" data-name="Trazado 749208" d="M362.461,288.922l54.609,9.369L438.9,320.665" transform="translate(-181.968 -145.049)" fill="none" stroke="#3b7977" stroke-miterlimit="10" stroke-width="2" stroke-dasharray="4.012 3.009"/>
      <line id="Línea_3222" data-name="Línea 3222" x2="0.696" y2="0.713" transform="translate(257.454 176.153)" fill="none" stroke="#3b7977" stroke-miterlimit="10" stroke-width="2"/>
      <path id="Trazado_749209" data-name="Trazado 749209" d="M314.142,336.434h-7.03v3.355h.986v7.762h6.044Z" transform="translate(-154.181 -168.901)" fill="#fff"/>
      <rect id="Rectángulo_356258" data-name="Rectángulo 356258" width="1.007" height="1.007" transform="translate(154.575 168.663)" fill="#245b58"/>
      <rect id="Rectángulo_356259" data-name="Rectángulo 356259" width="1.008" height="1.007" transform="translate(156.468 168.663)" fill="#245b58"/>
      <rect id="Rectángulo_356260" data-name="Rectángulo 356260" width="1.007" height="1.007" transform="translate(158.362 168.663)" fill="#245b58"/>
      <rect id="Rectángulo_356261" data-name="Rectángulo 356261" width="0.883" height="0.883" transform="translate(156.826 171.282)" fill="#245b58"/>
      <rect id="Rectángulo_356262" data-name="Rectángulo 356262" width="0.883" height="0.883" transform="translate(156.826 173.424)" fill="#245b58"/>
      <rect id="Rectángulo_356263" data-name="Rectángulo 356263" width="0.883" height="0.883" transform="translate(156.826 175.727)" fill="#245b58"/>
      <rect id="Rectángulo_356264" data-name="Rectángulo 356264" width="12.337" height="5.92" transform="translate(167.563 174.307)" fill="#fe7062"/>
      <g id="Grupo_1020107" data-name="Grupo 1020107" transform="translate(176.063 174.308)" opacity="0.5">
        <g id="Grupo_1020106" data-name="Grupo 1020106">
          <g id="Grupo_1020105" data-name="Grupo 1020105" clip-path="url(#clip-path-4)">
            <rect id="Rectángulo_356265" data-name="Rectángulo 356265" width="3.837" height="5.92" transform="translate(0.001 0)" fill="#fe7062"/>
          </g>
        </g>
      </g>
      <rect id="Rectángulo_356267" data-name="Rectángulo 356267" width="12.337" height="5.92" transform="translate(179.813 174.307)" fill="#348381"/>
      <g id="Grupo_1020110" data-name="Grupo 1020110" transform="translate(188.314 174.308)" opacity="0.5">
        <g id="Grupo_1020109" data-name="Grupo 1020109">
          <g id="Grupo_1020108" data-name="Grupo 1020108" clip-path="url(#clip-path-4)">
            <rect id="Rectángulo_356268" data-name="Rectángulo 356268" width="3.837" height="5.92" transform="translate(0 0)" fill="#348381"/>
          </g>
        </g>
      </g>
      <rect id="Rectángulo_356270" data-name="Rectángulo 356270" width="12.337" height="5.92" transform="translate(192.15 174.307)" fill="#f96722"/>
      <g id="Grupo_1020113" data-name="Grupo 1020113" transform="translate(200.651 174.308)" opacity="0.5" style="mix-blend-mode: multiply;isolation: isolate">
        <g id="Grupo_1020112" data-name="Grupo 1020112">
          <g id="Grupo_1020111" data-name="Grupo 1020111" clip-path="url(#clip-path-4)">
            <rect id="Rectángulo_356271" data-name="Rectángulo 356271" width="3.837" height="5.92" transform="translate(0 0)" fill="#f96722"/>
          </g>
        </g>
      </g>
      <rect id="Rectángulo_356273" data-name="Rectángulo 356273" width="12.337" height="5.92" transform="translate(179.813 162.588)" fill="#348381"/>
      <g id="Grupo_1020116" data-name="Grupo 1020116" transform="translate(188.314 162.589)" opacity="0.5">
        <g id="Grupo_1020115" data-name="Grupo 1020115">
          <g id="Grupo_1020114" data-name="Grupo 1020114" clip-path="url(#clip-path-4)">
            <rect id="Rectángulo_356274" data-name="Rectángulo 356274" width="3.837" height="5.92" transform="translate(0 0)" fill="#348381"/>
          </g>
        </g>
      </g>
      <rect id="Rectángulo_356276" data-name="Rectángulo 356276" width="12.337" height="5.92" transform="translate(192.15 162.588)" fill="#f96722"/>
      <g id="Grupo_1020119" data-name="Grupo 1020119" transform="translate(200.651 162.589)" opacity="0.5" style="mix-blend-mode: multiply;isolation: isolate">
        <g id="Grupo_1020118" data-name="Grupo 1020118">
          <g id="Grupo_1020117" data-name="Grupo 1020117" clip-path="url(#clip-path-4)">
            <rect id="Rectángulo_356277" data-name="Rectángulo 356277" width="3.837" height="5.92" transform="translate(0 0)" fill="#f96722"/>
          </g>
        </g>
      </g>
      <rect id="Rectángulo_356279" data-name="Rectángulo 356279" width="12.337" height="5.92" transform="translate(173.688 168.322)" fill="#354232"/>
      <g id="Grupo_1020122" data-name="Grupo 1020122" transform="translate(182.188 168.322)" opacity="0.5" style="mix-blend-mode: multiply;isolation: isolate">
        <g id="Grupo_1020121" data-name="Grupo 1020121">
          <g id="Grupo_1020120" data-name="Grupo 1020120" clip-path="url(#clip-path-4)">
            <rect id="Rectángulo_356280" data-name="Rectángulo 356280" width="3.837" height="5.92" transform="translate(0)" fill="#354232"/>
          </g>
        </g>
      </g>
      <rect id="Rectángulo_356282" data-name="Rectángulo 356282" width="12.337" height="5.92" transform="translate(185.939 168.322)" fill="#fe7062"/>
      <g id="Grupo_1020125" data-name="Grupo 1020125" transform="translate(194.439 168.322)" opacity="0.5">
        <g id="Grupo_1020124" data-name="Grupo 1020124">
          <g id="Grupo_1020123" data-name="Grupo 1020123" clip-path="url(#clip-path-4)">
            <rect id="Rectángulo_356283" data-name="Rectángulo 356283" width="3.837" height="5.92" fill="#fe7062"/>
          </g>
        </g>
      </g>
      <rect id="Rectángulo_356285" data-name="Rectángulo 356285" width="12.337" height="5.92" transform="translate(198.276 168.322)" fill="#348381"/>
      <g id="Grupo_1020128" data-name="Grupo 1020128" transform="translate(206.776 168.322)" opacity="0.5">
        <g id="Grupo_1020127" data-name="Grupo 1020127">
          <g id="Grupo_1020126" data-name="Grupo 1020126" clip-path="url(#clip-path-4)">
            <rect id="Rectángulo_356286" data-name="Rectángulo 356286" width="3.837" height="5.92" fill="#348381"/>
          </g>
        </g>
      </g>
      <rect id="Rectángulo_356288" data-name="Rectángulo 356288" width="12.337" height="5.92" transform="translate(204.488 174.307)" fill="#354232"/>
      <g id="Grupo_1020131" data-name="Grupo 1020131" transform="translate(212.988 174.308)" opacity="0.5" style="mix-blend-mode: multiply;isolation: isolate">
        <g id="Grupo_1020130" data-name="Grupo 1020130">
          <g id="Grupo_1020129" data-name="Grupo 1020129" clip-path="url(#clip-path-4)">
            <rect id="Rectángulo_356289" data-name="Rectángulo 356289" width="3.837" height="5.92" transform="translate(0 0)" fill="#354232"/>
          </g>
        </g>
      </g>
      <path id="Trazado_749210" data-name="Trazado 749210" d="M302.884,357.833v5.328a3.134,3.134,0,0,0,2.828,3.091h65.976c1.579,0,2.828-1.184,3.552-3.421a35.457,35.457,0,0,0,1.118-5H358.6l-1.25,1.71h-33.81l-1.316-1.71Z" transform="translate(-152.058 -179.645)" fill="#bd3e00"/>
      <path id="Trazado_749211" data-name="Trazado 749211" d="M302.884,368.4v.066a3.135,3.135,0,0,0,2.828,3.092h65.976c1.515,0,2.725-1.094,3.46-3.158Z" transform="translate(-152.058 -184.95)" fill="#0c2109"/>
      <path id="Trazado_749212" data-name="Trazado 749212" d="M309.087,363.114a.658.658,0,1,1-.658-.658.658.658,0,0,1,.658.658" transform="translate(-154.512 -181.965)" fill="#fe7062"/>
      <path id="Trazado_749213" data-name="Trazado 749213" d="M314.495,363.114a.658.658,0,1,1-.658-.658.658.658,0,0,1,.658.658" transform="translate(-157.227 -181.965)" fill="#fe7062"/>
      <path id="Trazado_749214" data-name="Trazado 749214" d="M319.9,363.114a.658.658,0,1,1-.658-.658.658.658,0,0,1,.658.658" transform="translate(-159.942 -181.965)" fill="#fe7062"/>
      <path id="Trazado_749215" data-name="Trazado 749215" d="M433.4,363.114a.658.658,0,1,1-.658-.658.658.658,0,0,1,.658.658" transform="translate(-216.923 -181.965)" fill="#fe7062"/>
      <path id="Trazado_749216" data-name="Trazado 749216" d="M438.812,363.114a.658.658,0,1,1-.658-.658.658.658,0,0,1,.658.658" transform="translate(-219.638 -181.965)" fill="#fe7062"/>
      <path id="Trazado_749217" data-name="Trazado 749217" d="M444.22,363.114a.658.658,0,1,1-.658-.658.658.658,0,0,1,.658.658" transform="translate(-222.353 -181.965)" fill="#fe7062"/>
      <path id="Trazado_749218" data-name="Trazado 749218" d="M232.554,63.252V52.926c0-.595-1.9-.288-2.25,0S226.5,62.964,226.5,62.964Z" transform="translate(-113.709 -26.4)" fill="#f8e4cf"/>
      <path id="Trazado_749219" data-name="Trazado 749219" d="M236.47,71.933c-.519-.023-54.977-2.827-57.631-2.942s-6.346.058-7.614.634-2.25,1.442-2.885,1.73a8.278,8.278,0,0,0-2.308,1.154,1.135,1.135,0,0,0,0,1.615,40.787,40.787,0,0,0,6.346,2.269c1.442.327,48.054.673,50.3.558s13.038-2.942,13.788-3.173.644-1.817,0-1.846" transform="translate(-83.185 -34.619)" fill="#fff"/>
      <path id="Trazado_749220" data-name="Trazado 749220" d="M166.049,78.731a1,1,0,0,1-.32-.6c.538.433,2.413,1.658,6.493,1.753,4.285.1,45.358.4,56.467.483a50.811,50.811,0,0,1-5.99,1.19c-2.25.115-48.862-.231-50.3-.558a40.8,40.8,0,0,1-6.346-2.269" transform="translate(-83.202 -39.224)" fill="#348381"/>
      <path id="Trazado_749221" data-name="Trazado 749221" d="M287.664,65.513l11.076-9,2.6.288-5.6,9.288Z" transform="translate(-144.417 -28.372)" fill="#f8e4cf"/>
      <path id="Trazado_749222" data-name="Trazado 749222" d="M299.535,78.216l5.076,3.2h-1.9s-8.019-3.3-8.48-3.448,3.288-.381,5.308.253" transform="translate(-147.693 -39.056)" fill="#f8e4cf"/>
      <path id="Trazado_749223" data-name="Trazado 749223" d="M175.16,73.017v1.656s-3.173.075-4.154-2c.425-.193,1.006-.645,1.723-1.1,0,.01-.035.811,2.43,1.442" transform="translate(-85.851 -35.933)" fill="#0c2109"/>
      <path id="Trazado_749224" data-name="Trazado 749224" d="M228.174,83.16c-.688.073,4.788,3.75,7.038,5.192s18.518,10.611,18.922,10.9,1.443-.4.865-.863-13.384-10.153-13.845-10.5-2.654-4.347-2.942-4.481a34.093,34.093,0,0,0-10.038-.249" transform="translate(-114.522 -41.635)" fill="#f8e4cf"/>
      <rect id="Rectángulo_356291" data-name="Rectángulo 356291" width="1.292" height="1.292" transform="matrix(0.012, -1, 1, 0.012, 139.696, 39.999)" fill="#0c2109"/>
      <rect id="Rectángulo_356292" data-name="Rectángulo 356292" width="1.292" height="1.292" transform="matrix(0.012, -1, 1, 0.012, 137.007, 39.966)" fill="#0c2109"/>
      <rect id="Rectángulo_356293" data-name="Rectángulo 356293" width="1.292" height="1.292" transform="matrix(0.012, -1, 1, 0.012, 134.319, 39.933)" fill="#0c2109"/>
      <rect id="Rectángulo_356294" data-name="Rectángulo 356294" width="1.292" height="1.292" transform="matrix(0.012, -1, 1, 0.012, 131.63, 39.9)" fill="#0c2109"/>
      <rect id="Rectángulo_356295" data-name="Rectángulo 356295" width="1.292" height="1.292" transform="matrix(0.012, -1, 1, 0.012, 128.941, 39.867)" fill="#0c2109"/>
      <rect id="Rectángulo_356296" data-name="Rectángulo 356296" width="1.292" height="1.292" transform="matrix(0.012, -1, 1, 0.012, 123.103, 39.796)" fill="#0c2109"/>
      <rect id="Rectángulo_356297" data-name="Rectángulo 356297" width="1.292" height="1.292" transform="matrix(0.012, -1, 1, 0.012, 120.414, 39.763)" fill="#0c2109"/>
      <rect id="Rectángulo_356298" data-name="Rectángulo 356298" width="1.292" height="1.292" transform="matrix(0.012, -1, 1, 0.012, 117.725, 39.73)" fill="#0c2109"/>
      <rect id="Rectángulo_356299" data-name="Rectángulo 356299" width="1.292" height="1.292" transform="matrix(0.012, -1, 1, 0.012, 115.037, 39.698)" fill="#0c2109"/>
      <rect id="Rectángulo_356300" data-name="Rectángulo 356300" width="1.292" height="1.292" transform="matrix(0.012, -1, 1, 0.012, 112.348, 39.665)" fill="#0c2109"/>
      <rect id="Rectángulo_356301" data-name="Rectángulo 356301" width="1.292" height="1.292" transform="matrix(0.012, -1, 1, 0.012, 109.659, 39.632)" fill="#0c2109"/>
      <rect id="Rectángulo_356302" data-name="Rectángulo 356302" width="1.292" height="1.292" transform="matrix(0.012, -1, 1, 0.012, 103.59, 39.558)" fill="#0c2109"/>
      <rect id="Rectángulo_356303" data-name="Rectángulo 356303" width="1.292" height="1.292" transform="matrix(0.012, -1, 1, 0.012, 100.901, 39.525)" fill="#0c2109"/>
      <rect id="Rectángulo_356304" data-name="Rectángulo 356304" width="1.292" height="1.292" transform="matrix(0.012, -1, 1, 0.012, 98.212, 39.492)" fill="#0c2109"/>
      <rect id="Rectángulo_356305" data-name="Rectángulo 356305" width="1.292" height="1.292" transform="matrix(0.012, -1, 1, 0.012, 95.524, 39.459)" fill="#0c2109"/>
      <path id="Trazado_749225" data-name="Trazado 749225" d="M483.49,93.523A68.421,68.421,0,1,1,415.068,25.1,68.421,68.421,0,0,1,483.49,93.523" transform="translate(-174.029 -12.602)" fill="#fff"/>
      <path id="Trazado_749226" data-name="Trazado 749226" d="M483.515,96.631a65.34,65.34,0,1,1-65.34-65.34,65.34,65.34,0,0,1,65.34,65.34" transform="translate(-177.135 -15.709)" fill="#fe7062"/>
      <path id="Trazado_749227" data-name="Trazado 749227" d="M303.688,197.237l1.264,11.829-14.086-.487-1.188,2.085c-1.188,2.085-6.616,10.331-6.978,10.528s-11.331-2.812-11.331-2.812,2.632-16.108,3.1-16.209,7.775-2.363,7.775-2.363Z" transform="translate(-136.237 -99.02)" fill="#a64912"/>
      <path id="Trazado_749228" data-name="Trazado 749228" d="M304.781,197.237l-6.631,1.347s.1,9.3,5.671,12.236Z" transform="translate(-149.682 -99.02)" fill="#fff"/>
      <path id="Trazado_749229" data-name="Trazado 749229" d="M363.943,135.27c-2.575,2.134-22.2,20.744-22.791,21.1s-1.9-.712-2.489-.593-.711,1.541-1.067,1.66-31.042,2.124-32.109,2.6-1.185,11.7,1.9,14.386c0,0,39.813,1.474,41.71.483s20.1-10.812,20.1-10.812,2.134,8,3.556,15.014c0,0-.357,19.75.014,25.739a65.537,65.537,0,0,0,47.8-2.047c-.218-5.817-.834-22.926-.638-25.411.237-3,1.422-8.664,1.422-8.664s4.623,11.762,4.623,12.327-.712,2.126-.712,2.827.356.938.712,1.65-.237,1.067,0,1.9.115.711.117,2.845c0,1.063-.191,5.54-.284,9.912a65.624,65.624,0,0,0,17.739-14.446c.107-3.775.053-6.779-.029-7.625-.237-2.42-14.105-43.669-16-46.158s-29.159-8.179-29.159-8.179l-14.488,4.5s-17.345,4.86-19.92,6.993" transform="translate(-153.023 -62.138)" fill="#245b58"/>
      <path id="Trazado_749230" data-name="Trazado 749230" d="M474.735,227.653s.618,18.45,1.631,32.828" transform="translate(-238.333 -114.29)" fill="none" stroke="#3b7977" stroke-miterlimit="10" stroke-width="0.5"/>
      <path id="Trazado_749231" data-name="Trazado 749231" d="M428.719,175.682c-1.62-6.34-6.031-20.643-5.248-28.822" transform="translate(-212.551 -73.729)" fill="none" stroke="#3b7977" stroke-miterlimit="10" stroke-width="0.5"/>
      <path id="Trazado_749232" data-name="Trazado 749232" d="M374.066,195.732a40.459,40.459,0,0,1,7.27,9.96" transform="translate(-187.794 -98.264)" fill="none" stroke="#3b7977" stroke-miterlimit="10" stroke-width="0.5"/>
      <path id="Trazado_749233" data-name="Trazado 749233" d="M377.24,193.2a25.827,25.827,0,0,1,3.835,7.944" transform="translate(-189.387 -96.993)" fill="none" stroke="#3b7977" stroke-miterlimit="10" stroke-width="0.5"/>
      <path id="Trazado_749234" data-name="Trazado 749234" d="M551.137,239.111a16.657,16.657,0,0,1,12.485-2.7l-11.063,4.327" transform="translate(-276.69 -118.526)" fill="none" stroke="#3b7977" stroke-miterlimit="10" stroke-width="0.5"/>
      <path id="Trazado_749235" data-name="Trazado 749235" d="M309.69,196.173a36.3,36.3,0,0,0,1.768,14.791" transform="translate(-155.399 -98.486)" fill="none" stroke="#3b7977" stroke-miterlimit="10" stroke-width="0.5"/>
      <path id="Trazado_749236" data-name="Trazado 749236" d="M371.843,197.237s-19.1,10.238-20.919,11.186-38.852.8-38.852.8" transform="translate(-156.671 -99.02)" fill="none" stroke="#3b7977" stroke-miterlimit="10" stroke-width="0.5"/>
      <path id="Trazado_749237" data-name="Trazado 749237" d="M529.81,176.467s-8.1-16.978-8.89-24.722,5.769-14.461,15.054-12.051" transform="translate(-261.488 -69.881)" fill="none" stroke="#3b7977" stroke-miterlimit="10" stroke-width="0.5"/>
      <path id="Trazado_749238" data-name="Trazado 749238" d="M562.113,195.961s.408-8.412,0-10.967-16.685-45.731-16.685-45.731" transform="translate(-273.824 -69.915)" fill="none" stroke="#3b7977" stroke-miterlimit="10" stroke-width="0.5"/>
      <path id="Trazado_749239" data-name="Trazado 749239" d="M451.909,128.276s-5.611,1.573-10.924,3.321a43.844,43.844,0,0,0-.429,11.462c.75,6.474,5.736,21.541,16.914,34.157,0,0,16.868-24.2,19.08-36.535a72.376,72.376,0,0,0,1.293-14.34c-6.113-1.457-11.447-2.57-11.447-2.57Z" transform="translate(-221.069 -62.138)" fill="#348381"/>
      <path id="Trazado_749240" data-name="Trazado 749240" d="M460.33,128.276s-1.141.32-2.876.83a128.962,128.962,0,0,0,.285,21.85c1.314,10.588,8.153,24.545,8.153,24.545s8.462-22.333,11.163-34.66a151.853,151.853,0,0,0,2.675-16c-2.93-.653-4.912-1.066-4.912-1.066Z" transform="translate(-229.491 -62.138)" fill="#ffcdc8"/>
      <path id="Trazado_749241" data-name="Trazado 749241" d="M467.548,135.447c-.349.58.158,6.159.553,6.4s3.581.632,3.885,0a35.212,35.212,0,0,0,1.252-5.69c.039-.929-4.979-1.887-5.69-.707" transform="translate(-234.667 -67.724)" fill="#0c2109"/>
      <path id="Trazado_749242" data-name="Trazado 749242" d="M467.951,187.052s2.6-6.859,5.376-15.073l-5.376-25.2h-2.1s-3.329,12.97-4.632,22.6a115.989,115.989,0,0,0,6.729,17.672" transform="translate(-231.549 -73.689)" fill="#0c2109"/>
      <path id="Trazado_749243" data-name="Trazado 749243" d="M475.555,247.228a1.58,1.58,0,1,1-1.58-1.58,1.579,1.579,0,0,1,1.58,1.58" transform="translate(-237.159 -123.324)" fill="#0c2109"/>
      <path id="Trazado_749244" data-name="Trazado 749244" d="M476.565,264.978a1.58,1.58,0,1,1-1.58-1.58,1.579,1.579,0,0,1,1.58,1.58" transform="translate(-237.666 -132.235)" fill="#0c2109"/>
      <path id="Trazado_749245" data-name="Trazado 749245" d="M477.045,280.986a1.58,1.58,0,1,1-1.58-1.58,1.579,1.579,0,0,1,1.58,1.58" transform="translate(-237.907 -140.271)" fill="#0c2109"/>
      <path id="Trazado_749246" data-name="Trazado 749246" d="M474.26,94.708s.711,6.175,2.252,14.473c0,0-4.083,9.837-14.488,4.5a63.245,63.245,0,0,0-1.529-7.823Z" transform="translate(-231.185 -47.547)" fill="#db9061"/>
      <path id="Trazado_749247" data-name="Trazado 749247" d="M474.677,97.9c-.281-2.017-.417-3.2-.417-3.2L460.5,105.861c.283.97.534,2.071.748,3.134a8.39,8.39,0,0,0,5.452.659c3.914-.786,6.756-8,7.981-11.751" transform="translate(-231.185 -47.547)" fill="#ba7349"/>
      <path id="Trazado_749248" data-name="Trazado 749248" d="M461.52,121.615a13.976,13.976,0,0,0,5.063,3.239s4.766-.7,9.3-8.056l2.234,3.816s-1.064,6.926-5.9,11.588l-5.528-5.057L461.52,132.2a29.735,29.735,0,0,1-1.036-6.991Z" transform="translate(-231.173 -58.637)" fill="#fff"/>
      <path id="Trazado_749249" data-name="Trazado 749249" d="M440.4,27.67s-1.422-6.519-5.571-7.586-8.733,4.267-16.279,5.1-16.3.819-18.333,6.875,2.015,10.075,3.674,10.668a7.938,7.938,0,0,0-3.437,7.307c.475,4.9,8.814,7.1,13.039,6.206l29.159.937s1.9,3.279,4.03,2.653,2.963-2.868,2.133-7.081-1.659-11.325-2.133-16.185-1.778-9.246-6.282-8.89" transform="translate(-200.644 -10.013)" fill="#5e361b"/>
      <path id="Trazado_749250" data-name="Trazado 749250" d="M401.175,70.878s8.65-2.211,15.013-7.632c0,0-5.776,9.77-13.1,11.894" transform="translate(-201.404 -31.752)" fill="none" stroke="#7c4621" stroke-miterlimit="10" stroke-width="0.5"/>
      <path id="Trazado_749251" data-name="Trazado 749251" d="M433.907,39.924c-7.46.615-16.519,7.509-15.315,18.433s8.2,21.881,17.553,21.843,17.275-6.925,18-15.057S452.4,38.4,433.907,39.924" transform="translate(-210.093 -19.999)" fill="#db9061"/>
      <path id="Trazado_749252" data-name="Trazado 749252" d="M458.211,45.116c-.382-2.981-.719-6.064-.962-8.555-.474-4.86-1.778-9.246-6.282-8.89,0,0-1.422-6.519-5.571-7.587s-8.733,4.268-16.28,5.1c-2.771.3-5.7.5-8.408.917.608,2.5,2.339,6.571,7.22,7.38,0,0-2.964,3.488,1.075,5.216,2.879,1.231,9.458,1.659,16.155-2.252,0,0,2.849,13.913,13.052,8.674" transform="translate(-211.21 -10.013)" fill="#7c4621"/>
      <path id="Trazado_749253" data-name="Trazado 749253" d="M458.677,50.492s2.651-6.385,2.651-11.245-3.081-6.875-3.081-6.875-2.608-4.03-6.993-2.845-10.959,5.356-16.045,8.653" transform="translate(-218.489 -14.714)" fill="none" stroke="#5e361b" stroke-miterlimit="10" stroke-width="0.5"/>
      <path id="Trazado_749254" data-name="Trazado 749254" d="M476.1,58.038a21.67,21.67,0,0,0,5.758-8.772" transform="translate(-239.018 -24.733)" fill="none" stroke="#5e361b" stroke-miterlimit="10" stroke-width="0.5"/>
      <path id="Trazado_749255" data-name="Trazado 749255" d="M427.438,40.417a81.11,81.11,0,0,0,11.905-3.286" transform="translate(-214.589 -18.641)" fill="none" stroke="#5e361b" stroke-miterlimit="10" stroke-width="0.5"/>
      <path id="Trazado_749256" data-name="Trazado 749256" d="M455.814,75.916c.249.841.943,1.376,1.55,1.2a1.422,1.422,0,0,0,.647-1.847c-.249-.841-.943-1.376-1.55-1.2a1.422,1.422,0,0,0-.647,1.847" transform="translate(-228.79 -37.168)" fill="#041801"/>
      <path id="Trazado_749257" data-name="Trazado 749257" d="M460.822,81.976c.6,2.469,3.773,3.817,7.08,3.009s5.5-3.464,4.9-5.934-3.773-3.817-7.08-3.009-5.5,3.464-4.9,5.934" transform="translate(-231.299 -38.058)" fill="#b75832"/>
      <path id="Trazado_749258" data-name="Trazado 749258" d="M432.911,81.446c.249.84.943,1.376,1.55,1.2a1.422,1.422,0,0,0,.647-1.847c-.249-.841-.943-1.376-1.55-1.2a1.422,1.422,0,0,0-.647,1.847" transform="translate(-217.291 -39.944)" fill="#041801"/>
      <path id="Trazado_749259" data-name="Trazado 749259" d="M441.479,66.881s1.9,7.478,1.66,8.955-2.371,3.847-2.371,3.847l4.267,2.015" transform="translate(-221.281 -33.577)" fill="none" stroke="#a64912" stroke-miterlimit="10" stroke-width="0.5"/>
      <path id="Trazado_749260" data-name="Trazado 749260" d="M449.337,99.954s3.438.83,6.993-3.319" transform="translate(-225.583 -48.514)" fill="none" stroke="#a64912" stroke-miterlimit="10" stroke-width="0.5"/>
      <path id="Trazado_749261" data-name="Trazado 749261" d="M426.65,68.529a3.248,3.248,0,0,1,0-3.75,3.669,3.669,0,0,1,3.8-1.605c.5.117-.153.506-.31.637a9.489,9.489,0,0,0-1.524,1.5,13.631,13.631,0,0,0-1.21,1.849,9.91,9.91,0,0,0-.422.946c-.067.188-.062.569-.333.426" transform="translate(-213.893 -31.681)" fill="#5e361b"/>
      <path id="Trazado_749262" data-name="Trazado 749262" d="M445.185,57.269c.976-1.589,3.352-1.943,5.015-1.63a5.366,5.366,0,0,1,4.161,3.524c.058.2-.03.32-.21.2-.377-.242-.763-.464-1.146-.695a11.235,11.235,0,0,0-2.872-1.117,11.37,11.37,0,0,0-4.544-.174c-.176.03-.413.169-.4-.113" transform="translate(-223.498 -27.881)" fill="#5e361b"/>
      <path id="Trazado_749263" data-name="Trazado 749263" d="M429.026,90.375c-.6-2.469-3.773-3.817-7.08-3.009a8.148,8.148,0,0,0-.994.316,30.5,30.5,0,0,0,3.873,8.423c2.912-.987,4.761-3.437,4.2-5.729" transform="translate(-211.332 -43.743)" fill="#b75832"/>
      <path id="Trazado_749264" data-name="Trazado 749264" d="M489.562,77.456l-.136-9.493s.64-6.928,5.353-5.164c3.542,1.326,3.984,16.132-5.217,14.657" transform="translate(-245.709 -31.383)" fill="#db9061"/>
      <path id="Trazado_749265" data-name="Trazado 749265" d="M494.328,70.75a8.167,8.167,0,0,1,2.631,4.138c-.579,3.712-2.767,7.1-7.4,6.353l-.136-9.493s2.11-3.028,4.9-1" transform="translate(-245.709 -35.167)" fill="#ba7349"/>
      <path id="Trazado_749266" data-name="Trazado 749266" d="M147.967,214.885a68.421,68.421,0,1,1-68.421-68.421,68.421,68.421,0,0,1,68.421,68.421" transform="translate(-5.585 -73.53)" fill="#fff"/>
      <path id="Trazado_749267" data-name="Trazado 749267" d="M147.992,217.993a65.34,65.34,0,1,1-65.34-65.34,65.34,65.34,0,0,1,65.34,65.34" transform="translate(-8.691 -76.637)" fill="#57dbd8"/>
      <path id="Trazado_749268" data-name="Trazado 749268" d="M190.6,317.785a5.661,5.661,0,0,1-.976-1.9c-.177-.475-2.163.533-2.163.533s-.078-2-.163-2.508-1.922-.36-1.922-.36-4.315-24.773-10.315-36.2c-2.145-4.084-6.344-6.162-10.924-2.839s-9.887,14.759-9.361,17.875,15.817,33.27,19.489,37.044c1.257,1.292,5.357,3.177,10.671,5.142a65.651,65.651,0,0,0,15.476-12.747c-5.413-2.2-9.683-3.951-9.812-4.037" transform="translate(-77.685 -136.985)" fill="#0c2109"/>
      <path id="Trazado_749269" data-name="Trazado 749269" d="M210.237,362.123s-3.477.474-4.741,1.264-3.477,7.744-3.477,7.744a32.965,32.965,0,0,1,9.957-9.009" transform="translate(-101.421 -181.798)" fill="none" stroke="#354232" stroke-linecap="round" stroke-linejoin="round" stroke-width="0.5"/>
      <path id="Trazado_749270" data-name="Trazado 749270" d="M162.189,290.831s16.055,38.5,16.522,40.005.2,3.24.572,3.556,1.272-.79,1.611,0c.126.294,6.095,2.586,13.543,5.351" transform="translate(-81.424 -146.007)" fill="none" stroke="#354232" stroke-linecap="round" stroke-linejoin="round" stroke-width="0.5"/>
      <path id="Trazado_749271" data-name="Trazado 749271" d="M102,388.493c.5,0,1-.008,1.5-.019l-1.5-9.2c-26.4.711-39.2-17.147-39.2-17.147l-6.946,7.289A65.132,65.132,0,0,0,102,388.493" transform="translate(-28.044 -181.798)" fill="#0c2109"/>
      <path id="Trazado_749272" data-name="Trazado 749272" d="M122.4,265.52c-1.344-2.371-11.7-8.455-11.7-8.455l-16.552-1.422s-20.588,5.452-23.274,7.507-3.635,12.644-2.845,19.6-1.264,16.278-1.423,17.069-2.37,1.107-2.529,2.055a14.213,14.213,0,0,0,0,2.687s-9.641,9.482-9.641,9.956A8.744,8.744,0,0,0,55.193,316a65.233,65.233,0,0,0,30.616,17.185l3.651-5.239v6.018a65.526,65.526,0,0,0,9.009,1.006,24.06,24.06,0,0,0,7.412-3.548s.5-22.126,1.157-23.074,12.356-10.589,13.3-16.911,0-18.175,0-18.175,3.4-5.373,2.055-7.744" transform="translate(-27.33 -128.341)" fill="#354232"/>
      <path id="Trazado_749273" data-name="Trazado 749273" d="M139.994,264.687s2.942,19.124-1.6,35.876-13.619,31.925-13.619,31.925" transform="translate(-62.639 -132.882)" fill="none" stroke="#0c2109" stroke-linecap="round" stroke-linejoin="round" stroke-width="0.5"/>
      <path id="Trazado_749274" data-name="Trazado 749274" d="M98.995,258.128s-21.167,6.467-22.353,7.415-2.133,9.269-.83,16.073S75.1,298.97,74.39,302.052c-.612,2.653-9.784,14.735-12.321,18.042" transform="translate(-31.161 -129.589)" fill="none" stroke="#0c2109" stroke-linecap="round" stroke-linejoin="round" stroke-width="0.5"/>
      <path id="Trazado_749275" data-name="Trazado 749275" d="M136.211,354.541a1.3,1.3,0,1,1-1.3-1.3,1.3,1.3,0,0,1,1.3,1.3" transform="translate(-67.073 -177.337)" fill="#fe7062"/>
      <path id="Trazado_749276" data-name="Trazado 749276" d="M122.98,382.935a1.3,1.3,0,1,1-1.3-1.3,1.3,1.3,0,0,1,1.3,1.3" transform="translate(-60.431 -191.592)" fill="#fe7062"/>
      <path id="Trazado_749277" data-name="Trazado 749277" d="M120.83,255.642s-6.911,1.83-13.247,3.77a111.609,111.609,0,0,0,1.508,13.51l6.164-1.04-4.088,3.951s8.392,13.674,17.857,22.76c0,0,8.042-6.49,16.577-22.468l-3.637-3.887,4.111.685a35.787,35.787,0,0,0-1.111-10.993c-3.394-2.4-7.582-4.865-7.582-4.865Z" transform="translate(-54.01 -128.341)" fill="#0c2109"/>
      <path id="Trazado_749278" data-name="Trazado 749278" d="M142.252,257.065,125.7,255.643s-3.839,1.017-8.418,2.337c3.7,5.439,14.559,22.4,17.348,38.043,0,0,11.675-21.971,12.2-36.116-2.452-1.589-4.581-2.841-4.581-2.841" transform="translate(-58.88 -128.342)" fill="#f8e4cf"/>
      <path id="Trazado_749279" data-name="Trazado 749279" d="M148.824,291.636c.455,1.663.844,3.326,1.137,4.974,0,0,2.058-3.872,4.484-9.412a68.708,68.708,0,0,0-1.46-29.941l-5.164-.444c1.094,5.041,3.7,19.68,1,34.822" transform="translate(-74.212 -128.929)" fill="#fff"/>
      <path id="Trazado_749280" data-name="Trazado 749280" d="M156.795,278.726a1.028,1.028,0,1,1-1.028-1.027,1.028,1.028,0,0,1,1.028,1.027" transform="translate(-77.684 -139.414)" fill="#f8e4cf"/>
      <path id="Trazado_749281" data-name="Trazado 749281" d="M157.214,291.37a1.028,1.028,0,1,1-1.028-1.028,1.027,1.027,0,0,1,1.028,1.028" transform="translate(-77.895 -145.762)" fill="#f8e4cf"/>
      <path id="Trazado_749282" data-name="Trazado 749282" d="M156.795,304.26a1.028,1.028,0,1,1-1.028-1.028,1.028,1.028,0,0,1,1.028,1.028" transform="translate(-77.684 -152.233)" fill="#f8e4cf"/>
      <path id="Trazado_749283" data-name="Trazado 749283" d="M155.494,317.923a1.028,1.028,0,1,1-1.028-1.027,1.028,1.028,0,0,1,1.028,1.027" transform="translate(-77.032 -159.093)" fill="#f8e4cf"/>
      <path id="Trazado_749284" data-name="Trazado 749284" d="M135.2,229.693a49.739,49.739,0,0,1-1.014,12.922s3.237,4.979,8.986,4.662,7.567-3.24,7.567-3.24.69-5.949,1.293-9.257-16.832-5.088-16.832-5.088" transform="translate(-67.366 -115.314)" fill="#ffa36e"/>
      <path id="Trazado_749285" data-name="Trazado 749285" d="M136.222,229.693s.093,1.427.057,3.545c1.792,2.47,5.228,6.141,9.99,6.453a7.755,7.755,0,0,0,6.348-2.2c.143-.977.293-1.92.437-2.712.6-3.308-16.832-5.088-16.832-5.088" transform="translate(-68.388 -115.314)" fill="#d57644"/>
      <path id="Trazado_749286" data-name="Trazado 749286" d="M133.414,247.363s2.529,3.965,9.81,6.493a14.2,14.2,0,0,0,6.561-5.27l1.854,5.779a14.149,14.149,0,0,1-3.01,7.078l-5.272-4.48-3.915,5.744s-7.864-5.286-8.239-10.822Z" transform="translate(-65.868 -124.185)" fill="#fff"/>
      <path id="Trazado_749287" data-name="Trazado 749287" d="M110.82,157.949c-.561,1.29,0,3.736,1.869,9.878,1.55,5.1,4.4,11.775,5.432,15.765s3.872,6.361,6.875,3.6l24.733-21.652s6.085-3.477,5.374-8.613-4.123-8.376-9.371-7.507c0,0,.6-4.662-2.64-5.769s-15.172,5.8-20.467,8.034-11.014,4.451-11.8,6.269" transform="translate(-55.531 -72.055)" fill="#0c2109"/>
      <path id="Trazado_749288" data-name="Trazado 749288" d="M179.213,160.969s-6.12,4.314-17.024,4.077c0,0,7.856,3.654,18.705.009" transform="translate(-81.424 -80.812)" fill="none" stroke="#354232" stroke-linecap="round" stroke-linejoin="round" stroke-width="0.5"/>
      <path id="Trazado_749289" data-name="Trazado 749289" d="M90.349,178.354s-2.078,6.422-8.044,7.478a6.839,6.839,0,0,1-7.85-4.339c-1.511,1.707-5.726,3.292-8.966,1.026-3.265-2.283-2.332-7.13-2.332-7.13a9.443,9.443,0,0,1-4.779-10.21c1.161-7.486,9.852-7.517,9.852-7.517.1-2.181,2.426-6.69,9-8.054a10.089,10.089,0,0,1,10.1,3.939c7.116,1.242,4.235,9.044,4.235,9.044s6.511,10.015-1.212,15.763" transform="translate(-29.233 -74.997)" fill="#354232"/>
      <path id="Trazado_749290" data-name="Trazado 749290" d="M94.3,180.2s-1.584,4.9-6.132,5.7a5.214,5.214,0,0,1-5.985-3.307,5.546,5.546,0,0,1-6.836.782c-2.489-1.741-1.778-5.436-1.778-5.436a7.2,7.2,0,0,1-3.644-7.784c.885-5.708,7.511-5.732,7.511-5.732.079-1.663,1.849-5.1,6.858-6.139a7.691,7.691,0,0,1,7.7,3c5.425.947,3.228,6.894,3.228,6.894s4.964,7.636-.924,12.018" transform="translate(-35.047 -79.379)" fill="#0c2109"/>
      <path id="Trazado_749291" data-name="Trazado 749291" d="M137.4,160.638c7.125-2.3,18.135.593,21.217,11.142s.83,23.351-7.823,26.907-18.61.237-22.4-6.993-8.653-25.366,9.009-31.056" transform="translate(-62.638 -80.276)" fill="#ffa36e"/>
      <path id="Trazado_749292" data-name="Trazado 749292" d="M166.315,186.136s.237,6.519,1.778,9.483c0,0,3.437-.593,3.912,0s-1.541,4.741-1.541,4.741" transform="translate(-83.496 -93.447)" fill="none" stroke="#d57644" stroke-miterlimit="10" stroke-width="0.5"/>
      <path id="Trazado_749293" data-name="Trazado 749293" d="M157.745,218.985A7.965,7.965,0,0,0,166.161,221" transform="translate(-79.193 -109.938)" fill="none" stroke="#d57644" stroke-miterlimit="10" stroke-width="0.5"/>
      <path id="Trazado_749294" data-name="Trazado 749294" d="M145.714,206.544c.391,2.512-2.019,4.973-5.383,5.5s-6.407-1.089-6.8-3.6,2.019-4.973,5.383-5.5,6.407,1.088,6.8,3.6" transform="translate(-67.017 -101.835)" fill="#f28475"/>
      <path id="Trazado_749295" data-name="Trazado 749295" d="M156.375,197.286c.093.871-.343,1.632-.972,1.7s-1.214-.586-1.307-1.457.343-1.632.972-1.7,1.214.586,1.307,1.457" transform="translate(-77.355 -98.311)" fill="#041801"/>
      <path id="Trazado_749296" data-name="Trazado 749296" d="M157.292,194.077c.133-.064.181.778.167.852a1.632,1.632,0,0,1-.527.944,1.544,1.544,0,0,1-.909.412c-.1.011-.587.063-.612-.11-.008-.06.488-.329.553-.372a7.813,7.813,0,0,0,.621-.59,2.6,2.6,0,0,0,.426-.605c.063-.126.154-.539.28-.53" transform="translate(-78.022 -97.432)" fill="#041801"/>
      <path id="Trazado_749297" data-name="Trazado 749297" d="M179.28,192.722c.093.871-.343,1.632-.972,1.7s-1.215-.586-1.307-1.457.343-1.632.972-1.7,1.215.586,1.307,1.457" transform="translate(-88.855 -96.019)" fill="#041801"/>
      <path id="Trazado_749298" data-name="Trazado 749298" d="M180.2,189.514c.133-.064.181.778.167.852a1.635,1.635,0,0,1-.527.944,1.546,1.546,0,0,1-.909.411c-.1.011-.586.063-.612-.11-.008-.06.487-.329.553-.372a7.808,7.808,0,0,0,.621-.59,2.6,2.6,0,0,0,.426-.6c.063-.126.154-.54.28-.531" transform="translate(-89.521 -95.141)" fill="#041801"/>
      <path id="Trazado_749299" data-name="Trazado 749299" d="M147.593,188.3c-1.311-2.37,1.516-6.149,4.174-4.94.3.138-.708.5-.86.585a4.709,4.709,0,0,0-1.562,1.37,9.162,9.162,0,0,0-1.189,1.934c-.142.315-.276.635-.386.963-.044.132-.071.215-.177.088" transform="translate(-73.931 -91.937)" fill="#0c2109"/>
      <path id="Trazado_749300" data-name="Trazado 749300" d="M172.056,178.832c.741-1.1,2.234-1.107,3.364-.78a3.477,3.477,0,0,1,1.59,1.2,2.932,2.932,0,0,1,.39.778c.046.144.21.573.133.716-.031.056-.01.171-.12.087-.235-.179-.466-.364-.713-.526a8.81,8.81,0,0,0-1.927-.978,6.692,6.692,0,0,0-1.961-.375c-.119,0-.9.117-.756-.121" transform="translate(-86.369 -89.294)" fill="#0c2109"/>
      <path id="Trazado_749301" data-name="Trazado 749301" d="M188.211,194.076a8.316,8.316,0,0,0-1.172.1c-3.363.524-5.773,2.985-5.382,5.5.373,2.4,3.168,3.973,6.349,3.653a30.891,30.891,0,0,0,.205-9.246" transform="translate(-91.177 -97.433)" fill="#f28475"/>
      <path id="Trazado_749302" data-name="Trazado 749302" d="M132.818,161.032c2.123-4.308,1.135-8.756.262-11.206-3.887,1.816-7.928,3.947-10.456,5.017-5.294,2.238-11.015,4.451-11.8,6.269-.561,1.29,0,3.736,1.869,9.878.894,2.939,2.221,6.4,3.382,9.575,8.458-5.131,6.633-13.052,6.633-13.052s6.96-.079,10.115-6.48" transform="translate(-55.531 -75.218)" fill="#354232"/>
      <path id="Trazado_749303" data-name="Trazado 749303" d="M122.7,183.664a18.923,18.923,0,0,1-11.842-10.687" transform="translate(-55.653 -86.84)" fill="none" stroke="#0c2109" stroke-linecap="round" stroke-linejoin="round" stroke-width="0.5"/>
      <path id="Trazado_749304" data-name="Trazado 749304" d="M126.855,185.743a11.04,11.04,0,0,1-8.184-1" transform="translate(-59.577 -92.748)" fill="none" stroke="#0c2109" stroke-linecap="round" stroke-linejoin="round" stroke-width="0.5"/>
      <path id="Trazado_749305" data-name="Trazado 749305" d="M122.744,165s9.039-.274,16.514,2.873" transform="translate(-61.622 -82.831)" fill="none" stroke="#0c2109" stroke-linecap="round" stroke-linejoin="round" stroke-width="0.5"/>
      <path id="Trazado_749306" data-name="Trazado 749306" d="M122.215,213.515,118.7,204.7s-3.251-6.152-6.925-2.714c-2.762,2.584,2.514,16.426,10.443,11.532" transform="translate(-55.741 -100.879)" fill="#ffa36e"/>
      <path id="Trazado_749307" data-name="Trazado 749307" d="M115.67,208.788a8.163,8.163,0,0,0-.841,4.831c1.96,3.205,5.278,5.49,9.27,3.027l-3.519-8.817s-3.11-1.986-4.91.96" transform="translate(-57.624 -104.008)" fill="#d57644"/>
      <path id="Trazado_749308" data-name="Trazado 749308" d="M256.426,229.349s12.994,1.464,14.064,1.609,2.323.226,2.951-.514a1.515,1.515,0,0,0,.348-1.753,2.244,2.244,0,0,0,2.487-.887,2.489,2.489,0,0,0,.026-2.151,2.062,2.062,0,0,0,1.337-2.709c-.186-.628-1.249-1.143-2.2-1.355s-3.363-.72-3.268-.928,4.189.322,4.189.322a8.693,8.693,0,0,0,2.878.307c.646-.248,1-1.8.76-2.239a6.777,6.777,0,0,0-2.366-2.046c-.661-.161-5.266-.673-6.15-.764s-9.251-1-9.93-.527-7.115,4.921-7.115,4.921l-7.064,6.4,4.669,8.151Z" transform="translate(-124.19 -108.227)" fill="#ffa36e"/>
      <path id="Trazado_749309" data-name="Trazado 749309" d="M298.12,234.817s-4.6-.983-5.073-.987a14.888,14.888,0,0,0-2.213.529" transform="translate(-146.009 -117.391)" fill="none" stroke="#d57644" stroke-miterlimit="10" stroke-width="0.5"/>
      <path id="Trazado_749310" data-name="Trazado 749310" d="M295.124,241.264s-3.484-.654-3.791-.643a11.159,11.159,0,0,0-1.461.379" transform="translate(-145.526 -120.8)" fill="none" stroke="#d57644" stroke-miterlimit="10" stroke-width="0.5"/>
      <path id="Trazado_749311" data-name="Trazado 749311" d="M249.693,227.726s2.982-3.252,3.584-3.21,3.261,1.737,4.485,4.407a8.566,8.566,0,0,1,.183,6.231,13.672,13.672,0,0,1-1.4,1.969Z" transform="translate(-125.354 -112.714)" fill="#fff"/>
      <path id="Trazado_749312" data-name="Trazado 749312" d="M92.392,247.966c-4.613-.089-8.456,2.59-7.751,8.2s8.17,15.775,11.153,16.815,41.034-1.19,46.11-2.588,26.267-21.6,32.825-31.267c0,0,.939-8.061-7.739-10.886,0,0-27.037,22.029-27.417,22.229a5.66,5.66,0,0,1-2.136-.06c-.5-.074-.575,2.151-.575,2.151s-1.789-.894-2.277-1.066-1.241,1.511-1.241,1.511-28.046-4.8-40.951-5.043" transform="translate(-42.45 -114.586)" fill="#354232"/>
      <path id="Trazado_749313" data-name="Trazado 749313" d="M245.457,232.022a15.075,15.075,0,0,1,8.656,10.931" transform="translate(-123.228 -116.483)" fill="none" stroke="#0c2109" stroke-linecap="round" stroke-linejoin="round" stroke-width="0.5"/>
      <path id="Trazado_749314" data-name="Trazado 749314" d="M184.641,279.984a32.758,32.758,0,0,1,6.413,10.9" transform="translate(-92.696 -140.562)" fill="none" stroke="#0c2109" stroke-linecap="round" stroke-linejoin="round" stroke-width="0.5"/>
      <path id="Trazado_749315" data-name="Trazado 749315" d="M191.606,277.381s1.721,3.433,2.445,10.65" transform="translate(-96.193 -139.255)" fill="none" stroke="#0c2109" stroke-linecap="round" stroke-linejoin="round" stroke-width="0.5"/>
      <path id="Trazado_749316" data-name="Trazado 749316" d="M88.18,270.576s50.975,5.225,52.725,5.391.249-4.18,1.079-4.535,2.2,3.026,2.884,2.828,29.183-27.383,29.183-27.383" transform="translate(-44.269 -123.941)" fill="none" stroke="#0c2109" stroke-linecap="round" stroke-linejoin="round" stroke-width="0.5"/>
      <path id="Trazado_749317" data-name="Trazado 749317" d="M282.242,206.129a5,5,0,0,1-3.346,2.658c-2.615.748-5.956-.2-6.381.06a11.9,11.9,0,0,0-2.385,2.42,5.977,5.977,0,0,1-1.924,3.244c-1.26.844-2.313.792-2.571.255-.171-.355,1.118-4.258,1.228-5.2s2.207-1.88,4.724-4.921c.5-.6,15.956-6.094,10.655,1.487" transform="translate(-133.35 -101.49)" fill="#d06f32"/>
      <path id="Trazado_749318" data-name="Trazado 749318" d="M269.443,242.412a1.764,1.764,0,0,0,1.147,2.1A2.067,2.067,0,0,0,272.32,244a1.555,1.555,0,0,0,1.388,1.159,1.934,1.934,0,0,0,1.717-.936,1.627,1.627,0,0,0,1.309.967,1.993,1.993,0,0,0,1.5-.621s.11.488,1,.548,2.12-.551,1.428-1.873c-.866-1.655-1.874-1.6-2.37-.428,0,0-.506-1.8-1.888-1.657a1.246,1.246,0,0,0-1.234,1.092,2.223,2.223,0,0,0-1.764-.8,1.351,1.351,0,0,0-1.178.851s-2.1-1.824-2.785.1" transform="translate(-135.238 -121.067)" fill="#d06f32"/>
      <path id="Trazado_749319" data-name="Trazado 749319" d="M281.009,243.363a10.257,10.257,0,0,0,.254,1.972" transform="translate(-141.076 -122.177)" fill="none" stroke="#a64912" stroke-miterlimit="10" stroke-width="0.5"/>
      <path id="Trazado_749320" data-name="Trazado 749320" d="M275.08,243.47a6.294,6.294,0,0,0,.091,1.7" transform="translate(-138.089 -122.23)" fill="none" stroke="#a64912" stroke-miterlimit="10" stroke-width="0.5"/>
      <path id="Trazado_749321" data-name="Trazado 749321" d="M287.142,244.5a3.917,3.917,0,0,0-.061,1.753" transform="translate(-144.087 -122.746)" fill="none" stroke="#a64912" stroke-miterlimit="10" stroke-width="0.5"/>
    </g>
  </g>
</svg>
