<svg id="Grupo_1019541" data-name="Grupo 1019541" xmlns="http://www.w3.org/2000/svg" width="42.414" height="29.286" viewBox="0 0 42.414 29.286">
  <g id="Grupo_1019538" data-name="Grupo 1019538" transform="translate(0 5.297)">
    <g id="Grupo_1019537" data-name="Grupo 1019537">
      <path id="Trazado_749034" data-name="Trazado 749034" d="M1071.531,1341.286c0-.076-.057-.133-.076-.21a.675.675,0,0,0-.057-.21c0-.019-.019,0-.038-.019a1.21,1.21,0,0,0-.229-.133.586.586,0,0,0-.229-.1l-.019-.019h-35.516a.663.663,0,0,0-.667.667v22.655a.49.49,0,0,0,.1.229c.038.076.019.172.076.229h.019a.62.62,0,0,0,.476.209h35.5a.78.78,0,0,0,.5-.209h.019c.057-.057.057-.152.076-.229a.489.489,0,0,0,.1-.229v-22.636Zm-35.5,1.944,11.223,9.012-11.223,10.175Zm16.577,11.547-15.986-12.823h32.3Zm-4.287-1.677h0l3.849,3.068a.653.653,0,0,0,.838,0l4.268-3.354,11.775,10.442H1037.1Zm10.042-1.143,11.813-9.3v19.759Z" transform="translate(-1034.7 -1340.6)" fill="#0f0957"/>
    </g>
  </g>
  <g id="Grupo_1019540" data-name="Grupo 1019540" transform="translate(29.114)">
    <g id="Grupo_1019539" data-name="Grupo 1019539">
      <circle id="Elipse_8499" data-name="Elipse 8499" cx="6.65" cy="6.65" r="6.65" fill="#348381"/>
    </g>
  </g>
</svg>
