<svg xmlns="http://www.w3.org/2000/svg" width="51.712" height="74.748" viewBox="0 0 51.712 74.748">
  <g id="Grupo_1020150" data-name="Grupo 1020150" transform="translate(12892.177 12002.606)">
    <g id="Grupo_1020090" data-name="Grupo 1020090" transform="translate(-12892.177 -12002.606)">
      <g id="Grupo_1019734" data-name="Grupo 1019734" transform="translate(0 0)">
        <g id="Grupo_1019733" data-name="Grupo 1019733">
          <path id="Trazado_749110" data-name="Trazado 749110" d="M440.112,298.756a25.856,25.856,0,1,0-51.712,0c0,14.271,25.266,48.892,25.856,48.892C415.266,347.648,440.112,313.047,440.112,298.756Z" transform="translate(-388.4 -272.9)" fill="#cb594e"/>
        </g>
      </g>
      <g id="Grupo_1019736" data-name="Grupo 1019736" transform="translate(25.456 0)" opacity="0.68">
        <g id="Grupo_1019735" data-name="Grupo 1019735">
          <path id="Trazado_749111" data-name="Trazado 749111" d="M522.1,272.9H522v74.672a.745.745,0,0,0,.1.076c1.01,0,25.856-34.621,25.856-48.892A25.843,25.843,0,0,0,522.1,272.9Z" transform="translate(-522 -272.9)" fill="#98433a"/>
        </g>
      </g>
      <g id="Grupo_1019738" data-name="Grupo 1019738" transform="translate(8.079 8.479)">
        <g id="Grupo_1019737" data-name="Grupo 1019737">
          <circle id="Elipse_8505" data-name="Elipse 8505" cx="17.777" cy="17.777" r="17.777" fill="#fff"/>
        </g>
      </g>
    </g>
    <g id="Grupo_1020149" data-name="Grupo 1020149" transform="translate(-12877.707 -11987.335)">
      <g id="Grupo_1019741" data-name="Grupo 1019741" transform="translate(0.005 4.706)">
        <g id="Grupo_1019740" data-name="Grupo 1019740">
          <path id="Trazado_749112" data-name="Trazado 749112" d="M484.022,390.125H462.243a.744.744,0,0,1-.743-.743V373.243a.744.744,0,0,1,.743-.743h21.779a.744.744,0,0,1,.743.743v16.139A.744.744,0,0,1,484.022,390.125Zm-21.016-1.505h20.273V373.986H463.005Z" transform="translate(-461.5 -372.5)" fill="#3b3047"/>
        </g>
      </g>
      <g id="Grupo_1019743" data-name="Grupo 1019743" transform="translate(0 0)">
        <g id="Grupo_1019742" data-name="Grupo 1019742">
          <path id="Trazado_749113" data-name="Trazado 749113" d="M484,353.993a.8.8,0,0,1-.61-.3l-3.144-4.382H466.527l-3.716,4.421a.757.757,0,1,1-1.162-.972l3.944-4.687a.742.742,0,0,1,.572-.267h14.462a.74.74,0,0,1,.61.3l3.373,4.687a.74.74,0,0,1-.171,1.048A.649.649,0,0,1,484,353.993Z" transform="translate(-461.473 -347.8)" fill="#3b3047"/>
        </g>
      </g>
      <g id="Grupo_1019745" data-name="Grupo 1019745" transform="translate(10.713 8.631)">
        <g id="Grupo_1019744" data-name="Grupo 1019744">
          <path id="Trazado_749114" data-name="Trazado 749114" d="M518.443,402.76a.744.744,0,0,1-.743-.743v-8.174a.743.743,0,1,1,1.486,0V402A.737.737,0,0,1,518.443,402.76Z" transform="translate(-517.7 -393.1)" fill="#3b3047"/>
        </g>
      </g>
      <g id="Grupo_1019747" data-name="Grupo 1019747" transform="translate(7.888 7.424)">
        <g id="Grupo_1019746" data-name="Grupo 1019746">
          <path id="Trazado_749115" data-name="Trazado 749115" d="M503.621,391.726a.743.743,0,0,1-.572-1.219l2.915-3.468a.651.651,0,0,1,.591-.267.731.731,0,0,1,.572.286l2.629,3.277a.745.745,0,1,1-1.162.934l-2.077-2.572-2.325,2.763A.742.742,0,0,1,503.621,391.726Z" transform="translate(-502.873 -386.766)" fill="#3b3047"/>
        </g>
      </g>
      <g id="Grupo_1019749" data-name="Grupo 1019749" transform="translate(10.618 0.114)">
        <g id="Grupo_1019748" data-name="Grupo 1019748">
          <path id="Trazado_749116" data-name="Trazado 749116" d="M517.943,354.478a.744.744,0,0,1-.743-.743v-4.592a.743.743,0,1,1,1.486,0v4.592A.744.744,0,0,1,517.943,354.478Z" transform="translate(-517.2 -348.4)" fill="#3b3047"/>
        </g>
      </g>
    </g>
  </g>
</svg>
