<svg id="Grupo_1019962" data-name="Grupo 1019962" xmlns="http://www.w3.org/2000/svg" xmlns:xlink="http://www.w3.org/1999/xlink" width="124.782" height="103.018" viewBox="0 0 124.782 103.018">
  <defs>
    <clipPath id="clip-path">
      <path id="Trazado_749140" data-name="Trazado 749140" d="M268.3,1113.6h10.727l10.518,11.356,6.021,26.37H268.3Z" transform="translate(-268.3 -1113.6)"/>
    </clipPath>
    <clipPath id="clip-path-3">
      <rect id="Rectángulo_356247" data-name="Rectángulo 356247" width="9.756" height="38.07"/>
    </clipPath>
  </defs>
  <g id="Grupo_1019864" data-name="Grupo 1019864" transform="translate(68.37 36.88)">
    <g id="Grupo_1019843" data-name="Grupo 1019843" transform="translate(0 0.013)">
      <g id="Grupo_1019842" data-name="Grupo 1019842" transform="translate(0 0)">
        <rect id="Rectángulo_356223" data-name="Rectángulo 356223" width="33.325" height="21.569" transform="translate(33.325 21.569) rotate(180)" fill="#ffeae7"/>
      </g>
    </g>
    <g id="Grupo_1019845" data-name="Grupo 1019845" transform="translate(21.186 0.024)" opacity="0.62">
      <g id="Grupo_1019844" data-name="Grupo 1019844">
        <rect id="Rectángulo_356224" data-name="Rectángulo 356224" width="12.099" height="21.436" transform="translate(12.099 21.436) rotate(180)" fill="#ffcdc8"/>
      </g>
    </g>
    <g id="Grupo_1019847" data-name="Grupo 1019847" transform="translate(15.205 0)" opacity="0.48">
      <g id="Grupo_1019846" data-name="Grupo 1019846" transform="translate(0)">
        <rect id="Rectángulo_356225" data-name="Rectángulo 356225" width="2.077" height="5.221" transform="translate(2.077 5.221) rotate(180)" fill="#562e0a"/>
      </g>
    </g>
    <g id="Grupo_1019849" data-name="Grupo 1019849" transform="translate(3.963 0)" opacity="0.48">
      <g id="Grupo_1019848" data-name="Grupo 1019848" transform="translate(0)">
        <rect id="Rectángulo_356226" data-name="Rectángulo 356226" width="2.077" height="5.221" transform="translate(2.077 5.221) rotate(180)" fill="#562e0a"/>
      </g>
    </g>
    <g id="Grupo_1019851" data-name="Grupo 1019851" transform="translate(15.205 16.325)" opacity="0.48">
      <g id="Grupo_1019850" data-name="Grupo 1019850" transform="translate(0 0)">
        <rect id="Rectángulo_356227" data-name="Rectángulo 356227" width="2.077" height="5.221" transform="translate(2.077 5.221) rotate(180)" fill="#562e0a"/>
      </g>
    </g>
    <g id="Grupo_1019853" data-name="Grupo 1019853" transform="translate(3.963 16.325)" opacity="0.48">
      <g id="Grupo_1019852" data-name="Grupo 1019852" transform="translate(0 0)">
        <rect id="Rectángulo_356228" data-name="Rectángulo 356228" width="2.077" height="5.221" transform="translate(2.077 5.221) rotate(180)" fill="#562e0a"/>
      </g>
    </g>
    <g id="Grupo_1019855" data-name="Grupo 1019855" transform="translate(1.737 11.827)">
      <g id="Grupo_1019854" data-name="Grupo 1019854" transform="translate(0)">
        <rect id="Rectángulo_356229" data-name="Rectángulo 356229" width="7.965" height="2.763" transform="translate(7.965 2.763) rotate(180)" fill="#fff"/>
      </g>
    </g>
    <g id="Grupo_1019857" data-name="Grupo 1019857" transform="translate(2.51 12.331)" opacity="0.27">
      <g id="Grupo_1019856" data-name="Grupo 1019856">
        <path id="Trazado_749126" data-name="Trazado 749126" d="M459.2,1269.9h6.688v.1H459.2v-.1Z" transform="translate(-459.2 -1269.9)"/>
      </g>
    </g>
    <g id="Grupo_1019859" data-name="Grupo 1019859" transform="translate(2.51 12.655)" opacity="0.27">
      <g id="Grupo_1019858" data-name="Grupo 1019858">
        <path id="Trazado_749127" data-name="Trazado 749127" d="M459.2,1271.6h6.688v.1H459.2v-.1Z" transform="translate(-459.2 -1271.6)"/>
      </g>
    </g>
    <g id="Grupo_1019861" data-name="Grupo 1019861" transform="translate(2.51 12.998)" opacity="0.27">
      <g id="Grupo_1019860" data-name="Grupo 1019860">
        <path id="Trazado_749128" data-name="Trazado 749128" d="M459.2,1273.4h6.688v.1H459.2v-.1Z" transform="translate(-459.2 -1273.4)"/>
      </g>
    </g>
    <g id="Grupo_1019863" data-name="Grupo 1019863" transform="translate(5.178 13.303)" opacity="0.27">
      <g id="Grupo_1019862" data-name="Grupo 1019862">
        <path id="Trazado_749129" data-name="Trazado 749129" d="M473.257,1275h3.906a.191.191,0,0,1,.057.019v.038s-.019.057-.057.057h-3.906a.193.193,0,0,1-.057-.019v-.038C473.219,1275.057,473.238,1275,473.257,1275Z" transform="translate(-473.2 -1275)"/>
      </g>
    </g>
  </g>
  <g id="Grupo_1019887" data-name="Grupo 1019887" transform="translate(78.364 15.39)">
    <g id="Grupo_1019866" data-name="Grupo 1019866" transform="translate(0 0.013)">
      <g id="Grupo_1019865" data-name="Grupo 1019865" transform="translate(0 0)">
        <rect id="Rectángulo_356230" data-name="Rectángulo 356230" width="33.325" height="21.569" transform="translate(33.325 21.569) rotate(180)" fill="#ffeae7"/>
      </g>
    </g>
    <g id="Grupo_1019868" data-name="Grupo 1019868" transform="translate(21.205 0.024)" opacity="0.62">
      <g id="Grupo_1019867" data-name="Grupo 1019867">
        <rect id="Rectángulo_356231" data-name="Rectángulo 356231" width="12.099" height="21.436" transform="translate(12.099 21.436) rotate(180)" fill="#ffcdc8"/>
      </g>
    </g>
    <g id="Grupo_1019870" data-name="Grupo 1019870" transform="translate(15.205 0)" opacity="0.48">
      <g id="Grupo_1019869" data-name="Grupo 1019869" transform="translate(0)">
        <rect id="Rectángulo_356232" data-name="Rectángulo 356232" width="2.077" height="5.221" transform="translate(2.077 5.221) rotate(180)" fill="#562e0a"/>
      </g>
    </g>
    <g id="Grupo_1019872" data-name="Grupo 1019872" transform="translate(3.963 0)" opacity="0.48">
      <g id="Grupo_1019871" data-name="Grupo 1019871" transform="translate(0)">
        <rect id="Rectángulo_356233" data-name="Rectángulo 356233" width="2.077" height="5.221" transform="translate(2.077 5.221) rotate(180)" fill="#562e0a"/>
      </g>
    </g>
    <g id="Grupo_1019874" data-name="Grupo 1019874" transform="translate(15.205 16.325)" opacity="0.48">
      <g id="Grupo_1019873" data-name="Grupo 1019873" transform="translate(0 0)">
        <rect id="Rectángulo_356234" data-name="Rectángulo 356234" width="2.077" height="5.221" transform="translate(2.077 5.221) rotate(180)" fill="#562e0a"/>
      </g>
    </g>
    <g id="Grupo_1019876" data-name="Grupo 1019876" transform="translate(3.963 16.325)" opacity="0.48">
      <g id="Grupo_1019875" data-name="Grupo 1019875" transform="translate(0 0)">
        <rect id="Rectángulo_356235" data-name="Rectángulo 356235" width="2.077" height="5.221" transform="translate(2.077 5.221) rotate(180)" fill="#562e0a"/>
      </g>
    </g>
    <g id="Grupo_1019878" data-name="Grupo 1019878" transform="translate(1.756 11.846)">
      <g id="Grupo_1019877" data-name="Grupo 1019877" transform="translate(0)">
        <rect id="Rectángulo_356236" data-name="Rectángulo 356236" width="7.965" height="2.763" transform="translate(7.965 2.763) rotate(180)" fill="#fff"/>
      </g>
    </g>
    <g id="Grupo_1019880" data-name="Grupo 1019880" transform="translate(2.501 12.348)" opacity="0.27">
      <g id="Grupo_1019879" data-name="Grupo 1019879">
        <path id="Trazado_749130" data-name="Trazado 749130" d="M511.657,1157.2h6.593a.192.192,0,0,1,.057.019v.038a.061.061,0,0,1-.057.057h-6.593a.061.061,0,0,1-.057-.057v-.019C511.619,1157.257,511.638,1157.2,511.657,1157.2Z" transform="translate(-511.6 -1157.2)"/>
      </g>
    </g>
    <g id="Grupo_1019882" data-name="Grupo 1019882" transform="translate(2.501 12.672)" opacity="0.27">
      <g id="Grupo_1019881" data-name="Grupo 1019881">
        <path id="Trazado_749131" data-name="Trazado 749131" d="M511.657,1158.9h6.593a.061.061,0,0,1,.057.057v.019s-.019.057-.057.057h-6.593a.192.192,0,0,1-.057-.019v-.038C511.619,1158.919,511.638,1158.9,511.657,1158.9Z" transform="translate(-511.6 -1158.9)"/>
      </g>
    </g>
    <g id="Grupo_1019884" data-name="Grupo 1019884" transform="translate(2.52 13.015)" opacity="0.27">
      <g id="Grupo_1019883" data-name="Grupo 1019883">
        <path id="Trazado_749132" data-name="Trazado 749132" d="M511.7,1160.7h6.688v.1H511.7v-.1Z" transform="translate(-511.7 -1160.7)"/>
      </g>
    </g>
    <g id="Grupo_1019886" data-name="Grupo 1019886" transform="translate(5.187 13.32)" opacity="0.27">
      <g id="Grupo_1019885" data-name="Grupo 1019885">
        <path id="Trazado_749133" data-name="Trazado 749133" d="M525.7,1162.3h4v.1h-4v-.1Z" transform="translate(-525.7 -1162.3)"/>
      </g>
    </g>
  </g>
  <g id="Grupo_1019910" data-name="Grupo 1019910" transform="translate(89.607 36.88)">
    <g id="Grupo_1019889" data-name="Grupo 1019889" transform="translate(0 0.013)">
      <g id="Grupo_1019888" data-name="Grupo 1019888" transform="translate(0 0)">
        <rect id="Rectángulo_356237" data-name="Rectángulo 356237" width="33.325" height="21.569" transform="translate(33.325 21.569) rotate(180)" fill="#eaab2d"/>
      </g>
    </g>
    <g id="Grupo_1019891" data-name="Grupo 1019891" transform="translate(21.186 0.024)" opacity="0.62">
      <g id="Grupo_1019890" data-name="Grupo 1019890">
        <rect id="Rectángulo_356238" data-name="Rectángulo 356238" width="12.099" height="21.436" transform="translate(12.099 21.436) rotate(180)" fill="#ffcdc8"/>
      </g>
    </g>
    <g id="Grupo_1019893" data-name="Grupo 1019893" transform="translate(15.186 0)" opacity="0.48">
      <g id="Grupo_1019892" data-name="Grupo 1019892" transform="translate(0)">
        <rect id="Rectángulo_356239" data-name="Rectángulo 356239" width="2.077" height="5.221" transform="translate(2.077 5.221) rotate(180)" fill="#562e0a"/>
      </g>
    </g>
    <g id="Grupo_1019895" data-name="Grupo 1019895" transform="translate(3.944 0)" opacity="0.48">
      <g id="Grupo_1019894" data-name="Grupo 1019894" transform="translate(0)">
        <rect id="Rectángulo_356240" data-name="Rectángulo 356240" width="2.077" height="5.221" transform="translate(2.077 5.221) rotate(180)" fill="#562e0a"/>
      </g>
    </g>
    <g id="Grupo_1019897" data-name="Grupo 1019897" transform="translate(15.186 16.325)" opacity="0.48">
      <g id="Grupo_1019896" data-name="Grupo 1019896" transform="translate(0 0)">
        <rect id="Rectángulo_356241" data-name="Rectángulo 356241" width="2.077" height="5.221" transform="translate(2.077 5.221) rotate(180)" fill="#562e0a"/>
      </g>
    </g>
    <g id="Grupo_1019899" data-name="Grupo 1019899" transform="translate(3.944 16.325)" opacity="0.48">
      <g id="Grupo_1019898" data-name="Grupo 1019898" transform="translate(0 0)">
        <rect id="Rectángulo_356242" data-name="Rectángulo 356242" width="2.077" height="5.221" transform="translate(2.077 5.221) rotate(180)" fill="#562e0a"/>
      </g>
    </g>
    <g id="Grupo_1019901" data-name="Grupo 1019901" transform="translate(1.737 11.827)">
      <g id="Grupo_1019900" data-name="Grupo 1019900" transform="translate(0)">
        <rect id="Rectángulo_356243" data-name="Rectángulo 356243" width="7.965" height="2.763" transform="translate(7.965 2.763) rotate(180)" fill="#fff"/>
      </g>
    </g>
    <g id="Grupo_1019903" data-name="Grupo 1019903" transform="translate(2.499 12.331)" opacity="0.27">
      <g id="Grupo_1019902" data-name="Grupo 1019902">
        <path id="Trazado_749134" data-name="Trazado 749134" d="M570.657,1269.9h6.593a.061.061,0,0,1,.057.057v.019a.061.061,0,0,1-.057.057h-6.593s-.057-.019-.057-.057v-.019A.061.061,0,0,1,570.657,1269.9Z" transform="translate(-570.6 -1269.9)"/>
      </g>
    </g>
    <g id="Grupo_1019905" data-name="Grupo 1019905" transform="translate(2.499 12.655)" opacity="0.27">
      <g id="Grupo_1019904" data-name="Grupo 1019904">
        <path id="Trazado_749135" data-name="Trazado 749135" d="M570.657,1271.6h6.593a.061.061,0,0,1,.057.057v.019a.061.061,0,0,1-.057.057h-6.593s-.057-.019-.057-.057v-.019A.051.051,0,0,1,570.657,1271.6Z" transform="translate(-570.6 -1271.6)"/>
      </g>
    </g>
    <g id="Grupo_1019907" data-name="Grupo 1019907" transform="translate(2.499 12.998)" opacity="0.27">
      <g id="Grupo_1019906" data-name="Grupo 1019906">
        <path id="Trazado_749136" data-name="Trazado 749136" d="M570.657,1273.4h6.593a.061.061,0,0,1,.057.057v.019a.061.061,0,0,1-.057.057h-6.593s-.057-.019-.057-.057v-.019A.051.051,0,0,1,570.657,1273.4Z" transform="translate(-570.6 -1273.4)"/>
      </g>
    </g>
    <g id="Grupo_1019909" data-name="Grupo 1019909" transform="translate(5.167 13.303)" opacity="0.27">
      <g id="Grupo_1019908" data-name="Grupo 1019908">
        <path id="Trazado_749137" data-name="Trazado 749137" d="M584.657,1275h3.906a.192.192,0,0,1,.057.019v.038s-.019.057-.057.057h-3.906l-.057-.057v-.019Z" transform="translate(-584.6 -1275)"/>
      </g>
    </g>
  </g>
  <g id="Grupo_1019927" data-name="Grupo 1019927" transform="translate(17.434 14.458)">
    <g id="Grupo_1019912" data-name="Grupo 1019912" transform="translate(13.281 54.666)">
      <g id="Grupo_1019911" data-name="Grupo 1019911">
        <rect id="Rectángulo_356244" data-name="Rectángulo 356244" width="25.418" height="8.708" fill="#63637e"/>
      </g>
    </g>
    <g id="Grupo_1019914" data-name="Grupo 1019914" transform="translate(2.878 2.306)">
      <g id="Grupo_1019913" data-name="Grupo 1019913">
        <path id="Trazado_749138" data-name="Trazado 749138" d="M193.8,1099.6h25.78l13.7,13.7,6.726,23.951v7.85H193.8Z" transform="translate(-193.8 -1099.6)" fill="#ffeae7"/>
      </g>
    </g>
    <g id="Grupo_1019916" data-name="Grupo 1019916" transform="translate(2.878 47.787)">
      <g id="Grupo_1019915" data-name="Grupo 1019915">
        <path id="Trazado_749139" data-name="Trazado 749139" d="M240.025,1338.3H193.8l7.831,8.1h30.562Z" transform="translate(-193.8 -1338.3)" fill="#63637e"/>
      </g>
    </g>
    <g id="Grupo_1019921" data-name="Grupo 1019921" transform="translate(17.073 4.973)">
      <g id="Grupo_1019918" data-name="Grupo 1019918" clip-path="url(#clip-path)">
        <g id="Grupo_1019917" data-name="Grupo 1019917" transform="translate(-13.242 -10.67)">
          <rect id="Rectángulo_356245" data-name="Rectángulo 356245" width="50.15" height="60.82" fill="#91b3fa"/>
        </g>
      </g>
      <g id="Grupo_1019920" data-name="Grupo 1019920" opacity="0.59" clip-path="url(#clip-path)">
        <g id="Grupo_1019919" data-name="Grupo 1019919" transform="translate(-8.117 1.403)">
          <path id="Trazado_749141" data-name="Trazado 749141" d="M262.569,1124.246a29.8,29.8,0,0,0-11.775,4.5c-1.658,1.086-3.392,2.953-2.648,4.8.534,1.334,2.153,1.905,3.011,3.068a4.334,4.334,0,0,1-.5,5.03,12.733,12.733,0,0,1-4.4,3.106q-8.431,4.287-16.863,8.555a.554.554,0,0,1-.534.076.729.729,0,0,1-.229-.343c-.972-2.8-1.963-5.6-2.934-8.422a59.449,59.449,0,0,0,15.11-4.135c1.143-.476,2.4-1.162,2.668-2.382.381-1.848-1.772-3.144-2.591-4.84-.838-1.772-.076-3.982,1.277-5.411a18.648,18.648,0,0,1,4.916-3.239c2.572-1.391,5.106-3.03,8-3.525C257.92,1120.588,261.331,1121.6,262.569,1124.246Z" transform="translate(-225.7 -1120.961)" fill="#fff"/>
        </g>
      </g>
    </g>
    <g id="Grupo_1019924" data-name="Grupo 1019924" transform="translate(5.336 4.973)">
      <g id="Grupo_1019923" data-name="Grupo 1019923" clip-path="url(#clip-path-3)">
        <g id="Grupo_1019922" data-name="Grupo 1019922" transform="translate(-18.921 -11.013)">
          <rect id="Rectángulo_356246" data-name="Rectángulo 356246" width="50.15" height="60.82" fill="#91b3fa"/>
        </g>
      </g>
    </g>
    <g id="Grupo_1019926" data-name="Grupo 1019926">
      <g id="Grupo_1019925" data-name="Grupo 1019925">
        <path id="Trazado_749143" data-name="Trazado 749143" d="M221.76,1105.01a1.4,1.4,0,0,1-1.01-.438l-13.509-14.29-27.133.343h-.019a1.391,1.391,0,0,1-.019-2.782l27.742-.343a1.681,1.681,0,0,1,1.029.438l13.928,14.748a1.371,1.371,0,0,1-1.01,2.325Z" transform="translate(-178.698 -1087.5)" fill="#0f0957"/>
      </g>
    </g>
  </g>
  <g id="Grupo_1019929" data-name="Grupo 1019929" transform="translate(9.756 61.216)">
    <g id="Grupo_1019928" data-name="Grupo 1019928">
      <path id="Trazado_749144" data-name="Trazado 749144" d="M212.939,1353.4H138.4v-19.473a1.025,1.025,0,0,1,1.029-1.029h73.51Z" transform="translate(-138.4 -1332.9)" fill="#eaab2d"/>
    </g>
  </g>
  <g id="Grupo_1019931" data-name="Grupo 1019931" transform="translate(9.861 78.361)">
    <g id="Grupo_1019930" data-name="Grupo 1019930" transform="translate(0 0)">
      <rect id="Rectángulo_356248" data-name="Rectángulo 356248" width="80.084" height="10.746" transform="translate(80.084 10.746) rotate(180)" fill="#5f586d"/>
    </g>
  </g>
  <g id="Grupo_1019933" data-name="Grupo 1019933" transform="translate(74.213 57.947)">
    <g id="Grupo_1019932" data-name="Grupo 1019932" transform="translate(0 0)">
      <rect id="Rectángulo_356249" data-name="Rectángulo 356249" width="50.569" height="3.258" transform="translate(50.569 3.258) rotate(180)" fill="#9696ad"/>
    </g>
  </g>
  <g id="Grupo_1019935" data-name="Grupo 1019935" transform="translate(71.169 0)">
    <g id="Grupo_1019934" data-name="Grupo 1019934" transform="translate(0)">
      <rect id="Rectángulo_356250" data-name="Rectángulo 356250" width="6.726" height="78.997" transform="translate(6.726 78.997) rotate(180)" fill="#5f586d"/>
    </g>
  </g>
  <g id="Grupo_1019937" data-name="Grupo 1019937" transform="translate(20.159 63.883)">
    <g id="Grupo_1019936" data-name="Grupo 1019936">
      <path id="Trazado_749145" data-name="Trazado 749145" d="M193.019,1347.891h17.187a.019.019,0,0,0,.019-.019v-.953a.019.019,0,0,0-.019-.019H193.019a.019.019,0,0,0-.019.019v.953A.019.019,0,0,0,193.019,1347.891Z" transform="translate(-193 -1346.9)" fill="#63637e"/>
    </g>
  </g>
  <g id="Grupo_1019939" data-name="Grupo 1019939" transform="translate(20.159 66.151)">
    <g id="Grupo_1019938" data-name="Grupo 1019938">
      <path id="Trazado_749146" data-name="Trazado 749146" d="M193.019,1359.791h17.187a.019.019,0,0,0,.019-.019v-.953a.019.019,0,0,0-.019-.019H193.019a.019.019,0,0,0-.019.019v.953A.019.019,0,0,0,193.019,1359.791Z" transform="translate(-193 -1358.8)" fill="#63637e"/>
    </g>
  </g>
  <g id="Grupo_1019941" data-name="Grupo 1019941" transform="translate(20.159 68.19)">
    <g id="Grupo_1019940" data-name="Grupo 1019940">
      <path id="Trazado_749147" data-name="Trazado 749147" d="M193.019,1370.491h17.187a.019.019,0,0,0,.019-.019v-.953a.019.019,0,0,0-.019-.019H193.019a.019.019,0,0,0-.019.019v.953C193,1370.491,193,1370.491,193.019,1370.491Z" transform="translate(-193 -1369.5)" fill="#63637e"/>
    </g>
  </g>
  <g id="Grupo_1019943" data-name="Grupo 1019943" transform="translate(0 68.59)">
    <g id="Grupo_1019942" data-name="Grupo 1019942">
      <path id="Trazado_749148" data-name="Trazado 749148" d="M87.276,1392.2c-.038-.515-.076-1.048-.076-1.581a19.016,19.016,0,1,1,38.032,0c0,.533-.038,1.067-.076,1.581Z" transform="translate(-87.2 -1371.6)" fill="#ffeae7"/>
    </g>
  </g>
  <g id="Grupo_1019951" data-name="Grupo 1019951" transform="translate(3.71 71.553)">
    <g id="Grupo_1019945" data-name="Grupo 1019945" transform="translate(0 0)">
      <g id="Grupo_1019944" data-name="Grupo 1019944">
        <circle id="Elipse_8506" data-name="Elipse 8506" cx="13.395" cy="13.395" r="13.395" transform="translate(0 4.292) rotate(-9.218)" fill="#0f0957"/>
      </g>
    </g>
    <g id="Grupo_1019947" data-name="Grupo 1019947" transform="translate(4.657 4.661)">
      <g id="Grupo_1019946" data-name="Grupo 1019946" transform="translate(0 0)">
        <circle id="Elipse_8507" data-name="Elipse 8507" cx="8.193" cy="8.193" r="8.193" transform="translate(0 15.139) rotate(-67.5)" fill="#91b3fa"/>
      </g>
    </g>
    <g id="Grupo_1019950" data-name="Grupo 1019950" transform="translate(8.263 8.263)" opacity="0.42">
      <g id="Grupo_1019949" data-name="Grupo 1019949" transform="translate(0 0)">
        <g id="Grupo_1019948" data-name="Grupo 1019948">
          <circle id="Elipse_8508" data-name="Elipse 8508" cx="6.193" cy="6.193" r="6.193" transform="translate(0 1.984) rotate(-9.218)" fill="#7c98d6"/>
        </g>
      </g>
    </g>
  </g>
  <g id="Grupo_1019953" data-name="Grupo 1019953" transform="translate(38.565 68.59)">
    <g id="Grupo_1019952" data-name="Grupo 1019952">
      <path id="Trazado_749149" data-name="Trazado 749149" d="M289.676,1392.2c-.038-.515-.076-1.048-.076-1.581a19.016,19.016,0,1,1,38.032,0c0,.533-.038,1.067-.076,1.581Z" transform="translate(-289.6 -1371.6)" fill="#ffeae7"/>
    </g>
  </g>
  <g id="Grupo_1019961" data-name="Grupo 1019961" transform="translate(41.514 70.79)">
    <g id="Grupo_1019955" data-name="Grupo 1019955" transform="translate(0 0)">
      <g id="Grupo_1019954" data-name="Grupo 1019954">
        <circle id="Elipse_8509" data-name="Elipse 8509" cx="13.395" cy="13.395" r="13.395" transform="translate(0 6.156) rotate(-13.286)" fill="#0f0957"/>
      </g>
    </g>
    <g id="Grupo_1019957" data-name="Grupo 1019957" transform="translate(5.408 5.437)">
      <g id="Grupo_1019956" data-name="Grupo 1019956" transform="translate(0 0)">
        <circle id="Elipse_8510" data-name="Elipse 8510" cx="8.193" cy="8.193" r="8.193" transform="translate(0 15.139) rotate(-67.5)" fill="#91b3fa"/>
      </g>
    </g>
    <g id="Grupo_1019960" data-name="Grupo 1019960" transform="translate(9.006 9.028)" opacity="0.42">
      <g id="Grupo_1019959" data-name="Grupo 1019959" transform="translate(0 0)">
        <g id="Grupo_1019958" data-name="Grupo 1019958">
          <circle id="Elipse_8511" data-name="Elipse 8511" cx="6.193" cy="6.193" r="6.193" transform="translate(0 1.984) rotate(-9.218)" fill="#7c98d6"/>
        </g>
      </g>
    </g>
  </g>
</svg>
