<svg id="Grupo_1019635" data-name="Grupo 1019635" xmlns="http://www.w3.org/2000/svg" width="37.794" height="39.408" viewBox="0 0 37.794 39.408">
  <g id="Grupo_1019634" data-name="Grupo 1019634" transform="translate(0 0)">
    <g id="Grupo_1019633" data-name="Grupo 1019633">
      <path id="Trazado_749075" data-name="Trazado 749075" d="M798.492,341.785a.5.5,0,0,1-.133-.019l-4.287-1.029a.55.55,0,0,1-.419-.533l.038-4.954a15.011,15.011,0,0,1-3.258-2.744l-4.02,1.391a.579.579,0,0,1-.667-.248l-2.229-3.925a.546.546,0,0,1,.1-.667l3.277-3.163a15.4,15.4,0,0,1-.5-4.668l-3.544-1.715a.563.563,0,0,1-.3-.629l1.01-4.44a.51.51,0,0,1,.553-.438l4.287.057a14.764,14.764,0,0,1,2.8-3.582h0l-1.124-4a.53.53,0,0,1,.267-.629l3.849-2.191a.559.559,0,0,1,.7.133l2.648,3.22a14.469,14.469,0,0,1,4.344-.438l2.172-3.906a.564.564,0,0,1,.648-.267l4.192,1.353a.556.556,0,0,1,.381.572l-.4,4.44a15.309,15.309,0,0,1,3.449,2.915l4.154-1.315a.554.554,0,0,1,.648.267l2.172,3.963a.55.55,0,0,1-.114.667l-3.411,3.125a15.77,15.77,0,0,1,.457,4.211l3.811,2.191a.563.563,0,0,1,.267.629l-1.239,4.363a.537.537,0,0,1-.572.4l-4.23-.343a15.167,15.167,0,0,1-2.706,3.563l1.353,4.1a.569.569,0,0,1-.229.648l-3.773,2.325a.579.579,0,0,1-.705-.1l-3.068-3.354a13.808,13.808,0,0,1-4.4.457l-1.791,3.982A.453.453,0,0,1,798.492,341.785Zm-3.735-2.02,3.411.819,1.753-3.925a.539.539,0,0,1,.553-.324,13.7,13.7,0,0,0,4.725-.5.534.534,0,0,1,.553.152l2.972,3.258,3.01-1.867-1.334-4.02a.57.57,0,0,1,.152-.591,14.024,14.024,0,0,0,2.9-3.811.511.511,0,0,1,.534-.286l4.135.324.991-3.525-3.734-2.134a.6.6,0,0,1-.286-.514,14.677,14.677,0,0,0-.5-4.535.588.588,0,0,1,.152-.553l3.334-3.049-1.753-3.182-4.078,1.3a.544.544,0,0,1-.591-.171l-.21-.267a14.032,14.032,0,0,0-3.468-2.877.559.559,0,0,1-.267-.534l.4-4.344-3.353-1.086-2.115,3.811a.574.574,0,0,1-.534.286,13.816,13.816,0,0,0-4.668.457.507.507,0,0,1-.572-.171l-2.591-3.125-3.087,1.753,1.105,3.925a.508.508,0,0,1-.171.553l-.248.21a13.871,13.871,0,0,0-2.744,3.6.569.569,0,0,1-.5.286h0l-4.173-.057-.819,3.563,3.468,1.7a.525.525,0,0,1,.3.534,15.286,15.286,0,0,0,.533,4.992.556.556,0,0,1-.152.553l-3.106,3.163,1.791,3.144,3.944-1.372a.542.542,0,0,1,.61.172l-.324.476.419-.362a14.323,14.323,0,0,0,3.411,2.839.543.543,0,0,1,.267.476Zm6.8-6.9a10.531,10.531,0,0,1-7.926-3.658,11.158,11.158,0,0,1,.61-15.376,10.18,10.18,0,0,1,6.955-2.763,10.531,10.531,0,0,1,7.926,3.658,11.177,11.177,0,0,1-.61,15.376A10.146,10.146,0,0,1,801.56,332.867Zm-.362-20.693a9.048,9.048,0,0,0-6.193,2.458,10.052,10.052,0,0,0-.534,13.833,9.475,9.475,0,0,0,7.088,3.277,9.048,9.048,0,0,0,6.193-2.458,10.052,10.052,0,0,0,.534-13.833A9.444,9.444,0,0,0,801.2,312.175Z" transform="translate(-782.531 -302.377)" fill="#0f0957"/>
    </g>
  </g>
</svg>
