<svg xmlns="http://www.w3.org/2000/svg" width="306.183" height="161.146" viewBox="0 0 306.183 161.146">
  <g id="Grupo_1020150" data-name="Grupo 1020150" transform="translate(-378.143 -1830.854)">
    <g id="Layer_1" data-name="Layer 1" transform="translate(378.143 1830.854)">
      <g id="Grupo_1019242" data-name="Grupo 1019242">
        <rect id="Rectángulo_355919" data-name="Rectángulo 355919" width="306.183" height="161.146" fill="#fff"/>
        <g id="Grupo_1019241" data-name="Grupo 1019241" transform="translate(15.252 22.304)">
          <path id="Trazado_748476" data-name="Trazado 748476" d="M297.319,215.628s-13.164.019-33.239.062c-58.783.105-176.878.3-197.477.2-27.643-.129-46.766-71.657,4.921-66.8,56.14,5.265,15.08-26.948,48.148-32.287,35.991-5.823,43.246,16.567,69.09,7.415,35.327-12.512,54.513-8.157,66.81.976,13.484,10.018,18.655,25.781,27.705,31.292q.3.193.609.351c17.593,9.632,25.555,18.952,28.158,27.225,5.8,18.354-14.725,31.557-14.725,31.557Z" transform="translate(-39.082 -92.927)" fill="#d8e4fd"/>
          <path id="Trazado_748477" data-name="Trazado 748477" d="M440.9,171.136,307.55,193.81l-9.96-11.942,115.6-42.028c13.488,10.018,18.659,25.777,27.713,31.292Z" transform="translate(-196.702 -107.569)" fill="#eff4ff"/>
          <path id="Trazado_748478" data-name="Trazado 748478" d="M277.88,147.84,145.918,190.364c3.887-2.833-5.054-18.2.2-23.3Z" transform="translate(-103.305 -112.446)" fill="#eff4ff"/>
          <path id="Trazado_748479" data-name="Trazado 748479" d="M523.021,129.46a3.181,3.181,0,1,0,3.181,3.181A3.181,3.181,0,0,0,523.021,129.46Z" transform="translate(-332.214 -101.24)" fill="#eff4ff"/>
          <g id="Grupo_1019217" data-name="Grupo 1019217" transform="translate(52.526 38.578)">
            <g id="Grupo_1019182" data-name="Grupo 1019182" transform="translate(97.111 0)">
              <rect id="Rectángulo_355920" data-name="Rectángulo 355920" width="15.057" height="73.219" transform="translate(0 0.023)" fill="#afabd8"/>
              <rect id="Rectángulo_355921" data-name="Rectángulo 355921" width="15.057" height="73.219" transform="translate(3.38 0.023)" fill="#dcdbef"/>
              <rect id="Rectángulo_355922" data-name="Rectángulo 355922" width="15.72" height="4.231" transform="translate(18.436 4.231) rotate(180)" fill="#afabd8"/>
              <rect id="Rectángulo_355923" data-name="Rectángulo 355923" width="15.72" height="4.231" transform="translate(18.436 13.41) rotate(180)" fill="#afabd8"/>
              <rect id="Rectángulo_355924" data-name="Rectángulo 355924" width="15.053" height="4.231" transform="translate(18.436 22.585) rotate(180)" fill="#c4d9ed"/>
              <rect id="Rectángulo_355925" data-name="Rectángulo 355925" width="15.053" height="4.231" transform="translate(18.436 31.764) rotate(180)" fill="#c4d9ed"/>
              <rect id="Rectángulo_355926" data-name="Rectángulo 355926" width="15.053" height="4.231" transform="translate(18.436 40.935) rotate(180)" fill="#c4d9ed"/>
              <rect id="Rectángulo_355927" data-name="Rectángulo 355927" width="15.053" height="4.231" transform="translate(18.436 50.115) rotate(180)" fill="#c4d9ed"/>
              <rect id="Rectángulo_355928" data-name="Rectángulo 355928" width="15.053" height="4.231" transform="translate(18.436 59.29) rotate(180)" fill="#c4d9ed"/>
              <rect id="Rectángulo_355929" data-name="Rectángulo 355929" width="15.053" height="4.231" transform="translate(18.436 68.469) rotate(180)" fill="#c4d9ed"/>
            </g>
            <g id="Grupo_1019183" data-name="Grupo 1019183" transform="translate(121.179 10.366)">
              <rect id="Rectángulo_355930" data-name="Rectángulo 355930" width="15.057" height="62.857" transform="translate(0 0.016)" fill="#afabd8"/>
              <rect id="Rectángulo_355931" data-name="Rectángulo 355931" width="15.057" height="62.857" transform="translate(3.38 0.016)" fill="#dcdbef"/>
              <rect id="Rectángulo_355932" data-name="Rectángulo 355932" width="15.81" height="3.633" transform="translate(18.436 3.633) rotate(180)" fill="#afabd8"/>
              <rect id="Rectángulo_355933" data-name="Rectángulo 355933" width="15.81" height="3.633" transform="translate(18.436 11.509) rotate(180)" fill="#afabd8"/>
              <rect id="Rectángulo_355934" data-name="Rectángulo 355934" width="15.81" height="3.633" transform="translate(18.436 19.389) rotate(180)" fill="#afabd8"/>
              <rect id="Rectángulo_355935" data-name="Rectángulo 355935" width="15.81" height="3.633" transform="translate(18.436 27.264) rotate(180)" fill="#afabd8"/>
              <rect id="Rectángulo_355936" data-name="Rectángulo 355936" width="15.053" height="3.633" transform="translate(18.44 35.144) rotate(180)" fill="#afabd8"/>
              <rect id="Rectángulo_355937" data-name="Rectángulo 355937" width="15.053" height="3.633" transform="translate(18.44 43.02) rotate(180)" fill="#afabd8"/>
              <rect id="Rectángulo_355938" data-name="Rectángulo 355938" width="15.053" height="3.633" transform="translate(18.44 50.899) rotate(180)" fill="#c4d9ed"/>
              <rect id="Rectángulo_355939" data-name="Rectángulo 355939" width="15.053" height="3.633" transform="translate(18.44 58.775) rotate(180)" fill="#c4d9ed"/>
            </g>
            <rect id="Rectángulo_355940" data-name="Rectángulo 355940" width="6.307" height="9.195" transform="translate(95.265 80.185) rotate(180)" fill="#dceaf9"/>
            <rect id="Rectángulo_355941" data-name="Rectángulo 355941" width="37.466" height="20.212" transform="translate(64.773 83.811) rotate(180)" fill="#afabd8"/>
            <rect id="Rectángulo_355942" data-name="Rectángulo 355942" width="37.466" height="10.104" transform="translate(93.181 83.811) rotate(180)" fill="#afabd8"/>
            <path id="Trazado_748480" data-name="Trazado 748480" d="M197.972,327.024v17.063h-17.7c-.016-.023-.031-.055-.051-.09-.027-.051-.062-.105-.1-.172-.012-.023-.027-.047-.043-.074-.051-.09-.109-.191-.172-.308-.078-.14-.164-.3-.261-.484h0c-.359-.671-.835-1.6-1.374-2.763-.176-.379-.359-.784-.55-1.214-.074-.172-.152-.343-.226-.523h0q-.111-.258-.222-.527a.03.03,0,0,0-.008-.016c-.051-.121-.105-.246-.156-.375s-.109-.261-.164-.394c-.277-.687-.566-1.413-.847-2.182-.008-.019-.016-.039-.023-.062h0c-.187-.5-.371-1.023-.554-1.557-.1-.293-.2-.593-.3-.894a.3.3,0,0,0-.02-.055c-.043-.133-.086-.269-.133-.406-.035-.113-.074-.23-.109-.343-.074-.238-.148-.476-.222-.718q-.14-.468-.281-.948c-.125-.433-.246-.874-.367-1.323-.035-.133-.07-.269-.105-.406-.105-.406-.207-.816-.308-1.233h24.3Z" transform="translate(-173.67 -260.276)" fill="#afabd8"/>
            <rect id="Rectángulo_355943" data-name="Rectángulo 355943" width="3.594" height="20.384" transform="translate(27.697 83.982) rotate(180)" fill="#dcdbef"/>
            <g id="Grupo_1019194" data-name="Grupo 1019194" transform="translate(86.086 64.09)">
              <rect id="Rectángulo_355944" data-name="Rectángulo 355944" width="30.203" height="18.112" transform="translate(30.203 20.368) rotate(180)" fill="#afabd8"/>
              <rect id="Rectángulo_355945" data-name="Rectángulo 355945" width="25.723" height="5.624" transform="translate(25.727 5.624) rotate(180)" fill="#c4d9ed"/>
              <g id="Grupo_1019193" data-name="Grupo 1019193" transform="translate(1.276 7.286)">
                <g id="Grupo_1019186" data-name="Grupo 1019186" transform="translate(0 0)">
                  <g id="Grupo_1019184" data-name="Grupo 1019184" transform="translate(11.868)">
                    <rect id="Rectángulo_355946" data-name="Rectángulo 355946" width="1.323" height="1.862" transform="translate(10.83 1.862) rotate(180)" fill="#c4d9ed"/>
                    <rect id="Rectángulo_355947" data-name="Rectángulo 355947" width="1.323" height="1.862" transform="translate(8.36 1.862) rotate(180)" fill="#c4d9ed"/>
                    <rect id="Rectángulo_355948" data-name="Rectángulo 355948" width="1.323" height="1.862" transform="translate(5.944 1.862) rotate(180)" fill="#c4d9ed"/>
                    <rect id="Rectángulo_355949" data-name="Rectángulo 355949" width="1.319" height="1.862" transform="translate(3.657 1.862) rotate(180)" fill="#c4d9ed"/>
                    <rect id="Rectángulo_355950" data-name="Rectángulo 355950" width="1.323" height="1.862" transform="translate(1.323 1.862) rotate(180)" fill="#c4d9ed"/>
                  </g>
                  <g id="Grupo_1019185" data-name="Grupo 1019185">
                    <rect id="Rectángulo_355951" data-name="Rectángulo 355951" width="1.323" height="1.862" transform="translate(10.83 1.862) rotate(180)" fill="#c4d9ed"/>
                    <rect id="Rectángulo_355952" data-name="Rectángulo 355952" width="1.323" height="1.862" transform="translate(8.36 1.862) rotate(180)" fill="#c4d9ed"/>
                    <rect id="Rectángulo_355953" data-name="Rectángulo 355953" width="1.323" height="1.862" transform="translate(5.944 1.862) rotate(180)" fill="#c4d9ed"/>
                    <rect id="Rectángulo_355954" data-name="Rectángulo 355954" width="1.323" height="1.862" transform="translate(3.653 1.862) rotate(180)" fill="#c4d9ed"/>
                    <rect id="Rectángulo_355955" data-name="Rectángulo 355955" width="1.319" height="1.862" transform="translate(1.319 1.862) rotate(180)" fill="#c4d9ed"/>
                  </g>
                </g>
                <g id="Grupo_1019189" data-name="Grupo 1019189" transform="translate(0 3.286)">
                  <g id="Grupo_1019187" data-name="Grupo 1019187" transform="translate(11.868 0)">
                    <rect id="Rectángulo_355956" data-name="Rectángulo 355956" width="1.323" height="1.862" transform="translate(10.83 1.862) rotate(180)" fill="#c4d9ed"/>
                    <rect id="Rectángulo_355957" data-name="Rectángulo 355957" width="1.323" height="1.862" transform="translate(8.36 1.862) rotate(180)" fill="#c4d9ed"/>
                    <rect id="Rectángulo_355958" data-name="Rectángulo 355958" width="1.323" height="1.862" transform="translate(5.944 1.862) rotate(180)" fill="#c4d9ed"/>
                    <rect id="Rectángulo_355959" data-name="Rectángulo 355959" width="1.319" height="1.862" transform="translate(3.657 1.862) rotate(180)" fill="#c4d9ed"/>
                    <rect id="Rectángulo_355960" data-name="Rectángulo 355960" width="1.323" height="1.862" transform="translate(1.323 1.862) rotate(180)" fill="#c4d9ed"/>
                  </g>
                  <g id="Grupo_1019188" data-name="Grupo 1019188" transform="translate(0 0)">
                    <rect id="Rectángulo_355961" data-name="Rectángulo 355961" width="1.323" height="1.862" transform="translate(10.83 1.862) rotate(180)" fill="#c4d9ed"/>
                    <rect id="Rectángulo_355962" data-name="Rectángulo 355962" width="1.323" height="1.862" transform="translate(8.36 1.862) rotate(180)" fill="#c4d9ed"/>
                    <rect id="Rectángulo_355963" data-name="Rectángulo 355963" width="1.323" height="1.862" transform="translate(5.944 1.862) rotate(180)" fill="#c4d9ed"/>
                    <rect id="Rectángulo_355964" data-name="Rectángulo 355964" width="1.323" height="1.862" transform="translate(3.653 1.862) rotate(180)" fill="#c4d9ed"/>
                    <rect id="Rectángulo_355965" data-name="Rectángulo 355965" width="1.319" height="1.862" transform="translate(1.319 1.862) rotate(180)" fill="#c4d9ed"/>
                  </g>
                </g>
                <g id="Grupo_1019192" data-name="Grupo 1019192" transform="translate(0 6.525)">
                  <g id="Grupo_1019190" data-name="Grupo 1019190" transform="translate(11.868 0)">
                    <rect id="Rectángulo_355966" data-name="Rectángulo 355966" width="1.323" height="1.862" transform="translate(10.83 1.862) rotate(180)" fill="#c4d9ed"/>
                    <rect id="Rectángulo_355967" data-name="Rectángulo 355967" width="1.323" height="1.862" transform="translate(8.36 1.862) rotate(180)" fill="#c4d9ed"/>
                    <rect id="Rectángulo_355968" data-name="Rectángulo 355968" width="1.323" height="1.862" transform="translate(5.944 1.862) rotate(180)" fill="#c4d9ed"/>
                    <rect id="Rectángulo_355969" data-name="Rectángulo 355969" width="1.319" height="1.862" transform="translate(3.657 1.862) rotate(180)" fill="#c4d9ed"/>
                    <rect id="Rectángulo_355970" data-name="Rectángulo 355970" width="1.323" height="1.862" transform="translate(1.323 1.862) rotate(180)" fill="#c4d9ed"/>
                  </g>
                  <g id="Grupo_1019191" data-name="Grupo 1019191" transform="translate(0 0)">
                    <rect id="Rectángulo_355971" data-name="Rectángulo 355971" width="1.323" height="1.862" transform="translate(10.83 1.862) rotate(180)" fill="#c4d9ed"/>
                    <rect id="Rectángulo_355972" data-name="Rectángulo 355972" width="1.323" height="1.862" transform="translate(8.36 1.862) rotate(180)" fill="#c4d9ed"/>
                    <rect id="Rectángulo_355973" data-name="Rectángulo 355973" width="1.323" height="1.862" transform="translate(5.944 1.862) rotate(180)" fill="#c4d9ed"/>
                    <rect id="Rectángulo_355974" data-name="Rectángulo 355974" width="1.323" height="1.862" transform="translate(3.653 1.862) rotate(180)" fill="#c4d9ed"/>
                    <rect id="Rectángulo_355975" data-name="Rectángulo 355975" width="1.319" height="1.862" transform="translate(1.319 1.862) rotate(180)" fill="#c4d9ed"/>
                  </g>
                </g>
              </g>
              <rect id="Rectángulo_355976" data-name="Rectángulo 355976" width="1.108" height="1.92" transform="translate(23.764 3.501) rotate(180)" fill="#adc9e0"/>
              <rect id="Rectángulo_355977" data-name="Rectángulo 355977" width="1.108" height="1.92" transform="translate(12.742 3.501) rotate(180)" fill="#adc9e0"/>
              <rect id="Rectángulo_355978" data-name="Rectángulo 355978" width="1.108" height="1.92" transform="translate(3.977 3.501) rotate(180)" fill="#adc9e0"/>
            </g>
            <g id="Grupo_1019205" data-name="Grupo 1019205" transform="translate(113.428 64.09)">
              <rect id="Rectángulo_355979" data-name="Rectángulo 355979" width="25.723" height="18.112" transform="translate(25.723 20.368) rotate(180)" fill="#afabd8"/>
              <rect id="Rectángulo_355980" data-name="Rectángulo 355980" width="25.723" height="5.624" transform="translate(25.723 5.624) rotate(180)" fill="#c4d9ed"/>
              <g id="Grupo_1019204" data-name="Grupo 1019204" transform="translate(1.268 7.286)">
                <g id="Grupo_1019197" data-name="Grupo 1019197" transform="translate(0 0)">
                  <g id="Grupo_1019195" data-name="Grupo 1019195" transform="translate(11.872)">
                    <rect id="Rectángulo_355981" data-name="Rectángulo 355981" width="1.323" height="1.862" transform="translate(10.834 1.862) rotate(180)" fill="#c4d9ed"/>
                    <rect id="Rectángulo_355982" data-name="Rectángulo 355982" width="1.323" height="1.862" transform="translate(8.364 1.862) rotate(180)" fill="#c4d9ed"/>
                    <rect id="Rectángulo_355983" data-name="Rectángulo 355983" width="1.319" height="1.862" transform="translate(5.948 1.862) rotate(180)" fill="#c4d9ed"/>
                    <rect id="Rectángulo_355984" data-name="Rectángulo 355984" width="1.319" height="1.862" transform="translate(3.657 1.862) rotate(180)" fill="#c4d9ed"/>
                    <rect id="Rectángulo_355985" data-name="Rectángulo 355985" width="1.323" height="1.862" transform="translate(1.323 1.862) rotate(180)" fill="#c4d9ed"/>
                  </g>
                  <g id="Grupo_1019196" data-name="Grupo 1019196">
                    <rect id="Rectángulo_355986" data-name="Rectángulo 355986" width="1.323" height="1.862" transform="translate(10.834 1.862) rotate(180)" fill="#c4d9ed"/>
                    <rect id="Rectángulo_355987" data-name="Rectángulo 355987" width="1.319" height="1.862" transform="translate(8.363 1.862) rotate(180)" fill="#c4d9ed"/>
                    <rect id="Rectángulo_355988" data-name="Rectángulo 355988" width="1.319" height="1.862" transform="translate(5.948 1.862) rotate(180)" fill="#c4d9ed"/>
                    <rect id="Rectángulo_355989" data-name="Rectángulo 355989" width="1.323" height="1.862" transform="translate(3.657 1.862) rotate(180)" fill="#c4d9ed"/>
                    <rect id="Rectángulo_355990" data-name="Rectángulo 355990" width="1.323" height="1.862" transform="translate(1.323 1.862) rotate(180)" fill="#c4d9ed"/>
                  </g>
                </g>
                <g id="Grupo_1019200" data-name="Grupo 1019200" transform="translate(0 3.286)">
                  <g id="Grupo_1019198" data-name="Grupo 1019198" transform="translate(11.872 0)">
                    <rect id="Rectángulo_355991" data-name="Rectángulo 355991" width="1.323" height="1.862" transform="translate(10.834 1.862) rotate(180)" fill="#c4d9ed"/>
                    <rect id="Rectángulo_355992" data-name="Rectángulo 355992" width="1.323" height="1.862" transform="translate(8.364 1.862) rotate(180)" fill="#c4d9ed"/>
                    <rect id="Rectángulo_355993" data-name="Rectángulo 355993" width="1.319" height="1.862" transform="translate(5.948 1.862) rotate(180)" fill="#c4d9ed"/>
                    <rect id="Rectángulo_355994" data-name="Rectángulo 355994" width="1.319" height="1.862" transform="translate(3.657 1.862) rotate(180)" fill="#c4d9ed"/>
                    <rect id="Rectángulo_355995" data-name="Rectángulo 355995" width="1.323" height="1.862" transform="translate(1.323 1.862) rotate(180)" fill="#c4d9ed"/>
                  </g>
                  <g id="Grupo_1019199" data-name="Grupo 1019199" transform="translate(0 0)">
                    <rect id="Rectángulo_355996" data-name="Rectángulo 355996" width="1.323" height="1.862" transform="translate(10.834 1.862) rotate(180)" fill="#c4d9ed"/>
                    <rect id="Rectángulo_355997" data-name="Rectángulo 355997" width="1.319" height="1.862" transform="translate(8.363 1.862) rotate(180)" fill="#c4d9ed"/>
                    <rect id="Rectángulo_355998" data-name="Rectángulo 355998" width="1.319" height="1.862" transform="translate(5.948 1.862) rotate(180)" fill="#c4d9ed"/>
                    <rect id="Rectángulo_355999" data-name="Rectángulo 355999" width="1.323" height="1.862" transform="translate(3.657 1.862) rotate(180)" fill="#c4d9ed"/>
                    <rect id="Rectángulo_356000" data-name="Rectángulo 356000" width="1.323" height="1.862" transform="translate(1.323 1.862) rotate(180)" fill="#c4d9ed"/>
                  </g>
                </g>
                <g id="Grupo_1019203" data-name="Grupo 1019203" transform="translate(0 6.525)">
                  <g id="Grupo_1019201" data-name="Grupo 1019201" transform="translate(11.872 0)">
                    <rect id="Rectángulo_356001" data-name="Rectángulo 356001" width="1.323" height="1.862" transform="translate(10.834 1.862) rotate(180)" fill="#c4d9ed"/>
                    <rect id="Rectángulo_356002" data-name="Rectángulo 356002" width="1.323" height="1.862" transform="translate(8.364 1.862) rotate(180)" fill="#c4d9ed"/>
                    <rect id="Rectángulo_356003" data-name="Rectángulo 356003" width="1.319" height="1.862" transform="translate(5.948 1.862) rotate(180)" fill="#c4d9ed"/>
                    <rect id="Rectángulo_356004" data-name="Rectángulo 356004" width="1.319" height="1.862" transform="translate(3.657 1.862) rotate(180)" fill="#c4d9ed"/>
                    <rect id="Rectángulo_356005" data-name="Rectángulo 356005" width="1.323" height="1.862" transform="translate(1.323 1.862) rotate(180)" fill="#c4d9ed"/>
                  </g>
                  <g id="Grupo_1019202" data-name="Grupo 1019202" transform="translate(0 0)">
                    <rect id="Rectángulo_356006" data-name="Rectángulo 356006" width="1.323" height="1.862" transform="translate(10.834 1.862) rotate(180)" fill="#c4d9ed"/>
                    <rect id="Rectángulo_356007" data-name="Rectángulo 356007" width="1.319" height="1.862" transform="translate(8.363 1.862) rotate(180)" fill="#c4d9ed"/>
                    <rect id="Rectángulo_356008" data-name="Rectángulo 356008" width="1.319" height="1.862" transform="translate(5.948 1.862) rotate(180)" fill="#c4d9ed"/>
                    <rect id="Rectángulo_356009" data-name="Rectángulo 356009" width="1.323" height="1.862" transform="translate(3.657 1.862) rotate(180)" fill="#c4d9ed"/>
                    <rect id="Rectángulo_356010" data-name="Rectángulo 356010" width="1.323" height="1.862" transform="translate(1.323 1.862) rotate(180)" fill="#c4d9ed"/>
                  </g>
                </g>
              </g>
              <rect id="Rectángulo_356011" data-name="Rectángulo 356011" width="1.108" height="1.92" transform="translate(23.764 3.501) rotate(180)" fill="#adc9e0"/>
              <rect id="Rectángulo_356012" data-name="Rectángulo 356012" width="1.108" height="1.92" transform="translate(12.738 3.501) rotate(180)" fill="#adc9e0"/>
              <rect id="Rectángulo_356013" data-name="Rectángulo 356013" width="1.108" height="1.92" transform="translate(3.973 3.501) rotate(180)" fill="#adc9e0"/>
            </g>
            <g id="Grupo_1019216" data-name="Grupo 1019216" transform="translate(167.274 64.09)">
              <rect id="Rectángulo_356014" data-name="Rectángulo 356014" width="25.723" height="17.824" transform="translate(25.723 20.079) rotate(180)" fill="#dcdbef"/>
              <rect id="Rectángulo_356015" data-name="Rectángulo 356015" width="25.723" height="5.624" transform="translate(25.723 5.624) rotate(180)" fill="#afabd8"/>
              <g id="Grupo_1019215" data-name="Grupo 1019215" transform="translate(1.268 7.286)">
                <g id="Grupo_1019208" data-name="Grupo 1019208" transform="translate(0 0)">
                  <g id="Grupo_1019206" data-name="Grupo 1019206" transform="translate(11.868)">
                    <rect id="Rectángulo_356016" data-name="Rectángulo 356016" width="1.319" height="1.862" transform="translate(10.834 1.862) rotate(180)" fill="#c4d9ed"/>
                    <rect id="Rectángulo_356017" data-name="Rectángulo 356017" width="1.323" height="1.862" transform="translate(8.363 1.862) rotate(180)" fill="#c4d9ed"/>
                    <rect id="Rectángulo_356018" data-name="Rectángulo 356018" width="1.319" height="1.862" transform="translate(5.948 1.862) rotate(180)" fill="#c4d9ed"/>
                    <rect id="Rectángulo_356019" data-name="Rectángulo 356019" width="1.323" height="1.862" transform="translate(3.657 1.862) rotate(180)" fill="#c4d9ed"/>
                    <rect id="Rectángulo_356020" data-name="Rectángulo 356020" width="1.323" height="1.862" transform="translate(1.323 1.862) rotate(180)" fill="#c4d9ed"/>
                  </g>
                  <g id="Grupo_1019207" data-name="Grupo 1019207">
                    <rect id="Rectángulo_356021" data-name="Rectángulo 356021" width="1.323" height="1.862" transform="translate(10.83 1.862) rotate(180)" fill="#afabd8"/>
                    <rect id="Rectángulo_356022" data-name="Rectángulo 356022" width="1.323" height="1.862" transform="translate(8.36 1.862) rotate(180)" fill="#afabd8"/>
                    <rect id="Rectángulo_356023" data-name="Rectángulo 356023" width="1.323" height="1.862" transform="translate(5.944 1.862) rotate(180)" fill="#afabd8"/>
                    <rect id="Rectángulo_356024" data-name="Rectángulo 356024" width="1.323" height="1.862" transform="translate(3.657 1.862) rotate(180)" fill="#afabd8"/>
                    <rect id="Rectángulo_356025" data-name="Rectángulo 356025" width="1.323" height="1.862" transform="translate(1.323 1.862) rotate(180)" fill="#afabd8"/>
                  </g>
                </g>
                <g id="Grupo_1019211" data-name="Grupo 1019211" transform="translate(0 3.286)">
                  <g id="Grupo_1019209" data-name="Grupo 1019209" transform="translate(11.868 0)">
                    <rect id="Rectángulo_356026" data-name="Rectángulo 356026" width="1.319" height="1.862" transform="translate(10.834 1.862) rotate(180)" fill="#c4d9ed"/>
                    <rect id="Rectángulo_356027" data-name="Rectángulo 356027" width="1.323" height="1.862" transform="translate(8.363 1.862) rotate(180)" fill="#c4d9ed"/>
                    <rect id="Rectángulo_356028" data-name="Rectángulo 356028" width="1.319" height="1.862" transform="translate(5.948 1.862) rotate(180)" fill="#c4d9ed"/>
                    <rect id="Rectángulo_356029" data-name="Rectángulo 356029" width="1.323" height="1.862" transform="translate(3.657 1.862) rotate(180)" fill="#c4d9ed"/>
                    <rect id="Rectángulo_356030" data-name="Rectángulo 356030" width="1.323" height="1.862" transform="translate(1.323 1.862) rotate(180)" fill="#c4d9ed"/>
                  </g>
                  <g id="Grupo_1019210" data-name="Grupo 1019210" transform="translate(0 0)">
                    <rect id="Rectángulo_356031" data-name="Rectángulo 356031" width="1.323" height="1.862" transform="translate(10.83 1.862) rotate(180)" fill="#c4d9ed"/>
                    <rect id="Rectángulo_356032" data-name="Rectángulo 356032" width="1.323" height="1.862" transform="translate(8.36 1.862) rotate(180)" fill="#afabd8"/>
                    <rect id="Rectángulo_356033" data-name="Rectángulo 356033" width="1.323" height="1.862" transform="translate(5.944 1.862) rotate(180)" fill="#afabd8"/>
                    <rect id="Rectángulo_356034" data-name="Rectángulo 356034" width="1.323" height="1.862" transform="translate(3.657 1.862) rotate(180)" fill="#afabd8"/>
                    <rect id="Rectángulo_356035" data-name="Rectángulo 356035" width="1.323" height="1.862" transform="translate(1.323 1.862) rotate(180)" fill="#afabd8"/>
                  </g>
                </g>
                <g id="Grupo_1019214" data-name="Grupo 1019214" transform="translate(0 6.525)">
                  <g id="Grupo_1019212" data-name="Grupo 1019212" transform="translate(11.868 0)">
                    <rect id="Rectángulo_356036" data-name="Rectángulo 356036" width="1.319" height="1.862" transform="translate(10.834 1.862) rotate(180)" fill="#c4d9ed"/>
                    <rect id="Rectángulo_356037" data-name="Rectángulo 356037" width="1.323" height="1.862" transform="translate(8.363 1.862) rotate(180)" fill="#c4d9ed"/>
                    <rect id="Rectángulo_356038" data-name="Rectángulo 356038" width="1.319" height="1.862" transform="translate(5.948 1.862) rotate(180)" fill="#c4d9ed"/>
                    <rect id="Rectángulo_356039" data-name="Rectángulo 356039" width="1.323" height="1.862" transform="translate(3.657 1.862) rotate(180)" fill="#c4d9ed"/>
                    <rect id="Rectángulo_356040" data-name="Rectángulo 356040" width="1.323" height="1.862" transform="translate(1.323 1.862) rotate(180)" fill="#c4d9ed"/>
                  </g>
                  <g id="Grupo_1019213" data-name="Grupo 1019213" transform="translate(0 0)">
                    <rect id="Rectángulo_356041" data-name="Rectángulo 356041" width="1.323" height="1.862" transform="translate(10.83 1.862) rotate(180)" fill="#c4d9ed"/>
                    <rect id="Rectángulo_356042" data-name="Rectángulo 356042" width="1.323" height="1.862" transform="translate(8.36 1.862) rotate(180)" fill="#c4d9ed"/>
                    <rect id="Rectángulo_356043" data-name="Rectángulo 356043" width="1.323" height="1.862" transform="translate(5.944 1.862) rotate(180)" fill="#afabd8"/>
                    <rect id="Rectángulo_356044" data-name="Rectángulo 356044" width="1.323" height="1.862" transform="translate(3.657 1.862) rotate(180)" fill="#afabd8"/>
                    <rect id="Rectángulo_356045" data-name="Rectángulo 356045" width="1.323" height="1.862" transform="translate(1.323 1.862) rotate(180)" fill="#afabd8"/>
                  </g>
                </g>
              </g>
              <rect id="Rectángulo_356046" data-name="Rectángulo 356046" width="1.108" height="1.92" transform="translate(23.76 3.501) rotate(180)" fill="#dcdbef"/>
              <rect id="Rectángulo_356047" data-name="Rectángulo 356047" width="1.108" height="1.92" transform="translate(12.738 3.501) rotate(180)" fill="#dcdbef"/>
              <rect id="Rectángulo_356048" data-name="Rectángulo 356048" width="1.108" height="1.92" transform="translate(3.969 3.501) rotate(180)" fill="#dcdbef"/>
            </g>
          </g>
          <path id="Trazado_748481" data-name="Trazado 748481" d="M508.5,325.523v-.308c0-.628,0-1.268-.008-1.8a4.893,4.893,0,0,0-.628-2.244,6.4,6.4,0,0,0-.913-1.28l-1.007-.816-3.384-2.72-.019-.043a1.048,1.048,0,0,0,.2-.269,1.093,1.093,0,0,0,.113-.488V313.6a1.1,1.1,0,0,0-1.093-1.093h-.351a1.091,1.091,0,0,0-.558.156l-2.322-5.015A12.175,12.175,0,0,0,498,305.83a4.7,4.7,0,0,0-4.476-2.81H476.027v.027H452.97v24.829h2.868c.254,1.284,1.03,2.225,1.959,2.225h1.292c.929,0,1.705-.941,1.959-2.225h5.979c.254,1.284,1.03,2.225,1.959,2.225h1.292c.929,0,1.705-.941,1.959-2.225h13.429a4.754,4.754,0,0,1-.066-.792c0-.02,0-.039,0-.059l.059.851h.617c.254,1.284,1.03,2.225,1.959,2.225h1.292c.929,0,1.705-.941,1.959-2.225h9.644c.254,1.284,1.03,2.225,1.959,2.225h1.292c.937,0,1.717-.952,1.963-2.248a2.344,2.344,0,0,0,2.139-2.334Z" transform="translate(-291.442 -207.064)" fill="#91b3fa"/>
          <g id="Grupo_1019224" data-name="Grupo 1019224" transform="translate(51.254 51.172)">
            <g id="Grupo_1019218" data-name="Grupo 1019218" transform="translate(124.789 25.02)">
              <path id="Trazado_748482" data-name="Trazado 748482" d="M496.848,255.26v5.14a2.876,2.876,0,0,1-2.876,2.88h-.921a2.888,2.888,0,0,1-2.88-2.88v-5.14a2.851,2.851,0,0,1,.418-1.479v-.008a2.89,2.89,0,0,1,2.463-1.393h.921a2.888,2.888,0,0,1,2.88,2.88Z" transform="translate(-490.166 -252.38)" fill="#cb594e"/>
              <path id="Trazado_748483" data-name="Trazado 748483" d="M496.537,263.873a2.889,2.889,0,0,1-2.576,1.6h-.921a2.888,2.888,0,0,1-2.88-2.88v-5.14a2.851,2.851,0,0,1,.418-1.479c.055.316,1.276,7.368,5.959,7.9Z" transform="translate(-490.16 -254.569)" fill="#a8302d" opacity="0.3"/>
            </g>
            <path id="Trazado_748484" data-name="Trazado 748484" d="M389.343,333.706H403.58V319.34H388.73Z" transform="translate(-303.526 -268.187)" fill="#98433a"/>
            <path id="Trazado_748485" data-name="Trazado 748485" d="M396.059,223.422l-69.929,1.725V188.27h45.923a11.661,11.661,0,0,1,10.381,6.346l3.005,5.866,10.619,22.94Z" transform="translate(-265.357 -188.27)" fill="#cb594e"/>
            <g id="Grupo_1019219" data-name="Grupo 1019219" transform="translate(87.569 54.981)">
              <path id="Trazado_748486" data-name="Trazado 748486" d="M403.278,337.35a22.917,22.917,0,0,0,2.01,8.2H408.7c2.993,0,5.417-3.672,5.417-8.2s-5.831-8.2-8.824-8.2S403.278,332.822,403.278,337.35Z" transform="translate(-399.871 -329.15)" fill="#98433a"/>
              <ellipse id="Elipse_8490" data-name="Elipse 8490" cx="5.417" cy="8.2" rx="5.417" ry="8.2" fill="#fe7062"/>
              <ellipse id="Elipse_8491" data-name="Elipse 8491" cx="4.082" cy="6.178" rx="4.082" ry="6.178" transform="translate(1.401 2.022)" fill="#98433a"/>
            </g>
            <g id="Grupo_1019220" data-name="Grupo 1019220" transform="translate(126.725 54.981)">
              <path id="Trazado_748487" data-name="Trazado 748487" d="M503.6,337.35a22.917,22.917,0,0,0,2.01,8.2h3.407c2.993,0,5.417-3.672,5.417-8.2s-5.831-8.2-8.824-8.2S503.6,332.822,503.6,337.35Z" transform="translate(-500.195 -329.15)" fill="#98433a"/>
              <path id="Trazado_748488" data-name="Trazado 748488" d="M495.12,337.35c0,4.531,2.424,8.2,5.417,8.2s5.417-3.672,5.417-8.2-2.424-8.2-5.417-8.2S495.12,332.822,495.12,337.35Z" transform="translate(-495.12 -329.15)" fill="#fe7062"/>
              <path id="Trazado_748489" data-name="Trazado 748489" d="M498.72,340.508c0,3.411,1.826,6.178,4.078,6.178s4.082-2.767,4.082-6.178-1.826-6.178-4.082-6.178S498.72,337.1,498.72,340.508Z" transform="translate(-497.315 -332.308)" fill="#98433a"/>
            </g>
            <g id="Grupo_1019221" data-name="Grupo 1019221" transform="translate(36.806 54.981)">
              <path id="Trazado_748490" data-name="Trazado 748490" d="M273.208,337.35a22.917,22.917,0,0,0,2.01,8.2h3.407c2.993,0,5.417-3.672,5.417-8.2s-5.831-8.2-8.824-8.2S273.208,332.822,273.208,337.35Z" transform="translate(-269.801 -329.15)" fill="#98433a"/>
              <path id="Trazado_748491" data-name="Trazado 748491" d="M264.72,337.35c0,4.531,2.424,8.2,5.417,8.2s5.417-3.672,5.417-8.2-2.424-8.2-5.417-8.2S264.72,332.822,264.72,337.35Z" transform="translate(-264.72 -329.15)" fill="#fe7062"/>
              <path id="Trazado_748492" data-name="Trazado 748492" d="M268.32,340.508c0,3.411,1.826,6.178,4.078,6.178s4.082-2.767,4.082-6.178-1.826-6.178-4.082-6.178S268.32,337.1,268.32,340.508Z" transform="translate(-266.915 -332.308)" fill="#98433a"/>
            </g>
            <path id="Trazado_748493" data-name="Trazado 748493" d="M413.237,300.254a6.194,6.194,0,0,1-6.194,6.209H366.931a12.192,12.192,0,0,0,.18-2.088c0-5.3-3.181-9.6-7.1-9.6s-7.107,4.3-7.107,9.6a12.161,12.161,0,0,0,.172,2.088h-23.44s-.944-10.467-.827-15.712c.094-4.566.094-13.515-.18-15.7,0-.324,22.6-.363,28.306-.386.773-.008,1.237-.008,1.284-.008l.078.055.086.062c1.054.734,6.951,4.871,10.611,7.29,3.228,2.127,27.054,3,36.4,3.259,2.322.062,3.754.086,3.754.086a16.888,16.888,0,0,1,2.408,3.376,12.8,12.8,0,0,1,1.655,5.913c.008,1.4.016,3.087.016,4.746.008.269.008.542.008.812Z" transform="translate(-266.881 -240.945)" fill="#cb594e"/>
            <path id="Trazado_748494" data-name="Trazado 748494" d="M426.855,244.029H395.426a1.854,1.854,0,0,1-1.686-1.085l-7.778-17.308a.857.857,0,0,1,.781-1.206H419.9a1.842,1.842,0,0,1,1.686,1.108l5.573,12.735,1.393,3.181A1.844,1.844,0,0,1,426.855,244.029Z" transform="translate(-301.793 -210.318)" fill="#ffeae7"/>
            <path id="Trazado_748495" data-name="Trazado 748495" d="M375.768,246.768c-.008.542-.031,1.054-.062,1.51-.226,3.013-3.251,5.511-3.251,5.511h-7.06a12.471,12.471,0,0,0-.827-7.017c-1.245-2.8-3.5-4.675-6.092-4.675s-4.855,1.873-6.1,4.675a12.63,12.63,0,0,0-.835,7.017H326.11V188.27h20.411v13s6.123,14.381,8.879,20.716c.683,1.581,1.163,2.654,1.284,2.888.613,1.167,14.838,8.367,17.191,10.487,1.307,1.175,1.959,7.29,1.889,11.4Z" transform="translate(-265.345 -188.27)" fill="#fe7062"/>
            <path id="Trazado_748496" data-name="Trazado 748496" d="M366.87,228.105l6.693,16.489H362.078s-2.357-.394-2.658-5.21c-.324-5.14-.32-14.011-.32-14.011l5.042-.023c1.92.289,2.225,1.346,2.732,2.759Z" transform="translate(-285.46 -210.879)" fill="#ffeae7"/>
            <path id="Trazado_748497" data-name="Trazado 748497" d="M455.386,285.4H418.139l-13.6-10.7-.078-.055h37.575l10.7,8.609Z" transform="translate(-313.117 -240.938)" fill="#cb594e"/>
            <path id="Trazado_748498" data-name="Trazado 748498" d="M530.635,302.228a1.269,1.269,0,0,1-.8.644l-5.226.968c-.441.086-.781-.683-.667-1.471l.511-3.512.016-.086.1-.722a1.511,1.511,0,0,1,.695-1.222l.3-.117,2.654,2.143a16.894,16.894,0,0,1,2.408,3.376Z" transform="translate(-385.958 -254.389)" fill="#ffcdc8"/>
            <path id="Trazado_748499" data-name="Trazado 748499" d="M441.719,307.451l-3.368-.332a2.643,2.643,0,0,1-2.338-2.158l-.773-4.258a.6.6,0,0,1-.016-.2,40.424,40.424,0,0,1,5.187,3.3A7.426,7.426,0,0,1,441.719,307.451Z" transform="translate(-331.874 -256.7)" fill="#a8302d"/>
            <path id="Trazado_748500" data-name="Trazado 748500" d="M448.112,305.77l-6.385-.636h-.008l-3.368-.332a2.643,2.643,0,0,1-2.338-2.158l-.773-4.258a.6.6,0,0,1-.016-.2v-.008a1.417,1.417,0,0,1,1.7-1.44l9.948,2.022a1.711,1.711,0,0,1,1.307,1.222l1.171,4.32a1.165,1.165,0,0,1-1.237,1.471Z" transform="translate(-331.874 -254.387)" fill="#ffcdc8"/>
            <path id="Trazado_748501" data-name="Trazado 748501" d="M407.926,200.482h-38.8A22.353,22.353,0,0,0,368,195.162a12.694,12.694,0,0,0-4.988-6.892h31.709c5.167,0,9.749,2.759,11.568,6.892.086.172.16.343.226.515A32.356,32.356,0,0,1,407.926,200.482Z" transform="translate(-287.844 -188.27)" fill="#cb594e"/>
            <path id="Trazado_748502" data-name="Trazado 748502" d="M441.727,307.439l-3.376-.332a2.643,2.643,0,0,1-2.338-2.158l-.773-4.258a.641.641,0,0,1-.016-.211,41.125,41.125,0,0,1,5.187,3.306A7.494,7.494,0,0,1,441.727,307.439Z" transform="translate(-331.874 -256.688)" fill="#ffeae7"/>
            <path id="Trazado_748503" data-name="Trazado 748503" d="M471.783,338.978a6.348,6.348,0,0,1-6.494,6.209H425.477a12.469,12.469,0,0,0-.827-7.017h47.125c.008.269.008.542.008.812Z" transform="translate(-325.428 -279.668)" fill="#98433a"/>
            <path id="Trazado_748504" data-name="Trazado 748504" d="M351.378,343.093a12.161,12.161,0,0,0,.172,2.088H326.12V338.16h26.265a12.24,12.24,0,0,0-1.007,4.929Z" transform="translate(-265.351 -279.662)" fill="#8e2323" opacity="0.3"/>
            <path id="Trazado_748505" data-name="Trazado 748505" d="M476.974,302.98h15.232c.488,0,.859.656.785,1.382l-.543,5.292c-.078.781-.523,1.354-1.042,1.354H478.859c-.8,0-1.514-.8-1.748-1.959l-.905-4.5c-.156-.781.23-1.569.769-1.569Z" transform="translate(-356.841 -258.212)" fill="#98433a"/>
            <path id="Trazado_748506" data-name="Trazado 748506" d="M438.84,238.279a56.183,56.183,0,0,1-33.79-13.839h26.527a1.842,1.842,0,0,1,1.686,1.108l5.573,12.735Z" transform="translate(-313.477 -210.324)" fill="#ffcdc8"/>
            <rect id="Rectángulo_356049" data-name="Rectángulo 356049" width="67.954" height="65.522" transform="translate(0 0)" fill="#cb594e"/>
            <path id="Trazado_748507" data-name="Trazado 748507" d="M383.2,252.97s.582,6.666-2.708,8.488h6.147Z" transform="translate(-298.502 -227.719)" fill="#98433a"/>
            <path id="Trazado_748508" data-name="Trazado 748508" d="M387.386,261.567s-1.389-.987-1.506-1.807v4.66h1.815Z" transform="translate(-301.788 -231.86)" fill="#98433a"/>
            <g id="Grupo_1019222" data-name="Grupo 1019222" transform="translate(77.41 25.02)">
              <path id="Trazado_748509" data-name="Trazado 748509" d="M375.447,255.26v5.14a2.876,2.876,0,0,1-2.876,2.88h-.921a2.888,2.888,0,0,1-2.88-2.88v-5.14a2.851,2.851,0,0,1,.418-1.479v-.008a2.89,2.89,0,0,1,2.463-1.393h.921a2.888,2.888,0,0,1,2.88,2.88Z" transform="translate(-368.766 -252.38)" fill="#c94c43"/>
              <path id="Trazado_748510" data-name="Trazado 748510" d="M375.137,263.873a2.89,2.89,0,0,1-2.576,1.6h-.921a2.888,2.888,0,0,1-2.88-2.88v-5.14a2.851,2.851,0,0,1,.418-1.479c.055.316,1.276,7.368,5.959,7.9Z" transform="translate(-368.76 -254.569)" fill="#8e2323" opacity="0.3"/>
            </g>
            <path id="Trazado_748511" data-name="Trazado 748511" d="M200.814,337.014H184.1c-.355-1.51-1.417-12.254,7.95-12.254C200.56,324.76,201.189,334.564,200.814,337.014Z" transform="translate(-178.619 -271.492)" fill="#98433a"/>
            <g id="Grupo_1019223" data-name="Grupo 1019223" transform="translate(7.306 54.981)">
              <path id="Trazado_748512" data-name="Trazado 748512" d="M197.608,337.35a22.917,22.917,0,0,0,2.01,8.2h3.407c2.993,0,5.417-3.672,5.417-8.2s-5.831-8.2-8.824-8.2S197.608,332.822,197.608,337.35Z" transform="translate(-194.205 -329.15)" fill="#98433a"/>
              <path id="Trazado_748513" data-name="Trazado 748513" d="M189.13,337.35c0,4.531,2.424,8.2,5.417,8.2s5.417-3.672,5.417-8.2-2.424-8.2-5.417-8.2S189.13,332.822,189.13,337.35Z" transform="translate(-189.13 -329.15)" fill="#fe7062"/>
              <path id="Trazado_748514" data-name="Trazado 748514" d="M192.73,340.508c0,3.411,1.826,6.178,4.082,6.178s4.078-2.767,4.078-6.178-1.826-6.178-4.078-6.178S192.73,337.1,192.73,340.508Z" transform="translate(-191.325 -332.308)" fill="#98433a"/>
            </g>
            <path id="Trazado_748515" data-name="Trazado 748515" d="M415.719,211.249h-38.8a22.352,22.352,0,0,0-1.124-5.319h38.289c.086.172.16.343.226.515A32.351,32.351,0,0,1,415.719,211.249Z" transform="translate(-295.636 -199.038)" fill="#98433a"/>
          </g>
          <path id="Trazado_748516" data-name="Trazado 748516" d="M373.592,84.42A12.692,12.692,0,0,0,360.9,97.112c0,7.009,12.692,22.6,12.692,22.6s12.692-15.587,12.692-22.6A12.692,12.692,0,0,0,373.592,84.42Zm0,18.5a5.932,5.932,0,1,1,5.932-5.932A5.932,5.932,0,0,1,373.592,102.919Z" transform="translate(-235.304 -73.777)" fill="#fe7062"/>
          <path id="Trazado_748517" data-name="Trazado 748517" d="M244.073,148.2a.24.24,0,0,1-.187-.09l-.3-.367a.244.244,0,0,1,.375-.312l.3.367a.246.246,0,0,1-.031.343.238.238,0,0,1-.156.055Zm-.718-.87a.24.24,0,0,1-.187-.09c-.137-.164-.273-.332-.414-.5a.244.244,0,1,1,.379-.308c.141.172.277.336.41.5a.243.243,0,0,1-.035.343.239.239,0,0,1-.156.055Zm-.823-1.007a.254.254,0,0,1-.191-.09c-.137-.168-.273-.336-.41-.507a.244.244,0,1,1,.382-.3c.137.172.273.34.406.507a.243.243,0,0,1-.035.343.251.251,0,0,1-.152.055Zm-.812-1.015a.24.24,0,0,1-.191-.094c-.133-.168-.269-.34-.4-.511a.245.245,0,1,1,.386-.3c.133.172.269.343.4.511a.247.247,0,0,1-.039.343.239.239,0,0,1-.152.051Zm-.8-1.022a.235.235,0,0,1-.191-.094l-.4-.515a.245.245,0,0,1,.39-.3c.133.172.265.343.394.515a.247.247,0,0,1-.043.343.236.236,0,0,1-.148.051Zm-.788-1.034a.246.246,0,0,1-.2-.1c-.129-.172-.262-.347-.39-.523a.243.243,0,0,1,.39-.289c.129.176.258.347.386.519a.242.242,0,0,1-.047.34A.25.25,0,0,1,240.132,143.251Zm-.773-1.046a.251.251,0,0,1-.2-.1c-.129-.176-.254-.351-.382-.531a.243.243,0,0,1,.394-.285c.125.176.254.351.379.527a.244.244,0,0,1-.2.386Zm-.757-1.058a.235.235,0,0,1-.2-.105c-.125-.176-.25-.355-.371-.535a.244.244,0,1,1,.4-.277c.121.18.246.355.371.531a.244.244,0,0,1-.059.34.23.23,0,0,1-.14.043Zm-.738-1.069a.245.245,0,0,1-.2-.109c-.121-.18-.242-.359-.363-.542a.245.245,0,0,1,.41-.269c.121.18.238.359.359.539a.245.245,0,0,1-.066.34A.256.256,0,0,1,237.864,140.079Zm-.714-1.085a.242.242,0,0,1-.207-.113l-.351-.55a.244.244,0,0,1,.414-.258c.117.183.23.367.347.546a.241.241,0,0,1-.074.336.23.23,0,0,1-.133.039Zm-.691-1.1a.241.241,0,0,1-.207-.117c-.113-.183-.226-.371-.34-.558a.245.245,0,1,1,.421-.25c.109.187.222.371.336.554a.243.243,0,0,1-.082.336.246.246,0,0,1-.129.035Zm-.667-1.116a.242.242,0,0,1-.211-.121c-.109-.187-.219-.379-.324-.566a.244.244,0,0,1,.425-.238c.105.187.215.375.32.562a.243.243,0,0,1-.09.332.234.234,0,0,1-.121.031Zm-.64-1.132a.243.243,0,0,1-.215-.129c-.105-.191-.207-.382-.308-.578a.243.243,0,0,1,.429-.226c.1.191.2.382.308.57a.245.245,0,0,1-.1.332.263.263,0,0,1-.117.031Zm-.609-1.151a.241.241,0,0,1-.219-.133l-.293-.585a.245.245,0,1,1,.441-.215c.094.2.191.386.289.578a.245.245,0,0,1-.105.328.227.227,0,0,1-.109.027Zm-.574-1.171a.248.248,0,0,1-.222-.14c-.094-.2-.183-.394-.273-.593a.245.245,0,1,1,.445-.2c.09.2.18.394.273.585a.244.244,0,0,1-.117.324.258.258,0,0,1-.105.023Zm-.539-1.186a.24.24,0,0,1-.222-.148c-.086-.2-.172-.4-.254-.6a.245.245,0,1,1,.453-.187c.082.2.168.4.25.6a.239.239,0,0,1-.129.32.272.272,0,0,1-.1.02Zm-.5-1.2a.239.239,0,0,1-.226-.156c-.078-.2-.156-.406-.234-.613a.243.243,0,1,1,.457-.168c.074.2.152.4.23.6a.243.243,0,0,1-.137.316A.229.229,0,0,1,232.935,130.935Zm-.453-1.218a.242.242,0,0,1-.23-.164l-.211-.621a.244.244,0,1,1,.464-.152c.066.2.137.41.207.613a.248.248,0,0,1-.148.312.3.3,0,0,1-.082.012Zm-.4-1.237a.242.242,0,0,1-.234-.172c-.062-.207-.125-.421-.183-.628a.243.243,0,1,1,.468-.133c.059.207.117.414.18.621a.245.245,0,0,1-.164.3.221.221,0,0,1-.07.012Zm-.351-1.253a.242.242,0,0,1-.234-.183c-.055-.211-.105-.425-.156-.636a.244.244,0,0,1,.476-.109c.047.207.1.418.152.624a.245.245,0,0,1-.176.3A.3.3,0,0,1,231.729,127.227Zm-.293-1.264a.242.242,0,0,1-.238-.2c-.043-.215-.086-.429-.125-.644a.244.244,0,0,1,.48-.09c.039.211.078.421.125.632a.245.245,0,0,1-.187.289c-.016,0-.035,0-.051,0Zm-.234-1.28a.247.247,0,0,1-.242-.207c-.035-.215-.066-.433-.094-.652a.244.244,0,0,1,.484-.062c.027.211.059.425.09.636a.243.243,0,0,1-.2.277H231.2Zm-.168-1.288a.242.242,0,0,1-.242-.219q-.035-.328-.059-.656a.243.243,0,0,1,.484-.039c.016.211.035.429.059.64a.245.245,0,0,1-.219.269h-.027Zm-.1-1.3a.241.241,0,0,1-.242-.23c-.012-.219-.02-.441-.023-.66a.249.249,0,0,1,.238-.25.244.244,0,0,1,.25.238q.006.322.023.644a.241.241,0,0,1-.23.254h-.012Zm-.027-1.3h0a.244.244,0,0,1-.242-.246c0-.219.008-.441.016-.656a.244.244,0,0,1,.488.02c-.008.211-.012.429-.016.644a.243.243,0,0,1-.242.242Zm.047-1.3h-.016a.244.244,0,0,1-.226-.258c.016-.219.031-.441.055-.656a.243.243,0,1,1,.484.047c-.02.211-.039.429-.051.64a.243.243,0,0,1-.242.226Zm.125-1.3h-.031a.245.245,0,0,1-.211-.273c.027-.215.059-.437.094-.652a.243.243,0,1,1,.48.074c-.035.211-.062.425-.09.636a.244.244,0,0,1-.242.215Zm.2-1.284a.266.266,0,0,1-.047,0,.244.244,0,0,1-.2-.285c.039-.215.086-.429.133-.644a.243.243,0,1,1,.476.1c-.047.207-.09.421-.129.628a.245.245,0,0,1-.238.2Zm.281-1.268a.152.152,0,0,1-.059-.008.242.242,0,0,1-.176-.3c.055-.211.109-.425.172-.636a.243.243,0,1,1,.468.133c-.059.207-.113.414-.168.621a.245.245,0,0,1-.234.183Zm.355-1.249a.164.164,0,0,1-.074-.012.244.244,0,0,1-.16-.3c.066-.207.137-.418.207-.624a.244.244,0,0,1,.461.164c-.07.2-.14.406-.2.609a.242.242,0,0,1-.234.172Zm.429-1.225a.222.222,0,0,1-.086-.016.245.245,0,0,1-.14-.316c.078-.2.16-.406.242-.609a.245.245,0,0,1,.453.187c-.082.2-.164.4-.238.6a.243.243,0,0,1-.226.156Zm.5-1.2a.241.241,0,0,1-.1-.023.246.246,0,0,1-.121-.324c.09-.2.183-.4.277-.593a.243.243,0,1,1,.437.211c-.094.191-.183.39-.273.582a.243.243,0,0,1-.222.144Zm.566-1.171a.244.244,0,0,1-.219-.355c.1-.191.2-.386.308-.578a.245.245,0,0,1,.429.234c-.105.187-.207.379-.3.566a.249.249,0,0,1-.219.133Zm.628-1.14a.219.219,0,0,1-.121-.035.239.239,0,0,1-.086-.332q.164-.281.34-.562a.244.244,0,0,1,.414.258c-.113.183-.226.367-.332.55a.247.247,0,0,1-.211.121Zm.683-1.1a.23.23,0,0,1-.133-.039.241.241,0,0,1-.07-.336c.117-.18.242-.363.367-.546a.244.244,0,1,1,.4.277c-.121.176-.242.359-.359.535a.245.245,0,0,1-.2.109Zm.738-1.069a.254.254,0,0,1-.144-.047.243.243,0,0,1-.055-.34c.125-.176.258-.351.39-.527a.242.242,0,0,1,.386.293c-.129.172-.258.347-.382.519a.241.241,0,0,1-.2.1Zm.784-1.038a.246.246,0,0,1-.152-.051.243.243,0,0,1-.039-.343c.133-.168.273-.34.41-.511a.244.244,0,1,1,.375.312c-.137.168-.273.336-.406.5a.24.24,0,0,1-.191.094Zm.827-1a.253.253,0,0,1-.16-.059.246.246,0,0,1-.027-.343q.211-.246.433-.492a.243.243,0,0,1,.363.324c-.144.16-.285.324-.425.484A.247.247,0,0,1,237.076,105.446Zm.866-.968a.244.244,0,0,1-.164-.066.242.242,0,0,1-.012-.343c.148-.16.3-.316.449-.476a.243.243,0,1,1,.351.336c-.152.156-.3.312-.445.468a.245.245,0,0,1-.18.078Zm.9-.937a.242.242,0,0,1-.172-.07.245.245,0,0,1,0-.343c.152-.152.308-.3.464-.461a.243.243,0,0,1,.34.347c-.156.152-.308.3-.461.453a.242.242,0,0,1-.172.07Zm.933-.905a.252.252,0,0,1-.18-.078.242.242,0,0,1,.012-.343q.234-.222.48-.445a.243.243,0,1,1,.328.359c-.16.144-.32.293-.476.437a.246.246,0,0,1-.168.066Zm.96-.874a.242.242,0,0,1-.16-.425c.164-.144.328-.285.492-.429a.244.244,0,1,1,.316.371c-.164.14-.328.281-.488.425a.258.258,0,0,1-.16.062Zm.987-.847a.24.24,0,0,1-.187-.09.246.246,0,0,1,.031-.343c.168-.137.336-.277.5-.414a.244.244,0,1,1,.308.379c-.168.137-.336.273-.5.41a.239.239,0,0,1-.156.055Zm1.007-.823a.249.249,0,0,1-.187-.086.243.243,0,0,1,.031-.343c.164-.137.328-.281.484-.422a.243.243,0,0,1,.324.363c-.16.144-.328.289-.5.429A.243.243,0,0,1,242.731,100.091Zm.968-.866a.242.242,0,0,1-.168-.418c.156-.148.308-.3.457-.453a.243.243,0,1,1,.343.343c-.152.156-.308.312-.468.461a.236.236,0,0,1-.168.066Zm.909-.929a.24.24,0,0,1-.164-.062.245.245,0,0,1-.016-.343c.144-.156.289-.32.425-.48a.244.244,0,1,1,.371.316c-.14.164-.289.332-.437.492A.245.245,0,0,1,244.608,98.3Zm.843-.987a.229.229,0,0,1-.152-.055.243.243,0,0,1-.039-.343c.133-.168.262-.34.39-.507a.24.24,0,0,1,.34-.051.244.244,0,0,1,.051.34c-.129.176-.265.351-.4.523A.24.24,0,0,1,245.451,97.309Zm.769-1.046a.256.256,0,0,1-.137-.043.244.244,0,0,1-.062-.34c.121-.176.238-.355.351-.535a.244.244,0,1,1,.414.258c-.117.183-.238.371-.363.55a.241.241,0,0,1-.2.105Zm.691-1.1a.266.266,0,0,1-.121-.031.244.244,0,0,1-.09-.332c.105-.183.211-.371.312-.562a.243.243,0,1,1,.429.226c-.1.2-.211.386-.32.578A.247.247,0,0,1,246.911,95.162Zm.609-1.147a.258.258,0,0,1-.105-.023.242.242,0,0,1-.113-.324c.094-.191.183-.386.269-.582a.243.243,0,1,1,.445.2c-.09.2-.18.4-.277.6A.245.245,0,0,1,247.52,94.015Zm.523-1.186a.229.229,0,0,1-.09-.016.243.243,0,0,1-.137-.316c.078-.2.156-.4.226-.6a.244.244,0,1,1,.461.164c-.074.207-.152.414-.234.617a.245.245,0,0,1-.226.152Zm.437-1.222a.164.164,0,0,1-.074-.012.244.244,0,0,1-.16-.3c.066-.2.125-.41.183-.613a.243.243,0,1,1,.468.133q-.088.316-.187.632a.241.241,0,0,1-.23.172Zm.351-1.249a.211.211,0,0,1-.059-.008.242.242,0,0,1-.18-.293c.051-.207.1-.418.14-.624a.243.243,0,1,1,.476.1c-.043.215-.094.429-.144.64a.242.242,0,0,1-.238.187Zm.265-1.272h-.043a.243.243,0,0,1-.2-.281c.035-.211.07-.421.1-.636a.244.244,0,1,1,.484.07c-.031.215-.066.437-.1.652a.246.246,0,0,1-.238.2Zm.18-1.288h-.027a.245.245,0,0,1-.215-.269c.023-.211.043-.425.059-.64a.243.243,0,1,1,.484.039c-.016.219-.039.441-.062.656a.245.245,0,0,1-.242.219Zm.1-1.3h-.012a.243.243,0,0,1-.23-.254c.012-.211.016-.429.02-.644a.238.238,0,0,1,.246-.238.242.242,0,0,1,.238.25c0,.219-.012.441-.02.656a.247.247,0,0,1-.242.234Zm.023-1.3a.241.241,0,0,1-.242-.242c0-.215-.008-.429-.016-.644a.244.244,0,0,1,.234-.254.247.247,0,0,1,.254.234c.008.219.016.441.016.656a.244.244,0,0,1-.242.246h0Zm-.051-1.3a.24.24,0,0,1-.242-.226c-.016-.211-.031-.425-.051-.64a.243.243,0,1,1,.484-.047c.02.219.039.437.055.656a.244.244,0,0,1-.226.258h-.016Zm-.121-1.3a.244.244,0,0,1-.242-.215c-.027-.211-.055-.425-.086-.636a.244.244,0,1,1,.484-.07c.031.215.062.433.086.652a.242.242,0,0,1-.211.269Zm-.187-1.284a.239.239,0,0,1-.238-.2c-.035-.207-.074-.421-.117-.632a.243.243,0,0,1,.476-.094c.043.215.082.433.121.644a.243.243,0,0,1-.2.281h-.043Zm-.25-1.276a.245.245,0,0,1-.238-.191c-.047-.207-.1-.422-.148-.628a.245.245,0,0,1,.476-.117c.051.211.1.425.148.64a.249.249,0,0,1-.183.293.264.264,0,0,1-.055.008Zm-.312-1.261a.238.238,0,0,1-.234-.18q-.082-.31-.176-.621a.244.244,0,0,1,.468-.14c.062.211.121.421.18.632a.247.247,0,0,1-.172.3.342.342,0,0,1-.062.008Zm-.371-1.249a.242.242,0,0,1-.23-.168c-.066-.2-.133-.41-.2-.613a.243.243,0,1,1,.461-.156c.07.207.14.418.207.624a.25.25,0,0,1-.156.308.245.245,0,0,1-.074.012Zm-.425-1.233a.252.252,0,0,1-.23-.16c-.074-.2-.152-.406-.23-.6a.244.244,0,0,1,.453-.18c.078.2.156.41.234.613a.245.245,0,0,1-.144.312.21.21,0,0,1-.086.016Zm-.476-1.214a.246.246,0,0,1-.226-.148c-.082-.2-.168-.4-.254-.593a.243.243,0,0,1,.445-.2c.09.2.176.4.258.6a.247.247,0,0,1-.133.32.268.268,0,0,1-.094.02Zm-.527-1.19a.243.243,0,0,1-.222-.141c-.09-.2-.183-.39-.277-.581a.245.245,0,1,1,.441-.215c.1.2.191.394.281.593a.247.247,0,0,1-.117.324.24.24,0,0,1-.1.023Zm-56.492-1a.242.242,0,0,1-.125-.035.247.247,0,0,1-.086-.336c0-.008.125-.211.367-.562a.244.244,0,0,1,.4.277c-.234.34-.347.531-.351.535a.242.242,0,0,1-.211.121Zm55.922-.172a.246.246,0,0,1-.219-.133c-.1-.191-.2-.382-.3-.57a.245.245,0,0,1,.429-.234c.105.191.207.386.3.582a.241.241,0,0,1-.105.328.231.231,0,0,1-.113.027Zm-55.184-.905a.245.245,0,0,1-.144-.047.24.24,0,0,1-.051-.34c.125-.172.261-.347.4-.523a.245.245,0,0,1,.386.3c-.133.172-.265.343-.39.515a.235.235,0,0,1-.2.1Zm54.564-.238a.234.234,0,0,1-.211-.125c-.105-.187-.215-.375-.324-.558a.245.245,0,0,1,.422-.25c.109.187.222.379.328.566a.244.244,0,0,1-.094.332.266.266,0,0,1-.121.031ZM191.726,70.8a.262.262,0,0,1-.156-.055.243.243,0,0,1-.035-.343q.2-.252.421-.5a.244.244,0,0,1,.371.316c-.14.164-.281.332-.414.5a.24.24,0,0,1-.187.09Zm53.1-.328a.237.237,0,0,1-.207-.117c-.113-.183-.226-.363-.343-.546a.243.243,0,1,1,.41-.261c.117.183.234.367.351.554a.245.245,0,0,1-.078.336.256.256,0,0,1-.129.035Zm-52.257-.66a.244.244,0,0,1-.183-.406c.144-.16.293-.324.441-.484a.243.243,0,1,1,.355.332c-.144.156-.293.316-.437.476a.237.237,0,0,1-.183.082Zm51.551-.429a.245.245,0,0,1-.2-.109c-.121-.18-.242-.355-.367-.531a.244.244,0,1,1,.4-.281c.125.18.25.359.371.539a.245.245,0,0,1-.066.34.256.256,0,0,1-.137.043Zm-50.665-.523a.233.233,0,0,1-.168-.07.241.241,0,0,1,0-.343c.148-.152.3-.308.46-.464a.243.243,0,0,1,.343.343c-.156.156-.308.308-.453.461a.239.239,0,0,1-.176.074Zm49.916-.539a.239.239,0,0,1-.2-.1l-.386-.515a.245.245,0,0,1,.39-.3c.133.172.261.347.39.523a.242.242,0,0,1-.2.386Zm-48.995-.375a.242.242,0,0,1-.168-.418c.156-.148.316-.3.48-.449a.243.243,0,0,1,.328.359c-.16.148-.32.3-.472.441A.236.236,0,0,1,194.38,67.945Zm48.206-.656a.24.24,0,0,1-.191-.094c-.133-.168-.269-.336-.406-.5a.244.244,0,0,1,.375-.312c.137.168.277.336.414.507a.247.247,0,0,1-.039.343.242.242,0,0,1-.152.055Zm-47.246-.226a.25.25,0,0,1-.183-.082.245.245,0,0,1,.02-.343c.16-.14.324-.285.5-.429a.244.244,0,1,1,.316.371c-.168.141-.328.285-.488.421a.237.237,0,0,1-.16.062Zm46.419-.773a.234.234,0,0,1-.183-.086l-.425-.484a.243.243,0,0,1,.363-.324c.144.16.293.328.433.492a.242.242,0,0,1-.023.343.246.246,0,0,1-.16.059Zm-45.431-.074a.244.244,0,0,1-.152-.433c.168-.137.336-.273.511-.41a.244.244,0,0,1,.3.382c-.172.137-.34.269-.5.406a.239.239,0,0,1-.156.055Zm1.019-.808a.24.24,0,0,1-.2-.1.244.244,0,0,1,.047-.343c.172-.129.347-.261.523-.39a.243.243,0,0,1,.289.39c-.176.129-.347.258-.519.386a.236.236,0,0,1-.148.051Zm43.539-.086a.237.237,0,0,1-.176-.078c-.148-.156-.3-.312-.449-.464a.243.243,0,0,1,.343-.343c.152.156.3.312.453.472a.242.242,0,0,1-.012.343.246.246,0,0,1-.168.066Zm-42.493-.683a.241.241,0,0,1-.2-.1.244.244,0,0,1,.059-.34c.176-.125.355-.25.539-.371a.245.245,0,0,1,.273.406c-.18.121-.355.246-.531.367a.238.238,0,0,1-.141.043Zm41.579-.246a.249.249,0,0,1-.172-.07c-.152-.148-.308-.3-.468-.445a.243.243,0,1,1,.332-.355c.16.148.32.3.476.453a.241.241,0,0,1,0,.343.233.233,0,0,1-.176.074Zm-40.506-.484a.245.245,0,0,1-.2-.109.24.24,0,0,1,.07-.336q.269-.176.55-.351a.244.244,0,1,1,.258.414c-.183.117-.367.23-.542.347a.238.238,0,0,1-.133.039Zm39.554-.4a.24.24,0,0,1-.164-.062c-.16-.144-.324-.285-.488-.421a.246.246,0,0,1-.027-.343.242.242,0,0,1,.343-.027c.164.14.332.285.5.429a.242.242,0,0,1,.02.343.237.237,0,0,1-.183.082Zm-38.453-.289a.252.252,0,0,1-.211-.117.246.246,0,0,1,.082-.336c.183-.113.375-.222.562-.332a.243.243,0,1,1,.242.422c-.187.109-.375.219-.554.328a.242.242,0,0,1-.125.035Zm37.462-.55a.242.242,0,0,1-.152-.055q-.252-.2-.5-.4a.245.245,0,0,1,.3-.386c.172.133.343.269.515.406a.244.244,0,0,1-.156.433Zm-36.338-.1a.252.252,0,0,1-.215-.125.244.244,0,0,1,.094-.332c.187-.105.379-.211.574-.312a.243.243,0,0,1,.226.429c-.191.1-.379.207-.566.308a.263.263,0,0,1-.117.031Zm1.147-.613a.244.244,0,0,1-.113-.461q.287-.146.585-.293a.245.245,0,1,1,.215.441c-.2.094-.386.191-.578.289a.227.227,0,0,1-.109.027ZM237,61.872a.245.245,0,0,1-.144-.047c-.172-.129-.351-.254-.523-.375a.244.244,0,1,1,.277-.4c.18.125.359.25.535.382a.243.243,0,0,1,.055.34.239.239,0,0,1-.2.1ZM204,61.384a.244.244,0,0,1-.105-.464c.2-.09.394-.183.593-.273a.243.243,0,0,1,.2.445q-.3.135-.585.269a.254.254,0,0,1-.1.023Zm31.924-.254a.23.23,0,0,1-.133-.039c-.18-.117-.363-.234-.542-.343a.244.244,0,1,1,.258-.414c.183.113.371.23.554.351a.241.241,0,0,1,.07.336.245.245,0,0,1-.2.109Zm-30.738-.277a.244.244,0,0,1-.094-.468c.2-.086.4-.168.6-.25a.242.242,0,0,1,.183.449c-.2.082-.4.164-.6.25a.268.268,0,0,1-.094.02Zm29.633-.406a.266.266,0,0,1-.121-.031c-.183-.105-.375-.215-.562-.312a.245.245,0,0,1,.234-.429c.191.1.382.211.574.32a.243.243,0,0,1,.09.332.247.247,0,0,1-.211.121ZM206.4,60.362a.239.239,0,0,1-.226-.156.248.248,0,0,1,.141-.316c.2-.078.406-.156.613-.23a.243.243,0,0,1,.168.457c-.2.074-.406.152-.6.226a.223.223,0,0,1-.086.016Zm1.222-.449a.242.242,0,0,1-.078-.472q.3-.105.621-.211a.244.244,0,0,1,.152.464c-.207.066-.41.137-.613.207a.292.292,0,0,1-.078.012Zm26.066-.086a.227.227,0,0,1-.109-.027c-.191-.1-.386-.191-.578-.281a.244.244,0,0,1,.207-.441c.2.09.394.187.593.285a.245.245,0,0,1,.109.328.241.241,0,0,1-.219.133Zm-24.829-.32a.246.246,0,0,1-.234-.172.243.243,0,0,1,.16-.3c.207-.062.414-.129.624-.187a.242.242,0,1,1,.137.464c-.207.062-.414.121-.617.187a.227.227,0,0,1-.074.012Zm23.65-.226a.269.269,0,0,1-.094-.02c-.2-.082-.4-.164-.593-.242a.245.245,0,0,1,.176-.457c.2.078.41.16.609.246a.244.244,0,0,1-.094.468ZM210.1,59.144a.241.241,0,0,1-.234-.18.244.244,0,0,1,.172-.3c.207-.059.418-.113.632-.168a.244.244,0,0,1,.121.472l-.624.164a.193.193,0,0,1-.066.008Zm1.257-.324a.243.243,0,0,1-.059-.48c.211-.051.421-.1.636-.148a.244.244,0,1,1,.109.476c-.211.047-.421.1-.628.144a.3.3,0,0,1-.059.008Zm19.935-.008a.3.3,0,0,1-.082-.012q-.3-.105-.609-.2a.243.243,0,0,1,.144-.464c.207.062.418.133.624.207a.245.245,0,0,1-.082.476Zm-18.667-.273a.242.242,0,0,1-.238-.2.245.245,0,0,1,.191-.289l.64-.129a.244.244,0,0,1,.09.48c-.215.039-.425.082-.632.125-.016,0-.035,0-.051,0Zm17.426-.109a.172.172,0,0,1-.062-.008c-.207-.055-.418-.109-.621-.156a.244.244,0,0,1,.109-.476c.211.047.425.1.64.16a.245.245,0,0,1,.172.3.241.241,0,0,1-.234.18ZM213.9,58.294a.239.239,0,0,1-.238-.2.243.243,0,0,1,.2-.281c.215-.039.429-.074.644-.109a.243.243,0,0,1,.074.48l-.636.105H213.9Zm14.881-.156a.267.267,0,0,1-.047,0q-.316-.059-.632-.105a.245.245,0,0,1,.07-.484c.215.031.433.066.652.109a.244.244,0,0,1-.043.484Zm-13.6-.051a.245.245,0,0,1-.035-.488c.215-.031.429-.059.648-.09a.244.244,0,1,1,.062.484c-.215.027-.429.055-.64.086h-.035ZM227.5,57.95h-.027c-.215-.023-.429-.047-.644-.066a.244.244,0,0,1-.219-.265.242.242,0,0,1,.265-.219c.215.02.433.043.648.066a.245.245,0,0,1-.027.488Zm-11.025-.027a.247.247,0,0,1-.242-.215.245.245,0,0,1,.215-.269l.648-.07a.243.243,0,0,1,.047.484c-.215.02-.429.043-.644.066h-.027Zm9.729-.1h-.02c-.215-.02-.429-.035-.644-.051a.245.245,0,0,1,.035-.488c.215.016.433.031.652.051a.245.245,0,0,1,.222.265.242.242,0,0,1-.242.222Zm-8.438-.027a.245.245,0,0,1-.242-.222.242.242,0,0,1,.222-.261c.215-.02.433-.035.652-.051a.245.245,0,1,1,.035.488c-.215.016-.429.031-.644.051h-.02Zm7.142-.066h-.016l-.644-.035a.242.242,0,0,1,.023-.484l.652.035a.244.244,0,0,1-.012.488Zm-5.846-.023a.244.244,0,0,1-.012-.488c.215-.012.433-.023.652-.031a.242.242,0,0,1,.254.234.244.244,0,0,1-.234.254c-.219.008-.433.02-.644.031Zm4.547-.039H223.6c-.219-.008-.433-.016-.648-.02a.244.244,0,0,1,.012-.488c.215,0,.433.012.652.02a.244.244,0,0,1,.234.254.242.242,0,0,1-.242.234Zm-3.247-.016a.242.242,0,0,1-.242-.238.247.247,0,0,1,.238-.25c.215-.008.433-.012.652-.016h0a.241.241,0,0,1,.242.242.244.244,0,0,1-.242.246c-.219,0-.433.008-.648.016h-.008Zm1.951-.016h-.644a.243.243,0,0,1-.242-.242.247.247,0,0,1,.242-.246h.656a.247.247,0,0,1,.242.246.243.243,0,0,1-.242.242Z" transform="translate(-131.067 -57.15)" fill="#699ff0"/>
          <path id="Trazado_748518" data-name="Trazado 748518" d="M648.12,321.181s-13.164.02-33.239.062c-.3-.129-.46-.2-.46-.2s2.267-12.414,14.042-15.08,11.911-14.042,19.264-16.309c6.045-1.862,11.45.6,15.123-.031,5.8,18.354-14.725,31.557-14.725,31.557Z" transform="translate(-389.883 -198.48)" fill="#57dbd8"/>
          <rect id="Rectángulo_356050" data-name="Rectángulo 356050" width="266.808" height="1.03" rx="0.515" transform="translate(10.802 122.564)" fill="#283250"/>
          <g id="Grupo_1019238" data-name="Grupo 1019238" transform="translate(27.678 16.529)">
            <g id="Grupo_1019225" data-name="Grupo 1019225" transform="translate(0 24.342)">
              <path id="Trazado_748519" data-name="Trazado 748519" d="M165.83,198.449l-.429.461c-1.019,1.1-3.778,4.1-6.818,7.544-.718.812-1.456,1.659-2.193,2.506-1.1,1.272-2.182,2.548-3.189,3.778l-.012.012c-.312.363-.6.718-.89,1.069-.6.738-1.155,1.444-1.67,2.107a17.727,17.727,0,0,0-2.826,4.461c-1.229,5.148,1.167,19.638,1.787,23.178H115.965c1.019-7.364,2.427-17.765,2.611-19.35.277-2.494-8.422-13.2-8.57-21.008s5.019-13.386,5.831-21.071a53.7,53.7,0,0,0-.632-12.34c-.3-2.131-.652-4.035-.933-5.479a2,2,0,0,1,.535-1.807,1.833,1.833,0,0,1,.386-.312,1.974,1.974,0,0,1,1.893-.148c1.928.823,4.067,3.009,4.625,8.453,0,0,1.616,1.015,4.227,2.677,1.058.663,2.279,1.432,3.63,2.291,1.038.652,2.15,1.358,3.317,2.1.074.043.148.1.226.14.472.3.933.6,1.424.909h.012c.172.105.343.226.523.332.312.2.632.406.964.609a1.145,1.145,0,0,0,.2.117c2.119,1.35,4.336,2.759,6.572,4.184h.012c.363.215.726.449,1.093.683.277.183.566.351.855.535.351.234.718.461,1.081.683h.012c2.537,1.6,5.019,3.188,7.341,4.656.363.234.726.461,1.081.683.289.183.566.363.847.535.375.234.718.461,1.069.695h.012c4.43,2.794,7.856,4.976,9.109,5.78.332.215.515.32.515.332Z" transform="translate(-110.003 -161.875)" fill="#ffcdc8"/>
              <path id="Trazado_748520" data-name="Trazado 748520" d="M123.139,168.191a1.747,1.747,0,0,1-1.479,1.842l-.234.035c-.3-2.119-.652-4.031-.933-5.475a7.754,7.754,0,0,1-.289-2.107c1.464-.714,2.026,1.015,2.205,1.717a22.305,22.305,0,0,1,.726,3.992Z" transform="translate(-116.217 -162.143)" fill="#ffeae7"/>
            </g>
            <path id="Trazado_748521" data-name="Trazado 748521" d="M184.073,271.819c-1.1,1.272-2.182,2.548-3.189,3.778l-.012.012c-.312.363-.6.718-.89,1.069-.6.738-1.155,1.444-1.67,2.107a17.725,17.725,0,0,0-2.826,4.461c-1.229,5.148,1.167,19.638,1.787,23.178H155.4c4.055-6.045,4.582-16.7,4.613-21.586a12.073,12.073,0,0,1,1.05-4.27,51.736,51.736,0,0,1,5.245-9.195c1.776-2.591,3.415-4.668,4.078-5.491v-.012c.215-.246.32-.386.32-.386l12.094-.515h.012l.16.855.129.726.558,3.017.418,2.236Z" transform="translate(-137.683 -200.393)" fill="#ffeae7"/>
            <g id="Grupo_1019236" data-name="Grupo 1019236" transform="translate(8.96)">
              <g id="Grupo_1019229" data-name="Grupo 1019229">
                <path id="Trazado_748522" data-name="Trazado 748522" d="M178.923,177.054l-36.194,3.739a2.078,2.078,0,0,1-2.275-1.85l-7.481-72.376a2.078,2.078,0,0,1,1.85-2.275l36.194-3.739a2.078,2.078,0,0,1,2.275,1.85l7.481,72.376A2.078,2.078,0,0,1,178.923,177.054Z" transform="translate(-132.962 -100.136)" fill="#0f0957"/>
                <path id="Trazado_748523" data-name="Trazado 748523" d="M188.943,176.014l-36.194,3.739a2.078,2.078,0,0,1-2.275-1.85l-7.481-72.376a2.078,2.078,0,0,1,1.85-2.275l36.194-3.739a2.078,2.078,0,0,1,2.275,1.85l7.481,72.376a2.078,2.078,0,0,1-1.85,2.275Z" transform="translate(-139.071 -99.502)" fill="#1a0f91"/>
                <g id="Grupo_1019226" data-name="Grupo 1019226" transform="translate(17.364 4.161)">
                  <path id="Trazado_748524" data-name="Trazado 748524" d="M193.525,110.533a.413.413,0,0,0-.449-.367l-10.483,1.085a.41.41,0,0,0,.082.816l10.483-1.085A.413.413,0,0,0,193.525,110.533Z" transform="translate(-180.363 -110.164)" fill="#afabd8"/>
                  <path id="Trazado_748525" data-name="Trazado 748525" d="M177.823,113.437a.41.41,0,1,0,.449.367A.413.413,0,0,0,177.823,113.437Z" transform="translate(-177.454 -112.158)" fill="#afabd8"/>
                </g>
                <path id="Trazado_748526" data-name="Trazado 748526" d="M213.038,284.974a2.645,2.645,0,1,0-2.357,2.9A2.641,2.641,0,0,0,213.038,284.974Z" transform="translate(-178.57 -211.144)" fill="#afabd8"/>
                <rect id="Rectángulo_356051" data-name="Rectángulo 356051" width="33.7" height="62.209" transform="translate(7.69 9.684) rotate(-5.9)" fill="#eff4ff"/>
                <rect id="Rectángulo_356052" data-name="Rectángulo 356052" width="33.7" height="7.22" transform="translate(13.344 64.384) rotate(-5.9)" fill="#dcdbef"/>
                <g id="Grupo_1019227" data-name="Grupo 1019227" transform="translate(23.734 63.307)">
                  <path id="Trazado_748527" data-name="Trazado 748527" d="M194.179,264.235l17.3-1.787a.367.367,0,1,0-.074-.73l-17.3,1.787a.37.37,0,0,0-.328.4h0A.37.37,0,0,0,194.179,264.235Z" transform="translate(-193.776 -261.716)" fill="#1a0f91"/>
                  <path id="Trazado_748528" data-name="Trazado 748528" d="M212.228,266.135a.37.37,0,0,0-.4-.328l-17.3,1.787a.367.367,0,1,0,.074.73l17.3-1.787A.37.37,0,0,0,212.228,266.135Z" transform="translate(-194.032 -264.209)" fill="#1a0f91"/>
                </g>
                <path id="Trazado_748529" data-name="Trazado 748529" d="M180.155,260.682a2.034,2.034,0,0,0-.183-.687,2.43,2.43,0,0,0-2.525-1.518,2.472,2.472,0,0,0-2.174,2,2.591,2.591,0,0,0-.031.718c.141,1.346,2.911,4.11,2.911,4.11S180.292,262.044,180.155,260.682Zm-2.346,1.382a1.155,1.155,0,0,1-1.264-1.026,1.225,1.225,0,0,1,.148-.706,1.164,1.164,0,0,1,.878-.566,1.109,1.109,0,0,1,.972.375,1.147,1.147,0,0,1-.738,1.924Z" transform="translate(-158.734 -196.425)" fill="#0f0957"/>
                <g id="Grupo_1019228" data-name="Grupo 1019228" transform="translate(12.433 15.761)">
                  <rect id="Rectángulo_356053" data-name="Rectángulo 356053" width="19.432" height="16.021" transform="translate(20.975 16.618) rotate(174.1)" fill="#0f0957"/>
                  <rect id="Rectángulo_356054" data-name="Rectángulo 356054" width="16.356" height="16.021" transform="translate(9.665 1.681) rotate(-5.9)" fill="#afabd8"/>
                  <path id="Trazado_748530" data-name="Trazado 748530" d="M207.076,154.4l.418,4.043-16.266,1.682L189.58,144.19Z" transform="translate(-179.916 -142.511)" fill="#1a0f91"/>
                  <path id="Trazado_748531" data-name="Trazado 748531" d="M167.752,174.425l3.064-.316-.359-.835.207-.644-3.064.316Z" transform="translate(-166.514 -159.852)" fill="#afabd8"/>
                  <path id="Trazado_748532" data-name="Trazado 748532" d="M166.052,157.975l3.064-.316-.359-.835.207-.644-3.064.316Z" transform="translate(-165.478 -149.821)" fill="#afabd8"/>
                  <path id="Trazado_748533" data-name="Trazado 748533" d="M227.692,151.605l-3.06.32.18-.89-.332-.589,3.06-.316Z" transform="translate(-201.196 -146.133)" fill="#dcdbef"/>
                </g>
              </g>
              <g id="Grupo_1019235" data-name="Grupo 1019235" transform="translate(13.83 36.728)">
                <g id="Grupo_1019230" data-name="Grupo 1019230">
                  <path id="Trazado_748534" data-name="Trazado 748534" d="M171.557,198.709a2.73,2.73,0,0,0-.32-.172,2.215,2.215,0,0,0-1-.141,2.055,2.055,0,0,0-1.745,1.432,1.931,1.931,0,0,0-.086.823,2.063,2.063,0,0,0,2.26,1.83,1.891,1.891,0,0,0,1.179-.546,1.991,1.991,0,0,0,.652-1.713,2.036,2.036,0,0,0-.941-1.518Zm.086,3.114a1.8,1.8,0,0,1-2.923-1.85,1.785,1.785,0,0,1,1.553-1.339,1.626,1.626,0,0,1,.847.129,1.255,1.255,0,0,1,.351.183,1.81,1.81,0,0,1,.172,2.876Z" transform="translate(-168.4 -196.523)" fill="#dcdbef"/>
                  <path id="Trazado_748535" data-name="Trazado 748535" d="M170.63,196.6l1.3,2.025,1.744-5.015-1.9,3.54Z" transform="translate(-169.76 -193.61)" fill="#0f0957"/>
                </g>
                <g id="Grupo_1019231" data-name="Grupo 1019231" transform="translate(0.785 7.536)">
                  <path id="Trazado_748536" data-name="Trazado 748536" d="M174.509,219.549a2.058,2.058,0,0,0-.941-1.53c-.1-.062-.215-.117-.32-.172a2.239,2.239,0,0,0-1-.141,2.056,2.056,0,1,0,2.26,1.842Zm-1.862,2.014a1.812,1.812,0,1,1-.363-3.606,1.751,1.751,0,0,1,.847.117,1.255,1.255,0,0,1,.351.183,1.8,1.8,0,0,1,.792,1.315A1.828,1.828,0,0,1,172.647,221.562Z" transform="translate(-170.412 -215.833)" fill="#dcdbef"/>
                  <path id="Trazado_748537" data-name="Trazado 748537" d="M172.62,215.909l1.3,2.025,1.745-5.015-1.9,3.54Z" transform="translate(-171.758 -212.92)" fill="#0f0957"/>
                </g>
                <path id="Trazado_748538" data-name="Trazado 748538" d="M176.5,238.845a2.056,2.056,0,1,0-1.83,2.26A2.064,2.064,0,0,0,176.5,238.845Zm-1.862,2.014a1.813,1.813,0,1,1,1.616-1.99A1.813,1.813,0,0,1,174.641,240.859Z" transform="translate(-170.84 -220.061)" fill="#dcdbef"/>
                <g id="Grupo_1019232" data-name="Grupo 1019232" transform="translate(6.695 0.283)">
                  <path id="Trazado_748539" data-name="Trazado 748539" d="M205.313,195.129l-19.354,2a.362.362,0,0,1-.394-.32l-.008-.078a.362.362,0,0,1,.32-.394l19.354-2a.362.362,0,0,1,.394.32l.008.078A.362.362,0,0,1,205.313,195.129Z" transform="translate(-185.555 -194.335)" fill="#dcdbef"/>
                  <path id="Trazado_748540" data-name="Trazado 748540" d="M205.683,198.746l-19.354,2a.362.362,0,0,1-.394-.32l-.008-.078a.362.362,0,0,1,.32-.394l19.353-2a.362.362,0,0,1,.394.32l.008.078a.362.362,0,0,1-.32.394Z" transform="translate(-185.781 -196.543)" fill="#dcdbef"/>
                </g>
                <g id="Grupo_1019233" data-name="Grupo 1019233" transform="translate(7.476 7.831)">
                  <path id="Trazado_748541" data-name="Trazado 748541" d="M207.313,214.469l-19.354,2a.362.362,0,0,1-.394-.32l-.008-.078a.362.362,0,0,1,.32-.394l19.354-2a.362.362,0,0,1,.394.32l.008.078A.362.362,0,0,1,207.313,214.469Z" transform="translate(-187.555 -213.675)" fill="#dcdbef"/>
                  <path id="Trazado_748542" data-name="Trazado 748542" d="M207.683,218.079l-19.353,2a.362.362,0,0,1-.394-.32l-.008-.078a.362.362,0,0,1,.32-.394l19.354-2a.362.362,0,0,1,.394.32l.008.078A.362.362,0,0,1,207.683,218.079Z" transform="translate(-187.781 -215.877)" fill="#dcdbef"/>
                </g>
                <g id="Grupo_1019234" data-name="Grupo 1019234" transform="translate(8.256 15.379)">
                  <path id="Trazado_748543" data-name="Trazado 748543" d="M209.313,233.809l-19.354,2a.362.362,0,0,1-.394-.32l-.008-.078a.362.362,0,0,1,.32-.394l19.354-2a.362.362,0,0,1,.394.32l.008.078A.362.362,0,0,1,209.313,233.809Z" transform="translate(-189.555 -233.015)" fill="#dcdbef"/>
                  <path id="Trazado_748544" data-name="Trazado 748544" d="M209.683,237.413l-19.353,2a.362.362,0,0,1-.394-.32l-.008-.078a.362.362,0,0,1,.32-.394l19.353-2a.362.362,0,0,1,.394.32l.008.078a.362.362,0,0,1-.32.394Z" transform="translate(-189.781 -235.21)" fill="#dcdbef"/>
                </g>
              </g>
            </g>
            <g id="Grupo_1019237" data-name="Grupo 1019237" transform="translate(46.433 9.094)">
              <path id="Trazado_748545" data-name="Trazado 748545" d="M248.97,125.636s5.253-4.668,8.7-2.018-7.751,11.181-7.751,11.181l-.948-9.164Z" transform="translate(-241.168 -122.804)" fill="#ffcdc8"/>
              <rect id="Rectángulo_356055" data-name="Rectángulo 356055" width="14.331" height="9.413" rx="4.707" transform="translate(0 18.906) rotate(-28.95)" fill="#ffcdc8"/>
              <path id="Trazado_748546" data-name="Trazado 748546" d="M3.676,0h6.978a3.678,3.678,0,0,1,3.676,3.676V5.737a3.678,3.678,0,0,1-3.676,3.676H3.676A3.678,3.678,0,0,1,0,5.737V3.676A3.678,3.678,0,0,1,3.676,0Z" transform="translate(1.055 29.137) rotate(-28.95)" fill="#ffcdc8"/>
              <path id="Trazado_748547" data-name="Trazado 748547" d="M3.676,0h6.978a3.678,3.678,0,0,1,3.676,3.676V5.737a3.678,3.678,0,0,1-3.676,3.676H3.676A3.678,3.678,0,0,1,0,5.737V3.676A3.678,3.678,0,0,1,3.676,0Z" transform="translate(2.087 39.087) rotate(-28.95)" fill="#ffcdc8"/>
              <path id="Trazado_748548" data-name="Trazado 748548" d="M233.022,169.641a21.892,21.892,0,0,1,3.423-2.174,1.751,1.751,0,0,1,2.264.667l1.339,2.236a1.648,1.648,0,0,1-.546,2.256,30.029,30.029,0,0,1-3.633,1.932,2.034,2.034,0,0,1-2.576-.874l-.812-1.44a2.011,2.011,0,0,1,.542-2.6Z" transform="translate(-230.953 -149.93)" fill="#ffeae7"/>
              <path id="Trazado_748549" data-name="Trazado 748549" d="M235.8,196.571a21.893,21.893,0,0,1,3.423-2.174,1.751,1.751,0,0,1,2.264.667l1.339,2.236a1.648,1.648,0,0,1-.546,2.256,30.036,30.036,0,0,1-3.633,1.932,2.034,2.034,0,0,1-2.576-.874l-.812-1.44A2.011,2.011,0,0,1,235.8,196.571Z" transform="translate(-232.648 -166.35)" fill="#ffeae7"/>
              <path id="Trazado_748550" data-name="Trazado 748550" d="M238.912,221.811a21.891,21.891,0,0,1,3.423-2.174,1.751,1.751,0,0,1,2.264.667l1.339,2.236a1.648,1.648,0,0,1-.546,2.256,30.031,30.031,0,0,1-3.633,1.932,2.034,2.034,0,0,1-2.576-.874l-.812-1.44a2.011,2.011,0,0,1,.542-2.6Z" transform="translate(-234.544 -181.739)" fill="#ffeae7"/>
            </g>
          </g>
          <g id="Grupo_1019239" data-name="Grupo 1019239" transform="translate(102.398 90.449)">
            <path id="Trazado_748551" data-name="Trazado 748551" d="M324.76,302.362l14.112,2.221-9.292-6.533-.507,2.045-3.446.574Z" transform="translate(-315.667 -294.483)" fill="#1a0f91"/>
            <path id="Trazado_748552" data-name="Trazado 748552" d="M324.665,303.882l-11.681-6.237L301.46,296.9Z" transform="translate(-301.46 -293.782)" fill="#91b3fa"/>
            <path id="Trazado_748553" data-name="Trazado 748553" d="M337.11,292.477l9.292,6.533-7.122-10.1Z" transform="translate(-323.197 -288.91)" fill="#91b3fa"/>
          </g>
          <g id="Grupo_1019240" data-name="Grupo 1019240" transform="translate(84.665 3.688)">
            <path id="Trazado_748554" data-name="Trazado 748554" d="M266.979,80.967,256.02,75.32l9.8.187-.691,1.682,2.111,2.158Z" transform="translate(-256.02 -71.917)" fill="#45afac"/>
            <path id="Trazado_748555" data-name="Trazado 748555" d="M256.02,75.32l11.31,1.612,8.406,5.355Z" transform="translate(-256.02 -71.917)" fill="#57dbd8"/>
            <path id="Trazado_748556" data-name="Trazado 748556" d="M265.82,70.19,256.02,70l10.108-3.4Z" transform="translate(-256.02 -66.6)" fill="#57dbd8"/>
          </g>
        </g>
      </g>
    </g>
  </g>
</svg>
