<svg id="Grupo_1020149" data-name="Grupo 1020149" xmlns="http://www.w3.org/2000/svg" xmlns:xlink="http://www.w3.org/1999/xlink" width="209.508" height="161.146" viewBox="0 0 209.508 161.146">
  <defs>
    <clipPath id="clip-path">
      <path id="Trazado_748439" data-name="Trazado 748439" d="M211.755,169.991H101.608A7.316,7.316,0,0,1,94.08,162.9V95.956a7.319,7.319,0,0,1,7.528-7.086H211.755a7.316,7.316,0,0,1,7.528,7.086V162.9A7.319,7.319,0,0,1,211.755,169.991Z" transform="translate(-94.08 -88.87)" fill="none"/>
    </clipPath>
    <clipPath id="clip-path-2">
      <path id="Trazado_748444" data-name="Trazado 748444" d="M49.455,210.24c-2.429-5.126-5.4-34.534-1.35-38.309a24.049,24.049,0,0,1,10.791-5.4c1.35-.272-1.35-18.074,4.315-19.152,3.179-.605,6.744.539,6.476,10.791C69.33,171.7,67.528,209.7,67.528,209.7Z" transform="translate(-46.108 -147.251)" fill="#ffcdc8"/>
    </clipPath>
    <clipPath id="clip-path-3">
      <path id="Trazado_748448" data-name="Trazado 748448" d="M275.528,214.982c-1.609-3.1.719-5.871,5.113-12.606,1.083-1.657.215-5.2-1.947-9.738-4.538-9.528-7.616-16.425-2.166-19.7,5.411-3.245,6.494,5.845,9.089,12.768s3.245,11.255,4.977,11.255c.614,0,1.144-.8,4.358-1,2.8-.175,2.53,1.114,4.35,1.215,1.881.105,3.609-1.1,5.968-.706.829.136,2.07,1.061,3.438,1.517,1.215.4,3.946-.605,5.766,1.114,4.692,4.433.794,31.416.794,31.416l-19.336,6.928s-8.66-5.38-12.11-7.892c-2.227-1.618-5.665-9.51-8.3-14.566Z" transform="translate(-273.621 -172.264)" fill="#ffcdc8"/>
    </clipPath>
  </defs>
  <g id="Grupo_1019163" data-name="Grupo 1019163" transform="translate(0 78.455)">
    <circle id="Elipse_8480" data-name="Elipse 8480" cx="14.263" cy="14.263" r="14.263" fill="#fe7062"/>
    <path id="Trazado_748431" data-name="Trazado 748431" d="M21.523,211.815a1.121,1.121,0,0,1-.706-.25l-5.191-4.152a1.132,1.132,0,0,1,1.416-1.767l4.525,3.617,8.388-5.994a1.133,1.133,0,0,1,1.315,1.846L22.185,211.6a1.138,1.138,0,0,1-.658.21Z" transform="translate(-8.535 -192.479)" fill="#fff"/>
  </g>
  <rect id="Rectángulo_355914" data-name="Rectángulo 355914" width="138.393" height="92.67" rx="18.46" transform="translate(35.857 33.192)" fill="#1a0f91"/>
  <path id="Trazado_748432" data-name="Trazado 748432" d="M211.755,169.991H101.608A7.316,7.316,0,0,1,94.08,162.9V95.956a7.319,7.319,0,0,1,7.528-7.086H211.755a7.316,7.316,0,0,1,7.528,7.086V162.9A7.319,7.319,0,0,1,211.755,169.991Z" transform="translate(-52.829 -49.903)" fill="#91b3fa"/>
  <path id="Trazado_748433" data-name="Trazado 748433" d="M386.624,164.2a1.615,1.615,0,0,1,1.614,1.614v11.83a1.615,1.615,0,0,1-1.614,1.614h0a1.615,1.615,0,0,1-1.614-1.614v-11.83a1.615,1.615,0,0,1,1.614-1.614Z" transform="translate(-216.196 -92.203)" fill="#afabd8"/>
  <g id="Grupo_1019164" data-name="Grupo 1019164" transform="translate(41.251 38.967)" clip-path="url(#clip-path)">
    <path id="Trazado_748434" data-name="Trazado 748434" d="M107,95.051H69.33v-.566h37.1V74H107Z" transform="translate(-80.182 -80.52)" fill="#fff"/>
    <path id="Trazado_748435" data-name="Trazado 748435" d="M218.852,135.5l-.009-.566.009.566H80.38v-.566H218.852Z" transform="translate(-86.387 -114.734)" fill="#fff"/>
    <path id="Trazado_748436" data-name="Trazado 748436" d="M245.306,248.807h-.566V222.56h66.05v.57H245.306Z" transform="translate(-178.681 -163.941)" fill="#fff"/>
    <path id="Trazado_748437" data-name="Trazado 748437" d="M99.251,224.1h-.566V174.186H59.85v-.566h39.4Z" transform="translate(-74.859 -136.46)" fill="#fff"/>
    <path id="Trazado_748438" data-name="Trazado 748438" d="M289.845,90.686H274.74V77.94h.566V90.121h13.97V79.672h.57Z" transform="translate(-195.527 -82.732)" fill="#fff"/>
  </g>
  <path id="Trazado_748440" data-name="Trazado 748440" d="M176.194,148.22H223.7a5.066,5.066,0,0,1,5.064,5.064V171.2a5.066,5.066,0,0,1-5.064,5.064H176.194a5.066,5.066,0,0,1-5.064-5.064V153.284A5.066,5.066,0,0,1,176.194,148.22Z" transform="translate(-96.096 -83.23)" fill="#1a0f91"/>
  <g id="Grupo_1019165" data-name="Grupo 1019165" transform="translate(25.212 7.616)">
    <circle id="Elipse_8481" data-name="Elipse 8481" cx="10.628" cy="10.628" r="10.628" fill="#57dbd8"/>
    <path id="Trazado_748441" data-name="Trazado 748441" d="M72.368,24.55l2.262,4.582,5.056.737-3.661,3.565.864,5.038-4.521-2.376-4.525,2.376.864-5.038L65.05,29.869l5.056-.737Z" transform="translate(-61.74 -21.402)" fill="#fff"/>
  </g>
  <g id="Grupo_1019166" data-name="Grupo 1019166" transform="translate(180.981 42.975)">
    <circle id="Elipse_8482" data-name="Elipse 8482" cx="10.628" cy="10.628" r="10.628" fill="#fe7062"/>
    <path id="Trazado_748442" data-name="Trazado 748442" d="M433.471,113.081c-1.592-.855-3.679.219-4.652,1.7-.973-1.482-3.17-2.556-4.762-1.7a3.008,3.008,0,0,0-1.179,4.345c.9,1.684,5.928,5.788,5.941,5.74.009.048,5.034-4.051,5.941-5.74A3.039,3.039,0,0,0,433.471,113.081Z" transform="translate(-418.177 -106.303)" fill="#fff"/>
  </g>
  <circle id="Elipse_8483" data-name="Elipse 8483" cx="13.917" cy="13.917" r="13.917" transform="translate(114.462 0.399)" fill="#1a0f91"/>
  <circle id="Elipse_8484" data-name="Elipse 8484" cx="10.628" cy="10.628" r="10.628" transform="translate(172.036 124.542)" fill="#025482"/>
  <g id="Grupo_1019167" data-name="Grupo 1019167" transform="translate(176.78 129.286)">
    <rect id="Rectángulo_355915" data-name="Rectángulo 355915" width="2.425" height="11.768" transform="translate(4.674)" fill="#fff"/>
    <rect id="Rectángulo_355916" data-name="Rectángulo 355916" width="11.768" height="2.425" transform="translate(0 4.674)" fill="#fff"/>
  </g>
  <g id="Grupo_1019169" data-name="Grupo 1019169" transform="translate(20.217 64.564)">
    <path id="Trazado_748443" data-name="Trazado 748443" d="M49.455,210.24c-2.429-5.126-5.4-34.534-1.35-38.309a24.049,24.049,0,0,1,10.791-5.4c1.35-.272-1.35-18.074,4.315-19.152,3.179-.605,6.744.539,6.476,10.791C69.33,171.7,67.528,209.7,67.528,209.7Z" transform="translate(-46.108 -147.251)" fill="#ffcdc8"/>
    <g id="Grupo_1019168" data-name="Grupo 1019168" clip-path="url(#clip-path-2)">
      <rect id="Rectángulo_355917" data-name="Rectángulo 355917" width="0.566" height="20.941" transform="translate(12.748 5.191) rotate(-1.6)" fill="#fe7062"/>
    </g>
  </g>
  <circle id="Elipse_8485" data-name="Elipse 8485" cx="2.832" cy="2.832" r="2.832" transform="translate(35.84 66.722)" fill="#ffeae7"/>
  <path id="Trazado_748445" data-name="Trazado 748445" d="M52.82,289.07H71.3v31.565a1.89,1.89,0,0,1-1.89,1.89H54.71a1.89,1.89,0,0,1-1.89-1.89Z" transform="translate(-29.66 -162.322)" fill="#91b3fa"/>
  <path id="Trazado_748446" data-name="Trazado 748446" d="M323.96,289.064l19.577,7.033,3.354,24.528a1.89,1.89,0,0,1-1.89,1.89H325.85a1.89,1.89,0,0,1-1.89-1.89V289.06Z" transform="translate(-181.915 -162.316)" fill="#91b3fa"/>
  <g id="Grupo_1019171" data-name="Grupo 1019171" transform="translate(119.974 75.532)">
    <path id="Trazado_748447" data-name="Trazado 748447" d="M275.528,214.982c-1.609-3.1.719-5.871,5.113-12.606,1.083-1.657.215-5.2-1.947-9.738-4.538-9.528-7.616-16.425-2.166-19.7,5.411-3.245,6.494,5.845,9.089,12.768s3.245,11.255,4.977,11.255c.614,0,1.144-.8,4.358-1,2.8-.175,2.53,1.114,4.35,1.215,1.881.105,3.609-1.1,5.968-.706.829.136,2.07,1.061,3.438,1.517,1.215.4,3.946-.605,5.766,1.114,4.692,4.433.794,31.416.794,31.416l-19.336,6.928s-8.66-5.38-12.11-7.892c-2.227-1.618-5.665-9.51-8.3-14.566Z" transform="translate(-273.621 -172.264)" fill="#ffcdc8"/>
    <g id="Grupo_1019170" data-name="Grupo 1019170" clip-path="url(#clip-path-3)">
      <rect id="Rectángulo_355918" data-name="Rectángulo 355918" width="0.566" height="20.941" transform="translate(6.554 25.935) rotate(-14.93)" fill="#fe7062"/>
    </g>
  </g>
  <path id="Trazado_748449" data-name="Trazado 748449" d="M284.715,182.692a2.832,2.832,0,1,1-2.833-2.832A2.831,2.831,0,0,1,284.715,182.692Z" transform="translate(-156.696 -100.997)" fill="#ffeae7"/>
  <path id="Trazado_748450" data-name="Trazado 748450" d="M48.653,282.92H67.674v8.633H48.653a2.292,2.292,0,0,1-2.293-2.293v-4.047A2.292,2.292,0,0,1,48.653,282.92Z" transform="translate(-26.033 -158.869)" fill="#eff4ff"/>
  <path id="Trazado_748451" data-name="Trazado 748451" d="M340.659,307.136l1.368,3.81a2.291,2.291,0,0,1-1.381,2.933l-20.31,7.3A2.291,2.291,0,0,1,317.4,319.8l-1.368-3.81a2.291,2.291,0,0,1,1.381-2.933l20.31-7.3A2.291,2.291,0,0,1,340.659,307.136Z" transform="translate(-177.388 -171.615)" fill="#eff4ff"/>
  <g id="Grupo_1019172" data-name="Grupo 1019172" transform="translate(91.157 74.632)">
    <path id="Trazado_748452" data-name="Trazado 748452" d="M207.9,179.344V170.22h4.63a2.719,2.719,0,0,1,2.1.728,2.4,2.4,0,0,1,.662,1.666,2.076,2.076,0,0,1-.386,1.232,1.953,1.953,0,0,1-1.144.759,2.034,2.034,0,0,1,1.771,2.127,2.879,2.879,0,0,1-.627,1.815c-.417.535-1.307.8-2.67.8H207.9Zm2.578-5.63h1.3a.852.852,0,0,0,.688-.246.812.812,0,0,0,.2-.531c0-.509-.311-.763-.938-.763h-1.25Zm0,3.6h1.364a.987.987,0,0,0,.745-.25.8.8,0,0,0,.237-.566.862.862,0,0,0-.232-.579,1.091,1.091,0,0,0-.846-.263h-1.272v1.657Z" transform="translate(-207.9 -170.216)" fill="#fff"/>
    <path id="Trazado_748453" data-name="Trazado 748453" d="M236.813,170.214v6.042a2.861,2.861,0,0,1-1.017,2.469,4.376,4.376,0,0,1-2.657.754,4.786,4.786,0,0,1-2.771-.723,2.66,2.66,0,0,1-1.048-2.355V170.21h2.846v5.862a1.39,1.39,0,0,0,.276.956,1.14,1.14,0,0,0,.881.3,1.455,1.455,0,0,0,.829-.215.825.825,0,0,0,.386-.491,5.563,5.563,0,0,0,.066-1.07V170.21h2.205Z" transform="translate(-219.928 -170.21)" fill="#fff"/>
    <path id="Trazado_748454" data-name="Trazado 748454" d="M257.587,170.22l-2.854,5.262v3.863h-2.723v-3.863l-3.069-5.262H252l1.6,3.008,1.535-3.008h2.451Z" transform="translate(-230.945 -170.216)" fill="#fff"/>
  </g>
  <path id="Trazado_748455" data-name="Trazado 748455" d="M332.833,141.4a3.462,3.462,0,0,1-3.459,3.464h0a3.463,3.463,0,0,1-3.464-3.464V101.934a3.463,3.463,0,0,1,3.464-3.464h0a3.459,3.459,0,0,1,3.459,3.464Z" transform="translate(-183.01 -55.294)" fill="#d8e4fd"/>
  <path id="Trazado_748456" data-name="Trazado 748456" d="M357.3,116.127a3.458,3.458,0,0,1-3.46,3.459h0a3.462,3.462,0,0,1-3.464-3.459V101.934a3.463,3.463,0,0,1,3.464-3.464h0a3.459,3.459,0,0,1,3.46,3.464Z" transform="translate(-196.75 -55.294)" fill="#d8e4fd"/>
  <path id="Trazado_748457" data-name="Trazado 748457" d="M289.616,31.484H274.471a1.131,1.131,0,0,1-1.131-1.131V20.671a1.131,1.131,0,0,1,1.131-1.131h15.145a1.131,1.131,0,0,1,1.131,1.131v9.681A1.131,1.131,0,0,1,289.616,31.484ZM275.6,29.217H288.48V21.8H275.6Z" transform="translate(-153.49 -10.972)" fill="#fff"/>
  <path id="Trazado_748458" data-name="Trazado 748458" d="M293.016,29.823a2.153,2.153,0,1,1-2.153-2.153A2.154,2.154,0,0,1,293.016,29.823Z" transform="translate(-162.12 -15.537)" fill="#fff"/>
  <path id="Trazado_748459" data-name="Trazado 748459" d="M300.676,18.91a1.418,1.418,0,0,1-1.416-1.416V16.336a1.416,1.416,0,0,1,2.832,0v1.158A1.418,1.418,0,0,1,300.676,18.91Z" transform="translate(-168.045 -8.378)" fill="#fff"/>
  <g id="Grupo_1019173" data-name="Grupo 1019173" transform="translate(65.766)">
    <path id="Trazado_748460" data-name="Trazado 748460" d="M175.745,12.878A12.878,12.878,0,1,1,162.868,0,12.878,12.878,0,0,1,175.745,12.878Z" transform="translate(-149.99)" fill="#fe7062"/>
    <path id="Trazado_748461" data-name="Trazado 748461" d="M165.728,26.865a1.131,1.131,0,0,1-.789-1.942l10.514-10.256a1.132,1.132,0,0,1,1.578,1.622L166.517,26.544A1.122,1.122,0,0,1,165.728,26.865Z" transform="translate(-158.19 -8.054)" fill="#fff"/>
    <path id="Trazado_748462" data-name="Trazado 748462" d="M170.043,16.444a2.466,2.466,0,1,1-2.469-2.464A2.464,2.464,0,0,1,170.043,16.444Z" transform="translate(-158.48 -7.85)" fill="#fff"/>
    <path id="Trazado_748463" data-name="Trazado 748463" d="M188.1,33.9a2.466,2.466,0,1,1-2.469-2.464A2.464,2.464,0,0,1,188.1,33.9Z" transform="translate(-168.622 -17.655)" fill="#fff"/>
    <circle id="Elipse_8486" data-name="Elipse 8486" cx="1.026" cy="1.026" r="1.026" transform="translate(15.986 15.224)" fill="#fe7062"/>
    <path id="Trazado_748464" data-name="Trazado 748464" d="M170.452,18.286a1.026,1.026,0,1,1-1.026-1.026A1.027,1.027,0,0,1,170.452,18.286Z" transform="translate(-160.328 -9.692)" fill="#fe7062"/>
  </g>
  <g id="Grupo_1019175" data-name="Grupo 1019175" transform="translate(159.597 3.197)">
    <path id="Trazado_748465" data-name="Trazado 748465" d="M389.745,20.168A12.878,12.878,0,1,1,376.868,7.29,12.878,12.878,0,0,1,389.745,20.168Z" transform="translate(-363.99 -7.29)" fill="#57dbd8"/>
    <g id="Grupo_1019174" data-name="Grupo 1019174" transform="translate(3.863 7.756)">
      <path id="Trazado_748466" data-name="Trazado 748466" d="M391.233,30.9s-3.552,5.244-9.725,4.9a11.96,11.96,0,0,1-8.708-4.9s2.539-5.748,8.708-5.919A10.3,10.3,0,0,1,391.233,30.9Z" transform="translate(-372.8 -24.979)" fill="#fff"/>
      <path id="Trazado_748467" data-name="Trazado 748467" d="M393.118,32.559a3.889,3.889,0,1,1-3.889-3.889A3.889,3.889,0,0,1,393.118,32.559Z" transform="translate(-379.842 -27.052)" fill="#57dbd8"/>
    </g>
  </g>
  <g id="Grupo_1019176" data-name="Grupo 1019176" transform="translate(180.981 82.296)">
    <circle id="Elipse_8487" data-name="Elipse 8487" cx="14.263" cy="14.263" r="14.263" fill="#57dbd8"/>
    <path id="Trazado_748468" data-name="Trazado 748468" d="M439.459,210.78c0-.894.035-1.087-.859-1.4-1.732-.631-3.03-1.82-3.03-3.731a3.853,3.853,0,0,1,3.31-3.854c.333-.07.526-.14.544-.6.018-.386.6-.351.912-.351.351,0,.316.158.316.421,0,.474.614.4,1.14.491.281.053,2.1.368,2.1.772,0,.14-.7,2.188-.947,2.188-.421,0-.859-.719-1.855-.719-.438,0-.368.6-.368.877V206.4c0,.824.053,1.087.894,1.4,2.048.719,3.381,2.048,3.381,4.2,0,2.486-1.614,4.17-3.661,4.17-.386,0-.544.281-.544.7s-.281.351-.649.351c-.333,0-.6.088-.614-.3-.018-.579-.3-.754-.894-.754-.982,0-2.819-.859-2.819-1.193,0-.4.6-2.767.912-2.767.666,0,1.1,1.035,2.258,1.035.526,0,.474-.491.474-.842Zm0-5.919c0-.509.088-.859-.351-.859-.789,0-1.175.772-1.175,1.486a1.73,1.73,0,0,0,1.21,1.5c.263,0,.316-.649.316-1.153v-.982Zm1.263,7.708c0,.4,0,.684.509.684a1.355,1.355,0,0,0,1.4-1.381,2.031,2.031,0,0,0-1.557-1.578c-.386,0-.351.333-.351.684v1.6Z" transform="translate(-425.569 -195.079)" fill="#fff"/>
  </g>
  <g id="Grupo_1019178" data-name="Grupo 1019178" transform="translate(0.754 34.37)">
    <circle id="Elipse_8488" data-name="Elipse 8488" cx="14.263" cy="14.263" r="14.263" transform="translate(0 28.16) rotate(-80.8)" fill="#1a0f91"/>
    <g id="Grupo_1019177" data-name="Grupo 1019177" transform="translate(7.292 10.209)">
      <path id="Trazado_748469" data-name="Trazado 748469" d="M34.972,113.837H19.481a1.131,1.131,0,0,1-1.131-1.131v-9.9a1.131,1.131,0,0,1,1.131-1.131H34.972A1.131,1.131,0,0,1,36.1,102.8v9.9A1.131,1.131,0,0,1,34.972,113.837Zm-14.36-2.267H33.837v-7.638H20.612Z" transform="translate(-18.35 -101.67)" fill="#fff"/>
      <path id="Trazado_748470" data-name="Trazado 748470" d="M28.027,110.205a1.113,1.113,0,0,1-.68-.228L19.38,104l1.359-1.811L28,107.64l6.84-5.433,1.407,1.776-7.524,5.976a1.142,1.142,0,0,1-.706.246Z" transform="translate(-18.928 -101.962)" fill="#fff"/>
    </g>
  </g>
  <circle id="Elipse_8489" data-name="Elipse 8489" cx="13.917" cy="13.917" r="13.917" transform="translate(93.992 154.771) rotate(-76.76)" fill="#1a0f91"/>
  <path id="Trazado_748471" data-name="Trazado 748471" d="M239.772,326.564a9.962,9.962,0,1,1,9.962-9.962A9.972,9.972,0,0,1,239.772,326.564Zm0-17.653a7.7,7.7,0,1,0,7.7,7.7A7.7,7.7,0,0,0,239.772,308.911Z" transform="translate(-129.046 -172.188)" fill="#fff"/>
  <path id="Trazado_748472" data-name="Trazado 748472" d="M246.791,325.716a1.088,1.088,0,0,1-.509-.123l-3.35-1.688a1.132,1.132,0,0,1,1.022-2.021l2.815,1.421L250.943,321a1.132,1.132,0,1,1,1.1,1.982l-4.7,2.6A1.11,1.11,0,0,1,246.791,325.716Z" transform="translate(-136.065 -180.172)" fill="#fff"/>
  <g id="Grupo_1019180" data-name="Grupo 1019180" transform="translate(54.559 131.535)">
    <path id="Trazado_748473" data-name="Trazado 748473" d="M150.185,312.868a12.878,12.878,0,1,1-12.878-12.878A12.878,12.878,0,0,1,150.185,312.868Z" transform="translate(-124.43 -299.99)" fill="#a6e2f7"/>
    <g id="Grupo_1019179" data-name="Grupo 1019179" transform="translate(6.256 6.264)">
      <path id="Trazado_748474" data-name="Trazado 748474" d="M148.135,329.421a1.129,1.129,0,0,1-.8-.333l-2.648-2.648-2.433,2.433a1.129,1.129,0,0,1-1.166.272,1.141,1.141,0,0,1-.759-.925l-1.618-12.4a1.134,1.134,0,0,1,2.249-.294l1.32,10.12,1.609-1.609a1.13,1.13,0,0,1,1.6,0l2.648,2.648,1.25-1.25a1.132,1.132,0,1,1,1.6,1.6l-2.048,2.048a1.14,1.14,0,0,1-.8.333Z" transform="translate(-138.699 -314.424)" fill="#fff"/>
      <path id="Trazado_748475" data-name="Trazado 748475" d="M150.642,326.9a1.133,1.133,0,0,1-.8-1.934l1.245-1.25-2.648-2.648a1.133,1.133,0,0,1,0-1.6l1.609-1.609-10.12-1.32a1.134,1.134,0,1,1,.294-2.249l12.4,1.618a1.133,1.133,0,0,1,.653,1.925l-2.433,2.434,2.648,2.648a1.133,1.133,0,0,1,0,1.6l-2.048,2.048a1.14,1.14,0,0,1-.8.333Z" transform="translate(-138.834 -314.277)" fill="#fff"/>
    </g>
  </g>
</svg>
