<svg xmlns="http://www.w3.org/2000/svg" xmlns:xlink="http://www.w3.org/1999/xlink" width="944" height="473" viewBox="0 0 944 473">
  <defs>
    <filter id="Trazado_748567" x="47" y="374.19" width="233" height="74" filterUnits="userSpaceOnUse">
      <feOffset dx="3" dy="3" input="SourceAlpha"/>
      <feGaussianBlur stdDeviation="3" result="blur"/>
      <feFlood flood-opacity="0.161"/>
      <feComposite operator="in" in2="blur"/>
      <feComposite in="SourceGraphic"/>
    </filter>
    <filter id="Trazado_748565" x="350" y="44" width="233" height="74" filterUnits="userSpaceOnUse">
      <feOffset dx="3" dy="3" input="SourceAlpha"/>
      <feGaussianBlur stdDeviation="3" result="blur-2"/>
      <feFlood flood-opacity="0.161"/>
      <feComposite operator="in" in2="blur-2"/>
      <feComposite in="SourceGraphic"/>
    </filter>
    <filter id="Trazado_748566" x="350" y="192" width="233" height="94" filterUnits="userSpaceOnUse">
      <feOffset dx="3" dy="3" input="SourceAlpha"/>
      <feGaussianBlur stdDeviation="3" result="blur-3"/>
      <feFlood flood-opacity="0.161"/>
      <feComposite operator="in" in2="blur-3"/>
      <feComposite in="SourceGraphic"/>
    </filter>
    <filter id="Trazado_748568" x="340" y="374.19" width="251.756" height="74" filterUnits="userSpaceOnUse">
      <feOffset dx="3" dy="3" input="SourceAlpha"/>
      <feGaussianBlur stdDeviation="3" result="blur-4"/>
      <feFlood flood-opacity="0.161"/>
      <feComposite operator="in" in2="blur-4"/>
      <feComposite in="SourceGraphic"/>
    </filter>
    <filter id="Trazado_748569" x="652.332" y="374.19" width="244.668" height="94.81" filterUnits="userSpaceOnUse">
      <feOffset dx="3" dy="3" input="SourceAlpha"/>
      <feGaussianBlur stdDeviation="3" result="blur-5"/>
      <feFlood flood-opacity="0.161"/>
      <feComposite operator="in" in2="blur-5"/>
      <feComposite in="SourceGraphic"/>
    </filter>
  </defs>
  <g id="Grupo_1020152" data-name="Grupo 1020152" transform="translate(-327 -5076)">
    <path id="Trazado_751342" data-name="Trazado 751342" d="M0,0H944V473H0Z" transform="translate(327 5076)" fill="#fff"/>
    <g transform="matrix(1, 0, 0, 1, 327, 5076)" filter="url(#Trazado_748567)">
      <g id="Trazado_748567-2" data-name="Trazado 748567" transform="translate(53 380.19)" fill="#57dbd8">
        <path d="M 205 55 L 10 55 C 5.037388801574707 55 1 50.96261215209961 1 46 L 1 10 C 1 5.037388801574707 5.037388801574707 1 10 1 L 205 1 C 209.9626159667969 1 214 5.037388801574707 214 10 L 214 46 C 214 50.96261215209961 209.9626159667969 55 205 55 Z" stroke="none"/>
        <path d="M 10 2 C 5.588790893554688 2 2 5.588794708251953 2 10 L 2 46 C 2 50.41120529174805 5.588790893554688 54 10 54 L 205 54 C 209.4112091064453 54 213 50.41120529174805 213 46 L 213 10 C 213 5.588794708251953 209.4112091064453 2 205 2 L 10 2 M 10 0 L 205 0 C 210.5228576660156 0 215 4.477146148681641 215 10 L 215 46 C 215 51.52285385131836 210.5228576660156 56 205 56 L 10 56 C 4.477142333984375 56 0 51.52285385131836 0 46 L 0 10 C 0 4.477146148681641 4.477142333984375 0 10 0 Z" stroke="none" fill="#fff"/>
      </g>
    </g>
    <g transform="matrix(1, 0, 0, 1, 327, 5076)" filter="url(#Trazado_748565)">
      <g id="Trazado_748565-2" data-name="Trazado 748565" transform="translate(356 50)" fill="#91b3fa">
        <path d="M 205 55 L 10 55 C 5.037388801574707 55 1 50.96261215209961 1 46 L 1 10 C 1 5.037388801574707 5.037388801574707 1 10 1 L 205 1 C 209.9626159667969 1 214 5.037388801574707 214 10 L 214 46 C 214 50.96261215209961 209.9626159667969 55 205 55 Z" stroke="none"/>
        <path d="M 10 2 C 5.588790893554688 2 2 5.588794708251953 2 10 L 2 46 C 2 50.41120529174805 5.588790893554688 54 10 54 L 205 54 C 209.4112091064453 54 213 50.41120529174805 213 46 L 213 10 C 213 5.588794708251953 209.4112091064453 2 205 2 L 10 2 M 10 0 L 205 0 C 210.5228576660156 0 215 4.477146148681641 215 10 L 215 46 C 215 51.52285385131836 210.5228576660156 56 205 56 L 10 56 C 4.477142333984375 56 0 51.52285385131836 0 46 L 0 10 C 0 4.477146148681641 4.477142333984375 0 10 0 Z" stroke="none" fill="#fff"/>
      </g>
    </g>
    <path id="Trazado_751343" data-name="Trazado 751343" d="M51.876,11.908a4.414,4.414,0,0,1-.681,2.229,4.108,4.108,0,0,1-1.747,1.5,5.947,5.947,0,0,1-2.569.531,4.746,4.746,0,0,1-3.752-1.552,6.409,6.409,0,0,1-1.37-4.383v-.6a7.316,7.316,0,0,1,.618-3.109,4.686,4.686,0,0,1,1.781-2.059,4.968,4.968,0,0,1,2.689-.726A5.209,5.209,0,0,1,50.382,4.9,4.575,4.575,0,0,1,51.9,8.089H49A2.165,2.165,0,0,0,48.44,6.5a2.287,2.287,0,0,0-1.594-.481,1.74,1.74,0,0,0-1.594.813,5.228,5.228,0,0,0-.531,2.6v.855a5.785,5.785,0,0,0,.486,2.764,1.777,1.777,0,0,0,1.673.83,2.237,2.237,0,0,0,1.536-.473,2.008,2.008,0,0,0,.564-1.5Zm.9-.481A5.3,5.3,0,0,1,53.3,9.031a3.74,3.74,0,0,1,1.5-1.615,4.525,4.525,0,0,1,2.3-.564A4.13,4.13,0,0,1,60.277,8.1a4.794,4.794,0,0,1,1.162,3.4v.1a4.651,4.651,0,0,1-1.166,3.333,4.141,4.141,0,0,1-3.158,1.233,4.188,4.188,0,0,1-3.08-1.15A4.5,4.5,0,0,1,52.781,11.9Zm2.8.174a3.342,3.342,0,0,0,.39,1.826,1.3,1.3,0,0,0,1.154.581q1.494,0,1.527-2.3v-.282q0-2.416-1.544-2.416-1.4,0-1.519,2.083Zm11.8,1.876A.646.646,0,0,0,67,12.9a5.682,5.682,0,0,0-1.419-.448,6.473,6.473,0,0,1-1.727-.61,2.892,2.892,0,0,1-1.038-.917,2.19,2.19,0,0,1-.357-1.237,2.482,2.482,0,0,1,1.021-2.038,4.206,4.206,0,0,1,2.673-.8,4.66,4.66,0,0,1,2.855.805,2.518,2.518,0,0,1,1.079,2.117H67.283q0-1.079-1.137-1.079a1.127,1.127,0,0,0-.739.245.758.758,0,0,0-.3.61.7.7,0,0,0,.365.606,3.451,3.451,0,0,0,1.166.382,10.078,10.078,0,0,1,1.407.357,2.556,2.556,0,0,1,2.025,2.5,2.352,2.352,0,0,1-1.092,2,4.787,4.787,0,0,1-2.826.772,4.885,4.885,0,0,1-2.059-.415,3.442,3.442,0,0,1-1.411-1.129,2.556,2.556,0,0,1-.506-1.5h2.615a1.081,1.081,0,0,0,.415.909,1.707,1.707,0,0,0,1.021.286,1.343,1.343,0,0,0,.859-.232A.743.743,0,0,0,67.374,13.477Zm7.263-8.691V7.019h1.478V8.961H74.637V13.07a1.049,1.049,0,0,0,.183.706.98.98,0,0,0,.722.2,4.1,4.1,0,0,0,.7-.05v2a5.163,5.163,0,0,1-1.577.241,2.93,2.93,0,0,1-2.133-.681,2.79,2.79,0,0,1-.689-2.067V8.961H70.694V7.019H71.84V4.786Zm1.976,6.641a5.3,5.3,0,0,1,.523-2.395,3.74,3.74,0,0,1,1.5-1.615,4.525,4.525,0,0,1,2.3-.564A4.13,4.13,0,0,1,84.117,8.1a4.794,4.794,0,0,1,1.162,3.4v.1a4.651,4.651,0,0,1-1.166,3.333,4.141,4.141,0,0,1-3.158,1.233,4.188,4.188,0,0,1-3.08-1.15A4.5,4.5,0,0,1,76.621,11.9Zm2.8.174a3.342,3.342,0,0,0,.39,1.826,1.3,1.3,0,0,0,1.154.581q1.494,0,1.527-2.3v-.282q0-2.416-1.544-2.416-1.4,0-1.519,2.083Zm11.8,1.876a.646.646,0,0,0-.374-.573,5.682,5.682,0,0,0-1.419-.448,6.473,6.473,0,0,1-1.727-.61,2.892,2.892,0,0,1-1.038-.917A2.19,2.19,0,0,1,86.3,9.691a2.482,2.482,0,0,1,1.021-2.038,4.206,4.206,0,0,1,2.673-.8,4.66,4.66,0,0,1,2.855.805,2.518,2.518,0,0,1,1.079,2.117H91.123q0-1.079-1.137-1.079a1.127,1.127,0,0,0-.739.245.758.758,0,0,0-.3.61.7.7,0,0,0,.365.606,3.451,3.451,0,0,0,1.166.382,10.078,10.078,0,0,1,1.407.357,2.556,2.556,0,0,1,2.025,2.5,2.352,2.352,0,0,1-1.092,2,4.787,4.787,0,0,1-2.826.772,4.885,4.885,0,0,1-2.059-.415,3.442,3.442,0,0,1-1.411-1.129,2.556,2.556,0,0,1-.506-1.5h2.615a1.081,1.081,0,0,0,.415.909,1.707,1.707,0,0,0,1.021.286,1.343,1.343,0,0,0,.859-.232A.743.743,0,0,0,91.214,13.477ZM102.4,16H99.6V3.25H102.4Zm1.37-4.574a5.3,5.3,0,0,1,.523-2.395,3.74,3.74,0,0,1,1.5-1.615,4.525,4.525,0,0,1,2.3-.564A4.13,4.13,0,0,1,111.277,8.1a4.794,4.794,0,0,1,1.162,3.4v.1a4.651,4.651,0,0,1-1.166,3.333,4.141,4.141,0,0,1-3.158,1.233,4.188,4.188,0,0,1-3.08-1.15,4.5,4.5,0,0,1-1.253-3.117Zm2.8.174a3.342,3.342,0,0,0,.39,1.826,1.3,1.3,0,0,0,1.154.581q1.494,0,1.527-2.3v-.282q0-2.416-1.544-2.416-1.4,0-1.519,2.083Zm6.773-.158a6.064,6.064,0,0,1,.448-2.407,3.608,3.608,0,0,1,1.287-1.615,3.392,3.392,0,0,1,1.951-.569,2.7,2.7,0,0,1,2.191.946l.1-.78h2.54V15.66a3.787,3.787,0,0,1-.552,2.063,3.542,3.542,0,0,1-1.6,1.345,5.873,5.873,0,0,1-2.424.469,5.067,5.067,0,0,1-1.913-.374,3.454,3.454,0,0,1-1.415-.971l1.17-1.644a2.565,2.565,0,0,0,2.059.921,1.666,1.666,0,0,0,1.859-1.909v-.282a2.627,2.627,0,0,1-2.034.888,3.246,3.246,0,0,1-2.656-1.258,5.21,5.21,0,0,1-1.013-3.366Zm2.806.174a3.2,3.2,0,0,0,.415,1.747,1.309,1.309,0,0,0,1.162.643,1.486,1.486,0,0,0,1.32-.606V9.625a1.449,1.449,0,0,0-1.3-.614,1.318,1.318,0,0,0-1.17.668A3.644,3.644,0,0,0,116.149,11.617ZM126.5,16h-2.814V7.019H126.5ZM125.455,3.416h2.955L126.1,6.022l-2.283,0ZM133,13.477a.646.646,0,0,0-.374-.573,5.682,5.682,0,0,0-1.419-.448,6.473,6.473,0,0,1-1.727-.61,2.892,2.892,0,0,1-1.038-.917,2.19,2.19,0,0,1-.357-1.237,2.482,2.482,0,0,1,1.021-2.038,4.206,4.206,0,0,1,2.673-.8,4.66,4.66,0,0,1,2.855.805,2.518,2.518,0,0,1,1.079,2.117h-2.806q0-1.079-1.137-1.079a1.127,1.127,0,0,0-.739.245.758.758,0,0,0-.3.61.7.7,0,0,0,.365.606,3.451,3.451,0,0,0,1.166.382,10.079,10.079,0,0,1,1.407.357,2.556,2.556,0,0,1,2.025,2.5,2.352,2.352,0,0,1-1.092,2,4.787,4.787,0,0,1-2.826.772,4.885,4.885,0,0,1-2.059-.415,3.442,3.442,0,0,1-1.411-1.129,2.556,2.556,0,0,1-.506-1.5h2.615a1.081,1.081,0,0,0,.415.909,1.707,1.707,0,0,0,1.021.286,1.343,1.343,0,0,0,.859-.232A.743.743,0,0,0,133,13.477Zm7.263-8.691V7.019h1.478V8.961h-1.478V13.07a1.049,1.049,0,0,0,.183.706.98.98,0,0,0,.722.2,4.1,4.1,0,0,0,.7-.05v2a5.163,5.163,0,0,1-1.577.241,2.93,2.93,0,0,1-2.133-.681,2.79,2.79,0,0,1-.689-2.067V8.961H136.32V7.019h1.146V4.786ZM145.792,16h-2.806V7.019h2.806ZM142.82,4.7a1.249,1.249,0,0,1,.432-.979,1.835,1.835,0,0,1,2.241,0,1.249,1.249,0,0,1,.432.979,1.249,1.249,0,0,1-.432.979,1.835,1.835,0,0,1-2.241,0A1.249,1.249,0,0,1,142.82,4.7Zm8.492,9.305a1.244,1.244,0,0,0,.913-.32,1.172,1.172,0,0,0,.315-.892h2.623A3.105,3.105,0,0,1,154.1,15.22a3.937,3.937,0,0,1-2.727.946,3.986,3.986,0,0,1-3.088-1.229,4.84,4.84,0,0,1-1.129-3.4v-.116a5.471,5.471,0,0,1,.5-2.4,3.656,3.656,0,0,1,1.448-1.6,4.319,4.319,0,0,1,2.241-.56,3.887,3.887,0,0,1,2.781.971,3.445,3.445,0,0,1,1.029,2.631H152.54a1.536,1.536,0,0,0-.34-1.071,1.175,1.175,0,0,0-.913-.374q-1.087,0-1.27,1.386a9.781,9.781,0,0,0-.058,1.212,3.842,3.842,0,0,0,.324,1.876A1.121,1.121,0,0,0,151.312,14.008Zm4.682-2.582a5.3,5.3,0,0,1,.523-2.395,3.74,3.74,0,0,1,1.5-1.615,4.525,4.525,0,0,1,2.3-.564A4.13,4.13,0,0,1,163.5,8.1a4.794,4.794,0,0,1,1.162,3.4v.1a4.651,4.651,0,0,1-1.166,3.333,4.141,4.141,0,0,1-3.158,1.233,4.188,4.188,0,0,1-3.08-1.15A4.5,4.5,0,0,1,156,11.9Zm2.8.174a3.342,3.342,0,0,0,.39,1.826,1.3,1.3,0,0,0,1.154.581q1.494,0,1.527-2.3v-.282q0-2.416-1.544-2.416-1.4,0-1.519,2.083Zm11.8,1.876a.646.646,0,0,0-.374-.573,5.682,5.682,0,0,0-1.419-.448,6.473,6.473,0,0,1-1.727-.61,2.892,2.892,0,0,1-1.038-.917,2.19,2.19,0,0,1-.357-1.237A2.482,2.482,0,0,1,166.7,7.654a4.206,4.206,0,0,1,2.673-.8,4.66,4.66,0,0,1,2.855.805,2.518,2.518,0,0,1,1.079,2.117H170.5q0-1.079-1.137-1.079a1.127,1.127,0,0,0-.739.245.758.758,0,0,0-.3.61.7.7,0,0,0,.365.606,3.451,3.451,0,0,0,1.166.382,10.079,10.079,0,0,1,1.407.357,2.556,2.556,0,0,1,2.025,2.5,2.352,2.352,0,0,1-1.092,2,4.787,4.787,0,0,1-2.826.772,4.885,4.885,0,0,1-2.059-.415,3.442,3.442,0,0,1-1.411-1.129,2.556,2.556,0,0,1-.506-1.5h2.615a1.081,1.081,0,0,0,.415.909,1.707,1.707,0,0,0,1.021.286,1.343,1.343,0,0,0,.859-.232A.743.743,0,0,0,170.594,13.477Z" transform="translate(683 5143)" fill="#12263f"/>
    <g transform="matrix(1, 0, 0, 1, 327, 5076)" filter="url(#Trazado_748566)">
      <g id="Trazado_748566-2" data-name="Trazado 748566" transform="translate(356 198)" fill="#91b3fa">
        <path d="M 205 75 L 10 75 C 5.037388801574707 75 1 70.96260833740234 1 66 L 1 10 C 1 5.037388801574707 5.037388801574707 1 10 1 L 205 1 C 209.9626159667969 1 214 5.037388801574707 214 10 L 214 66 C 214 70.96260833740234 209.9626159667969 75 205 75 Z" stroke="none"/>
        <path d="M 10 2 C 5.588790893554688 2 2 5.588790893554688 2 10 L 2 66 C 2 70.41120910644531 5.588790893554688 74 10 74 L 205 74 C 209.4112091064453 74 213 70.41120910644531 213 66 L 213 10 C 213 5.588790893554688 209.4112091064453 2 205 2 L 10 2 M 10 0 L 205 0 C 210.5228576660156 0 215 4.477149963378906 215 10 L 215 66 C 215 71.52285003662109 210.5228576660156 76 205 76 L 10 76 C 4.477142333984375 76 0 71.52285003662109 0 66 L 0 10 C 0 4.477149963378906 4.477142333984375 0 10 0 Z" stroke="none" fill="#fff"/>
      </g>
    </g>
    <path id="Trazado_751344" data-name="Trazado 751344" d="M49.041,11.908a4.414,4.414,0,0,1-.681,2.229,4.108,4.108,0,0,1-1.747,1.5,5.947,5.947,0,0,1-2.569.531,4.746,4.746,0,0,1-3.752-1.552,6.409,6.409,0,0,1-1.37-4.383v-.6a7.316,7.316,0,0,1,.618-3.109,4.686,4.686,0,0,1,1.781-2.059,4.968,4.968,0,0,1,2.689-.726A5.209,5.209,0,0,1,47.547,4.9a4.575,4.575,0,0,1,1.519,3.192H46.161A2.165,2.165,0,0,0,45.6,6.5a2.287,2.287,0,0,0-1.594-.481,1.74,1.74,0,0,0-1.594.813,5.228,5.228,0,0,0-.531,2.6v.855a5.785,5.785,0,0,0,.486,2.764,1.777,1.777,0,0,0,1.673.83,2.237,2.237,0,0,0,1.536-.473,2.008,2.008,0,0,0,.564-1.5Zm.9-.481a5.3,5.3,0,0,1,.523-2.395,3.74,3.74,0,0,1,1.5-1.615,4.525,4.525,0,0,1,2.3-.564A4.13,4.13,0,0,1,57.441,8.1,4.794,4.794,0,0,1,58.6,11.5v.1a4.651,4.651,0,0,1-1.166,3.333,4.141,4.141,0,0,1-3.158,1.233,4.188,4.188,0,0,1-3.08-1.15A4.5,4.5,0,0,1,49.946,11.9Zm2.8.174a3.342,3.342,0,0,0,.39,1.826,1.3,1.3,0,0,0,1.154.581q1.494,0,1.527-2.3v-.282q0-2.416-1.544-2.416-1.4,0-1.519,2.083Zm11.8,1.876a.646.646,0,0,0-.374-.573,5.682,5.682,0,0,0-1.419-.448,6.473,6.473,0,0,1-1.727-.61,2.892,2.892,0,0,1-1.038-.917,2.19,2.19,0,0,1-.357-1.237,2.482,2.482,0,0,1,1.021-2.038,4.206,4.206,0,0,1,2.673-.8,4.66,4.66,0,0,1,2.855.805,2.518,2.518,0,0,1,1.079,2.117H64.447q0-1.079-1.137-1.079a1.127,1.127,0,0,0-.739.245.758.758,0,0,0-.3.61.7.7,0,0,0,.365.606,3.451,3.451,0,0,0,1.166.382,10.078,10.078,0,0,1,1.407.357,2.556,2.556,0,0,1,2.025,2.5,2.352,2.352,0,0,1-1.092,2,4.787,4.787,0,0,1-2.826.772,4.885,4.885,0,0,1-2.059-.415,3.442,3.442,0,0,1-1.411-1.129,2.556,2.556,0,0,1-.506-1.5h2.615a1.081,1.081,0,0,0,.415.909,1.707,1.707,0,0,0,1.021.286,1.343,1.343,0,0,0,.859-.232A.743.743,0,0,0,64.539,13.477ZM71.8,4.786V7.019h1.478V8.961H71.8V13.07a1.049,1.049,0,0,0,.183.706.98.98,0,0,0,.722.2,4.1,4.1,0,0,0,.7-.05v2a5.163,5.163,0,0,1-1.577.241,2.93,2.93,0,0,1-2.133-.681A2.79,2.79,0,0,1,69,13.418V8.961H67.859V7.019H69V4.786Zm1.976,6.641A5.3,5.3,0,0,1,74.3,9.031a3.74,3.74,0,0,1,1.5-1.615,4.525,4.525,0,0,1,2.3-.564A4.13,4.13,0,0,1,81.281,8.1a4.794,4.794,0,0,1,1.162,3.4v.1a4.651,4.651,0,0,1-1.166,3.333,4.141,4.141,0,0,1-3.158,1.233,4.188,4.188,0,0,1-3.08-1.15A4.5,4.5,0,0,1,73.786,11.9Zm2.8.174a3.342,3.342,0,0,0,.39,1.826,1.3,1.3,0,0,0,1.154.581q1.494,0,1.527-2.3v-.282q0-2.416-1.544-2.416-1.4,0-1.519,2.083Zm11.8,1.876A.646.646,0,0,0,88,12.9a5.682,5.682,0,0,0-1.419-.448,6.473,6.473,0,0,1-1.727-.61,2.892,2.892,0,0,1-1.038-.917,2.19,2.19,0,0,1-.357-1.237,2.482,2.482,0,0,1,1.021-2.038,4.206,4.206,0,0,1,2.673-.8,4.66,4.66,0,0,1,2.855.805,2.518,2.518,0,0,1,1.079,2.117H88.287q0-1.079-1.137-1.079a1.127,1.127,0,0,0-.739.245.758.758,0,0,0-.3.61.7.7,0,0,0,.365.606,3.451,3.451,0,0,0,1.166.382,10.078,10.078,0,0,1,1.407.357,2.556,2.556,0,0,1,2.025,2.5,2.352,2.352,0,0,1-1.092,2,4.787,4.787,0,0,1-2.826.772,4.885,4.885,0,0,1-2.059-.415,3.442,3.442,0,0,1-1.411-1.129,2.556,2.556,0,0,1-.506-1.5H85.8a1.081,1.081,0,0,0,.415.909,1.707,1.707,0,0,0,1.021.286,1.343,1.343,0,0,0,.859-.232A.743.743,0,0,0,88.378,13.477Zm7.886-2.034a5.486,5.486,0,0,1,.921-3.362,3.033,3.033,0,0,1,2.573-1.229,2.579,2.579,0,0,1,2.025.946V3.25h2.806V16h-2.515l-.141-.963a2.649,2.649,0,0,1-2.191,1.129,3.027,3.027,0,0,1-2.54-1.229A5.66,5.66,0,0,1,96.264,11.443Zm2.8.174q0,2.391,1.395,2.391a1.377,1.377,0,0,0,1.328-.78V9.808a1.34,1.34,0,0,0-1.312-.8q-1.295,0-1.4,2.092Zm11.463,4.549a4.617,4.617,0,0,1-3.345-1.233,4.257,4.257,0,0,1-1.278-3.208v-.232a5.516,5.516,0,0,1,.51-2.432,3.735,3.735,0,0,1,1.49-1.631,4.5,4.5,0,0,1,2.324-.577,3.888,3.888,0,0,1,2.988,1.175,4.616,4.616,0,0,1,1.1,3.275v1.087h-5.562a2.016,2.016,0,0,0,.656,1.187,1.951,1.951,0,0,0,1.312.432,2.514,2.514,0,0,0,2.075-.93l1.278,1.511a3.573,3.573,0,0,1-1.482,1.15A5.007,5.007,0,0,1,110.525,16.166Zm-.315-7.155q-1.229,0-1.461,1.627h2.822v-.216a1.386,1.386,0,0,0-.34-1.042A1.354,1.354,0,0,0,110.209,9.011ZM17.436,38.477a.646.646,0,0,0-.374-.573,5.682,5.682,0,0,0-1.419-.448,6.473,6.473,0,0,1-1.727-.61,2.892,2.892,0,0,1-1.038-.917,2.19,2.19,0,0,1-.357-1.237,2.482,2.482,0,0,1,1.021-2.038,4.206,4.206,0,0,1,2.673-.8,4.66,4.66,0,0,1,2.855.805,2.518,2.518,0,0,1,1.079,2.117H17.344q0-1.079-1.137-1.079a1.127,1.127,0,0,0-.739.245.758.758,0,0,0-.3.61.7.7,0,0,0,.365.606,3.451,3.451,0,0,0,1.166.382,10.078,10.078,0,0,1,1.407.357,2.556,2.556,0,0,1,2.025,2.5,2.352,2.352,0,0,1-1.092,2,4.787,4.787,0,0,1-2.826.772,4.885,4.885,0,0,1-2.059-.415,3.442,3.442,0,0,1-1.411-1.129,2.556,2.556,0,0,1-.506-1.5h2.615a1.081,1.081,0,0,0,.415.909,1.707,1.707,0,0,0,1.021.286,1.343,1.343,0,0,0,.859-.232A.743.743,0,0,0,17.436,38.477Zm9.355,1.552a2.884,2.884,0,0,1-2.4,1.137,2.829,2.829,0,0,1-2.237-.859,3.613,3.613,0,0,1-.76-2.469V32.019h2.8v5.835a1,1,0,0,0,1.121,1.154,1.462,1.462,0,0,0,1.37-.689v-6.3H29.5V41H26.874Zm6.881-8.01.091,1.054a3.088,3.088,0,0,1,2.565-1.22,2.273,2.273,0,0,1,2.3,1.353,2.989,2.989,0,0,1,2.64-1.353q2.731,0,2.806,3.3V41H41.267V35.331a1.712,1.712,0,0,0-.232-1,.989.989,0,0,0-.847-.315,1.325,1.325,0,0,0-1.237.739l.008.116V41H36.154V35.347a1.8,1.8,0,0,0-.224-1.021.987.987,0,0,0-.855-.315,1.342,1.342,0,0,0-1.229.739V41h-2.8V32.019ZM48.622,41H45.816V32.019h2.806ZM45.65,29.7a1.249,1.249,0,0,1,.432-.979,1.835,1.835,0,0,1,2.241,0,1.327,1.327,0,0,1,0,1.959,1.835,1.835,0,0,1-2.241,0A1.249,1.249,0,0,1,45.65,29.7Zm7.263,2.316L53,33.073a3.046,3.046,0,0,1,2.565-1.22,2.562,2.562,0,0,1,2.1.838,3.991,3.991,0,0,1,.718,2.523V41H55.578V35.331a1.516,1.516,0,0,0-.274-1,1.267,1.267,0,0,0-1-.32,1.334,1.334,0,0,0-1.22.647V41h-2.8V32.019ZM62.883,41H60.077V32.019h2.806ZM59.911,29.7a1.249,1.249,0,0,1,.432-.979,1.835,1.835,0,0,1,2.241,0,1.327,1.327,0,0,1,0,1.959,1.835,1.835,0,0,1-2.241,0A1.249,1.249,0,0,1,59.911,29.7Zm9.4,8.774a.646.646,0,0,0-.374-.573,5.682,5.682,0,0,0-1.419-.448,6.473,6.473,0,0,1-1.727-.61,2.892,2.892,0,0,1-1.038-.917,2.19,2.19,0,0,1-.357-1.237,2.482,2.482,0,0,1,1.021-2.038,4.206,4.206,0,0,1,2.673-.8,4.66,4.66,0,0,1,2.855.805,2.518,2.518,0,0,1,1.079,2.117H69.216q0-1.079-1.137-1.079a1.127,1.127,0,0,0-.739.245.758.758,0,0,0-.3.61.7.7,0,0,0,.365.606,3.451,3.451,0,0,0,1.166.382,10.078,10.078,0,0,1,1.407.357,2.556,2.556,0,0,1,2.025,2.5,2.352,2.352,0,0,1-1.092,2,4.787,4.787,0,0,1-2.826.772,4.885,4.885,0,0,1-2.059-.415,3.442,3.442,0,0,1-1.411-1.129,2.556,2.556,0,0,1-.506-1.5h2.615a1.081,1.081,0,0,0,.415.909,1.707,1.707,0,0,0,1.021.286,1.343,1.343,0,0,0,.859-.232A.743.743,0,0,0,69.307,38.477Zm7.263-8.691v2.233h1.478v1.942H76.571V38.07a1.049,1.049,0,0,0,.183.706.98.98,0,0,0,.722.2,4.1,4.1,0,0,0,.7-.05v2a5.163,5.163,0,0,1-1.577.241,2.93,2.93,0,0,1-2.133-.681,2.79,2.79,0,0,1-.689-2.067V33.961H72.628V32.019h1.146V29.786Zm8.01,4.765-.921-.066a1.655,1.655,0,0,0-1.693.83V41h-2.8V32.019h2.623l.091,1.154a2.166,2.166,0,0,1,1.967-1.32,2.728,2.728,0,0,1,.78.1Zm.357,1.876a5.3,5.3,0,0,1,.523-2.395,3.74,3.74,0,0,1,1.5-1.615,4.525,4.525,0,0,1,2.3-.564A4.13,4.13,0,0,1,92.442,33.1,4.794,4.794,0,0,1,93.6,36.5v.1a4.651,4.651,0,0,1-1.166,3.333,4.141,4.141,0,0,1-3.158,1.233,4.188,4.188,0,0,1-3.08-1.15A4.5,4.5,0,0,1,84.946,36.9Zm2.8.174a3.342,3.342,0,0,0,.39,1.826,1.3,1.3,0,0,0,1.154.581q1.494,0,1.527-2.3v-.282q0-2.416-1.544-2.416-1.4,0-1.519,2.083ZM99.688,41V33.961h-1.3V32.019h1.3V31.3a3.1,3.1,0,0,1,.9-2.382,3.575,3.575,0,0,1,2.54-.847,5.562,5.562,0,0,1,1.312.174l.008,2.059a2.556,2.556,0,0,0-.689-.075q-1.27,0-1.27,1.1v.689h1.751v1.942h-1.751V41Zm8.591,0h-2.814V32.019h2.814Zm-1.046-12.584h2.955l-2.308,2.606-2.283,0Zm7.545,10.061a.646.646,0,0,0-.374-.573,5.682,5.682,0,0,0-1.419-.448,6.473,6.473,0,0,1-1.727-.61,2.892,2.892,0,0,1-1.038-.917,2.19,2.19,0,0,1-.357-1.237,2.482,2.482,0,0,1,1.021-2.038,4.206,4.206,0,0,1,2.673-.8,4.66,4.66,0,0,1,2.855.805,2.518,2.518,0,0,1,1.079,2.117h-2.806q0-1.079-1.137-1.079a1.127,1.127,0,0,0-.739.245.758.758,0,0,0-.3.61.7.7,0,0,0,.365.606,3.451,3.451,0,0,0,1.166.382,10.078,10.078,0,0,1,1.407.357,2.556,2.556,0,0,1,2.025,2.5,2.352,2.352,0,0,1-1.092,2,4.787,4.787,0,0,1-2.826.772,4.885,4.885,0,0,1-2.059-.415,3.442,3.442,0,0,1-1.411-1.129,2.556,2.556,0,0,1-.506-1.5H112.2a1.081,1.081,0,0,0,.415.909,1.707,1.707,0,0,0,1.021.286,1.343,1.343,0,0,0,.859-.232A.743.743,0,0,0,114.779,38.477ZM121.735,41h-2.806V32.019h2.806Zm-2.972-11.3a1.249,1.249,0,0,1,.432-.979,1.835,1.835,0,0,1,2.241,0,1.327,1.327,0,0,1,0,1.959,1.835,1.835,0,0,1-2.241,0A1.249,1.249,0,0,1,118.763,29.7Zm8.492,9.305a1.244,1.244,0,0,0,.913-.32,1.172,1.172,0,0,0,.315-.892h2.623a3.105,3.105,0,0,1-1.058,2.424,3.937,3.937,0,0,1-2.727.946,3.986,3.986,0,0,1-3.088-1.229,4.841,4.841,0,0,1-1.129-3.4v-.116a5.471,5.471,0,0,1,.5-2.4,3.656,3.656,0,0,1,1.448-1.6,4.319,4.319,0,0,1,2.241-.56,3.887,3.887,0,0,1,2.781.971,3.445,3.445,0,0,1,1.029,2.631h-2.623a1.536,1.536,0,0,0-.34-1.071,1.175,1.175,0,0,0-.913-.374q-1.087,0-1.27,1.386a9.782,9.782,0,0,0-.058,1.212,3.842,3.842,0,0,0,.324,1.876A1.121,1.121,0,0,0,127.255,39.008Zm4.682-2.582a5.3,5.3,0,0,1,.523-2.395,3.74,3.74,0,0,1,1.5-1.615,4.525,4.525,0,0,1,2.3-.564,4.13,4.13,0,0,1,3.179,1.249,4.794,4.794,0,0,1,1.162,3.4v.1a4.651,4.651,0,0,1-1.166,3.333,4.141,4.141,0,0,1-3.158,1.233,4.188,4.188,0,0,1-3.08-1.15,4.5,4.5,0,0,1-1.253-3.117Zm2.8.174a3.342,3.342,0,0,0,.39,1.826,1.3,1.3,0,0,0,1.154.581q1.494,0,1.527-2.3v-.282q0-2.416-1.544-2.416-1.4,0-1.519,2.083Z" transform="translate(714 5291)" fill="#12263f"/>
    <path id="Trazado_751345" data-name="Trazado 751345" d="M38.259,11.908a4.414,4.414,0,0,1-.681,2.229,4.108,4.108,0,0,1-1.747,1.5,5.947,5.947,0,0,1-2.569.531,4.746,4.746,0,0,1-3.752-1.552,6.409,6.409,0,0,1-1.37-4.383v-.6a7.316,7.316,0,0,1,.618-3.109,4.686,4.686,0,0,1,1.781-2.059,4.968,4.968,0,0,1,2.689-.726A5.209,5.209,0,0,1,36.765,4.9a4.575,4.575,0,0,1,1.519,3.192H35.379A2.165,2.165,0,0,0,34.823,6.5a2.287,2.287,0,0,0-1.594-.481,1.74,1.74,0,0,0-1.594.813,5.228,5.228,0,0,0-.531,2.6v.855a5.785,5.785,0,0,0,.486,2.764,1.777,1.777,0,0,0,1.673.83A2.237,2.237,0,0,0,34.8,13.41a2.008,2.008,0,0,0,.564-1.5Zm.9-.481a5.3,5.3,0,0,1,.523-2.395,3.74,3.74,0,0,1,1.5-1.615,4.525,4.525,0,0,1,2.3-.564A4.13,4.13,0,0,1,46.659,8.1a4.794,4.794,0,0,1,1.162,3.4v.1a4.651,4.651,0,0,1-1.166,3.333A4.141,4.141,0,0,1,43.5,16.166a4.188,4.188,0,0,1-3.08-1.15A4.5,4.5,0,0,1,39.164,11.9Zm2.8.174a3.342,3.342,0,0,0,.39,1.826,1.3,1.3,0,0,0,1.154.581q1.494,0,1.527-2.3v-.282q0-2.416-1.544-2.416-1.4,0-1.519,2.083Zm11.8,1.876a.646.646,0,0,0-.374-.573,5.682,5.682,0,0,0-1.419-.448,6.473,6.473,0,0,1-1.727-.61,2.892,2.892,0,0,1-1.038-.917,2.19,2.19,0,0,1-.357-1.237,2.482,2.482,0,0,1,1.021-2.038,4.206,4.206,0,0,1,2.673-.8,4.66,4.66,0,0,1,2.855.805,2.518,2.518,0,0,1,1.079,2.117H53.665q0-1.079-1.137-1.079a1.127,1.127,0,0,0-.739.245.758.758,0,0,0-.3.61.7.7,0,0,0,.365.606,3.451,3.451,0,0,0,1.166.382,10.078,10.078,0,0,1,1.407.357,2.556,2.556,0,0,1,2.025,2.5,2.352,2.352,0,0,1-1.092,2,4.787,4.787,0,0,1-2.826.772,4.885,4.885,0,0,1-2.059-.415,3.442,3.442,0,0,1-1.411-1.129,2.556,2.556,0,0,1-.506-1.5h2.615a1.081,1.081,0,0,0,.415.909,1.707,1.707,0,0,0,1.021.286,1.343,1.343,0,0,0,.859-.232A.743.743,0,0,0,53.757,13.477ZM61.02,4.786V7.019H62.5V8.961H61.02V13.07a1.049,1.049,0,0,0,.183.706.98.98,0,0,0,.722.2,4.1,4.1,0,0,0,.7-.05v2a5.163,5.163,0,0,1-1.577.241,2.93,2.93,0,0,1-2.133-.681,2.79,2.79,0,0,1-.689-2.067V8.961H57.077V7.019h1.146V4.786ZM63,11.426a5.3,5.3,0,0,1,.523-2.395,3.74,3.74,0,0,1,1.5-1.615,4.525,4.525,0,0,1,2.3-.564A4.13,4.13,0,0,1,70.5,8.1a4.794,4.794,0,0,1,1.162,3.4v.1A4.651,4.651,0,0,1,70.5,14.933a4.141,4.141,0,0,1-3.158,1.233,4.188,4.188,0,0,1-3.08-1.15A4.5,4.5,0,0,1,63,11.9Zm2.8.174a3.342,3.342,0,0,0,.39,1.826,1.3,1.3,0,0,0,1.154.581q1.494,0,1.527-2.3v-.282q0-2.416-1.544-2.416-1.4,0-1.519,2.083Zm10.982-.158A5.486,5.486,0,0,1,77.7,8.081a3.033,3.033,0,0,1,2.573-1.229,2.579,2.579,0,0,1,2.025.946V3.25H85.1V16H82.585l-.141-.963a2.649,2.649,0,0,1-2.191,1.129,3.027,3.027,0,0,1-2.54-1.229A5.66,5.66,0,0,1,76.775,11.443Zm2.8.174q0,2.391,1.395,2.391a1.377,1.377,0,0,0,1.328-.78V9.808a1.34,1.34,0,0,0-1.312-.8q-1.295,0-1.4,2.092Zm11.463,4.549a4.617,4.617,0,0,1-3.345-1.233,4.257,4.257,0,0,1-1.278-3.208v-.232a5.516,5.516,0,0,1,.51-2.432,3.735,3.735,0,0,1,1.49-1.631,4.5,4.5,0,0,1,2.324-.577,3.888,3.888,0,0,1,2.988,1.175,4.616,4.616,0,0,1,1.1,3.275v1.087H89.259a2.016,2.016,0,0,0,.656,1.187,1.951,1.951,0,0,0,1.312.432,2.514,2.514,0,0,0,2.075-.93l1.278,1.511a3.573,3.573,0,0,1-1.482,1.15A5.007,5.007,0,0,1,91.035,16.166ZM90.72,9.011q-1.229,0-1.461,1.627h2.822v-.216a1.386,1.386,0,0,0-.34-1.042A1.354,1.354,0,0,0,90.72,9.011ZM103.13,16h-2.806V3.25h2.806Zm1.37-4.574a5.3,5.3,0,0,1,.523-2.395,3.74,3.74,0,0,1,1.5-1.615,4.525,4.525,0,0,1,2.3-.564A4.13,4.13,0,0,1,112,8.1a4.794,4.794,0,0,1,1.162,3.4v.1A4.651,4.651,0,0,1,112,14.933a4.141,4.141,0,0,1-3.158,1.233,4.188,4.188,0,0,1-3.08-1.15,4.5,4.5,0,0,1-1.253-3.117Zm2.8.174a3.342,3.342,0,0,0,.39,1.826,1.3,1.3,0,0,0,1.154.581q1.494,0,1.527-2.3v-.282q0-2.416-1.544-2.416-1.4,0-1.519,2.083Zm11.8,1.876a.646.646,0,0,0-.374-.573,5.682,5.682,0,0,0-1.419-.448,6.473,6.473,0,0,1-1.727-.61,2.892,2.892,0,0,1-1.038-.917,2.19,2.19,0,0,1-.357-1.237,2.482,2.482,0,0,1,1.021-2.038,4.206,4.206,0,0,1,2.673-.8,4.66,4.66,0,0,1,2.855.805,2.518,2.518,0,0,1,1.079,2.117h-2.806q0-1.079-1.137-1.079a1.127,1.127,0,0,0-.739.245.758.758,0,0,0-.3.61.7.7,0,0,0,.365.606,3.451,3.451,0,0,0,1.166.382,10.078,10.078,0,0,1,1.407.357,2.556,2.556,0,0,1,2.025,2.5,2.352,2.352,0,0,1-1.092,2,4.787,4.787,0,0,1-2.826.772,4.885,4.885,0,0,1-2.059-.415,3.442,3.442,0,0,1-1.411-1.129,2.556,2.556,0,0,1-.506-1.5h2.615a1.081,1.081,0,0,0,.415.909,1.707,1.707,0,0,0,1.021.286,1.343,1.343,0,0,0,.859-.232A.743.743,0,0,0,119.1,13.477Zm16.577-1.9a5.416,5.416,0,0,1-.942,3.341,3.021,3.021,0,0,1-2.544,1.249,2.589,2.589,0,0,1-2.034-.9v4.192h-2.8V7.019h2.615l.083.83a2.589,2.589,0,0,1,2.117-1,3.045,3.045,0,0,1,2.582,1.224,5.483,5.483,0,0,1,.921,3.366Zm-2.8-.174q0-2.391-1.395-2.391a1.317,1.317,0,0,0-1.328.714v3.536a1.359,1.359,0,0,0,1.345.747q1.336,0,1.378-2.308Zm8.375,4.765a4.617,4.617,0,0,1-3.345-1.233,4.257,4.257,0,0,1-1.278-3.208v-.232a5.516,5.516,0,0,1,.51-2.432,3.735,3.735,0,0,1,1.49-1.631,4.5,4.5,0,0,1,2.324-.577,3.888,3.888,0,0,1,2.988,1.175,4.616,4.616,0,0,1,1.1,3.275v1.087h-5.562a2.016,2.016,0,0,0,.656,1.187,1.951,1.951,0,0,0,1.312.432,2.514,2.514,0,0,0,2.075-.93l1.278,1.511a3.573,3.573,0,0,1-1.482,1.15A5.007,5.007,0,0,1,141.255,16.166Zm-.315-7.155q-1.229,0-1.461,1.627H142.3v-.216a1.386,1.386,0,0,0-.34-1.042A1.354,1.354,0,0,0,140.94,9.011Zm4.873,2.432a5.486,5.486,0,0,1,.921-3.362,3.033,3.033,0,0,1,2.573-1.229,2.579,2.579,0,0,1,2.025.946V3.25h2.806V16h-2.515l-.141-.963a2.649,2.649,0,0,1-2.191,1.129,3.027,3.027,0,0,1-2.54-1.229A5.66,5.66,0,0,1,145.812,11.443Zm2.8.174q0,2.391,1.395,2.391a1.377,1.377,0,0,0,1.328-.78V9.808a1.34,1.34,0,0,0-1.312-.8q-1.295,0-1.4,2.092ZM158.678,16h-2.806V7.019h2.806ZM155.707,4.7a1.249,1.249,0,0,1,.432-.979,1.835,1.835,0,0,1,2.241,0,1.249,1.249,0,0,1,.432.979,1.249,1.249,0,0,1-.432.979,1.835,1.835,0,0,1-2.241,0A1.249,1.249,0,0,1,155.707,4.7Zm4.341,6.74a5.486,5.486,0,0,1,.921-3.362,3.033,3.033,0,0,1,2.573-1.229,2.579,2.579,0,0,1,2.025.946V3.25h2.806V16h-2.515l-.141-.963a2.649,2.649,0,0,1-2.191,1.129,3.027,3.027,0,0,1-2.54-1.229A5.66,5.66,0,0,1,160.048,11.443Zm2.8.174q0,2.391,1.395,2.391a1.377,1.377,0,0,0,1.328-.78V9.808a1.34,1.34,0,0,0-1.312-.8q-1.295,0-1.4,2.092Zm6.765-.191a5.3,5.3,0,0,1,.523-2.395,3.74,3.74,0,0,1,1.5-1.615,4.525,4.525,0,0,1,2.3-.564A4.13,4.13,0,0,1,177.115,8.1a4.794,4.794,0,0,1,1.162,3.4v.1a4.651,4.651,0,0,1-1.166,3.333,4.141,4.141,0,0,1-3.158,1.233,4.188,4.188,0,0,1-3.08-1.15,4.5,4.5,0,0,1-1.253-3.117Zm2.8.174a3.342,3.342,0,0,0,.39,1.826,1.3,1.3,0,0,0,1.154.581q1.494,0,1.527-2.3v-.282q0-2.416-1.544-2.416-1.4,0-1.519,2.083Zm11.8,1.876a.646.646,0,0,0-.374-.573,5.682,5.682,0,0,0-1.419-.448,6.473,6.473,0,0,1-1.727-.61,2.892,2.892,0,0,1-1.038-.917,2.19,2.19,0,0,1-.357-1.237,2.482,2.482,0,0,1,1.021-2.038,4.206,4.206,0,0,1,2.673-.8,4.66,4.66,0,0,1,2.855.805,2.518,2.518,0,0,1,1.079,2.117H184.12q0-1.079-1.137-1.079a1.127,1.127,0,0,0-.739.245.758.758,0,0,0-.3.61.7.7,0,0,0,.365.606,3.451,3.451,0,0,0,1.166.382,10.079,10.079,0,0,1,1.407.357,2.556,2.556,0,0,1,2.025,2.5,2.352,2.352,0,0,1-1.092,2,4.787,4.787,0,0,1-2.826.772,4.885,4.885,0,0,1-2.059-.415,3.442,3.442,0,0,1-1.411-1.129,2.556,2.556,0,0,1-.506-1.5h2.615a1.081,1.081,0,0,0,.415.909,1.707,1.707,0,0,0,1.021.286,1.343,1.343,0,0,0,.859-.232A.743.743,0,0,0,184.212,13.477Z" transform="translate(380 5473.19)" fill="#12263f"/>
    <g transform="matrix(1, 0, 0, 1, 327, 5076)" filter="url(#Trazado_748568)">
      <g id="Trazado_748568-2" data-name="Trazado 748568" transform="translate(346 380.19)" fill="#57dbd8">
        <path d="M 222.8834838867188 55 L 10.87237071990967 55 C 5.428723812103271 55 1.000017881393433 50.96261596679688 1.000017881393433 46 L 1.000017881393433 10 C 1.000017881393433 5.037382125854492 5.428723812103271 1 10.87237071990967 1 L 222.8834838867188 1 C 228.3271331787109 1 232.7558746337891 5.037382125854492 232.7558746337891 10 L 232.7558746337891 46 C 232.7558746337891 50.96261596679688 228.3271331787109 55 222.8834838867188 55 Z" stroke="none"/>
        <path d="M 10.87236022949219 2 C 5.980117797851562 2 1.999984741210938 5.588779449462891 1.999984741210938 10 L 1.999984741210938 46 C 1.999984741210938 50.41121673583984 5.980117797851562 54 10.87236022949219 54 L 222.8834991455078 54 C 227.7757415771484 54 231.7558746337891 50.41121673583984 231.7558746337891 46 L 231.7558746337891 10 C 231.7558746337891 5.588779449462891 227.7757415771484 2 222.8834991455078 2 L 10.87236022949219 2 M 10.87236022949219 0 L 222.8834991455078 0 C 228.8881225585938 0 233.7558746337891 4.477157592773438 233.7558746337891 10 L 233.7558746337891 46 C 233.7558746337891 51.52284240722656 228.8881225585938 56 222.8834991455078 56 L 10.87236022949219 56 C 4.867706298828125 56 -1.52587890625e-05 51.52284240722656 -1.52587890625e-05 46 L -1.52587890625e-05 10 C -1.52587890625e-05 4.477157592773438 4.867706298828125 0 10.87236022949219 0 Z" stroke="none" fill="#fff"/>
      </g>
    </g>
    <path id="Trazado_751346" data-name="Trazado 751346" d="M18.6,11.908a4.414,4.414,0,0,1-.681,2.229,4.108,4.108,0,0,1-1.747,1.5,5.947,5.947,0,0,1-2.569.531,4.746,4.746,0,0,1-3.752-1.552,6.409,6.409,0,0,1-1.37-4.383v-.6A7.316,7.316,0,0,1,9.1,6.525a4.686,4.686,0,0,1,1.781-2.059,4.968,4.968,0,0,1,2.689-.726A5.209,5.209,0,0,1,17.109,4.9a4.575,4.575,0,0,1,1.519,3.192H15.722A2.165,2.165,0,0,0,15.166,6.5a2.287,2.287,0,0,0-1.594-.481,1.74,1.74,0,0,0-1.594.813,5.228,5.228,0,0,0-.531,2.6v.855a5.785,5.785,0,0,0,.486,2.764,1.777,1.777,0,0,0,1.673.83,2.237,2.237,0,0,0,1.536-.473,2.008,2.008,0,0,0,.564-1.5Zm.9-.481a5.3,5.3,0,0,1,.523-2.395,3.74,3.74,0,0,1,1.5-1.615,4.525,4.525,0,0,1,2.3-.564A4.13,4.13,0,0,1,27,8.1a4.794,4.794,0,0,1,1.162,3.4v.1A4.651,4.651,0,0,1,27,14.933a4.141,4.141,0,0,1-3.158,1.233,4.188,4.188,0,0,1-3.08-1.15A4.5,4.5,0,0,1,19.508,11.9Zm2.8.174a3.342,3.342,0,0,0,.39,1.826,1.3,1.3,0,0,0,1.154.581q1.494,0,1.527-2.3v-.282q0-2.416-1.544-2.416-1.4,0-1.519,2.083Zm11.8,1.876a.646.646,0,0,0-.374-.573,5.682,5.682,0,0,0-1.419-.448,6.473,6.473,0,0,1-1.727-.61,2.892,2.892,0,0,1-1.038-.917,2.19,2.19,0,0,1-.357-1.237,2.482,2.482,0,0,1,1.021-2.038,4.206,4.206,0,0,1,2.673-.8,4.66,4.66,0,0,1,2.855.805,2.518,2.518,0,0,1,1.079,2.117H34.009q0-1.079-1.137-1.079a1.127,1.127,0,0,0-.739.245.758.758,0,0,0-.3.61.7.7,0,0,0,.365.606,3.451,3.451,0,0,0,1.166.382,10.078,10.078,0,0,1,1.407.357,2.556,2.556,0,0,1,2.025,2.5,2.352,2.352,0,0,1-1.092,2,4.787,4.787,0,0,1-2.826.772,4.885,4.885,0,0,1-2.059-.415,3.442,3.442,0,0,1-1.411-1.129,2.556,2.556,0,0,1-.506-1.5h2.615a1.081,1.081,0,0,0,.415.909,1.707,1.707,0,0,0,1.021.286,1.343,1.343,0,0,0,.859-.232A.743.743,0,0,0,34.1,13.477Zm7.263-8.691V7.019h1.478V8.961H41.364V13.07a1.049,1.049,0,0,0,.183.706.98.98,0,0,0,.722.2,4.1,4.1,0,0,0,.7-.05v2a5.163,5.163,0,0,1-1.577.241,2.93,2.93,0,0,1-2.133-.681,2.79,2.79,0,0,1-.689-2.067V8.961H37.421V7.019h1.146V4.786Zm1.976,6.641a5.3,5.3,0,0,1,.523-2.395,3.74,3.74,0,0,1,1.5-1.615,4.525,4.525,0,0,1,2.3-.564A4.13,4.13,0,0,1,50.843,8.1a4.794,4.794,0,0,1,1.162,3.4v.1a4.651,4.651,0,0,1-1.166,3.333,4.141,4.141,0,0,1-3.158,1.233,4.188,4.188,0,0,1-3.08-1.15A4.5,4.5,0,0,1,43.347,11.9Zm2.8.174a3.342,3.342,0,0,0,.39,1.826,1.3,1.3,0,0,0,1.154.581q1.494,0,1.527-2.3v-.282q0-2.416-1.544-2.416-1.4,0-1.519,2.083Zm10.982-.158a5.486,5.486,0,0,1,.921-3.362,3.033,3.033,0,0,1,2.573-1.229,2.579,2.579,0,0,1,2.025.946V3.25h2.806V16H62.929l-.141-.963A2.649,2.649,0,0,1,60.6,16.166a3.027,3.027,0,0,1-2.54-1.229A5.66,5.66,0,0,1,57.118,11.443Zm2.8.174q0,2.391,1.395,2.391a1.377,1.377,0,0,0,1.328-.78V9.808a1.34,1.34,0,0,0-1.312-.8q-1.295,0-1.4,2.092Zm11.463,4.549a4.617,4.617,0,0,1-3.345-1.233,4.257,4.257,0,0,1-1.278-3.208v-.232a5.516,5.516,0,0,1,.51-2.432,3.735,3.735,0,0,1,1.49-1.631,4.5,4.5,0,0,1,2.324-.577,3.888,3.888,0,0,1,2.988,1.175,4.616,4.616,0,0,1,1.1,3.275v1.087H69.6a2.016,2.016,0,0,0,.656,1.187,1.951,1.951,0,0,0,1.312.432,2.514,2.514,0,0,0,2.075-.93l1.278,1.511a3.573,3.573,0,0,1-1.482,1.15A5.007,5.007,0,0,1,71.379,16.166Zm-.315-7.155q-1.229,0-1.461,1.627h2.822v-.216a1.386,1.386,0,0,0-.34-1.042A1.354,1.354,0,0,0,71.064,9.011ZM85.582,16a3.159,3.159,0,0,1-.266-.805,2.6,2.6,0,0,1-2.158.971A3.187,3.187,0,0,1,81,15.4a2.444,2.444,0,0,1-.888-1.93,2.512,2.512,0,0,1,1.079-2.208,5.5,5.5,0,0,1,3.138-.747h.863v-.475q0-1.243-1.071-1.243a.875.875,0,0,0-1,.984h-2.8a2.508,2.508,0,0,1,1.108-2.114,4.657,4.657,0,0,1,2.826-.813,4.083,4.083,0,0,1,2.714.838A2.915,2.915,0,0,1,88,9.99v3.976a4.072,4.072,0,0,0,.382,1.893V16ZM83.83,14.174a1.56,1.56,0,0,0,.867-.224,1.4,1.4,0,0,0,.494-.506V12.007h-.813q-1.461,0-1.461,1.312a.8.8,0,0,0,.257.618A.931.931,0,0,0,83.83,14.174ZM92.5,16H89.691V3.25H92.5Zm4.366-8.981.091,1.054a3.088,3.088,0,0,1,2.565-1.22,2.273,2.273,0,0,1,2.3,1.353,2.989,2.989,0,0,1,2.64-1.353q2.731,0,2.806,3.3V16h-2.806V10.331a1.712,1.712,0,0,0-.232-1,.989.989,0,0,0-.847-.315,1.325,1.325,0,0,0-1.237.739l.008.116V16H99.344V10.347a1.8,1.8,0,0,0-.224-1.021.987.987,0,0,0-.855-.315,1.342,1.342,0,0,0-1.229.739V16h-2.8V7.019ZM113.921,16a3.159,3.159,0,0,1-.266-.805,2.6,2.6,0,0,1-2.158.971,3.187,3.187,0,0,1-2.158-.768,2.444,2.444,0,0,1-.888-1.93,2.512,2.512,0,0,1,1.079-2.208,5.5,5.5,0,0,1,3.138-.747h.863v-.475q0-1.243-1.071-1.243a.875.875,0,0,0-1,.984h-2.8a2.508,2.508,0,0,1,1.108-2.114,4.657,4.657,0,0,1,2.826-.813,4.083,4.083,0,0,1,2.714.838,2.915,2.915,0,0,1,1.021,2.3v3.976a4.072,4.072,0,0,0,.382,1.893V16Zm-1.751-1.826a1.56,1.56,0,0,0,.867-.224,1.4,1.4,0,0,0,.494-.506V12.007h-.813q-1.461,0-1.461,1.312a.8.8,0,0,0,.257.618A.931.931,0,0,0,112.169,14.174Zm9.513-.166a1.244,1.244,0,0,0,.913-.32,1.172,1.172,0,0,0,.315-.892h2.623a3.105,3.105,0,0,1-1.058,2.424,3.937,3.937,0,0,1-2.727.946,3.986,3.986,0,0,1-3.088-1.229,4.841,4.841,0,0,1-1.129-3.4v-.116a5.471,5.471,0,0,1,.5-2.4,3.656,3.656,0,0,1,1.448-1.6,4.319,4.319,0,0,1,2.241-.56,3.887,3.887,0,0,1,2.781.971,3.445,3.445,0,0,1,1.029,2.631H122.91a1.536,1.536,0,0,0-.34-1.071,1.175,1.175,0,0,0-.913-.374q-1.087,0-1.27,1.386a9.782,9.782,0,0,0-.058,1.212,3.842,3.842,0,0,0,.324,1.876A1.121,1.121,0,0,0,121.682,14.008Zm9.38,2.158a4.617,4.617,0,0,1-3.345-1.233,4.257,4.257,0,0,1-1.278-3.208v-.232a5.516,5.516,0,0,1,.51-2.432,3.735,3.735,0,0,1,1.49-1.631,4.5,4.5,0,0,1,2.324-.577,3.888,3.888,0,0,1,2.988,1.175,4.616,4.616,0,0,1,1.1,3.275v1.087h-5.562a2.016,2.016,0,0,0,.656,1.187,1.951,1.951,0,0,0,1.312.432,2.514,2.514,0,0,0,2.075-.93l1.278,1.511a3.573,3.573,0,0,1-1.482,1.15A5.007,5.007,0,0,1,131.062,16.166Zm-.315-7.155q-1.229,0-1.461,1.627h2.822v-.216a1.386,1.386,0,0,0-.34-1.042A1.354,1.354,0,0,0,130.746,9.011Zm7.794-1.992.091,1.054a3.046,3.046,0,0,1,2.565-1.22,2.562,2.562,0,0,1,2.1.838,3.991,3.991,0,0,1,.718,2.523V16h-2.806V10.331a1.516,1.516,0,0,0-.274-1,1.267,1.267,0,0,0-1-.32,1.334,1.334,0,0,0-1.22.647V16h-2.8V7.019ZM150.618,16a3.158,3.158,0,0,1-.266-.805,2.6,2.6,0,0,1-2.158.971,3.187,3.187,0,0,1-2.158-.768,2.444,2.444,0,0,1-.888-1.93,2.512,2.512,0,0,1,1.079-2.208,5.5,5.5,0,0,1,3.138-.747h.863v-.475q0-1.243-1.071-1.243a.875.875,0,0,0-1,.984h-2.8a2.508,2.508,0,0,1,1.108-2.114,4.657,4.657,0,0,1,2.826-.813,4.083,4.083,0,0,1,2.714.838,2.915,2.915,0,0,1,1.021,2.3v3.976a4.072,4.072,0,0,0,.382,1.893V16Zm-1.751-1.826a1.56,1.56,0,0,0,.867-.224,1.4,1.4,0,0,0,.494-.506V12.007h-.813q-1.461,0-1.461,1.312a.8.8,0,0,0,.257.618A.931.931,0,0,0,148.867,14.174Zm8.359-7.155.091,1.054a3.088,3.088,0,0,1,2.565-1.22,2.273,2.273,0,0,1,2.3,1.353,2.989,2.989,0,0,1,2.64-1.353q2.731,0,2.806,3.3V16h-2.806V10.331a1.712,1.712,0,0,0-.232-1,.989.989,0,0,0-.847-.315,1.325,1.325,0,0,0-1.237.739l.008.116V16h-2.806V10.347a1.8,1.8,0,0,0-.224-1.021.987.987,0,0,0-.855-.315,1.342,1.342,0,0,0-1.229.739V16h-2.8V7.019ZM172.176,16H169.37V7.019h2.806ZM169.2,4.7a1.249,1.249,0,0,1,.432-.979,1.835,1.835,0,0,1,2.241,0,1.249,1.249,0,0,1,.432.979,1.249,1.249,0,0,1-.432.979,1.835,1.835,0,0,1-2.241,0A1.249,1.249,0,0,1,169.2,4.7Zm9.04,11.463a4.617,4.617,0,0,1-3.345-1.233,4.257,4.257,0,0,1-1.278-3.208v-.232a5.516,5.516,0,0,1,.51-2.432,3.735,3.735,0,0,1,1.49-1.631,4.5,4.5,0,0,1,2.324-.577,3.888,3.888,0,0,1,2.988,1.175,4.616,4.616,0,0,1,1.1,3.275v1.087h-5.562a2.016,2.016,0,0,0,.656,1.187,1.951,1.951,0,0,0,1.312.432,2.514,2.514,0,0,0,2.075-.93l1.278,1.511a3.573,3.573,0,0,1-1.482,1.15A5.007,5.007,0,0,1,178.243,16.166Zm-.315-7.155q-1.229,0-1.461,1.627h2.822v-.216a1.386,1.386,0,0,0-.34-1.042A1.354,1.354,0,0,0,177.928,9.011Zm7.794-1.992.091,1.054a3.046,3.046,0,0,1,2.565-1.22,2.562,2.562,0,0,1,2.1.838,3.991,3.991,0,0,1,.718,2.523V16h-2.806V10.331a1.516,1.516,0,0,0-.274-1,1.267,1.267,0,0,0-1-.32,1.334,1.334,0,0,0-1.22.647V16h-2.8V7.019ZM196,4.786V7.019h1.478V8.961H196V13.07a1.049,1.049,0,0,0,.183.706.98.98,0,0,0,.722.2,4.1,4.1,0,0,0,.7-.05v2a5.163,5.163,0,0,1-1.577.241,2.93,2.93,0,0,1-2.133-.681,2.79,2.79,0,0,1-.689-2.067V8.961h-1.146V7.019H193.2V4.786Zm1.976,6.641a5.3,5.3,0,0,1,.523-2.395A3.74,3.74,0,0,1,200,7.417a4.525,4.525,0,0,1,2.3-.564A4.13,4.13,0,0,1,205.478,8.1a4.794,4.794,0,0,1,1.162,3.4v.1a4.651,4.651,0,0,1-1.166,3.333,4.141,4.141,0,0,1-3.158,1.233,4.188,4.188,0,0,1-3.08-1.15,4.5,4.5,0,0,1-1.253-3.117Zm2.8.174a3.342,3.342,0,0,0,.39,1.826,1.3,1.3,0,0,0,1.154.581q1.494,0,1.527-2.3v-.282q0-2.416-1.544-2.416-1.4,0-1.519,2.083Z" transform="translate(682.378 5473.19)" fill="#12263f"/>
    <g transform="matrix(1, 0, 0, 1, 327, 5076)" filter="url(#Trazado_748569)">
      <g id="Trazado_748569-2" data-name="Trazado 748569" transform="translate(658.33 380.19)" fill="#57dbd8">
        <path d="M 216.1252746582031 75.80934143066406 L 10.54269027709961 75.80934143066406 C 5.280837535858154 75.80934143066406 1.000013828277588 70.10498809814453 1.000013828277588 63.09336853027344 L 1.000013828277588 13.71595764160156 C 1.000013828277588 6.704369068145752 5.280837535858154 1.0000159740448 10.54269027709961 1.0000159740448 L 216.1252746582031 1.0000159740448 C 221.3871307373047 1.0000159740448 225.6679840087891 6.704369068145752 225.6679840087891 13.71595764160156 L 225.6679840087891 63.09336853027344 C 225.6679840087891 70.10498809814453 221.3871307373047 75.80934143066406 216.1252746582031 75.80934143066406 Z" stroke="none"/>
        <path d="M 10.54269409179688 1.999984741210938 C 8.361984252929688 1.999984741210938 6.277633666992188 3.149284362792969 4.673568725585938 5.236137390136719 C 2.949478149414062 7.479164123535156 1.999984741210938 10.49069213867188 1.999984741210938 13.71595764160156 L 1.999984741210938 63.09336853027344 C 1.999984741210938 66.31863403320312 2.949478149414062 69.33016204833984 4.673568725585938 71.57316589355469 C 6.277633666992188 73.66001892089844 8.361984252929688 74.80931091308594 10.54269409179688 74.80931091308594 L 216.1252746582031 74.80931091308594 C 218.3059844970703 74.80931091308594 220.3903350830078 73.66001892089844 221.9943695068359 71.57316589355469 C 223.7184600830078 69.33016204833984 224.6679534912109 66.31863403320312 224.6679534912109 63.09336853027344 L 224.6679534912109 13.71595764160156 C 224.6679534912109 10.49069213867188 223.7184600830078 7.479164123535156 221.9943695068359 5.236137390136719 C 220.3903350830078 3.149284362792969 218.3059844970703 1.999984741210938 216.1252746582031 1.999984741210938 L 10.54269409179688 1.999984741210938 M 10.54269409179688 -1.52587890625e-05 L 216.1252746582031 -1.52587890625e-05 C 221.9478302001953 -1.52587890625e-05 226.6679534912109 6.140838623046875 226.6679534912109 13.71595764160156 L 226.6679534912109 63.09336853027344 C 226.6679534912109 70.66848754882812 221.9478302001953 76.80931091308594 216.1252746582031 76.80931091308594 L 10.54269409179688 76.80931091308594 C 4.720138549804688 76.80931091308594 -1.52587890625e-05 70.66848754882812 -1.52587890625e-05 63.09336853027344 L -1.52587890625e-05 13.71595764160156 C -1.52587890625e-05 6.140838623046875 4.720138549804688 -1.52587890625e-05 10.54269409179688 -1.52587890625e-05 Z" stroke="none" fill="#fff"/>
      </g>
    </g>
    <path id="Trazado_751347" data-name="Trazado 751347" d="M18.645,11.908a4.414,4.414,0,0,1-.681,2.229,4.108,4.108,0,0,1-1.747,1.5,5.947,5.947,0,0,1-2.569.531A4.746,4.746,0,0,1,9.9,14.614a6.409,6.409,0,0,1-1.37-4.383v-.6a7.316,7.316,0,0,1,.618-3.109,4.686,4.686,0,0,1,1.781-2.059,4.968,4.968,0,0,1,2.689-.726A5.209,5.209,0,0,1,17.151,4.9,4.575,4.575,0,0,1,18.67,8.089H15.764A2.165,2.165,0,0,0,15.208,6.5a2.287,2.287,0,0,0-1.594-.481,1.74,1.74,0,0,0-1.594.813,5.228,5.228,0,0,0-.531,2.6v.855a5.785,5.785,0,0,0,.486,2.764,1.777,1.777,0,0,0,1.673.83,2.237,2.237,0,0,0,1.536-.473,2.008,2.008,0,0,0,.564-1.5Zm.9-.481a5.3,5.3,0,0,1,.523-2.395,3.74,3.74,0,0,1,1.5-1.615,4.525,4.525,0,0,1,2.3-.564A4.13,4.13,0,0,1,27.045,8.1a4.794,4.794,0,0,1,1.162,3.4v.1a4.651,4.651,0,0,1-1.166,3.333,4.141,4.141,0,0,1-3.158,1.233,4.188,4.188,0,0,1-3.08-1.15A4.5,4.5,0,0,1,19.55,11.9Zm2.8.174a3.342,3.342,0,0,0,.39,1.826,1.3,1.3,0,0,0,1.154.581q1.494,0,1.527-2.3v-.282q0-2.416-1.544-2.416-1.4,0-1.519,2.083Zm11.8,1.876a.646.646,0,0,0-.374-.573,5.682,5.682,0,0,0-1.419-.448,6.473,6.473,0,0,1-1.727-.61,2.892,2.892,0,0,1-1.038-.917,2.19,2.19,0,0,1-.357-1.237,2.482,2.482,0,0,1,1.021-2.038,4.206,4.206,0,0,1,2.673-.8,4.66,4.66,0,0,1,2.855.805,2.518,2.518,0,0,1,1.079,2.117H34.051q0-1.079-1.137-1.079a1.127,1.127,0,0,0-.739.245.758.758,0,0,0-.3.61.7.7,0,0,0,.365.606,3.451,3.451,0,0,0,1.166.382,10.078,10.078,0,0,1,1.407.357,2.556,2.556,0,0,1,2.025,2.5,2.352,2.352,0,0,1-1.092,2,4.787,4.787,0,0,1-2.826.772,4.885,4.885,0,0,1-2.059-.415,3.442,3.442,0,0,1-1.411-1.129,2.556,2.556,0,0,1-.506-1.5h2.615a1.081,1.081,0,0,0,.415.909A1.707,1.707,0,0,0,33,14.315a1.343,1.343,0,0,0,.859-.232A.743.743,0,0,0,34.142,13.477Zm7.263-8.691V7.019h1.478V8.961H41.406V13.07a1.049,1.049,0,0,0,.183.706.98.98,0,0,0,.722.2,4.1,4.1,0,0,0,.7-.05v2a5.163,5.163,0,0,1-1.577.241,2.93,2.93,0,0,1-2.133-.681,2.79,2.79,0,0,1-.689-2.067V8.961H37.463V7.019h1.146V4.786Zm1.976,6.641A5.3,5.3,0,0,1,43.9,9.031a3.74,3.74,0,0,1,1.5-1.615,4.525,4.525,0,0,1,2.3-.564A4.13,4.13,0,0,1,50.885,8.1a4.794,4.794,0,0,1,1.162,3.4v.1a4.651,4.651,0,0,1-1.166,3.333,4.141,4.141,0,0,1-3.158,1.233,4.188,4.188,0,0,1-3.08-1.15A4.5,4.5,0,0,1,43.389,11.9Zm2.8.174a3.342,3.342,0,0,0,.39,1.826,1.3,1.3,0,0,0,1.154.581q1.494,0,1.527-2.3v-.282q0-2.416-1.544-2.416-1.4,0-1.519,2.083Zm11.8,1.876a.646.646,0,0,0-.374-.573,5.682,5.682,0,0,0-1.419-.448,6.473,6.473,0,0,1-1.727-.61,2.892,2.892,0,0,1-1.038-.917,2.19,2.19,0,0,1-.357-1.237,2.482,2.482,0,0,1,1.021-2.038,4.206,4.206,0,0,1,2.673-.8,4.66,4.66,0,0,1,2.855.805A2.518,2.518,0,0,1,60.7,9.774H57.891q0-1.079-1.137-1.079a1.127,1.127,0,0,0-.739.245.758.758,0,0,0-.3.61.7.7,0,0,0,.365.606,3.451,3.451,0,0,0,1.166.382,10.078,10.078,0,0,1,1.407.357,2.556,2.556,0,0,1,2.025,2.5,2.352,2.352,0,0,1-1.092,2,4.787,4.787,0,0,1-2.826.772,4.885,4.885,0,0,1-2.059-.415,3.442,3.442,0,0,1-1.411-1.129,2.556,2.556,0,0,1-.506-1.5H55.4a1.081,1.081,0,0,0,.415.909,1.707,1.707,0,0,0,1.021.286,1.343,1.343,0,0,0,.859-.232A.743.743,0,0,0,57.982,13.477Zm7.886-2.034a5.486,5.486,0,0,1,.921-3.362,3.033,3.033,0,0,1,2.573-1.229,2.579,2.579,0,0,1,2.025.946V3.25h2.806V16H71.678l-.141-.963a2.649,2.649,0,0,1-2.191,1.129,3.027,3.027,0,0,1-2.54-1.229A5.66,5.66,0,0,1,65.868,11.443Zm2.8.174q0,2.391,1.395,2.391a1.377,1.377,0,0,0,1.328-.78V9.808a1.34,1.34,0,0,0-1.312-.8q-1.295,0-1.4,2.092Zm11.463,4.549a4.617,4.617,0,0,1-3.345-1.233,4.257,4.257,0,0,1-1.278-3.208v-.232a5.516,5.516,0,0,1,.51-2.432,3.735,3.735,0,0,1,1.49-1.631,4.5,4.5,0,0,1,2.324-.577,3.888,3.888,0,0,1,2.988,1.175,4.616,4.616,0,0,1,1.1,3.275v1.087H78.352a2.016,2.016,0,0,0,.656,1.187,1.951,1.951,0,0,0,1.312.432,2.514,2.514,0,0,0,2.075-.93l1.278,1.511a3.573,3.573,0,0,1-1.482,1.15A5.007,5.007,0,0,1,80.129,16.166Zm-.315-7.155q-1.229,0-1.461,1.627h2.822v-.216a1.386,1.386,0,0,0-.34-1.042A1.354,1.354,0,0,0,79.813,9.011ZM94.331,16a3.159,3.159,0,0,1-.266-.805,2.6,2.6,0,0,1-2.158.971,3.187,3.187,0,0,1-2.158-.768,2.444,2.444,0,0,1-.888-1.93A2.512,2.512,0,0,1,89.94,11.26a5.5,5.5,0,0,1,3.138-.747h.863v-.475q0-1.243-1.071-1.243a.875.875,0,0,0-1,.984h-2.8a2.508,2.508,0,0,1,1.108-2.114,4.657,4.657,0,0,1,2.826-.813,4.083,4.083,0,0,1,2.714.838,2.915,2.915,0,0,1,1.021,2.3v3.976a4.072,4.072,0,0,0,.382,1.893V16ZM92.58,14.174a1.56,1.56,0,0,0,.867-.224,1.4,1.4,0,0,0,.494-.506V12.007h-.813q-1.461,0-1.461,1.312a.8.8,0,0,0,.257.618A.931.931,0,0,0,92.58,14.174Zm5.362-2.731a5.486,5.486,0,0,1,.921-3.362,3.033,3.033,0,0,1,2.573-1.229,2.579,2.579,0,0,1,2.025.946V3.25h2.806V16h-2.515l-.141-.963a2.649,2.649,0,0,1-2.191,1.129,3.027,3.027,0,0,1-2.54-1.229A5.66,5.66,0,0,1,97.942,11.443Zm2.8.174q0,2.391,1.395,2.391a1.377,1.377,0,0,0,1.328-.78V9.808a1.34,1.34,0,0,0-1.312-.8q-1.295,0-1.4,2.092Zm9.762-4.6.091,1.054a3.088,3.088,0,0,1,2.565-1.22,2.273,2.273,0,0,1,2.3,1.353,2.989,2.989,0,0,1,2.64-1.353q2.731,0,2.806,3.3V16H118.1V10.331a1.712,1.712,0,0,0-.232-1,.989.989,0,0,0-.847-.315,1.325,1.325,0,0,0-1.237.739l.008.116V16h-2.806V10.347a1.8,1.8,0,0,0-.224-1.021.987.987,0,0,0-.855-.315,1.342,1.342,0,0,0-1.229.739V16h-2.8V7.019ZM125.451,16h-2.806V7.019h2.806ZM122.479,4.7a1.249,1.249,0,0,1,.432-.979,1.835,1.835,0,0,1,2.241,0,1.249,1.249,0,0,1,.432.979,1.249,1.249,0,0,1-.432.979,1.835,1.835,0,0,1-2.241,0A1.249,1.249,0,0,1,122.479,4.7Zm7.263,2.316.091,1.054a3.046,3.046,0,0,1,2.565-1.22,2.562,2.562,0,0,1,2.1.838,3.991,3.991,0,0,1,.718,2.523V16h-2.806V10.331a1.516,1.516,0,0,0-.274-1,1.267,1.267,0,0,0-1-.32,1.334,1.334,0,0,0-1.22.647V16h-2.8V7.019ZM139.712,16h-2.806V7.019h2.806ZM136.74,4.7a1.249,1.249,0,0,1,.432-.979,1.835,1.835,0,0,1,2.241,0,1.249,1.249,0,0,1,.432.979,1.249,1.249,0,0,1-.432.979,1.835,1.835,0,0,1-2.241,0A1.249,1.249,0,0,1,136.74,4.7Zm9.4,8.774a.646.646,0,0,0-.374-.573,5.682,5.682,0,0,0-1.419-.448,6.473,6.473,0,0,1-1.727-.61,2.892,2.892,0,0,1-1.038-.917,2.19,2.19,0,0,1-.357-1.237,2.482,2.482,0,0,1,1.021-2.038,4.206,4.206,0,0,1,2.673-.8,4.66,4.66,0,0,1,2.855.805,2.518,2.518,0,0,1,1.079,2.117h-2.806q0-1.079-1.137-1.079a1.127,1.127,0,0,0-.739.245.758.758,0,0,0-.3.61.7.7,0,0,0,.365.606,3.451,3.451,0,0,0,1.166.382,10.079,10.079,0,0,1,1.407.357,2.556,2.556,0,0,1,2.025,2.5,2.352,2.352,0,0,1-1.092,2,4.787,4.787,0,0,1-2.826.772,4.885,4.885,0,0,1-2.059-.415,3.442,3.442,0,0,1-1.411-1.129,2.556,2.556,0,0,1-.506-1.5h2.615a1.081,1.081,0,0,0,.415.909,1.707,1.707,0,0,0,1.021.286,1.343,1.343,0,0,0,.859-.232A.743.743,0,0,0,146.136,13.477ZM153.4,4.786V7.019h1.478V8.961H153.4V13.07a1.049,1.049,0,0,0,.183.706.98.98,0,0,0,.722.2,4.1,4.1,0,0,0,.7-.05v2a5.163,5.163,0,0,1-1.577.241,2.93,2.93,0,0,1-2.133-.681,2.79,2.79,0,0,1-.689-2.067V8.961h-1.146V7.019H150.6V4.786Zm8.01,4.765-.921-.066a1.655,1.655,0,0,0-1.693.83V16H156V7.019h2.623l.091,1.154a2.166,2.166,0,0,1,1.967-1.32,2.728,2.728,0,0,1,.78.1ZM167.229,16a3.158,3.158,0,0,1-.266-.805,2.6,2.6,0,0,1-2.158.971,3.187,3.187,0,0,1-2.158-.768,2.444,2.444,0,0,1-.888-1.93,2.512,2.512,0,0,1,1.079-2.208,5.5,5.5,0,0,1,3.138-.747h.863v-.475q0-1.243-1.071-1.243a.875.875,0,0,0-1,.984h-2.8a2.508,2.508,0,0,1,1.108-2.114,4.657,4.657,0,0,1,2.826-.813,4.083,4.083,0,0,1,2.714.838,2.915,2.915,0,0,1,1.021,2.3v3.976a4.072,4.072,0,0,0,.382,1.893V16Zm-1.751-1.826a1.56,1.56,0,0,0,.867-.224,1.4,1.4,0,0,0,.494-.506V12.007h-.813q-1.461,0-1.461,1.312a.8.8,0,0,0,.257.618A.931.931,0,0,0,165.477,14.174Zm9.513-.166a1.244,1.244,0,0,0,.913-.32,1.172,1.172,0,0,0,.315-.892h2.623a3.105,3.105,0,0,1-1.058,2.424,3.937,3.937,0,0,1-2.727.946,3.986,3.986,0,0,1-3.088-1.229,4.84,4.84,0,0,1-1.129-3.4v-.116a5.471,5.471,0,0,1,.5-2.4,3.656,3.656,0,0,1,1.448-1.6,4.319,4.319,0,0,1,2.241-.56,3.887,3.887,0,0,1,2.781.971,3.445,3.445,0,0,1,1.029,2.631h-2.623a1.536,1.536,0,0,0-.34-1.071,1.175,1.175,0,0,0-.913-.374q-1.087,0-1.27,1.386a9.781,9.781,0,0,0-.058,1.212,3.842,3.842,0,0,0,.324,1.876A1.121,1.121,0,0,0,174.99,14.008ZM182.975,16H180.17V7.019h2.806ZM180,4.7a1.249,1.249,0,0,1,.432-.979,1.835,1.835,0,0,1,2.241,0,1.249,1.249,0,0,1,.432.979,1.249,1.249,0,0,1-.432.979,1.835,1.835,0,0,1-2.241,0A1.249,1.249,0,0,1,180,4.7Zm4.341,6.724a5.3,5.3,0,0,1,.523-2.395,3.74,3.74,0,0,1,1.5-1.615,4.525,4.525,0,0,1,2.3-.564A4.13,4.13,0,0,1,191.849,8.1a4.794,4.794,0,0,1,1.162,3.4v.1a4.651,4.651,0,0,1-1.166,3.333,4.141,4.141,0,0,1-3.158,1.233,4.188,4.188,0,0,1-3.08-1.15,4.5,4.5,0,0,1-1.253-3.117Zm2.8.174a3.342,3.342,0,0,0,.39,1.826,1.3,1.3,0,0,0,1.154.581q1.494,0,1.527-2.3v-.282q0-2.416-1.544-2.416-1.4,0-1.519,2.083Zm1.909-8.351h2.955L189.7,5.856l-2.283,0Zm7.761,3.769.091,1.054a3.046,3.046,0,0,1,2.565-1.22,2.562,2.562,0,0,1,2.1.838,3.991,3.991,0,0,1,.718,2.523V16h-2.806V10.331a1.516,1.516,0,0,0-.274-1,1.267,1.267,0,0,0-1-.32,1.334,1.334,0,0,0-1.22.647V16h-2.8V7.019ZM76.277,41H73.471V28.25h2.806Zm1.37-4.574a5.3,5.3,0,0,1,.523-2.395,3.74,3.74,0,0,1,1.5-1.615,4.525,4.525,0,0,1,2.3-.564A4.13,4.13,0,0,1,85.151,33.1a4.794,4.794,0,0,1,1.162,3.4v.1a4.651,4.651,0,0,1-1.166,3.333,4.141,4.141,0,0,1-3.158,1.233,4.188,4.188,0,0,1-3.08-1.15A4.5,4.5,0,0,1,77.655,36.9Zm2.8.174a3.342,3.342,0,0,0,.39,1.826,1.3,1.3,0,0,0,1.154.581q1.494,0,1.527-2.3v-.282q0-2.416-1.544-2.416-1.4,0-1.519,2.083Zm6.773-.158a6.064,6.064,0,0,1,.448-2.407,3.608,3.608,0,0,1,1.287-1.615,3.392,3.392,0,0,1,1.951-.569,2.7,2.7,0,0,1,2.191.946l.1-.78h2.54V40.66a3.787,3.787,0,0,1-.552,2.063,3.542,3.542,0,0,1-1.6,1.345,5.873,5.873,0,0,1-2.424.469,5.067,5.067,0,0,1-1.913-.374,3.454,3.454,0,0,1-1.415-.971L89,41.548a2.565,2.565,0,0,0,2.059.921A1.666,1.666,0,0,0,92.92,40.56v-.282a2.627,2.627,0,0,1-2.034.888,3.246,3.246,0,0,1-2.656-1.258,5.21,5.21,0,0,1-1.013-3.366Zm2.806.174a3.2,3.2,0,0,0,.415,1.747,1.309,1.309,0,0,0,1.162.643,1.486,1.486,0,0,0,1.32-.606V34.625a1.449,1.449,0,0,0-1.3-.614,1.318,1.318,0,0,0-1.17.668A3.644,3.644,0,0,0,90.023,36.617ZM100.374,41H97.56V32.019h2.814ZM99.328,28.416h2.955l-2.308,2.606-2.283,0Zm7.545,10.061a.646.646,0,0,0-.374-.573,5.682,5.682,0,0,0-1.419-.448,6.473,6.473,0,0,1-1.727-.61,2.892,2.892,0,0,1-1.038-.917,2.19,2.19,0,0,1-.357-1.237,2.482,2.482,0,0,1,1.021-2.038,4.206,4.206,0,0,1,2.673-.8,4.66,4.66,0,0,1,2.855.805,2.518,2.518,0,0,1,1.079,2.117h-2.806q0-1.079-1.137-1.079a1.127,1.127,0,0,0-.739.245.758.758,0,0,0-.3.61.7.7,0,0,0,.365.606,3.451,3.451,0,0,0,1.166.382,10.078,10.078,0,0,1,1.407.357,2.556,2.556,0,0,1,2.025,2.5,2.352,2.352,0,0,1-1.092,2,4.787,4.787,0,0,1-2.826.772,4.885,4.885,0,0,1-2.059-.415,3.442,3.442,0,0,1-1.411-1.129,2.556,2.556,0,0,1-.506-1.5h2.615a1.081,1.081,0,0,0,.415.909,1.707,1.707,0,0,0,1.021.286,1.343,1.343,0,0,0,.859-.232A.743.743,0,0,0,106.874,38.477Zm7.263-8.691v2.233h1.478v1.942h-1.478V38.07a1.049,1.049,0,0,0,.183.706.98.98,0,0,0,.722.2,4.1,4.1,0,0,0,.7-.05v2a5.163,5.163,0,0,1-1.577.241,2.93,2.93,0,0,1-2.133-.681,2.79,2.79,0,0,1-.689-2.067V33.961h-1.146V32.019h1.146V29.786ZM119.665,41H116.86V32.019h2.806Zm-2.972-11.3a1.249,1.249,0,0,1,.432-.979,1.835,1.835,0,0,1,2.241,0,1.327,1.327,0,0,1,0,1.959,1.835,1.835,0,0,1-2.241,0A1.249,1.249,0,0,1,116.694,29.7Zm8.492,9.305a1.244,1.244,0,0,0,.913-.32,1.172,1.172,0,0,0,.315-.892h2.623a3.105,3.105,0,0,1-1.058,2.424,3.937,3.937,0,0,1-2.727.946,3.986,3.986,0,0,1-3.088-1.229,4.841,4.841,0,0,1-1.129-3.4v-.116a5.471,5.471,0,0,1,.5-2.4,3.656,3.656,0,0,1,1.448-1.6,4.319,4.319,0,0,1,2.241-.56,3.887,3.887,0,0,1,2.781.971,3.445,3.445,0,0,1,1.029,2.631h-2.623a1.536,1.536,0,0,0-.34-1.071,1.175,1.175,0,0,0-.913-.374q-1.087,0-1.27,1.386a9.782,9.782,0,0,0-.058,1.212,3.842,3.842,0,0,0,.324,1.876A1.121,1.121,0,0,0,125.185,39.008ZM135.279,41a3.158,3.158,0,0,1-.266-.805,2.6,2.6,0,0,1-2.158.971A3.187,3.187,0,0,1,130.7,40.4a2.444,2.444,0,0,1-.888-1.93,2.512,2.512,0,0,1,1.079-2.208,5.5,5.5,0,0,1,3.138-.747h.863v-.475q0-1.243-1.071-1.243a.875.875,0,0,0-1,.984h-2.8a2.508,2.508,0,0,1,1.108-2.114,4.657,4.657,0,0,1,2.826-.813,4.083,4.083,0,0,1,2.714.838,2.915,2.915,0,0,1,1.021,2.3v3.976a4.072,4.072,0,0,0,.382,1.893V41Zm-1.751-1.826a1.56,1.56,0,0,0,.867-.224,1.4,1.4,0,0,0,.494-.506V37.007h-.813q-1.461,0-1.461,1.312a.8.8,0,0,0,.257.618A.931.931,0,0,0,133.528,39.174Z" transform="translate(993.166 5473.19)" fill="#12263f"/>
    <path id="Trazado_740583" data-name="Trazado 740583" d="M411.973,143.974h-5l.021,6.232h-4.755l7.232,12.883,7.232-12.883h-4.754Z" transform="translate(380.757 5094.77)" fill="#1a0f91"/>
    <path id="Trazado_751348" data-name="Trazado 751348" d="M0,0H5V36H0Z" transform="translate(787.731 5203)" fill="#1a0f91"/>
    <path id="Trazado_740583-2" data-name="Trazado 740583" d="M411.973,143.974h-5l.021,6.232h-4.755l7.232,12.883,7.232-12.883h-4.754Z" transform="translate(116.607 5286.53)" fill="#1a0f91"/>
    <path id="Trazado_751349" data-name="Trazado 751349" d="M0,0H5V36H0Z" transform="translate(523.582 5394.761)" fill="#1a0f91"/>
    <path id="Trazado_740583-3" data-name="Trazado 740583" d="M411.973,143.974h-5l.021,6.232h-4.755l7.232,12.883,7.232-12.883h-4.754Z" transform="translate(380.757 5287.27)" fill="#1a0f91"/>
    <path id="Trazado_751350" data-name="Trazado 751350" d="M0,0H5V36H0Z" transform="translate(787.731 5395.5)" fill="#1a0f91"/>
    <path id="Trazado_751351" data-name="Trazado 751351" d="M0,0V36" transform="translate(790.232 5359)" fill="none" stroke="#1a0f91" stroke-width="5"/>
    <path id="Trazado_751352" data-name="Trazado 751352" d="M0,0H0" transform="translate(800 5395)" fill="none" stroke="#57dbd8" stroke-width="1"/>
    <path id="Trazado_740583-4" data-name="Trazado 740583" d="M412.646,143.974H407.3l.022,6.232h-5.083l7.732,12.883,7.732-12.883h-5.083Z" transform="translate(688.69 5287.27)" fill="#1a0f91"/>
    <path id="Trazado_751353" data-name="Trazado 751353" d="M0,0H5V36H0Z" transform="translate(1096.165 5395.5)" fill="#1a0f91"/>
    <path id="Trazado_751354" data-name="Trazado 751354" d="M0,0H577" transform="translate(523.5 5394.5)" fill="none" stroke="#1a0f91" stroke-width="5"/>
    <path id="Trazado_751355" data-name="Trazado 751355" d="M0,0H2V10H0Z" transform="translate(1099 5392)" fill="#1a0f91"/>
  </g>
</svg>
